<svg xmlns="http://www.w3.org/2000/svg" viewBox="0 0 64 48"><g fill="#FFF" fill-rule="evenodd"><path d="M55.828 36.334H42.515s.146 7.222.316 7.222h16.306l-3.309-7.222z"/><path d="M54.828 28.24l.013-2.798c0-.54.313-.854.859-.854h1.68v-4.315h-5c-1.836 0-2.655.815-2.655 2.64v5.323l7.72 13.351s.417.782.269.996c-.148.214-1.041.18-1.041.18H43.489V22.916c0-1.825-.819-2.64-2.656-2.64h-5.002v4.315h1.68c.542 0 .858.311.858.854v6.526h-9.13v-9.055c0-1.825-.78-2.64-2.655-2.64h-4.998v4.315h1.68c.542 0 .859.311.859.854v22.406h5.116V36.277h9.13v8.667c0 1.607 1.31 2.91 2.927 2.91h18.725s2.892.142 3.796-2.376c.597-2.37-.828-4.372-.828-4.372l-8.163-12.867z"/><path fill-rule="nonzero" d="M20.505 42.648l-2.693-5.321a3.163 3.163 0 0 0-1.36-1.399v-.079c1.172-.232 4.61-2.29 4.61-7.263 0-5.204-3.554-8.31-8.633-8.31H0v4.314h2.531v23.26h5.116V37.56h2.586c1.446 0 2.032.194 2.616 1.281l3.554 6.952c.904 1.748 1.797 2.059 3.867 2.059h2.69v-4.315h-.506c-.855.004-1.518-.074-1.949-.888zm-8.788-9.438h-4.06v-8.63h4.14c2.5 0 4.022 1.554 4.022 4.272 0 2.763-1.524 4.356-4.102 4.356v.002z"/><path d="M.132 18.973L3.254 1.258h2.423L2.929 16.791h7.123l-.407 2.175z"/><path fill-rule="nonzero" d="M14.886 13.663a11.656 11.656 0 0 1-2.23-.205c0 2.984 1.424 3.745 3.23 3.745a8.754 8.754 0 0 0 3.435-.734l-.101 1.798c-.942.43-2.316.962-3.943.962-3.46 0-5.088-2.353-5.088-5.363 0-3.92 2.723-7.538 6.793-7.538 2.417 0 3.713 1.29 3.713 3.162 0 1.872-1.33 4.173-5.809 4.173zm-1.988-1.798c.542.076.661.254 1.78.254 3.054 0 3.893-1.341 3.893-2.354 0-1.012-.839-1.416-1.832-1.416-1.572 0-2.972 1.062-3.838 3.516h-.003z"/><path d="M20.686 18.973l3.13-17.715h3.254l-2.567 14.578h6.893l-.56 3.137z"/><path fill-rule="nonzero" d="M43.175 14.975c-.06.318-.095.64-.102.962 0 .708.306.708 1.248.708l-.712 2.58c-2.595 0-3.074-.253-3.714-1.467a5.119 5.119 0 0 1-3.637 1.467c-3.029 0-4.81-2.303-4.81-5.413 0-3.87 2.749-7.69 7.353-7.69 1.298 0 1.958.303 2.595.834l.361-.633h2.893l-1.475 8.652zM34.73 13.56c0 1.846.738 3.086 2.493 3.086 2.824 0 3.435-3.137 3.435-5.058 0-1.771-.508-2.877-2.137-2.877-2.265-.007-3.791 2.193-3.791 4.849zM47.88 18.265l-.151.708h-2.976L48.11 0h3.18l-1.247 6.957a4.809 4.809 0 0 1 2.85-.834c3.46 0 5.061 2.353 5.061 5.393 0 3.896-2.672 7.716-7.352 7.716-1.398-.007-1.984-.356-2.721-.967zm.865-4.494c0 1.77.542 2.876 2.17 2.876 2.288 0 3.796-2.225 3.796-4.832 0-1.846-.738-3.112-2.493-3.112-2.708 0-3.471 2.934-3.471 5.059l-.002.009z"/><ellipse cx="48.228" cy="32.678" rx="2.238" ry="2.226"/><ellipse cx="46.015" cy="28.325" rx="1.24" ry="1.233"/><ellipse cx="47.121" cy="24.422" rx="1" ry="1"/></g></svg>