<svg xmlns="http://www.w3.org/2000/svg" xmlns:xlink="http://www.w3.org/1999/xlink" viewBox="0 0 1440 655"><defs><linearGradient id="b" x1="0%" x2="100%" y1="0%" y2="93.756%"><stop offset="0%" stop-color="#9F2FFD"/><stop offset="18.77%" stop-color="#562FFD"/><stop offset="74.366%" stop-color="#4897FF"/><stop offset="100%" stop-color="#48D3FF"/></linearGradient><path id="a" d="M0 0h1440v398.264c-171.297 132.974-301.121 291.431-603.082 207.955C609 543.21 434.497 527.722 201.436 527.722 67.146 527.722 0 351.815 0 0z"/><linearGradient id="d" x1="53.46%" x2="2.816%" y1="95.731%" y2="12.872%"><stop offset="0%" stop-color="#333665"/><stop offset="57.197%" stop-color="#008FFC"/><stop offset="100%" stop-color="#00CDF3"/></linearGradient><path id="e" d="M188.765 358.526l5.18-4.038V12H315.71v344.8l4.814 3.82V7.096h-131.76z"/><linearGradient id="f" x1="-6.285%" x2="100.527%" y1="78.125%" y2="24.719%"><stop offset="6%" stop-color="#DF9AA6"/><stop offset="100%" stop-color="#7849E3"/></linearGradient><linearGradient id="g" x1="-24.148%" x2="63.813%" y1="83.434%" y2="33.771%"><stop offset="0%" stop-color="#4D71FE"/><stop offset="100%" stop-color="#3E2EC2"/></linearGradient><linearGradient id="h" x1="100%" x2="15.328%" y1="100%" y2="0%"><stop offset="0%" stop-color="#EA46A1"/><stop offset="100%" stop-color="#FFD656"/></linearGradient><linearGradient id="i" x1="15.305%" x2="90.713%" y1="17.932%" y2="100%"><stop offset="0%" stop-color="#FDC95C"/><stop offset="69.403%" stop-color="#562FFD"/><stop offset="100%" stop-color="#562FFD"/></linearGradient><linearGradient id="j" x1="83.615%" x2="-13.093%" y1="37.626%" y2="73.695%"><stop offset="0%" stop-color="#DF6B7D"/><stop offset="2%" stop-color="#D5687C"/><stop offset="11%" stop-color="#AA5B76"/><stop offset="20%" stop-color="#854F70"/><stop offset="30%" stop-color="#67466C"/><stop offset="40%" stop-color="#503F69"/><stop offset="51%" stop-color="#403A67"/><stop offset="63%" stop-color="#363765"/><stop offset="79%" stop-color="#333665"/><stop offset="93%" stop-color="#2F3043"/><stop offset="100%" stop-color="#2D2D2F"/></linearGradient><linearGradient id="k" x1="87.768%" x2="5.368%" y1="81.951%" y2="-59.321%"><stop offset="0%" stop-color="#DF6B7D"/><stop offset="2%" stop-color="#D5687C"/><stop offset="11%" stop-color="#AA5B76"/><stop offset="20%" stop-color="#854F70"/><stop offset="30%" stop-color="#67466C"/><stop offset="40%" stop-color="#503F69"/><stop offset="51%" stop-color="#403A67"/><stop offset="63%" stop-color="#363765"/><stop offset="79%" stop-color="#333665"/><stop offset="93%" stop-color="#2F3043"/><stop offset="100%" stop-color="#2D2D2F"/></linearGradient><linearGradient id="l" x1="-87.041%" x2="312.149%" y1="87.711%" y2="-48.699%"><stop offset="0%" stop-color="#DF6B7D"/><stop offset="2%" stop-color="#D5687C"/><stop offset="11%" stop-color="#AA5B76"/><stop offset="20%" stop-color="#854F70"/><stop offset="30%" stop-color="#67466C"/><stop offset="40%" stop-color="#503F69"/><stop offset="51%" stop-color="#403A67"/><stop offset="63%" stop-color="#363765"/><stop offset="79%" stop-color="#333665"/><stop offset="93%" stop-color="#2F3043"/><stop offset="100%" stop-color="#2D2D2F"/></linearGradient><linearGradient id="m" x1="2.951%" x2="145.476%" y1="92.272%" y2="-59.337%"><stop offset="0%" stop-color="#DF6B7D"/><stop offset="2%" stop-color="#D5687C"/><stop offset="11%" stop-color="#AA5B76"/><stop offset="20%" stop-color="#854F70"/><stop offset="30%" stop-color="#67466C"/><stop offset="40%" stop-color="#503F69"/><stop offset="51%" stop-color="#403A67"/><stop offset="63%" stop-color="#363765"/><stop offset="79%" stop-color="#333665"/><stop offset="93%" stop-color="#2F3043"/><stop offset="100%" stop-color="#2D2D2F"/></linearGradient><linearGradient id="n" x1="15.61%" x2="148.951%" y1="82.192%" y2="-37.804%"><stop offset="0%" stop-color="#DF6B7D"/><stop offset="2%" stop-color="#D5687C"/><stop offset="11%" stop-color="#AA5B76"/><stop offset="20%" stop-color="#854F70"/><stop offset="30%" stop-color="#67466C"/><stop offset="40%" stop-color="#503F69"/><stop offset="51%" stop-color="#403A67"/><stop offset="63%" stop-color="#363765"/><stop offset="79%" stop-color="#333665"/><stop offset="93%" stop-color="#2F3043"/><stop offset="100%" stop-color="#2D2D2F"/></linearGradient><linearGradient id="o" x1="-31.355%" x2="184.387%" y1="88.844%" y2="-52.305%"><stop offset="0%" stop-color="#DF6B7D"/><stop offset="2%" stop-color="#D5687C"/><stop offset="11%" stop-color="#AA5B76"/><stop offset="20%" stop-color="#854F70"/><stop offset="30%" stop-color="#67466C"/><stop offset="40%" stop-color="#503F69"/><stop offset="51%" stop-color="#403A67"/><stop offset="63%" stop-color="#363765"/><stop offset="79%" stop-color="#333665"/><stop offset="93%" stop-color="#2F3043"/><stop offset="100%" stop-color="#2D2D2F"/></linearGradient><linearGradient id="p" x1="83.485%" x2="-14.449%" y1="36.462%" y2="62.845%"><stop offset="0%" stop-color="#FFD656"/><stop offset="100%" stop-color="#DF6B7D"/></linearGradient><linearGradient id="q" x1="39.925%" x2="86.099%" y1="33.937%" y2="84.463%"><stop offset="0%" stop-color="#6FBEE8"/><stop offset="48%" stop-color="#2964EC"/><stop offset="100%" stop-color="#2D2D2F"/></linearGradient><linearGradient id="r" x1="3.142%" x2="64.163%" y1="24.006%" y2="63.896%"><stop offset="0%" stop-color="#6FBEE8"/><stop offset="100%" stop-color="#2964EC"/></linearGradient><linearGradient id="s" x1="-7.091%" x2="62.279%" y1="35.937%" y2="55.628%"><stop offset="0%" stop-color="#EEB47B"/><stop offset="100%" stop-color="#DF6B7D"/></linearGradient><linearGradient id="t" x1="38.839%" x2="52.334%" y1="-18.02%" y2="63.821%"><stop offset="0%" stop-color="#EEB47B"/><stop offset="100%" stop-color="#DF6B7D"/></linearGradient><linearGradient id="u" x1="12.557%" x2="67.474%" y1="19.033%" y2="62.595%"><stop offset="35%" stop-color="#DF6B7D"/><stop offset="43%" stop-color="#B95F78"/><stop offset="55%" stop-color="#804E70"/><stop offset="66%" stop-color="#56416A"/><stop offset="74%" stop-color="#3C3966"/><stop offset="79%" stop-color="#333665"/><stop offset="93%" stop-color="#2D2D2F"/></linearGradient><linearGradient id="v" x1="29.458%" x2="89.827%" y1="38.728%" y2="68.475%"><stop offset="0%" stop-color="#DF6B7D"/><stop offset="17%" stop-color="#B95F78"/><stop offset="45%" stop-color="#804E70"/><stop offset="70%" stop-color="#56416A"/><stop offset="89%" stop-color="#3C3966"/><stop offset="100%" stop-color="#333665"/></linearGradient><linearGradient id="w" x1="-1.372%" x2="77.509%" y1="34.669%" y2="54.843%"><stop offset="0%" stop-color="#DF6B7D"/><stop offset="2%" stop-color="#D5687C"/><stop offset="11%" stop-color="#AA5B76"/><stop offset="20%" stop-color="#854F70"/><stop offset="30%" stop-color="#67466C"/><stop offset="40%" stop-color="#503F69"/><stop offset="51%" stop-color="#403A67"/><stop offset="63%" stop-color="#363765"/><stop offset="79%" stop-color="#333665"/><stop offset="93%" stop-color="#2F3043"/><stop offset="100%" stop-color="#2D2D2F"/></linearGradient><linearGradient id="x" x1="36.432%" x2="75.154%" y1="66.041%" y2="33.833%"><stop offset="0%" stop-color="#DF6B7D"/><stop offset="100%" stop-color="#333665"/></linearGradient><linearGradient id="y" x1="38.333%" x2="83.321%" y1="67.59%" y2="20.248%"><stop offset="0%" stop-color="#EEB47B"/><stop offset="100%" stop-color="#DF6B7D"/></linearGradient><linearGradient id="z" x1="32.885%" x2="54.575%" y1="112.565%" y2="21.314%"><stop offset="0%" stop-color="#DF6B7D"/><stop offset="100%" stop-color="#333665"/></linearGradient><linearGradient id="A" x1="34.749%" x2="53.608%" y1="143.468%" y2="-23.993%"><stop offset="0%" stop-color="#DF6B7D"/><stop offset="100%" stop-color="#333665"/></linearGradient><linearGradient id="B" x1="51.113%" x2="94.783%" y1="56.457%" y2="21.433%"><stop offset="0%" stop-color="#DF6B7D"/><stop offset="100%" stop-color="#333665"/></linearGradient><linearGradient id="C" x1="-1.111%" x2="122.692%" y1="45.776%" y2="52.935%"><stop offset="0%" stop-color="#DF6B7D"/><stop offset="49%" stop-color="#333665"/><stop offset="100%" stop-color="#2D2D2F"/></linearGradient><linearGradient id="D" x1=".282%" x2="99.995%" y1="50.097%" y2="50.097%"><stop offset="0%" stop-color="#6FBEE8"/><stop offset="100%" stop-color="#2964EC"/></linearGradient><linearGradient id="E" x1="-.015%" x2="100.048%" y1="49.833%" y2="49.833%"><stop offset="0%" stop-color="#6FBEE8"/><stop offset="100%" stop-color="#2964EC"/></linearGradient><linearGradient id="F" x1="19.23%" x2="70.66%" y1="44.83%" y2="52.666%"><stop offset="0%" stop-color="#EEB47B"/><stop offset="100%" stop-color="#DF6B7D"/></linearGradient><linearGradient id="G" x1="-10.856%" x2="39.826%" y1="28.631%" y2="47.779%"><stop offset="0%" stop-color="#EEB47B"/><stop offset="100%" stop-color="#DF6B7D"/></linearGradient><linearGradient id="H" x1="146.681%" x2="-173.777%" y1="37.322%" y2="68.262%"><stop offset="5%" stop-color="#DF6B7D"/><stop offset="7%" stop-color="#D5687C"/><stop offset="14%" stop-color="#AA5B76"/><stop offset="22%" stop-color="#854F70"/><stop offset="30%" stop-color="#67466C"/><stop offset="38%" stop-color="#503F69"/><stop offset="47%" stop-color="#403A67"/><stop offset="57%" stop-color="#363765"/><stop offset="69%" stop-color="#333665"/><stop offset="89%" stop-color="#2F3043"/><stop offset="100%" stop-color="#2D2D2F"/></linearGradient><linearGradient id="I" x1="108.012%" x2="1.111%" y1="12.425%" y2="83.041%"><stop offset="5%" stop-color="#DF6B7D"/><stop offset="7%" stop-color="#D5687C"/><stop offset="14%" stop-color="#AA5B76"/><stop offset="22%" stop-color="#854F70"/><stop offset="30%" stop-color="#67466C"/><stop offset="38%" stop-color="#503F69"/><stop offset="47%" stop-color="#403A67"/><stop offset="57%" stop-color="#363765"/><stop offset="69%" stop-color="#333665"/><stop offset="89%" stop-color="#2F3043"/><stop offset="100%" stop-color="#2D2D2F"/></linearGradient><linearGradient id="J" x1="-.245%" x2="99.755%" y1="50.028%" y2="50.028%"><stop offset="0%" stop-color="#EEB47B"/><stop offset="100%" stop-color="#DF6B7D"/></linearGradient><linearGradient id="K" x1="0%" x2="100%" y1="50.244%" y2="50.244%"><stop offset="0%" stop-color="#DF6B7D"/><stop offset="100%" stop-color="#333665"/></linearGradient><linearGradient id="L" x1="0%" x2="100%" y1="50%" y2="50%"><stop offset="0%" stop-color="#DF6B7D"/><stop offset="2%" stop-color="#D5687C"/><stop offset="11%" stop-color="#AA5B76"/><stop offset="20%" stop-color="#854F70"/><stop offset="30%" stop-color="#67466C"/><stop offset="40%" stop-color="#503F69"/><stop offset="51%" stop-color="#403A67"/><stop offset="63%" stop-color="#363765"/><stop offset="79%" stop-color="#333665"/><stop offset="93%" stop-color="#2F3043"/><stop offset="100%" stop-color="#2D2D2F"/></linearGradient><linearGradient id="M" x1="35.991%" x2="70.023%" y1="145.126%" y2="-88.05%"><stop offset="0%" stop-color="#DF6B7D"/><stop offset="2%" stop-color="#D5687C"/><stop offset="11%" stop-color="#AA5B76"/><stop offset="20%" stop-color="#854F70"/><stop offset="30%" stop-color="#67466C"/><stop offset="40%" stop-color="#503F69"/><stop offset="51%" stop-color="#403A67"/><stop offset="63%" stop-color="#363765"/><stop offset="79%" stop-color="#333665"/><stop offset="93%" stop-color="#2F3043"/><stop offset="100%" stop-color="#2D2D2F"/></linearGradient><linearGradient id="N" x1="32.026%" x2="76.144%" y1="137.5%" y2="-72.449%"><stop offset="0%" stop-color="#DF6B7D"/><stop offset="2%" stop-color="#D5687C"/><stop offset="11%" stop-color="#AA5B76"/><stop offset="20%" stop-color="#854F70"/><stop offset="30%" stop-color="#67466C"/><stop offset="40%" stop-color="#503F69"/><stop offset="51%" stop-color="#403A67"/><stop offset="63%" stop-color="#363765"/><stop offset="79%" stop-color="#333665"/><stop offset="93%" stop-color="#2F3043"/><stop offset="100%" stop-color="#2D2D2F"/></linearGradient><linearGradient id="O" x1="29.875%" x2="78.269%" y1="255.868%" y2="-309.169%"><stop offset="0%" stop-color="#DF6B7D"/><stop offset="2%" stop-color="#D5687C"/><stop offset="11%" stop-color="#AA5B76"/><stop offset="20%" stop-color="#854F70"/><stop offset="30%" stop-color="#67466C"/><stop offset="40%" stop-color="#503F69"/><stop offset="51%" stop-color="#403A67"/><stop offset="63%" stop-color="#363765"/><stop offset="79%" stop-color="#333665"/><stop offset="93%" stop-color="#2F3043"/><stop offset="100%" stop-color="#2D2D2F"/></linearGradient><linearGradient id="P" x1="0%" x2="100.111%" y1="49.889%" y2="49.889%"><stop offset="0%" stop-color="#DF6B7D"/><stop offset="2%" stop-color="#D5687C"/><stop offset="11%" stop-color="#AA5B76"/><stop offset="20%" stop-color="#854F70"/><stop offset="30%" stop-color="#67466C"/><stop offset="40%" stop-color="#503F69"/><stop offset="51%" stop-color="#403A67"/><stop offset="63%" stop-color="#363765"/><stop offset="79%" stop-color="#333665"/><stop offset="93%" stop-color="#2F3043"/><stop offset="100%" stop-color="#2D2D2F"/></linearGradient><linearGradient id="Q" x1=".093%" x2="100%" y1="50.347%" y2="50.347%"><stop offset="0%" stop-color="#DF6B7D"/><stop offset="2%" stop-color="#D5687C"/><stop offset="11%" stop-color="#AA5B76"/><stop offset="20%" stop-color="#854F70"/><stop offset="30%" stop-color="#67466C"/><stop offset="40%" stop-color="#503F69"/><stop offset="51%" stop-color="#403A67"/><stop offset="63%" stop-color="#363765"/><stop offset="79%" stop-color="#333665"/><stop offset="93%" stop-color="#2F3043"/><stop offset="100%" stop-color="#2D2D2F"/></linearGradient><linearGradient id="R" x1="129.271%" x2="-97.184%" y1="60.663%" y2="-20.442%"><stop offset="0%" stop-color="#EEB47B"/><stop offset="100%" stop-color="#DF6B7D"/></linearGradient><linearGradient id="S" x1="-10.364%" x2="143.417%" y1="151.307%" y2="-110.213%"><stop offset="0%" stop-color="#DF6B7D"/><stop offset="2%" stop-color="#D5687C"/><stop offset="11%" stop-color="#AA5B76"/><stop offset="20%" stop-color="#854F70"/><stop offset="30%" stop-color="#67466C"/><stop offset="40%" stop-color="#503F69"/><stop offset="51%" stop-color="#403A67"/><stop offset="63%" stop-color="#363765"/><stop offset="79%" stop-color="#333665"/><stop offset="93%" stop-color="#2F3043"/><stop offset="100%" stop-color="#2D2D2F"/></linearGradient><linearGradient id="T" x1="48.398%" x2="51.434%" y1="116.509%" y2="-40.257%"><stop offset="0%" stop-color="#DF6B7D"/><stop offset="2%" stop-color="#D5687C"/><stop offset="11%" stop-color="#AA5B76"/><stop offset="20%" stop-color="#854F70"/><stop offset="30%" stop-color="#67466C"/><stop offset="40%" stop-color="#503F69"/><stop offset="51%" stop-color="#403A67"/><stop offset="63%" stop-color="#363765"/><stop offset="79%" stop-color="#333665"/><stop offset="93%" stop-color="#2F3043"/><stop offset="100%" stop-color="#2D2D2F"/></linearGradient><linearGradient id="U" x1="-10.335%" x2="147.765%" y1="152.222%" y2="-113.856%"><stop offset="0%" stop-color="#DF6B7D"/><stop offset="2%" stop-color="#D5687C"/><stop offset="11%" stop-color="#AA5B76"/><stop offset="20%" stop-color="#854F70"/><stop offset="30%" stop-color="#67466C"/><stop offset="40%" stop-color="#503F69"/><stop offset="51%" stop-color="#403A67"/><stop offset="63%" stop-color="#363765"/><stop offset="79%" stop-color="#333665"/><stop offset="93%" stop-color="#2F3043"/><stop offset="100%" stop-color="#2D2D2F"/></linearGradient><linearGradient id="V" x1="7.003%" x2="115.966%" y1="151.193%" y2="-109.611%"><stop offset="0%" stop-color="#DF6B7D"/><stop offset="2%" stop-color="#D5687C"/><stop offset="11%" stop-color="#AA5B76"/><stop offset="20%" stop-color="#854F70"/><stop offset="30%" stop-color="#67466C"/><stop offset="40%" stop-color="#503F69"/><stop offset="51%" stop-color="#403A67"/><stop offset="63%" stop-color="#363765"/><stop offset="79%" stop-color="#333665"/><stop offset="93%" stop-color="#2F3043"/><stop offset="100%" stop-color="#2D2D2F"/></linearGradient><linearGradient id="W" x1="64.715%" x2="26.166%" y1="-11.677%" y2="123.976%"><stop offset="0%" stop-color="#5BFF00"/><stop offset="100%" stop-color="#0C210C"/></linearGradient><linearGradient id="X" x1="-10.084%" x2="144.258%" y1="152.231%" y2="-113.977%"><stop offset="0%" stop-color="#DF6B7D"/><stop offset="2%" stop-color="#D5687C"/><stop offset="11%" stop-color="#AA5B76"/><stop offset="20%" stop-color="#854F70"/><stop offset="30%" stop-color="#67466C"/><stop offset="40%" stop-color="#503F69"/><stop offset="51%" stop-color="#403A67"/><stop offset="63%" stop-color="#363765"/><stop offset="79%" stop-color="#333665"/><stop offset="93%" stop-color="#2F3043"/><stop offset="100%" stop-color="#2D2D2F"/></linearGradient><linearGradient id="Y" x1="68.681%" x2="21.459%" y1="-11.418%" y2="123.918%"><stop offset="0%" stop-color="#FF7000"/><stop offset="100%" stop-color="#F20B0B"/></linearGradient><linearGradient id="Z" x1=".083%" x2="100.091%" y1="50%" y2="50%"><stop offset="0%" stop-color="#EEB47B"/><stop offset="100%" stop-color="#DF6B7D"/></linearGradient><linearGradient id="aa" x1=".001%" x2="99.518%" y1="49.973%" y2="49.973%"><stop offset="0%" stop-color="#EEB47B"/><stop offset="100%" stop-color="#DF6B7D"/></linearGradient><linearGradient id="ab" x1="0%" x2="100.078%" y1="50.109%" y2="50.109%"><stop offset="0%" stop-color="#EEB47B"/><stop offset="100%" stop-color="#DF6B7D"/></linearGradient><linearGradient id="ac" x1=".475%" x2="100.792%" y1="49.832%" y2="49.832%"><stop offset="0%" stop-color="#EEB47B"/><stop offset="100%" stop-color="#DF6B7D"/></linearGradient><linearGradient id="ad" x1=".969%" x2="100.969%" y1="50.028%" y2="50.028%"><stop offset="0%" stop-color="#EEB47B"/><stop offset="100%" stop-color="#DF6B7D"/></linearGradient><linearGradient id="ae" x1="86.908%" x2=".978%" y1="7.547%" y2="165.269%"><stop offset="0%" stop-color="#75FF00"/><stop offset="100%"/></linearGradient><linearGradient id="af" x1="-.259%" x2="99.534%" y1="50.02%" y2="50.02%"><stop offset="0%" stop-color="#EEB47B"/><stop offset="100%" stop-color="#DF6B7D"/></linearGradient><linearGradient id="ag" x1="53.583%" x2="46.083%" y1="-24.104%" y2="131.274%"><stop offset="5%" stop-color="#DF6B7D"/><stop offset="7%" stop-color="#D5687C"/><stop offset="14%" stop-color="#AA5B76"/><stop offset="22%" stop-color="#854F70"/><stop offset="30%" stop-color="#67466C"/><stop offset="38%" stop-color="#503F69"/><stop offset="47%" stop-color="#403A67"/><stop offset="57%" stop-color="#363765"/><stop offset="69%" stop-color="#333665"/><stop offset="89%" stop-color="#2F3043"/><stop offset="100%" stop-color="#2D2D2F"/></linearGradient><linearGradient id="ah" x1="89.211%" x2="-25.533%" y1="29.441%" y2="68.075%"><stop offset="5%" stop-color="#DF6B7D"/><stop offset="7%" stop-color="#D5687C"/><stop offset="14%" stop-color="#AA5B76"/><stop offset="22%" stop-color="#854F70"/><stop offset="30%" stop-color="#67466C"/><stop offset="38%" stop-color="#503F69"/><stop offset="47%" stop-color="#403A67"/><stop offset="57%" stop-color="#363765"/><stop offset="69%" stop-color="#333665"/><stop offset="89%" stop-color="#2F3043"/><stop offset="100%" stop-color="#2D2D2F"/></linearGradient><linearGradient id="ai" x1="82.764%" x2="-13.819%" y1="48.954%" y2="51.935%"><stop offset="5%" stop-color="#DF6B7D"/><stop offset="7%" stop-color="#D5687C"/><stop offset="14%" stop-color="#AA5B76"/><stop offset="22%" stop-color="#854F70"/><stop offset="30%" stop-color="#67466C"/><stop offset="38%" stop-color="#503F69"/><stop offset="47%" stop-color="#403A67"/><stop offset="57%" stop-color="#363765"/><stop offset="69%" stop-color="#333665"/><stop offset="89%" stop-color="#2F3043"/><stop offset="100%" stop-color="#2D2D2F"/></linearGradient><linearGradient id="aj" x1="93.226%" x2="-34.521%" y1="48.277%" y2="53.49%"><stop offset="5%" stop-color="#DF6B7D"/><stop offset="7%" stop-color="#D5687C"/><stop offset="14%" stop-color="#AA5B76"/><stop offset="22%" stop-color="#854F70"/><stop offset="30%" stop-color="#67466C"/><stop offset="38%" stop-color="#503F69"/><stop offset="47%" stop-color="#403A67"/><stop offset="57%" stop-color="#363765"/><stop offset="69%" stop-color="#333665"/><stop offset="89%" stop-color="#2F3043"/><stop offset="100%" stop-color="#2D2D2F"/></linearGradient><linearGradient id="ak" x1="89.703%" x2="-24.874%" y1="49.494%" y2="62.456%"><stop offset="5%" stop-color="#DF6B7D"/><stop offset="7%" stop-color="#D5687C"/><stop offset="14%" stop-color="#AA5B76"/><stop offset="22%" stop-color="#854F70"/><stop offset="30%" stop-color="#67466C"/><stop offset="38%" stop-color="#503F69"/><stop offset="47%" stop-color="#403A67"/><stop offset="57%" stop-color="#363765"/><stop offset="69%" stop-color="#333665"/><stop offset="89%" stop-color="#2F3043"/><stop offset="100%" stop-color="#2D2D2F"/></linearGradient><linearGradient id="al" x1="72.564%" x2="16.893%" y1="124.264%" y2="-59.71%"><stop offset="0%" stop-color="#FFF"/><stop offset="100%" stop-color="#DF6B7D"/></linearGradient><linearGradient id="am" x1="100%" x2="-226.524%" y1="50%" y2="50%"><stop offset="0%" stop-color="#FFF"/><stop offset="100%" stop-color="#DF6B7D"/></linearGradient></defs><g fill="none" fill-rule="evenodd"><mask id="c" fill="#fff"><use xlink:href="#a"/></mask><use fill="url(#b)" xlink:href="#a"/><path fill="#60EEE0" d="M568 476.724c-209.384 7.14-284.535-210.494-446-217.634-161.465-7.14-200.423 133.368-218.756 233.262C-109.553 562.074 911.48 801.141 1167 632.522c163.465-107.873-460.255-160.53-599-155.798z" mask="url(#c)" opacity=".3"/><g transform="translate(532 129)"><path fill="url(#d)" d="M180.996 358.488V.118h145.98v360.683h-6.52V7.097H188.72v351.391z"/><use fill="url(#d)" xlink:href="#e"/><use fill="#000" fill-opacity=".3" xlink:href="#e"/><circle cx="24" cy="157" r="24" fill="url(#f)"/><path fill="url(#g)" d="M258 359.078c-13.444-1.296-34.757-2.982-63.94-5.057V12.452l121.437-.469v352.693A43519.138 43519.138 0 0 0 258 359.078z"/><circle cx="193" cy="224" r="35" fill="url(#h)"/><path fill="url(#i)" d="M161.91 230.887c-.368-1.258-.368-1.887 0-1.887.55 0 1.13.675 1.13-.757s-.959-1.988 0-2.31c.96-.321 0-2.684 0-2.914 0-.229 2.575-.496 2.575.546s2.839 1.35 2.839 1.042v-2.137c0-.347 2.054.644 2.054.32V220c0-1.265-1.257-.81-2.054-1.037-.531-.152-.798-.808-.799-1.97-.26-1.975.006-2.963.799-2.963 1.19 0 2.054 1.547 2.054 1.547s.643-1.018 1.505-.509c.862.509.694 1.926 1.987 1.926 1.293 0 3.377.813 3.377.813s2.1 2.193 2.674 2.193c.573 0 4.43-3.02 4.43 0s1.039 3.989.519 4.298c-.52.309-2.026-1.895-2.026.309s-.266 2.583.62 2.583S185.52 228 185 229s-3.533-.176-2.026 1.887c1.506 2.063 4.16 1.614 4.16 2.822 0 1.207-1.377 1.776-1.377 2.602 0 .827-1.543-1.395-2.163-1.395-.62 0-1.24 3.903-.62 3.903s1.506.181 1.506.181-1.045 3.887-2.21 2.193c-1.164-1.694.009-3.054-1.105-2.374-.743.453-1.114 1.244-1.114 2.374-1.783 1.024-2.674.692-2.674-.996 0-2.533 2.238-2.717 1.43-3.059-.807-.342-2.27.31-2.27-.827 0-.757-.216-1.625-.65-2.602.031 1.666-.276 2.43-.92 2.291-.967-.209-2.954.673-2.954.796s-1.505 2.836-1.505 2.204c0-.421-.684-1.115-2.054-2.081l-1.747.745c.349-2.497-.015-3.121-1.092-1.873-1.615 1.873-2.574.259-2.574-.912v-1.929c0-.825-.377-1.513-1.131-2.063zm36.563-41.42c7.891 1.277 10.089 5.186 10.621 5.866.533.68-1.284.945-.984 1.616.3.672 1.67.351.984 1.39-.685 1.039-.958 1.133-.479 2.415.48 1.281-.906 1.48-2.134 1.929-1.229.448-4-.965-4.481-.648-.482.318-.288 1.096-.933 1.096-.646 0-.768-.448-1.681-.448s.467.448-.913.448c-1.379 0 .593-1.797-1.864-.448-2.458 1.348-1.149 3.837-2.344 3.837-1.196 0 .504-.983-2.265 0s-2.955.426-4 0c-1.045-.425-1.403-1.391-1.403-1.94 0-.549 2.116-1.25 2.116-1.897 0-.648-1.194.018-1.194-.648 0-.665-.647-1.281.481-1.281.752 0 .99-.848.713-2.542-.196-1.92.2-2.88 1.186-2.88 1.48 0 2.101-1.97 2.101-2.39 0-.42-.84-2.603 0-2.603s-1.417-2.148 6.473-.871zm29.613 32.327v1.225c0 3.907-.81 7.868-1.415 9.931-.605 2.064-1.326-.462-1.326-1.329 0-.866-1.58-.734-2.595-.734-1.015 0-.527-.887-.527-2.133 0-1.247-.419-1.564-1.055-1.564-.636 0 0-1.19 0-2.583 0-1.393-1.404 1.005-1.887 1.005-.483 0 .483-1.998.483-2.593 0-.594-.483-1.019-.483-2.019 0-1 1.42.794 1.887.794.466 0 .636-.794.636-1.407 0-.612 1.096-.806 1.96-.387.865.419.847-.144 1.581-.887.49-.496 1.403.398 2.741 2.681z" opacity=".501"/></g><path fill="url(#j)" d="M168.752 119.566l210.795 49.183-119.677 37.734L46.029 153.03z" transform="matrix(-1 0 0 1 1226 272)"/><path fill="url(#k)" d="M46.029 153.031v4.231l213.578 53.759 119.94-38.508v-3.764L259.87 206.483z" transform="matrix(-1 0 0 1 1226 272)"/><path fill="#232C4C" fill-opacity=".4" d="M1077.706 525l135.068 56.163c13.896 3.926 16.842 7.267 8.839 10.025-12.006 4.135-225.7 63.58-230.742 63.58-5.043 0-180.146-72.139-180.146-75.196 0-2.037 83.217-19.763 249.651-53.175l17.33-1.397z"/><path fill="url(#l)" d="M235.711 205.068l-6.97 167.192s1.98 3.235 4.476 0l18.742-163.096-16.248-4.096z" transform="matrix(-1 0 0 1 1226 272)"/><path fill="url(#m)" d="M68.921 163.03L19.163 312.168s.075 2.533 2.357 1.033l62.207-146.456-14.806-3.715z" transform="matrix(-1 0 0 1 1226 272)"/><path fill="url(#n)" d="M363.688 177.605l35.165 132.349s.063 1.832-1.88.971l-46.55-129.053 13.265-4.267z" transform="matrix(-1 0 0 1 1226 272)"/><path fill="url(#o)" d="M159.387 185.796l-8.776 72.232s.427 2.46 2.345 1.045l17.088-70.608-10.657-2.67z" transform="matrix(-1 0 0 1 1226 272)"/><path fill="url(#p)" d="M379.547 168.75l-206.083-48.827c3.41 4.047 5.942 10.418-4.463 15.841-14.167 7.38-49.809 9.84-46.926 36.467l137.795 34.227 119.677-37.709z" transform="matrix(-1 0 0 1 1226 272)"/><path fill="url(#q)" d="M154.948 110.426c.813 2.175 5.176-5.726 5.442-9.53.267-3.803-.813-9.795 0-13.612.814-3.817-8.004-25.705-10.458-34.46l-11.206-4.978-30.27 11.437-5.922-2.055c-.12.97-.12 1.952 0 2.923A17.69 17.69 0 0 0 88.38 71.295c-4.002 10.236-13.34 29.161-13.34 29.161l13.793 2.443 2.455-4.004s-.667 4.898 5.11 9.342c0 0 3.334 14.454-11.1 24.477a62.39 62.39 0 0 0 8.004 7.62 3.867 3.867 0 0 0 4.856 0l8.498-4.083c14.127 1.908 27.334 11.838 27.347 11.838a27.158 27.158 0 0 1 .587-7.741 84.182 84.182 0 0 1 4.63-11.424s10.872-2.99 11.686-8.702a170.239 170.239 0 0 1 4.042-16.896s-.814 4.911 0 7.1z" transform="translate(814 272)"/><path fill="url(#r)" d="M142.515 76.633c-7.391.2-7.391 11.612-7.871 21.114-.48 9.502-11.766 15.161-11.766 15.161.867-5.125-1.161-7.353-3.082-10.957-5.336-10.063-7.564-10.343.534-22.982 9.751-15.215 3.628-19.178 4.669-24.41l-5.843-4.618-5.923-2.055c-.12.934-2.989 6.58-5.163 7.234 0 0-15.662 5.965-19.664 16.215-4.002 10.25-13.34 29.161-13.34 29.161l13.794 2.443 2.455-4.004s-.667 4.898 5.109 9.342c0 0 3.335 14.454-11.1 24.477a62.39 62.39 0 0 0 8.005 7.62 3.867 3.867 0 0 0 4.856 0l8.498-4.083c1.174.16 2.334.373 3.495.64 6.843-3.016 18.156-8.368 17.209-9.342-.948-.974-16.262 0-7.524-2.202a38.937 38.937 0 0 0 18.503-11.104c2.948-3.377 1.894-9.503 4.215-14.147 2.321-4.644 7.324-23.69-.066-23.503z" transform="translate(814 272)"/><path fill="url(#s)" d="M14.195 304.252c.733-2.176 4.215-8.288 6.403-9.89a7.702 7.702 0 0 0 .867-11.638c.008-1.034.156-2.062.44-3.056 0 0 1.334-7.687 2.268-8.768l-3.722-2.016-6.883-.667s-1.228 6.006-1.188 6.046l-1.094 4.831s-.56 1.655-3.188 8.862c-2.148 5.846-5.096 14.227-6.11 15.562-1.014 1.334-2.761 5.338-1.014 6.54 1.748 1.2 6.67-.721 8.005-1.456 1.334-.734 4.495-2.162 5.216-4.35z" transform="translate(814 272)"/><path fill="url(#t)" d="M52.948 314.355a4.78 4.78 0 0 0 .48 1.815s-1.6 12.011-3.361 14.16c-1.761 2.149-2.749 3.91-4.11 5.672-1.36 1.762-7.55 6.753-9.204 8.088a5.14 5.14 0 0 0-2.175 5.245c.254 2.67 4.67 4.164 6.577 4.324 1.908.16 5.003.507 6.163.76a6.31 6.31 0 0 0 5.577-3.082c1.334-2.416.827-7.42 1.494-9.076.667-1.655 3.335-2.842 3.335-4.417 0-1.575 0-3.417 1.16-4.578 1.161-1.161 2.228-4.524 3.642-6.9 0 0 3.189-5.592 4.283-6.513l-13.861-5.498z" transform="translate(814 272)"/><path fill="url(#u)" d="M58.884 333.266c1.174-1.174 1.334-2.402 3.135-5.565 0 0 3.696-6.366 4.79-7.287H59.03c-.44 1.334-3.535 8.114-6.67 10.797-4.522 3.857-3.642 8.928-8.004 10.396-4.362 1.469-.12 4.685-.12 4.685l-3.882 7.247c.272.062.548.102.827.12 1.92.174 5.002.507 6.163.76a6.31 6.31 0 0 0 5.576-3.082c1.334-2.416.827-7.42 1.494-9.076.667-1.655 3.336-2.842 3.336-4.417 0-1.575-.054-3.417 1.133-4.578z" transform="translate(814 272)"/><path fill="url(#v)" d="M20.598 294.362a7.702 7.702 0 0 0 .867-11.638c.008-1.034.156-2.062.44-3.056 0 0 1.334-7.687 2.268-8.768l-2.668.413-3.575 6.847a35.383 35.383 0 0 1-5.336 8.341c-2.935 3.07-3.322 3.75-3.415 9.076-.067 4.084-6.07 10.677-8.872 13.453.083.415.322.783.667 1.027 1.735 1.161 6.67-.72 8.005-1.455 1.334-.734 4.509-2.175 5.229-4.364.72-2.188 4.202-8.274 6.39-9.876z" transform="translate(814 272)"/><path fill="url(#w)" d="M70.85 318.839c3.016-4.164 3.803-7.114 3.87-9.342a4.565 4.565 0 0 0-2.028-3.444s13.006-30.976 15.3-40.759c2.295-9.782 8.485-38.703 12.007-44.376 3.522-5.672 16.008-24.69 22.465-32.417 4.763-5.672 11.526-12.199 12.073-21.18.36-6.073-.507-13.734-.6-19.753l-14.408-10.677-29.001-6.26-4.95 1.896-.307.227h-.093l-7.362 3.642c-2.431 1.29-7.462 3.793-8.635 4.468 0 0-34.923 16.327-38.925 18.515-4.002 2.19-4.816 2.47-7.043 17.83-2.228 15.362-4.923 36.382-5.79 43.402-1.48 12.012-3.095 35.18-3.095 35.18a3.576 3.576 0 0 0-2.828 2.844c-.454 2.442-1.334 7.353-.2 9.208l1.587 1.856s2.108 1.574 9.912 1.574a3.894 3.894 0 0 0 1.334-.413 11.823 11.823 0 0 0 3.895-4.204c1.788-3.55 2.295-7.007 1.068-8.982-.76-1.215-1.254-.961-1.254-.961s4.642-8.568 12.486-34.313c2.295-7.527 6.337-33.365 7.07-37.062.614-3.003 1.615-2.416 14.675-4.565 8.27-1.334 22.558-1.107 22.558-1.107s-11.82 28.12-12.553 32.177c-1.24 6.82-4.002 30.416-4.856 37.049-.774 6.286-3.602 20.02-4.936 30.002a227.4 227.4 0 0 1-4.669 23.89s-3.348.32-4.536 5.565a19.667 19.667 0 0 0-.587 7.82s3.429 4.205 12.794 5.5a9.44 9.44 0 0 0 2.374-.147 10.313 10.313 0 0 0 3.189-2.683z" transform="translate(814 272)"/><path fill="url(#x)" d="M123.465 11.024l-4.55 1.641-6.216 17.951c.213.787.44 1.575.694 2.349 1.334 4.337-1.441 7.38-2.241 11.144l3.935 2.175s-.494 6.994 8.378 8.155c8.87 1.161 17.035-5.552 17.035-5.552l.934-12.012-3.615-16.335-14.354-9.516z" transform="translate(814 272)"/><path fill="url(#y)" d="M127.52 51.276c-.213-1.335-1.8-1.682-3.148-2.923s3.148-3.617 5.63-5.766c2.48-2.148 3.268-4.377 2.254-7.54-1.014-3.163-2.815-3.043-5.336-2.936-2.522.107-3.375-1.909-.68-2.256 2.694-.347 2.934-3.83 2.934-3.83l-2.294-9.743-5.336-3.536-4.55 1.628-6.216 17.95c.213.788.44 1.575.68 2.35 1.334 4.35-1.427 7.38-2.227 11.143l3.935 2.176s.6 3.03 6.243 5.205c6.19 2.309 8.338-.52 8.111-1.922z" transform="translate(814 272)"/><path fill="url(#z)" d="M114.527 29.014s2 .508 1.814 1.335c-.187.828-1.894.654-1.894.654s0-.92.08-1.948" transform="translate(814 272)"/><path fill="url(#A)" d="M118.569 37.93a3.547 3.547 0 0 0 2.761.227c1.614-.508-.667 1.134-1.334 1.254-.667.12-2.374-1.561-1.427-1.481z" transform="translate(814 272)"/><path fill="url(#B)" d="M155.321 63.02c-2.388-8.728 3.429-11.104 2.668-19.031-.76-7.928-3.708-7.14-4.229-21.674-.52-14.534-6.736-16.896-13.22-20.246-3.175-1.642-10.979-3.617-17.502 1.12 0 0-2.668.575-7.618 2.056-6.15 1.842-9.338 8.101-9.965 13.933-.627 5.833-1.04 11.772 1.334 19.339 2.375 7.567-7.377 13.346-6.67 20.633 5.15-1.455 15.008-2.776 17.062-4.43 2.562-2.07 3.642-7.662 3.642-7.662s-3.868-1.428-5.336-3.897c-1.467-2.469-1.2-3.737-.947-13.506.16-6.34 3.175-11.558 5.643-11.664 2.468-.107 8.658.84 14.674 8.247 6.017 7.408 3.349 11.371.987 19.86-2.36 8.488 5.617 9.769 11.246 13.159a23.578 23.578 0 0 1 7.898 8.194c6.603 9.77-.374 32.578-.374 32.578s-.787 4.751 0 6.873c.787 2.123 5.016-5.552 5.336-9.262.32-3.71-.787-9.516 0-13.212.787-3.697-2.2-12.693-4.629-21.408z" transform="translate(814 272)"/><path fill="url(#C)" d="M160.83 84.187c.788-3.71-3.134-12.452-5.509-21.167-2.374-8.715 3.429-11.104 2.668-19.031-.76-7.928-3.708-7.14-4.229-21.674-.333-8.889-3.201-15.308-9.845-18.485 1.054 1.775 2.975 2.67 2.015 3.524-3.696 3.056-4.23 3.23-3.696 6.94.534 3.71-20.57-1.095-22.118 3.697 0 0 5.897.694 9.498 3.323a14.293 14.293 0 0 1 4.59 6.006c2.534 6.112.293 10.877-2.082 19.365-2.374 8.488 9.339 9.556 13.754 11.904a25.352 25.352 0 0 1 9.045 8.862c6.603 9.77-.374 32.578-.374 32.578s-.787 4.751 0 6.873c.788 2.123 5.417-4.657 5.87-9.916.294-3.697-.387-9.102.414-12.799z" transform="translate(814 272)"/><path fill="url(#D)" d="M44.13 346.292c-3.909-.961-4.589-2.963-4.335-4.685-1.335 1.081-2.455 2.016-3.042 2.483a5.14 5.14 0 0 0-2.175 5.245c.254 2.67 4.67 4.164 6.577 4.324 1.908.16 5.003.507 6.163.76a6.31 6.31 0 0 0 5.577-3.082 15.02 15.02 0 0 0 1.054-5.699 16.882 16.882 0 0 1-9.819.654z" transform="translate(814 272)"/><path fill="url(#E)" d="M19.744 287.502c-.4 3.47-6.67 11.158-11.74 13.146-2.427.934-3.708.614-4.402 0a22.838 22.838 0 0 1-1.614 2.923c-1.014 1.335-2.761 5.338-1.014 6.54 1.748 1.2 6.67-.721 8.005-1.455 1.334-.734 4.509-2.176 5.229-4.364.72-2.19 4.215-8.288 6.403-9.89a7.688 7.688 0 0 0 1.027-11.464 9.705 9.705 0 0 0-1.894 4.564z" transform="translate(814 272)"/><path fill="url(#F)" d="M100.213 174.888c-2.442-6.967-14.074 1.334-14.074 1.334s-13.407 32.632-14.141 36.288c-1.014 5.072-3.002 23.09-4.456 34.7-.84 6.673-3.735 22.328-5.95 36.675-1.587 10.17-3.895 18.965-3.895 18.965s-2.988-.547-4.322 4.765c-.68 2.67-1.44 7.54-.8 8.621a13.567 13.567 0 0 0 6.39 4.205c1.333-2.67 2.334-6.754 1.667-12.826a388.879 388.879 0 0 0 12.607-44.763c7.764-35.34 8.07-36.862 16.768-56.4 6.524-14.682 12.647-24.598 10.206-31.564z" transform="translate(814 272)"/><path fill="url(#G)" d="M76.147 159.953c15.274-4.738 1.334-12.425-3.215-14.974-3.629-2.042-13.474 1.201-17.196 2.55a274.753 274.753 0 0 0-25.48 11.89c-4.002 2.216-4.816 2.47-7.043 17.83-2.228 15.362-4.563 33.046-5.79 43.403-.827 7.02-3.095 35.18-3.095 35.18a3.576 3.576 0 0 0-2.828 2.843c-.454 2.442-1.428 7.18-.2 9.208l1.587 1.856s2.068 1.574 8.618 1.574c2.041-3.51.374-12.532-1.828-14.974 0 0 4.27-17.136 6.55-27.24 2.282-10.102 2.762-16.322 4.096-26.692 2.748-21.607.213-17.056 2.748-21.607 2.134-3.857 14.608-13.213 43.049-20.82l.027-.027z" transform="translate(814 272)"/><g transform="translate(865.002 351)"><path fill="url(#H)" d="M79.612 63.403l15.746-16.189s1.027-1.446-2.6-2.45c-3.626-1.004-20-4.86-20-4.86l6.854 23.5z"/><path fill="url(#I)" d="M12.973 49.611L1.2 3.937S-.133.067 5.44.91c5.573.843 56.826 12.52 56.826 12.52s5.333 0 7.506 7.806c1.72 6.08 9.84 42.166 9.84 42.166L12.973 49.611z"/><path fill="url(#J)" d="M53.946 57.9l-.307.214s-5.066-3.28-5.506-4.178c-.44-.897-.147-5.838-2.987-6.882 0 0-1.187-.456-1.48 2.236-.293 2.691-1 6.173-1 6.882 0 .71 2.227 7.178 3.12 7.486 0 0 4.547 3.789 8.48 2.383 3.933-1.406 4.746-2.812 4.746-2.812l-5.066-5.33z"/><path fill="url(#K)" d="M53.6 66.175a4.81 4.81 0 0 0 .626-.174c4-1.34 4.746-2.812 4.746-2.812l-5.026-5.356-.307.214s-5.066-3.28-5.506-4.178c-.44-.897-.147-5.838-2.987-6.882 0 0-1.147-.429-1.467 2.129.494 2.45 1.267 6.253 1.494 7.163.333 1.447 4.306 9.762 8.426 9.896z"/><ellipse cx="36.235" cy="31.91" fill="#FFF" rx="6.895" ry="8.902" transform="rotate(-15.68 36.235 31.91)"/></g><g transform="matrix(-1 0 0 1 1097 359)"><path fill="url(#L)" d="M42.046 27.6s7.038-3.093 12.523.283l1.007-1.035-1.99-1.675-4.775-.838-4.564.64-2.724 1.307v1.232l.523.086zM63.784 32.233s7.038-3.093 12.523.27l1.007-1.034-1.99-1.676-4.775-.838-4.564.641-2.724 1.306v1.232l.523.099z"/><path fill="url(#M)" d="M.211 22.03v1.75l26.613 6.087.062-2.045z"/><path fill="url(#N)" d="M26.837 29.424l-.087 2.131 11.416 2.699-.125-2.181z"/><path fill="url(#O)" d="M38.066 32.344L73.372 40.5l23.093-5.853v-1.762l-22.894 5.581-35.592-8.045z"/><path fill="url(#L)" fill-rule="nonzero" d="M37.668 19.074l.311 11.348 35.592 8.046 22.894-5.582-58.797-13.812zm10.62 10.19c-3.556 0-6.454-1.011-6.454-2.243s2.898-2.255 6.455-2.255c3.556 0 6.466 1.01 6.466 2.255 0 1.244-2.897 2.242-6.466 2.242zm21.85 4.817c-3.569 0-6.454-.998-6.454-2.242 0-1.245 2.885-2.243 6.454-2.243 3.57 0 6.455 1.01 6.455 2.243 0 1.232-2.935 2.242-6.455 2.242z"/><path fill="url(#P)" d="M37.668 17.866l-10.483-2.378-.112 4.534h.448c3.569 0 6.454 1.01 6.454 2.243 0 1.232-2.885 2.255-6.454 2.255h-.56l-.112 4.928 11.192 2.662-.373-14.244z" opacity=".9"/><path fill="url(#Q)" d="M27.073 21.304a12.13 12.13 0 0 1 6.728 1.441.857.857 0 0 0 .174-.505c0-1.232-2.885-2.242-6.454-2.242h-.448v-.801l-3.656.517-2.81 1.356v1.293l.534.074a20.254 20.254 0 0 1 5.92-1.318l.012.185z"/><path fill="url(#R)" d="M21.066 22.24c0-1.232 2.65-2.144 6.007-2.218l.075-3.351L.21 22.03l26.675 5.79.075-3.35c-3.295-.1-5.895-1.085-5.895-2.23z"/><path fill="url(#L)" d="M.211 50.37l26.937-5.372 69.317 16.227-22.894 5.582z"/><path fill="url(#S)" d="M8.058 25.58v24.728c0 .407.995.727 2.226.727 1.232 0 2.214-.32 2.214-.727V26.602l-2.487-.567-1.953-.456z"/><path fill="url(#T)" d="M.211 50.37v1.59L73.546 68.58l22.92-5.914v-1.442L73.57 66.807z"/><path fill="url(#U)" d="M86.193 37.26v23.928c0 .407.995.727 2.226.727 1.231 0 2.226-.32 2.226-.727V36.126l-4.452 1.134z"/><path fill="url(#V)" d="M24.225 29.263v17.349c0 .407.995.727 2.226.727 1.231 0 2.214-.32 2.214-.727v-14.6l-1.903-.457V29.88l-2.537-.616z"/><path fill="url(#W)" d="M74.255 54.325v-9.857c0-.69-1.84-1.232-4.117-1.232-2.275 0-4.116.554-4.116 1.232v9.537s-.336 5.483 4.116 5.47c4.453-.012 4.117-5.15 4.117-5.15z" opacity=".91"/><ellipse cx="70.138" cy="6.419" fill="#000" opacity=".2" rx="4.116" ry="1.244"/><path fill="#000" d="M69.927 34.081c1.84.109 3.68-.194 5.385-.887V6.432c0-.863-2.313-1.553-5.161-1.553-2.848 0-5.161.69-5.161 1.553v26.811a12.2 12.2 0 0 0 4.937.838zM73.372 40.513l-8.42-1.947v16.917c0 2.824 2.311 5.114 5.162 5.114 2.85 0 5.16-2.29 5.16-5.114V40.02l-1.902.493z" opacity=".2"/><path fill="url(#X)" d="M71.407 40.057v24.224c0 .406.995.727 2.214.727 1.218 0 2.226-.32 2.226-.727V39.884l-2.488.629-1.952-.456z"/><path fill="#000" d="M48.289 29.263a12.764 12.764 0 0 0 5.16-.924V2.44c0-.85-2.3-1.552-5.16-1.552-2.86 0-5.149.702-5.149 1.553v25.875a12.4 12.4 0 0 0 5.149.948zM43.14 33.527v17.989a5.102 5.102 0 0 0 2.502 4.637c1.633.97 3.673.97 5.306 0a5.102 5.102 0 0 0 2.501-4.637V35.905L43.14 33.527z" opacity=".2"/><ellipse cx="48.289" cy="2.464" fill="#000" opacity=".2" rx="4.116" ry="1.244"/><path fill="#C9C9C9" d="M46.299 29.152V4.375a9.426 9.426 0 0 1-2.065-.665v25.025c.676.196 1.366.336 2.065.418zM46.299 49.852V34.255l-2.102-.493v17.545c.043 2.258 1.84 4.098 4.116 4.214 0 0-2.176-1.33-2.014-5.668zM68.124 33.97V8.33a9.4 9.4 0 0 1-2.052-.666v25.875c.669.206 1.356.35 2.052.431zM68.074 53.808V39.293l-2.102-.48v16.449c.037 2.26 1.838 4.103 4.117 4.214 0 0-2.114-1.343-2.015-5.668z" opacity=".2"/><path fill="url(#Y)" d="M52.417 50.37V36.816c0-.69-1.853-1.232-4.128-1.232-2.276 0-4.117.555-4.117 1.232V50.05s-.335 5.483 4.117 5.47c4.452-.012 4.128-5.15 4.128-5.15z" opacity=".91"/><path fill="url(#Z)" fill-rule="nonzero" d="M63.71 31.641c.16-.616 1.006-1.145 2.287-1.515 1.729-1.491 1.866-2.883 1.132-4.128l-29.486-6.924.311 11.348 20.072 4.546a13.697 13.697 0 0 1 3.93-2.464c.684-.296 1.256-.58 1.753-.863zm-15.446-2.378c-3.557 0-6.455-1.01-6.455-2.242s2.898-2.255 6.455-2.255c3.556 0 6.466 1.01 6.466 2.255 0 1.244-2.872 2.242-6.441 2.242h-.025z"/><path style="mix-blend-mode:overlay" fill="url(#aa)" d="M43.14 51.516a4.983 4.983 0 0 0 .945 2.945l2.487 1.848a5.015 5.015 0 0 0 1.729.32l-.423-22.018-4.713-1.084-.025 17.989z" opacity=".3"/><path style="mix-blend-mode:overlay" fill="url(#ab)" d="M43.14 2.44v25.875c1.458.6 3.022.906 4.601.9l-.485-25.543c-3.27-.382-3.084-1.232-3.084-1.232 0-1.232 4.117-1.232 4.117-1.232.41-.136 0-.32 0-.32-2.848.024-5.149.726-5.149 1.552z" opacity=".3"/><path style="mix-blend-mode:overlay" fill="url(#ac)" d="M64.953 6.432v26.811c1.466.588 3.032.893 4.613.9l-.572-26.454c-3.27-.382-2.997-1.233-2.997-1.233.15-1.232 4.005-1.232 4.005-1.232.41-.135 0-.308 0-.308-2.786-.012-5.05.653-5.05 1.516z" opacity=".3"/><path style="mix-blend-mode:overlay" fill="url(#ad)" d="M64.953 55.952a4.91 4.91 0 0 0 1.542 3.228 5.175 5.175 0 0 0 3.594 1.417l-.423-20.947-4.713-1.096v17.398z" opacity=".3"/></g><g><path fill="#000" d="M1040.636 428.91c1.576-2.915 16.065-22.371 17.3-24.511 1.237-2.14 1.262-37.019 1.262-37.019s0-.615-.896-.652a.71.71 0 0 1-.668-.662.705.705 0 0 1 .593-.727c.731-.062 6.128 0 6.128 0s5.41-.062 6.142 0a.705.705 0 0 1 .589.733.71.71 0 0 1-.678.656c-.87 0-.895.652-.895.652s.1 34.879 1.337 37.019c1.235 2.14 15.788 21.596 17.3 24.51a15.513 15.513 0 0 1 1.678 6.052c0 4.76-11.35 8.609-25.473 8.609s-25.46-3.85-25.46-8.61c.16-2.11.751-4.167 1.74-6.05z" opacity=".2"/><path fill="url(#ae)" d="M19.087 41.981L3.11 64.033a11.727 11.727 0 0 0-1.26 6.075s1.26 6.359 21.764 7.035c20.505.676 25.7-6.223 25.7-6.47 0-.245.492-3.074-2.08-7.132-2.573-4.059-15.297-21.56-15.297-21.56a17.294 17.294 0 0 0-12.85 0z" opacity=".91" transform="matrix(-1 0 0 1 1090 365)"/><path fill="#C9C9C9" d="M1069.16 366.138a2.876 2.876 0 0 0-.694 1.673c0 .897.568 34.435.568 34.435a20.09 20.09 0 0 0 2.925 6.15s-2.522-4.071-6.305-4.747a8.128 8.128 0 0 0-6.507 1.709c.592-1.607.973-3.28 1.135-4.98.278-2.842.34-33.096.34-33.096a1.734 1.734 0 0 0-.617-1.144h9.155z" opacity=".2"/><path style="mix-blend-mode:overlay" fill="url(#af)" d="M19.503.339a.705.705 0 0 0-.589.733.71.71 0 0 0 .678.656c.87 0 .895.652.895.652s-.1 34.879-1.337 37.019c-1.235 2.14-15.788 21.596-17.3 24.51a15.513 15.513 0 0 0-1.678 6.052c0 2.804 3.96 5.276 10.088 6.85a37.655 37.655 0 0 1 1.261-9.839c1.564-4.464 12.963-28.287 12.963-28.287l.064-36.514a1.745 1.745 0 0 1-.58-1.832c-1.766-.074-4.061-.074-4.465 0z" opacity=".3" transform="matrix(-1 0 0 1 1090 365)"/></g><g><path fill="url(#ag)" d="M32.942 125.693c-13.387 0-24.234 3.064-24.234 6.84v2.46c0 3.777 10.847 6.828 24.234 6.828 13.386 0 24.245-3.05 24.245-6.827v-2.46c0-3.74-10.859-6.84-24.245-6.84z" transform="matrix(-1 0 0 1 1151 289)"/><path fill="url(#ah)" d="M32.942 138.168c-12.64 0-23.026-2.731-24.122-6.213a2.069 2.069 0 0 0-.112.615v2.46c0 3.777 10.847 6.828 24.234 6.828 13.386 0 24.245-3.05 24.245-6.827v-2.46a2.069 2.069 0 0 0-.112-.616c-1.108 3.482-11.481 6.213-24.133 6.213z" transform="matrix(-1 0 0 1 1151 289)"/><path fill="url(#ai)" d="M31.82 131.598L8.709 76.24h1.134L33.85 131.6a1.634 1.634 0 0 1-2.03 0z" transform="matrix(-1 0 0 1 1151 289)"/><path fill="url(#aj)" d="M8.708 76.264l24.234-41.765.585.43L9.842 76.264z" transform="matrix(-1 0 0 1 1151 289)"/><g transform="scale(-1 1) rotate(30 -1104.906 -1964.6)"><path fill="url(#ak)" d="M59.08 1.566a3.252 3.252 0 0 0-1.146 0L4.387 9.82a3.709 3.709 0 0 0-2.942 3.137 3.68 3.68 0 0 0 2.033 3.776l46.71 22.267c.38.244.803.415 1.246.504 4.383.874 9.663-6.901 11.793-17.37 2.13-10.47.236-19.708-4.147-20.57z" transform="rotate(-2 32.758 20.544)"/><ellipse cx="55.255" cy="20.554" fill="url(#al)" rx="17.933" ry="7.506" transform="rotate(-80.63 55.255 20.554)"/><path fill="url(#am)" d="M51.509 11.703a4.512 4.512 0 0 0-1.407 0 40.811 40.811 0 0 0-3.027 13.815c.454.3.961.514 1.495.627 2.951.578 6.002-2.165 6.812-6.15.809-3.987-.922-7.702-3.873-8.292z" transform="rotate(-2 51.328 18.935)"/></g></g><g fill="#FFF"><path d="M284.93 224.105l4.05 5.474a.962.962 0 0 1-.218 1.354 1.012 1.012 0 0 1-1.384-.214l-3.277-4.419-3.278 4.42c-.32.427-.947.527-1.384.213l-.014-.014a.962.962 0 0 1-.219-1.354l4.093-5.517a.993.993 0 0 1 1.297-.242c0 .014.014.014.014.014.03 0 .044.014.059.029h.014l.015.014a.917.917 0 0 1 .233.242zm.161-6.272v3.877c0 .542-.451.97-.99.97a.981.981 0 0 1-.99-.97v-3.877c0-.542.45-.97.99-.97.539 0 .99.443.99.97zm-7.298 3.778l3.773 1.197a.977.977 0 0 1 .64 1.226 1.008 1.008 0 0 1-1.252.627l-3.773-1.212a.977.977 0 0 1-.64-1.225 1 1 0 0 1 1.252-.613zm13.212 1.838l-3.772 1.198a.996.996 0 0 1-1.253-.627c-.175-.514.116-1.055.64-1.226l3.774-1.198a.996.996 0 0 1 1.252.628.96.96 0 0 1-.64 1.225zM408.447 218.404l4.05 5.474a.962.962 0 0 1-.22 1.354 1.012 1.012 0 0 1-1.383-.214l-3.278-4.419-3.277 4.42c-.32.427-.947.527-1.384.213l-.015-.014a.962.962 0 0 1-.218-1.354l4.093-5.517a.993.993 0 0 1 1.297-.242c0 .014.014.014.014.014.03 0 .044.014.059.028h.014l.015.015a.917.917 0 0 1 .233.242zm.16-6.272v3.877c0 .542-.452.97-.99.97a.981.981 0 0 1-.991-.97v-3.877c0-.542.451-.97.99-.97.54 0 .991.442.991.97zm-7.298 3.777l3.773 1.198a.977.977 0 0 1 .64 1.226 1.008 1.008 0 0 1-1.252.627l-3.773-1.212a.977.977 0 0 1-.64-1.226 1 1 0 0 1 1.252-.613zm13.212 1.84l-3.773 1.197a.996.996 0 0 1-1.252-.628c-.175-.513.116-1.054.64-1.225l3.773-1.198a.996.996 0 0 1 1.253.627.96.96 0 0 1-.64 1.226zM484.143 199.354l2.531 3.284c.2.257.137.625-.136.813a.65.65 0 0 1-.865-.128l-2.049-2.652-2.048 2.652a.65.65 0 0 1-.865.128l-.009-.009a.563.563 0 0 1-.137-.812l2.559-3.31c.19-.24.537-.3.81-.146 0 .009.01.009.01.009.017 0 .026.009.036.017h.009l.009.009a.56.56 0 0 1 .145.145zm.1-3.763v2.326c0 .325-.282.582-.619.582-.345 0-.619-.265-.619-.582v-2.326c0-.325.283-.582.62-.582.336 0 .619.265.619.582zm-4.56 2.266l2.357.719c.328.102.501.427.4.735-.108.308-.454.47-.782.377l-2.358-.727c-.328-.103-.5-.428-.4-.736.109-.3.455-.47.782-.368zm8.257 1.104l-2.358.718a.628.628 0 0 1-.783-.376c-.11-.308.073-.633.4-.736l2.359-.718a.628.628 0 0 1 .783.376.572.572 0 0 1-.401.736zM345.603 327.476l2.531 3.284c.2.257.137.625-.136.813a.65.65 0 0 1-.865-.129l-2.049-2.65-2.048 2.65a.65.65 0 0 1-.865.129l-.01-.009a.563.563 0 0 1-.136-.812l2.559-3.31c.19-.24.537-.3.81-.146 0 .009.009.009.009.009.018 0 .027.008.036.017h.01l.009.009a.56.56 0 0 1 .145.145zm.1-3.763v2.326c0 .325-.282.582-.619.582-.346 0-.619-.265-.619-.582v-2.326c0-.325.282-.582.62-.582.336 0 .618.265.618.582zm-4.56 2.266l2.357.719c.328.102.5.427.4.735-.108.308-.454.47-.782.377l-2.358-.727c-.328-.103-.5-.428-.4-.736.108-.3.454-.47.782-.368zm8.257 1.104l-2.358.718a.628.628 0 0 1-.783-.376c-.11-.308.073-.633.4-.736l2.358-.718a.628.628 0 0 1 .783.376.572.572 0 0 1-.4.736zM351.126 253.515l2.531 3.285c.2.256.137.624-.136.812a.65.65 0 0 1-.865-.128l-2.049-2.652-2.048 2.652a.65.65 0 0 1-.865.128l-.009-.008a.563.563 0 0 1-.137-.813l2.559-3.31c.19-.24.537-.3.81-.145 0 .008.01.008.01.008.017 0 .026.009.036.017h.009l.009.009a.56.56 0 0 1 .145.145zm.1-3.763v2.326c0 .325-.282.582-.619.582-.346 0-.619-.265-.619-.582v-2.326c0-.325.283-.582.62-.582.336 0 .619.266.619.582zm-4.56 2.267l2.357.718c.328.103.501.428.4.735-.108.308-.454.47-.782.377l-2.358-.727c-.328-.103-.5-.428-.4-.736.109-.3.455-.47.782-.367zm8.257 1.103l-2.358.718a.628.628 0 0 1-.783-.376c-.11-.308.073-.633.4-.736l2.359-.718a.628.628 0 0 1 .782.376.572.572 0 0 1-.4.736zM379.421 294.343l1.519 1.825c.12.142.082.347-.082.451a.412.412 0 0 1-.519-.071l-1.229-1.473-1.23 1.473a.412.412 0 0 1-.518.071l-.006-.005c-.163-.104-.202-.309-.081-.451l1.535-1.839a.404.404 0 0 1 .486-.08c0 .004.005.004.005.004.011 0 .017.005.022.01h.005l.006.004a.325.325 0 0 1 .087.081zm.06-2.09v1.292c0 .18-.169.323-.371.323-.208 0-.371-.147-.371-.323v-1.293c0-.18.169-.323.371-.323.202 0 .371.148.371.323zm-2.736 1.259l1.414.399c.197.057.3.237.24.408-.065.171-.272.262-.469.21l-1.415-.405c-.196-.057-.3-.237-.24-.408.065-.166.273-.262.47-.204zm4.954.612l-1.415.4c-.196.057-.404-.038-.47-.21-.065-.17.044-.351.241-.408l1.415-.4c.196-.056.404.039.47.21.065.17-.044.356-.24.408zM369.603 170.476l2.531 3.284c.2.257.137.625-.136.813a.65.65 0 0 1-.865-.129l-2.049-2.65-2.048 2.65a.65.65 0 0 1-.865.129l-.01-.009a.563.563 0 0 1-.136-.812l2.559-3.31c.19-.24.537-.3.81-.146 0 .009.009.009.009.009.018 0 .027.008.036.017h.01l.009.009a.56.56 0 0 1 .145.145zm.1-3.763v2.326c0 .325-.282.582-.619.582-.346 0-.619-.265-.619-.582v-2.326c0-.325.282-.582.62-.582.336 0 .618.265.618.582zm-4.56 2.266l2.357.719c.328.102.5.427.4.735-.108.308-.454.47-.782.377l-2.358-.727c-.328-.103-.5-.428-.4-.736.108-.3.454-.47.782-.368zm8.257 1.104l-2.358.718a.628.628 0 0 1-.783-.376c-.11-.308.073-.633.4-.736l2.358-.718a.628.628 0 0 1 .783.376.572.572 0 0 1-.4.736zM198.898 104.304l1.519 1.824c.12.143.082.347-.082.452a.412.412 0 0 1-.52-.072l-1.228-1.473-1.23 1.473a.412.412 0 0 1-.518.072l-.006-.005c-.164-.105-.202-.309-.082-.451l1.535-1.84a.404.404 0 0 1 .487-.08c0 .005.005.005.005.005.011 0 .016.004.022.01h.005l.006.004a.325.325 0 0 1 .087.08zm.06-2.091v1.292c0 .181-.169.324-.371.324-.208 0-.372-.148-.372-.324v-1.292c0-.18.17-.323.372-.323.202 0 .371.147.371.323zm-2.736 1.26l1.414.398c.197.057.3.238.24.409-.065.171-.272.261-.47.209l-1.414-.404c-.197-.057-.3-.237-.24-.408.065-.167.273-.262.47-.205zm4.954.612l-1.415.4c-.196.056-.404-.039-.47-.21-.065-.17.044-.351.24-.408l1.416-.4c.196-.057.404.038.47.21.065.17-.044.356-.24.408zM396.767 122.373l4.05 5.473a.962.962 0 0 1-.22 1.355 1.012 1.012 0 0 1-1.383-.214l-3.278-4.42-3.277 4.42c-.32.427-.947.527-1.384.214l-.015-.015a.962.962 0 0 1-.218-1.354l4.093-5.516a.993.993 0 0 1 1.297-.243c0 .014.014.014.014.014.03 0 .044.015.059.029h.014l.015.014a.917.917 0 0 1 .233.243zm.16-6.273v3.878c0 .541-.452.969-.99.969a.981.981 0 0 1-.991-.97V116.1c0-.541.451-.969.99-.969.54 0 .99.442.99.97zm-7.298 3.778l3.773 1.197a.977.977 0 0 1 .64 1.226 1.008 1.008 0 0 1-1.252.627l-3.773-1.211a.977.977 0 0 1-.64-1.226 1 1 0 0 1 1.252-.613zm13.212 1.839l-3.773 1.197a.996.996 0 0 1-1.252-.627c-.175-.513.116-1.055.64-1.226l3.773-1.197a.996.996 0 0 1 1.253.627.96.96 0 0 1-.64 1.226zM277.967 140.442l2.531 3.284c.2.257.137.625-.137.813a.65.65 0 0 1-.864-.129l-2.049-2.651-2.048 2.651a.65.65 0 0 1-.865.129l-.01-.009a.563.563 0 0 1-.136-.812l2.558-3.31c.192-.24.538-.3.81-.146 0 .009.01.009.01.009.018 0 .027.008.036.017h.01l.008.008a.56.56 0 0 1 .146.146zm.1-3.763v2.326c0 .325-.282.582-.619.582-.346 0-.619-.266-.619-.582v-2.326c0-.325.282-.582.62-.582.336 0 .618.265.618.582zm-4.561 2.266l2.358.719c.328.102.5.427.4.735-.109.308-.455.47-.782.376l-2.358-.727c-.328-.102-.501-.427-.401-.735.11-.3.455-.47.783-.368zm8.258 1.103l-2.358.719a.628.628 0 0 1-.783-.376c-.11-.308.072-.633.4-.736l2.358-.718a.628.628 0 0 1 .783.376.572.572 0 0 1-.4.735zM220.751 168.917l1.519 1.825c.12.142.082.347-.082.451a.412.412 0 0 1-.52-.071l-1.228-1.473-1.23 1.473a.412.412 0 0 1-.518.071l-.006-.005c-.164-.104-.202-.308-.082-.451l1.535-1.839a.404.404 0 0 1 .486-.08c0 .004.006.004.006.004.01 0 .016.005.022.01h.005l.006.004a.325.325 0 0 1 .087.081zm.06-2.09v1.292c0 .18-.17.323-.371.323-.208 0-.372-.147-.372-.323v-1.293c0-.18.17-.323.372-.323.202 0 .371.148.371.323zm-2.737 1.259l1.415.399c.197.057.3.237.24.408-.065.171-.273.262-.47.21l-1.414-.404c-.197-.057-.3-.238-.24-.41.065-.165.273-.26.47-.203zm4.955.613l-1.415.399c-.197.057-.404-.038-.47-.21-.065-.17.044-.351.24-.408l1.415-.4c.197-.056.405.039.47.21.066.17-.043.356-.24.409zM516.239 181.27l1.518 1.824c.12.143.082.347-.081.452a.412.412 0 0 1-.52-.072l-1.229-1.473-1.229 1.473a.412.412 0 0 1-.519.072l-.005-.005c-.164-.105-.202-.309-.082-.451l1.535-1.84a.404.404 0 0 1 .486-.08c0 .005.006.005.006.005.01 0 .016.004.022.01h.005l.005.004a.325.325 0 0 1 .088.08zm.06-2.091v1.292c0 .18-.17.323-.372.323-.207 0-.371-.147-.371-.323v-1.292c0-.18.17-.323.371-.323.203 0 .372.147.372.323zm-2.737 1.26l1.415.398c.197.057.3.238.24.409-.065.171-.273.261-.47.209l-1.414-.404c-.197-.057-.3-.237-.24-.409.065-.166.273-.26.47-.204zm4.955.612l-1.415.4c-.197.056-.404-.039-.47-.21-.065-.17.044-.351.24-.408l1.415-.4c.197-.057.405.038.47.21.066.17-.044.356-.24.408z"/></g><g fill="#FFF"><path d="M1281.767 127.373l4.05 5.473a.962.962 0 0 1-.22 1.355 1.012 1.012 0 0 1-1.383-.214l-3.278-4.42-3.277 4.42c-.32.427-.947.527-1.384.214l-.015-.015a.962.962 0 0 1-.218-1.354l4.093-5.516a.993.993 0 0 1 1.297-.243c0 .014.014.014.014.014.03 0 .044.015.059.029h.014l.015.014a.917.917 0 0 1 .233.243zm.16-6.273v3.878c0 .541-.452.969-.99.969a.981.981 0 0 1-.991-.97V121.1c0-.541.451-.969.99-.969.54 0 .99.442.99.97zm-7.298 3.778l3.773 1.197a.977.977 0 0 1 .64 1.226 1.008 1.008 0 0 1-1.252.627l-3.773-1.211a.977.977 0 0 1-.64-1.226 1 1 0 0 1 1.252-.613zm13.212 1.839l-3.773 1.197a.996.996 0 0 1-1.252-.627c-.175-.513.116-1.055.64-1.226l3.773-1.197a.996.996 0 0 1 1.253.627.96.96 0 0 1-.64 1.226zM1142.767 182.373l4.05 5.473a.962.962 0 0 1-.22 1.355 1.012 1.012 0 0 1-1.383-.214l-3.278-4.42-3.277 4.42c-.32.427-.947.527-1.384.214l-.015-.015a.962.962 0 0 1-.218-1.354l4.093-5.516a.993.993 0 0 1 1.297-.243c0 .014.014.014.014.014.03 0 .044.015.059.029h.014l.015.014a.917.917 0 0 1 .233.243zm.16-6.273v3.878c0 .541-.452.969-.99.969a.981.981 0 0 1-.991-.97V176.1c0-.541.451-.969.99-.969.54 0 .99.442.99.97zm-7.298 3.778l3.773 1.197a.977.977 0 0 1 .64 1.226 1.008 1.008 0 0 1-1.252.627l-3.773-1.211a.977.977 0 0 1-.64-1.226 1 1 0 0 1 1.252-.613zm13.212 1.839l-3.773 1.197a.996.996 0 0 1-1.252-.627c-.175-.513.116-1.055.64-1.226l3.773-1.197a.996.996 0 0 1 1.253.627.96.96 0 0 1-.64 1.226zM1274.143 259.354l2.531 3.284c.2.257.137.625-.136.813a.65.65 0 0 1-.865-.128l-2.049-2.652-2.048 2.652a.65.65 0 0 1-.865.128l-.009-.009a.563.563 0 0 1-.137-.812l2.559-3.31c.19-.24.537-.3.81-.146 0 .009.01.009.01.009.017 0 .026.009.036.017h.009l.009.009a.56.56 0 0 1 .145.145zm.1-3.763v2.326c0 .325-.282.582-.619.582-.345 0-.619-.265-.619-.582v-2.326c0-.325.283-.582.62-.582.336 0 .619.265.619.582zm-4.56 2.266l2.357.719c.328.102.501.427.4.735-.108.308-.454.47-.782.377l-2.358-.727c-.328-.103-.5-.428-.4-.736.109-.3.455-.47.782-.368zm8.257 1.104l-2.358.718a.628.628 0 0 1-.783-.376c-.11-.308.073-.633.4-.736l2.359-.718a.628.628 0 0 1 .783.376.572.572 0 0 1-.401.736zM1226.637 325.868l2.531 3.284c.2.257.137.625-.136.813a.65.65 0 0 1-.865-.129l-2.049-2.651-2.048 2.651a.65.65 0 0 1-.865.129l-.01-.009a.563.563 0 0 1-.136-.812l2.559-3.31c.19-.24.537-.3.81-.146 0 .009.01.009.01.009.017 0 .026.008.035.017h.01l.009.008a.56.56 0 0 1 .145.146zm.1-3.763v2.326c0 .325-.282.582-.619.582-.346 0-.619-.266-.619-.582v-2.326c0-.325.283-.582.62-.582.336 0 .618.265.618.582zm-4.56 2.266l2.357.719c.328.102.501.427.4.735-.108.308-.454.47-.782.376l-2.358-.727c-.328-.102-.5-.427-.4-.735.109-.3.454-.47.782-.368zm8.257 1.103l-2.358.719a.628.628 0 0 1-.783-.376c-.11-.308.073-.633.4-.736l2.358-.718a.628.628 0 0 1 .783.376.572.572 0 0 1-.4.735zM1214.603 176.476l2.531 3.284c.2.257.137.625-.136.813a.65.65 0 0 1-.865-.129l-2.049-2.65-2.048 2.65a.65.65 0 0 1-.865.129l-.01-.009a.563.563 0 0 1-.136-.812l2.559-3.31c.19-.24.537-.3.81-.146 0 .009.009.009.009.009.018 0 .027.008.036.017h.01l.009.009a.56.56 0 0 1 .145.145zm.1-3.763v2.326c0 .325-.282.582-.619.582-.346 0-.619-.265-.619-.582v-2.326c0-.325.282-.582.62-.582.336 0 .618.265.618.582zm-4.56 2.266l2.357.719c.328.102.5.427.4.735-.108.308-.454.47-.782.377l-2.358-.727c-.328-.103-.5-.428-.4-.736.108-.3.454-.47.782-.368zm8.257 1.104l-2.358.718a.628.628 0 0 1-.783-.376c-.11-.308.073-.633.4-.736l2.358-.718a.628.628 0 0 1 .783.376.572.572 0 0 1-.4.736zM1327.494 208.545l1.519 1.825c.12.142.082.346-.082.45a.412.412 0 0 1-.519-.07l-1.229-1.473-1.23 1.473a.412.412 0 0 1-.518.07l-.006-.004c-.163-.104-.202-.309-.081-.451l1.535-1.84a.404.404 0 0 1 .486-.08c0 .005.005.005.005.005.011 0 .017.005.022.01h.005l.006.004a.325.325 0 0 1 .087.08zm.06-2.09v1.292c0 .18-.169.323-.371.323-.208 0-.371-.148-.371-.323v-1.293c0-.18.169-.323.371-.323.202 0 .371.147.371.323zm-2.736 1.258l1.414.4c.197.057.3.237.24.408-.065.171-.272.261-.469.21l-1.415-.405c-.196-.057-.3-.237-.24-.408.065-.167.273-.262.47-.205zm4.954.613l-1.415.4c-.196.056-.404-.039-.47-.21-.065-.17.044-.351.241-.408l1.415-.4c.196-.056.404.039.47.21.065.17-.044.356-.24.408zM960.603 123.476l2.531 3.284c.2.257.137.625-.136.813a.65.65 0 0 1-.865-.129l-2.049-2.65-2.048 2.65a.65.65 0 0 1-.865.129l-.01-.009a.563.563 0 0 1-.136-.812l2.559-3.31c.19-.24.537-.3.81-.146 0 .009.009.009.009.009.018 0 .027.008.036.017h.01l.009.009a.56.56 0 0 1 .145.145zm.1-3.763v2.326c0 .325-.282.582-.619.582-.346 0-.619-.265-.619-.582v-2.326c0-.325.282-.582.62-.582.336 0 .618.265.618.582zm-4.56 2.266l2.357.719c.328.102.5.427.4.735-.108.308-.454.47-.782.377l-2.358-.727c-.328-.103-.5-.428-.4-.736.108-.3.454-.47.782-.368zm8.257 1.104l-2.358.718a.628.628 0 0 1-.783-.376c-.11-.308.073-.633.4-.736l2.358-.718a.628.628 0 0 1 .783.376.572.572 0 0 1-.4.736zM988.898 164.304l1.519 1.824c.12.143.082.347-.082.452a.412.412 0 0 1-.52-.072l-1.228-1.473-1.23 1.473a.412.412 0 0 1-.518.072l-.006-.005c-.164-.105-.202-.309-.082-.451l1.535-1.84a.404.404 0 0 1 .487-.08c0 .005.005.005.005.005.011 0 .016.004.022.01h.005l.006.004a.325.325 0 0 1 .087.08zm.06-2.091v1.292c0 .181-.169.324-.371.324-.208 0-.372-.148-.372-.324v-1.292c0-.18.17-.323.372-.323.202 0 .371.147.371.323zm-2.736 1.26l1.414.398c.197.057.3.238.24.409-.065.171-.272.261-.47.209l-1.414-.404c-.197-.057-.3-.237-.24-.408.065-.167.273-.262.47-.205zm4.954.612l-1.415.4c-.196.056-.404-.039-.47-.21-.065-.17.044-.351.24-.408l1.416-.4c.196-.057.404.038.47.21.065.17-.044.356-.24.408zM1039.776 152.978l4.05 5.474a.962.962 0 0 1-.218 1.354 1.012 1.012 0 0 1-1.384-.214l-3.278-4.419-3.277 4.42c-.32.427-.947.527-1.384.213l-.015-.014a.962.962 0 0 1-.218-1.354l4.093-5.517a.993.993 0 0 1 1.296-.242c0 .014.015.014.015.014.03 0 .044.014.058.028h.015l.014.015a.917.917 0 0 1 .233.242zm.16-6.272v3.877c0 .542-.45.97-.99.97a.981.981 0 0 1-.99-.97v-3.877c0-.542.451-.97.99-.97.54 0 .99.442.99.97zm-7.297 3.777l3.773 1.198a.977.977 0 0 1 .64 1.226 1.008 1.008 0 0 1-1.252.627l-3.773-1.212a.977.977 0 0 1-.641-1.226 1 1 0 0 1 1.253-.613zm13.212 1.84l-3.773 1.197a.996.996 0 0 1-1.253-.627c-.175-.514.117-1.055.641-1.226l3.773-1.198a.996.996 0 0 1 1.253.627.96.96 0 0 1-.641 1.226zM1067.967 200.442l2.531 3.284c.2.257.137.625-.137.813a.65.65 0 0 1-.864-.129l-2.049-2.651-2.048 2.651a.65.65 0 0 1-.865.129l-.01-.009a.563.563 0 0 1-.136-.812l2.558-3.31c.192-.24.538-.3.81-.146 0 .009.01.009.01.009.018 0 .027.008.036.017h.01l.008.008a.56.56 0 0 1 .146.146zm.1-3.763v2.326c0 .325-.282.582-.619.582-.346 0-.619-.266-.619-.582v-2.326c0-.325.282-.582.62-.582.336 0 .618.265.618.582zm-4.561 2.266l2.358.719c.328.102.5.427.4.735-.109.308-.455.47-.782.376l-2.358-.727c-.328-.102-.501-.427-.401-.735.11-.3.455-.47.783-.368zm8.258 1.103l-2.358.719a.628.628 0 0 1-.783-.376c-.11-.308.072-.633.4-.736l2.358-.718a.628.628 0 0 1 .783.376.572.572 0 0 1-.4.735zM1010.751 228.917l1.519 1.825c.12.142.082.347-.082.451a.412.412 0 0 1-.52-.071l-1.228-1.473-1.23 1.473a.412.412 0 0 1-.518.071l-.006-.005c-.164-.104-.202-.308-.082-.451l1.535-1.839a.404.404 0 0 1 .486-.08c0 .004.006.004.006.004.01 0 .016.005.022.01h.005l.006.004a.325.325 0 0 1 .087.081zm.06-2.09v1.292c0 .18-.17.323-.371.323-.208 0-.372-.147-.372-.323v-1.293c0-.18.17-.323.372-.323.202 0 .371.148.371.323zm-2.737 1.259l1.415.399c.197.057.3.237.24.408-.065.171-.273.262-.47.21l-1.414-.404c-.197-.057-.3-.238-.24-.41.065-.165.273-.26.47-.203zm4.955.613l-1.415.399c-.197.057-.404-.038-.47-.21-.065-.17.044-.351.24-.408l1.415-.4c.197-.056.405.039.47.21.066.17-.043.356-.24.409zM1306.239 241.27l1.518 1.824c.12.143.082.347-.081.452a.412.412 0 0 1-.52-.072l-1.229-1.473-1.229 1.473a.412.412 0 0 1-.519.072l-.005-.005c-.164-.105-.202-.309-.082-.451l1.535-1.84a.404.404 0 0 1 .486-.08c0 .005.006.005.006.005.01 0 .016.004.022.01h.005l.005.004a.325.325 0 0 1 .088.08zm.06-2.091v1.292c0 .18-.17.323-.372.323-.207 0-.371-.147-.371-.323v-1.292c0-.18.17-.323.371-.323.203 0 .372.147.372.323zm-2.737 1.26l1.415.398c.197.057.3.238.24.409-.065.171-.273.261-.47.209l-1.414-.404c-.197-.057-.3-.237-.24-.409.065-.166.273-.26.47-.204zm4.955.612l-1.415.4c-.197.056-.404-.039-.47-.21-.065-.17.044-.351.24-.408l1.415-.4c.197-.057.405.038.47.21.066.17-.044.356-.24.408z"/></g></g></svg>