<?xml version="1.0" encoding="UTF-8"?>
<svg width="60px" height="60px" viewBox="0 0 60 60" version="1.1" xmlns="http://www.w3.org/2000/svg" xmlns:xlink="http://www.w3.org/1999/xlink">
    <!-- Generator: sketchtool 52.4 (67378) - http://www.bohemiancoding.com/sketch -->
    <title>97524492-A2C1-4127-9044-8400677C9264@1x</title>
    <desc>Created with sketchtool.</desc>
    <defs>
        <linearGradient x1="79.1267675%" y1="0%" x2="9.36745679%" y2="94.1386047%" id="linearGradient-1">
            <stop stop-color="#562FFD" offset="0%"></stop>
            <stop stop-color="#4897FF" offset="74.3655166%"></stop>
            <stop stop-color="#48D3FF" offset="100%"></stop>
        </linearGradient>
    </defs>
    <g id="Export" stroke="none" stroke-width="1" fill="none" fill-rule="evenodd">
        <g transform="translate(-1197.000000, -592.000000)" id="Icon9">
            <g transform="translate(1197.000000, 592.000000)">
                <circle id="Oval" fill="#FFFFFF" cx="30" cy="30" r="30"></circle>
                <path d="M43.1063822,24.9051824 L40.6495312,24.9051824 C40.2777568,24.9074982 39.911269,24.9922884 39.5771908,25.1532779 C39.5023842,25.1886444 39.4160221,25.1916273 39.338893,25.1615085 L34.2154888,23.2273042 C33.2118957,22.8739295 32.1063474,22.9345405 31.1485953,23.3954447 L28.6190635,24.6065271 C28.5277875,24.6515816 28.4195311,24.6475921 28.3319145,24.5959448 C27.3779918,24.0362441 26.2136469,23.94923 25.1851912,24.3607832 L21.6190637,25.8611144 C21.4995526,25.9119743 21.3604054,25.8800293 21.2759147,25.7823352 C20.7952766,25.225747 20.0914954,24.9051338 19.350468,24.9051824 L16.893617,24.9051824 C16.400086,24.9051824 16,25.3000028 16,25.7870385 L16,36.9572157 C16,37.4442514 16.400086,37.8390718 16.893617,37.8390718 L19.350468,37.8390718 C20.1697537,37.8385813 20.9380106,37.4463613 21.4117445,36.7867235 C21.4671182,36.7109188 21.5553689,36.6651969 21.6500424,36.6632637 L22.759319,36.6632637 C22.826149,36.6634271 22.89106,36.6853304 22.9439998,36.7255815 L26.273021,39.3123594 L26.2992337,39.3346998 C27.1400465,40.1629588 28.4808145,40.2255527 29.397106,39.4793242 L33.0394889,36.5303974 C33.0775121,36.4998391 33.1224904,36.4788565 33.1705527,36.4692553 L37.8114036,35.5533008 C37.8900426,35.5380338 37.9716006,35.5545543 38.0377866,35.5991573 C38.103529,35.6442044 38.1485124,35.7131166 38.162893,35.790814 C38.3778453,36.9780434 39.4250345,37.8419421 40.6471482,37.8402476 L43.1063822,37.8402476 C43.5999132,37.8402476 43.9999992,37.4454272 43.9999992,36.9583915 L43.9999992,25.7882143 C44.0003155,25.5541278 43.9063065,25.3295221 43.7386865,25.1638876 C43.5710665,24.9982531 43.3435908,24.9051822 43.1063822,24.9051824 Z M33.3171059,33.2687056 L31.9671485,34.3821959 L31.9397442,34.4021846 C31.8876255,34.4372362 31.8386001,34.4765696 31.793191,34.5197655 L31.7824676,34.5291719 L28.1627231,37.5169004 C28.0667373,37.5931932 27.9298577,37.5931932 27.833872,37.5169004 L24.0211062,34.5526881 C23.8106982,34.3899127 23.5509288,34.3017016 23.2835743,34.302241 L22.1814466,34.302241 C22.1023488,34.3025551 22.0263988,34.2716861 21.9704677,34.2164912 C21.9145367,34.1612962 21.883256,34.0863457 21.8835743,34.0082889 L21.8835743,28.4996278 C21.8834137,28.3820509 21.9548242,28.2758814 22.0646807,28.2303678 L26.0895316,26.5383799 L26.0966806,26.5383799 C26.1907553,26.5017821 26.2976937,26.5205362 26.3732306,26.5868793 C26.4487676,26.6532224 26.4800493,26.7558652 26.4541274,26.8523206 C26.2832731,27.4922563 26.3250372,28.1694098 26.5732763,28.7841734 C26.8824366,29.5548818 27.488762,30.1731017 28.2592337,30.5032049 C28.6538364,30.6714385 29.0792533,30.7578834 29.509106,30.7571794 C29.9141326,30.7570978 30.3155173,30.6817068 30.6922549,30.5349517 L30.8805102,30.4585242 C30.9966781,30.4117745 31.1300761,30.4418642 31.2141272,30.5337759 L33.3445101,32.8512937 C33.3995186,32.910301 33.4275977,32.9889892 33.4221931,33.0689905 C33.4167886,33.1489919 33.3783733,33.2233055 33.3159144,33.2745847 L33.3171059,33.2687056 Z M38.1164249,32.8536453 C38.1164538,32.9933515 38.0168361,33.1137771 37.878127,33.1417183 L36.314893,33.4497801 C36.2260256,33.4679873 36.1336242,33.4445396 36.0646803,33.3862864 C35.9945861,33.3281493 35.9554811,33.2414295 35.9586377,33.1511248 C35.9703474,32.5944443 35.784476,32.0512398 35.4331909,31.6155194 L35.4177016,31.5967064 L32.2769357,28.1868629 C31.9283716,27.8404776 31.4083492,27.7240961 30.9424677,27.8882076 L29.8010209,28.3503002 C29.6098523,28.4249926 29.3964325,28.421603 29.2077985,28.3408786 C29.0191645,28.2601542 28.8708,28.108721 28.7954039,27.9199544 C28.6465216,27.558368 28.8015039,27.1444033 29.1528507,26.9651982 L32.1982974,25.5013171 C32.5668391,25.3264622 32.9898429,25.299898 33.3778718,25.4272412 L37.9531909,27.1556791 C38.0474311,27.190417 38.1094142,27.2798154 38.1080845,27.3790827 L38.1164249,32.8536453 Z" id="Shape" fill="url(#linearGradient-1)" fill-rule="nonzero"></path>
            </g>
        </g>
    </g>
</svg>