<?xml version="1.0" encoding="UTF-8"?>
<svg width="505px" height="431px" viewBox="0 0 505 431" version="1.1" xmlns="http://www.w3.org/2000/svg" xmlns:xlink="http://www.w3.org/1999/xlink">
    <!-- Generator: sketchtool 52.4 (67378) - http://www.bohemiancoding.com/sketch -->
    <title>674C4523-9AB8-4E44-B5AC-CCF852B8E65F@1x</title>
    <desc>Created with sketchtool.</desc>
    <defs>
        <linearGradient x1="9.36745679%" y1="94.1386047%" x2="79.1267675%" y2="-1.04083409e-14%" id="linearGradient-1">
            <stop stop-color="#562FFD" offset="0%"></stop>
            <stop stop-color="#4897FF" offset="74.3655166%"></stop>
            <stop stop-color="#48D3FF" offset="100%"></stop>
        </linearGradient>
        <path d="M313.269987,544.803987 C437.661723,544.803987 556.73905,516.825713 544.431959,405.405945 C537.651906,344.024096 489.631065,289.166584 484.762561,183.770185 C481.398707,110.947385 427.697657,85 346.790805,85 C222.399068,85 84,116.656968 84,241.148427 C84,365.639886 188.87825,544.803987 313.269987,544.803987 Z" id="path-2"></path>
        <linearGradient x1="36.3636364%" y1="65.9427133%" x2="74.9900754%" y2="33.7721685%" id="linearGradient-4">
            <stop stop-color="#DF6B7D" offset="0%"></stop>
            <stop stop-color="#D5687C" offset="2%"></stop>
            <stop stop-color="#AA5B76" offset="11%"></stop>
            <stop stop-color="#854F70" offset="20%"></stop>
            <stop stop-color="#67466C" offset="30%"></stop>
            <stop stop-color="#503F69" offset="40%"></stop>
            <stop stop-color="#403A67" offset="51%"></stop>
            <stop stop-color="#363765" offset="63%"></stop>
            <stop stop-color="#333665" offset="79%"></stop>
            <stop stop-color="#2F3043" offset="93%"></stop>
            <stop stop-color="#2D2D2F" offset="100%"></stop>
        </linearGradient>
        <linearGradient x1="33.9653256%" y1="67.50235%" x2="82.1103502%" y2="20.1603911%" id="linearGradient-5">
            <stop stop-color="#EEB47B" offset="0%"></stop>
            <stop stop-color="#DF6B7D" offset="100%"></stop>
        </linearGradient>
        <linearGradient x1="24.4427068%" y1="47.2912401%" x2="92.5090139%" y2="52.0225776%" id="linearGradient-6">
            <stop stop-color="#DF6B7D" offset="0%"></stop>
            <stop stop-color="#D5687C" offset="2%"></stop>
            <stop stop-color="#AA5B76" offset="11%"></stop>
            <stop stop-color="#854F70" offset="20%"></stop>
            <stop stop-color="#67466C" offset="30%"></stop>
            <stop stop-color="#503F69" offset="40%"></stop>
            <stop stop-color="#403A67" offset="51%"></stop>
            <stop stop-color="#363765" offset="63%"></stop>
            <stop stop-color="#333665" offset="79%"></stop>
            <stop stop-color="#2F3043" offset="93%"></stop>
            <stop stop-color="#2D2D2F" offset="100%"></stop>
        </linearGradient>
        <linearGradient x1="48.7001883%" y1="49.2101984%" x2="97.4003765%" y2="54.2384472%" id="linearGradient-7">
            <stop stop-color="#EEB47B" offset="0%"></stop>
            <stop stop-color="#DF6B7D" offset="100%"></stop>
        </linearGradient>
        <linearGradient x1="42.346751%" y1="34.6205294%" x2="94.4965383%" y2="87.0902771%" id="linearGradient-8">
            <stop stop-color="#6FBEE8" offset="0%"></stop>
            <stop stop-color="#2964EC" offset="48%"></stop>
            <stop stop-color="#2D2D2F" offset="100%"></stop>
        </linearGradient>
        <linearGradient x1="42.7287487%" y1="109.318389%" x2="57.3742926%" y2="6.88127199%" id="linearGradient-9">
            <stop stop-color="#6FBEE8" offset="0%"></stop>
            <stop stop-color="#2964EC" offset="100%"></stop>
        </linearGradient>
        <linearGradient x1="32.7129186%" y1="115.64383%" x2="54.1021346%" y2="21.6445671%" id="linearGradient-10">
            <stop stop-color="#DF6B7D" offset="0%"></stop>
            <stop stop-color="#D5687C" offset="2%"></stop>
            <stop stop-color="#AA5B76" offset="11%"></stop>
            <stop stop-color="#854F70" offset="20%"></stop>
            <stop stop-color="#67466C" offset="30%"></stop>
            <stop stop-color="#503F69" offset="40%"></stop>
            <stop stop-color="#403A67" offset="51%"></stop>
            <stop stop-color="#363765" offset="63%"></stop>
            <stop stop-color="#333665" offset="79%"></stop>
            <stop stop-color="#2F3043" offset="93%"></stop>
            <stop stop-color="#2D2D2F" offset="100%"></stop>
        </linearGradient>
        <linearGradient x1="34.855973%" y1="150.963883%" x2="53.8007252%" y2="-22.5567056%" id="linearGradient-11">
            <stop stop-color="#DF6B7D" offset="0%"></stop>
            <stop stop-color="#D5687C" offset="2%"></stop>
            <stop stop-color="#AA5B76" offset="11%"></stop>
            <stop stop-color="#854F70" offset="20%"></stop>
            <stop stop-color="#67466C" offset="30%"></stop>
            <stop stop-color="#503F69" offset="40%"></stop>
            <stop stop-color="#403A67" offset="51%"></stop>
            <stop stop-color="#363765" offset="63%"></stop>
            <stop stop-color="#333665" offset="79%"></stop>
            <stop stop-color="#2F3043" offset="93%"></stop>
            <stop stop-color="#2D2D2F" offset="100%"></stop>
        </linearGradient>
        <linearGradient x1="-5.72913806%" y1="23.3062437%" x2="106.022895%" y2="76.4656502%" id="linearGradient-12">
            <stop stop-color="#DF6B7D" offset="0%"></stop>
            <stop stop-color="#D5687C" offset="2%"></stop>
            <stop stop-color="#AA5B76" offset="11%"></stop>
            <stop stop-color="#854F70" offset="20%"></stop>
            <stop stop-color="#67466C" offset="30%"></stop>
            <stop stop-color="#503F69" offset="40%"></stop>
            <stop stop-color="#403A67" offset="51%"></stop>
            <stop stop-color="#363765" offset="63%"></stop>
            <stop stop-color="#333665" offset="79%"></stop>
            <stop stop-color="#2F3043" offset="93%"></stop>
            <stop stop-color="#2D2D2F" offset="100%"></stop>
        </linearGradient>
        <linearGradient x1="-5.23240361%" y1="23.5237732%" x2="105.67734%" y2="76.2825106%" id="linearGradient-13">
            <stop stop-color="#EEB47B" offset="0%"></stop>
            <stop stop-color="#DF6B7D" offset="100%"></stop>
        </linearGradient>
        <linearGradient x1="-31.3672275%" y1="48.3991881%" x2="310.669382%" y2="60.7066027%" id="linearGradient-14">
            <stop stop-color="#DF6B7D" offset="0%"></stop>
            <stop stop-color="#D5687C" offset="2%"></stop>
            <stop stop-color="#AA5B76" offset="11%"></stop>
            <stop stop-color="#854F70" offset="20%"></stop>
            <stop stop-color="#67466C" offset="30%"></stop>
            <stop stop-color="#503F69" offset="40%"></stop>
            <stop stop-color="#403A67" offset="51%"></stop>
            <stop stop-color="#363765" offset="63%"></stop>
            <stop stop-color="#333665" offset="79%"></stop>
            <stop stop-color="#2F3043" offset="93%"></stop>
            <stop stop-color="#2D2D2F" offset="100%"></stop>
        </linearGradient>
        <linearGradient x1="-26.0504202%" y1="42.8104575%" x2="296.638655%" y2="74.8366013%" id="linearGradient-15">
            <stop stop-color="#DF6B7D" offset="0%"></stop>
            <stop stop-color="#D5687C" offset="2%"></stop>
            <stop stop-color="#AA5B76" offset="11%"></stop>
            <stop stop-color="#854F70" offset="20%"></stop>
            <stop stop-color="#67466C" offset="30%"></stop>
            <stop stop-color="#503F69" offset="40%"></stop>
            <stop stop-color="#403A67" offset="51%"></stop>
            <stop stop-color="#363765" offset="63%"></stop>
            <stop stop-color="#333665" offset="79%"></stop>
            <stop stop-color="#2F3043" offset="93%"></stop>
            <stop stop-color="#2D2D2F" offset="100%"></stop>
        </linearGradient>
        <linearGradient x1="-26.1859583%" y1="41.0909091%" x2="298.481973%" y2="81.0909091%" id="linearGradient-16">
            <stop stop-color="#DF6B7D" offset="0%"></stop>
            <stop stop-color="#D5687C" offset="2%"></stop>
            <stop stop-color="#AA5B76" offset="11%"></stop>
            <stop stop-color="#854F70" offset="20%"></stop>
            <stop stop-color="#67466C" offset="30%"></stop>
            <stop stop-color="#503F69" offset="40%"></stop>
            <stop stop-color="#403A67" offset="51%"></stop>
            <stop stop-color="#363765" offset="63%"></stop>
            <stop stop-color="#333665" offset="79%"></stop>
            <stop stop-color="#2F3043" offset="93%"></stop>
            <stop stop-color="#2D2D2F" offset="100%"></stop>
        </linearGradient>
        <linearGradient x1="21.8063477%" y1="6.07906199%" x2="129.187363%" y2="196.740078%" id="linearGradient-17">
            <stop stop-color="#DF6B7D" offset="0%"></stop>
            <stop stop-color="#D5687C" offset="2%"></stop>
            <stop stop-color="#AA5B76" offset="11%"></stop>
            <stop stop-color="#854F70" offset="20%"></stop>
            <stop stop-color="#67466C" offset="30%"></stop>
            <stop stop-color="#503F69" offset="40%"></stop>
            <stop stop-color="#403A67" offset="51%"></stop>
            <stop stop-color="#363765" offset="63%"></stop>
            <stop stop-color="#333665" offset="79%"></stop>
            <stop stop-color="#2F3043" offset="93%"></stop>
            <stop stop-color="#2D2D2F" offset="100%"></stop>
        </linearGradient>
        <linearGradient x1="-42.0636474%" y1="-2.83865462%" x2="132.291647%" y2="94.3030585%" id="linearGradient-18">
            <stop stop-color="#DC6A7C" offset="0%"></stop>
            <stop stop-color="#DF6B7D" offset="100%"></stop>
        </linearGradient>
        <linearGradient x1="-2.98921819%" y1="15.5203588%" x2="99.478007%" y2="96.5968602%" id="linearGradient-19">
            <stop stop-color="#EEB47B" offset="0%"></stop>
            <stop stop-color="#DF6B7D" offset="100%"></stop>
        </linearGradient>
        <linearGradient x1="-17.4705616%" y1="-20.4865466%" x2="110.570356%" y2="146.072714%" id="linearGradient-20">
            <stop stop-color="#EEB47B" offset="0%"></stop>
            <stop stop-color="#DF6B7D" offset="100%"></stop>
        </linearGradient>
        <linearGradient x1="143.070061%" y1="72.9447063%" x2="50%" y2="11.8761751%" id="linearGradient-21">
            <stop stop-color="#483D68" offset="0%"></stop>
            <stop stop-color="#DF6B7D" offset="100%"></stop>
        </linearGradient>
        <linearGradient x1="13.8892318%" y1="-1.38463446%" x2="100%" y2="100%" id="linearGradient-22">
            <stop stop-color="#26FFE2" offset="0%"></stop>
            <stop stop-color="#01017B" offset="100%"></stop>
        </linearGradient>
        <linearGradient x1="0%" y1="49.9514251%" x2="99.9786211%" y2="49.9514251%" id="linearGradient-23">
            <stop stop-color="#EEB47B" offset="0%"></stop>
            <stop stop-color="#DF6B7D" offset="100%"></stop>
        </linearGradient>
        <linearGradient x1="83.6146299%" y1="37.6309086%" x2="-13.0925084%" y2="73.7050665%" id="linearGradient-24">
            <stop stop-color="#DF6B7D" offset="0%"></stop>
            <stop stop-color="#D5687C" offset="2%"></stop>
            <stop stop-color="#AA5B76" offset="11%"></stop>
            <stop stop-color="#854F70" offset="20%"></stop>
            <stop stop-color="#67466C" offset="30%"></stop>
            <stop stop-color="#503F69" offset="40%"></stop>
            <stop stop-color="#403A67" offset="51%"></stop>
            <stop stop-color="#363765" offset="63%"></stop>
            <stop stop-color="#333665" offset="79%"></stop>
            <stop stop-color="#2F3043" offset="93%"></stop>
            <stop stop-color="#2D2D2F" offset="100%"></stop>
        </linearGradient>
        <linearGradient x1="87.7682968%" y1="81.9686042%" x2="5.36781566%" y2="-59.333899%" id="linearGradient-25">
            <stop stop-color="#DF6B7D" offset="0%"></stop>
            <stop stop-color="#D5687C" offset="2%"></stop>
            <stop stop-color="#AA5B76" offset="11%"></stop>
            <stop stop-color="#854F70" offset="20%"></stop>
            <stop stop-color="#67466C" offset="30%"></stop>
            <stop stop-color="#503F69" offset="40%"></stop>
            <stop stop-color="#403A67" offset="51%"></stop>
            <stop stop-color="#363765" offset="63%"></stop>
            <stop stop-color="#333665" offset="79%"></stop>
            <stop stop-color="#2F3043" offset="93%"></stop>
            <stop stop-color="#2D2D2F" offset="100%"></stop>
        </linearGradient>
        <linearGradient x1="-86.8066774%" y1="87.7477755%" x2="311.308562%" y2="-48.6620529%" id="linearGradient-26">
            <stop stop-color="#DF6B7D" offset="0%"></stop>
            <stop stop-color="#D5687C" offset="2%"></stop>
            <stop stop-color="#AA5B76" offset="11%"></stop>
            <stop stop-color="#854F70" offset="20%"></stop>
            <stop stop-color="#67466C" offset="30%"></stop>
            <stop stop-color="#503F69" offset="40%"></stop>
            <stop stop-color="#403A67" offset="51%"></stop>
            <stop stop-color="#363765" offset="63%"></stop>
            <stop stop-color="#333665" offset="79%"></stop>
            <stop stop-color="#2F3043" offset="93%"></stop>
            <stop stop-color="#2D2D2F" offset="100%"></stop>
        </linearGradient>
        <linearGradient x1="2.95145631%" y1="92.2752839%" x2="145.475728%" y2="-59.3262398%" id="linearGradient-27">
            <stop stop-color="#DF6B7D" offset="0%"></stop>
            <stop stop-color="#D5687C" offset="2%"></stop>
            <stop stop-color="#AA5B76" offset="11%"></stop>
            <stop stop-color="#854F70" offset="20%"></stop>
            <stop stop-color="#67466C" offset="30%"></stop>
            <stop stop-color="#503F69" offset="40%"></stop>
            <stop stop-color="#403A67" offset="51%"></stop>
            <stop stop-color="#363765" offset="63%"></stop>
            <stop stop-color="#333665" offset="79%"></stop>
            <stop stop-color="#2F3043" offset="93%"></stop>
            <stop stop-color="#2D2D2F" offset="100%"></stop>
        </linearGradient>
        <linearGradient x1="15.6532245%" y1="82.1961138%" x2="148.925554%" y2="-37.8056075%" id="linearGradient-28">
            <stop stop-color="#DF6B7D" offset="0%"></stop>
            <stop stop-color="#D5687C" offset="2%"></stop>
            <stop stop-color="#AA5B76" offset="11%"></stop>
            <stop stop-color="#854F70" offset="20%"></stop>
            <stop stop-color="#67466C" offset="30%"></stop>
            <stop stop-color="#503F69" offset="40%"></stop>
            <stop stop-color="#403A67" offset="51%"></stop>
            <stop stop-color="#363765" offset="63%"></stop>
            <stop stop-color="#333665" offset="79%"></stop>
            <stop stop-color="#2F3043" offset="93%"></stop>
            <stop stop-color="#2D2D2F" offset="100%"></stop>
        </linearGradient>
        <linearGradient x1="-31.4970836%" y1="88.8218992%" x2="185.22359%" y2="-52.3090096%" id="linearGradient-29">
            <stop stop-color="#DF6B7D" offset="0%"></stop>
            <stop stop-color="#D5687C" offset="2%"></stop>
            <stop stop-color="#AA5B76" offset="11%"></stop>
            <stop stop-color="#854F70" offset="20%"></stop>
            <stop stop-color="#67466C" offset="30%"></stop>
            <stop stop-color="#503F69" offset="40%"></stop>
            <stop stop-color="#403A67" offset="51%"></stop>
            <stop stop-color="#363765" offset="63%"></stop>
            <stop stop-color="#333665" offset="79%"></stop>
            <stop stop-color="#2F3043" offset="93%"></stop>
            <stop stop-color="#2D2D2F" offset="100%"></stop>
        </linearGradient>
        <linearGradient x1="83.4810549%" y1="36.428209%" x2="-14.4753563%" y2="62.810756%" id="linearGradient-30">
            <stop stop-color="#EEB47B" offset="0%"></stop>
            <stop stop-color="#DF6B7D" offset="100%"></stop>
        </linearGradient>
        <linearGradient x1="-0.266193434%" y1="49.1166078%" x2="100%" y2="49.1166078%" id="linearGradient-31">
            <stop stop-color="#DF6B7D" offset="0%"></stop>
            <stop stop-color="#D5687C" offset="2%"></stop>
            <stop stop-color="#AA5B76" offset="11%"></stop>
            <stop stop-color="#854F70" offset="20%"></stop>
            <stop stop-color="#67466C" offset="30%"></stop>
            <stop stop-color="#503F69" offset="40%"></stop>
            <stop stop-color="#403A67" offset="51%"></stop>
            <stop stop-color="#363765" offset="63%"></stop>
            <stop stop-color="#333665" offset="79%"></stop>
            <stop stop-color="#2F3043" offset="93%"></stop>
            <stop stop-color="#2D2D2F" offset="100%"></stop>
        </linearGradient>
        <linearGradient x1="0.0884955752%" y1="50%" x2="100.088496%" y2="50%" id="linearGradient-32">
            <stop stop-color="#DF6B7D" offset="0%"></stop>
            <stop stop-color="#D5687C" offset="2%"></stop>
            <stop stop-color="#AA5B76" offset="11%"></stop>
            <stop stop-color="#854F70" offset="20%"></stop>
            <stop stop-color="#67466C" offset="30%"></stop>
            <stop stop-color="#503F69" offset="40%"></stop>
            <stop stop-color="#403A67" offset="51%"></stop>
            <stop stop-color="#363765" offset="63%"></stop>
            <stop stop-color="#333665" offset="79%"></stop>
            <stop stop-color="#2F3043" offset="93%"></stop>
            <stop stop-color="#2D2D2F" offset="100%"></stop>
        </linearGradient>
        <linearGradient x1="35.990676%" y1="144.897959%" x2="70.02331%" y2="-87.9120879%" id="linearGradient-33">
            <stop stop-color="#DF6B7D" offset="0%"></stop>
            <stop stop-color="#D5687C" offset="2%"></stop>
            <stop stop-color="#AA5B76" offset="11%"></stop>
            <stop stop-color="#854F70" offset="20%"></stop>
            <stop stop-color="#67466C" offset="30%"></stop>
            <stop stop-color="#503F69" offset="40%"></stop>
            <stop stop-color="#403A67" offset="51%"></stop>
            <stop stop-color="#363765" offset="63%"></stop>
            <stop stop-color="#333665" offset="79%"></stop>
            <stop stop-color="#2F3043" offset="93%"></stop>
            <stop stop-color="#2D2D2F" offset="100%"></stop>
        </linearGradient>
        <linearGradient x1="32.0261438%" y1="137.5%" x2="76.1437908%" y2="-72.4489796%" id="linearGradient-34">
            <stop stop-color="#DF6B7D" offset="0%"></stop>
            <stop stop-color="#D5687C" offset="2%"></stop>
            <stop stop-color="#AA5B76" offset="11%"></stop>
            <stop stop-color="#854F70" offset="20%"></stop>
            <stop stop-color="#67466C" offset="30%"></stop>
            <stop stop-color="#503F69" offset="40%"></stop>
            <stop stop-color="#403A67" offset="51%"></stop>
            <stop stop-color="#363765" offset="63%"></stop>
            <stop stop-color="#333665" offset="79%"></stop>
            <stop stop-color="#2F3043" offset="93%"></stop>
            <stop stop-color="#2D2D2F" offset="100%"></stop>
        </linearGradient>
        <linearGradient x1="29.8745482%" y1="255.677656%" x2="78.2691899%" y2="-308.791209%" id="linearGradient-35">
            <stop stop-color="#DF6B7D" offset="0%"></stop>
            <stop stop-color="#D5687C" offset="2%"></stop>
            <stop stop-color="#AA5B76" offset="11%"></stop>
            <stop stop-color="#854F70" offset="20%"></stop>
            <stop stop-color="#67466C" offset="30%"></stop>
            <stop stop-color="#503F69" offset="40%"></stop>
            <stop stop-color="#403A67" offset="51%"></stop>
            <stop stop-color="#363765" offset="63%"></stop>
            <stop stop-color="#333665" offset="79%"></stop>
            <stop stop-color="#2F3043" offset="93%"></stop>
            <stop stop-color="#2D2D2F" offset="100%"></stop>
        </linearGradient>
        <linearGradient x1="0.0211505922%" y1="50%" x2="100.021151%" y2="50%" id="linearGradient-36">
            <stop stop-color="#DF6B7D" offset="0%"></stop>
            <stop stop-color="#D5687C" offset="2%"></stop>
            <stop stop-color="#AA5B76" offset="11%"></stop>
            <stop stop-color="#854F70" offset="20%"></stop>
            <stop stop-color="#67466C" offset="30%"></stop>
            <stop stop-color="#503F69" offset="40%"></stop>
            <stop stop-color="#403A67" offset="51%"></stop>
            <stop stop-color="#363765" offset="63%"></stop>
            <stop stop-color="#333665" offset="79%"></stop>
            <stop stop-color="#2F3043" offset="93%"></stop>
            <stop stop-color="#2D2D2F" offset="100%"></stop>
        </linearGradient>
        <linearGradient x1="0.111111111%" y1="50.0371195%" x2="100.222222%" y2="50.0371195%" id="linearGradient-37">
            <stop stop-color="#DF6B7D" offset="0%"></stop>
            <stop stop-color="#D5687C" offset="2%"></stop>
            <stop stop-color="#AA5B76" offset="11%"></stop>
            <stop stop-color="#854F70" offset="20%"></stop>
            <stop stop-color="#67466C" offset="30%"></stop>
            <stop stop-color="#503F69" offset="40%"></stop>
            <stop stop-color="#403A67" offset="51%"></stop>
            <stop stop-color="#363765" offset="63%"></stop>
            <stop stop-color="#333665" offset="79%"></stop>
            <stop stop-color="#2F3043" offset="93%"></stop>
            <stop stop-color="#2D2D2F" offset="100%"></stop>
        </linearGradient>
        <linearGradient x1="0.0930232558%" y1="50.174216%" x2="100%" y2="50.174216%" id="linearGradient-38">
            <stop stop-color="#DF6B7D" offset="0%"></stop>
            <stop stop-color="#D5687C" offset="2%"></stop>
            <stop stop-color="#AA5B76" offset="11%"></stop>
            <stop stop-color="#854F70" offset="20%"></stop>
            <stop stop-color="#67466C" offset="30%"></stop>
            <stop stop-color="#503F69" offset="40%"></stop>
            <stop stop-color="#403A67" offset="51%"></stop>
            <stop stop-color="#363765" offset="63%"></stop>
            <stop stop-color="#333665" offset="79%"></stop>
            <stop stop-color="#2F3043" offset="93%"></stop>
            <stop stop-color="#2D2D2F" offset="100%"></stop>
        </linearGradient>
        <linearGradient x1="129.270545%" y1="60.5960265%" x2="-97.1837488%" y2="-20.3090508%" id="linearGradient-39">
            <stop stop-color="#EEB47B" offset="0%"></stop>
            <stop stop-color="#DF6B7D" offset="100%"></stop>
        </linearGradient>
        <linearGradient x1="0%" y1="50%" x2="100%" y2="50%" id="linearGradient-40">
            <stop stop-color="#DF6B7D" offset="0%"></stop>
            <stop stop-color="#D5687C" offset="2%"></stop>
            <stop stop-color="#AA5B76" offset="11%"></stop>
            <stop stop-color="#854F70" offset="20%"></stop>
            <stop stop-color="#67466C" offset="30%"></stop>
            <stop stop-color="#503F69" offset="40%"></stop>
            <stop stop-color="#403A67" offset="51%"></stop>
            <stop stop-color="#363765" offset="63%"></stop>
            <stop stop-color="#333665" offset="79%"></stop>
            <stop stop-color="#2F3043" offset="93%"></stop>
            <stop stop-color="#2D2D2F" offset="100%"></stop>
        </linearGradient>
        <linearGradient x1="-10.3641457%" y1="151.553398%" x2="143.417367%" y2="-110.679612%" id="linearGradient-41">
            <stop stop-color="#DF6B7D" offset="0%"></stop>
            <stop stop-color="#D5687C" offset="2%"></stop>
            <stop stop-color="#AA5B76" offset="11%"></stop>
            <stop stop-color="#854F70" offset="20%"></stop>
            <stop stop-color="#67466C" offset="30%"></stop>
            <stop stop-color="#503F69" offset="40%"></stop>
            <stop stop-color="#403A67" offset="51%"></stop>
            <stop stop-color="#363765" offset="63%"></stop>
            <stop stop-color="#333665" offset="79%"></stop>
            <stop stop-color="#2F3043" offset="93%"></stop>
            <stop stop-color="#2D2D2F" offset="100%"></stop>
        </linearGradient>
        <linearGradient x1="48.3979328%" y1="116.508796%" x2="51.4341085%" y2="-40.1894452%" id="linearGradient-42">
            <stop stop-color="#DF6B7D" offset="0%"></stop>
            <stop stop-color="#D5687C" offset="2%"></stop>
            <stop stop-color="#AA5B76" offset="11%"></stop>
            <stop stop-color="#854F70" offset="20%"></stop>
            <stop stop-color="#67466C" offset="30%"></stop>
            <stop stop-color="#503F69" offset="40%"></stop>
            <stop stop-color="#403A67" offset="51%"></stop>
            <stop stop-color="#363765" offset="63%"></stop>
            <stop stop-color="#333665" offset="79%"></stop>
            <stop stop-color="#2F3043" offset="93%"></stop>
            <stop stop-color="#2D2D2F" offset="100%"></stop>
        </linearGradient>
        <linearGradient x1="-9.4972067%" y1="152.173913%" x2="148.603352%" y2="-113.85571%" id="linearGradient-43">
            <stop stop-color="#DF6B7D" offset="0%"></stop>
            <stop stop-color="#D5687C" offset="2%"></stop>
            <stop stop-color="#AA5B76" offset="11%"></stop>
            <stop stop-color="#854F70" offset="20%"></stop>
            <stop stop-color="#67466C" offset="30%"></stop>
            <stop stop-color="#503F69" offset="40%"></stop>
            <stop stop-color="#403A67" offset="51%"></stop>
            <stop stop-color="#363765" offset="63%"></stop>
            <stop stop-color="#333665" offset="79%"></stop>
            <stop stop-color="#2F3043" offset="93%"></stop>
            <stop stop-color="#2D2D2F" offset="100%"></stop>
        </linearGradient>
        <linearGradient x1="7.00280112%" y1="151.643836%" x2="115.966387%" y2="-110.410959%" id="linearGradient-44">
            <stop stop-color="#DF6B7D" offset="0%"></stop>
            <stop stop-color="#D5687C" offset="2%"></stop>
            <stop stop-color="#AA5B76" offset="11%"></stop>
            <stop stop-color="#854F70" offset="20%"></stop>
            <stop stop-color="#67466C" offset="30%"></stop>
            <stop stop-color="#503F69" offset="40%"></stop>
            <stop stop-color="#403A67" offset="51%"></stop>
            <stop stop-color="#363765" offset="63%"></stop>
            <stop stop-color="#333665" offset="79%"></stop>
            <stop stop-color="#2F3043" offset="93%"></stop>
            <stop stop-color="#2D2D2F" offset="100%"></stop>
        </linearGradient>
        <linearGradient x1="66.7439085%" y1="-18.873644%" x2="26.1663285%" y2="124.352961%" id="linearGradient-45">
            <stop stop-color="#DF6B7D" offset="5%"></stop>
            <stop stop-color="#D5687C" offset="7%"></stop>
            <stop stop-color="#AA5B76" offset="14%"></stop>
            <stop stop-color="#854F70" offset="22%"></stop>
            <stop stop-color="#67466C" offset="30%"></stop>
            <stop stop-color="#503F69" offset="38%"></stop>
            <stop stop-color="#403A67" offset="47%"></stop>
            <stop stop-color="#363765" offset="57%"></stop>
            <stop stop-color="#333665" offset="69%"></stop>
            <stop stop-color="#2F3043" offset="89%"></stop>
            <stop stop-color="#2D2D2F" offset="100%"></stop>
        </linearGradient>
        <linearGradient x1="-10.0840336%" y1="152.205882%" x2="144.257703%" y2="-113.921569%" id="linearGradient-46">
            <stop stop-color="#DF6B7D" offset="0%"></stop>
            <stop stop-color="#D5687C" offset="2%"></stop>
            <stop stop-color="#AA5B76" offset="11%"></stop>
            <stop stop-color="#854F70" offset="20%"></stop>
            <stop stop-color="#67466C" offset="30%"></stop>
            <stop stop-color="#503F69" offset="40%"></stop>
            <stop stop-color="#403A67" offset="51%"></stop>
            <stop stop-color="#363765" offset="63%"></stop>
            <stop stop-color="#333665" offset="79%"></stop>
            <stop stop-color="#2F3043" offset="93%"></stop>
            <stop stop-color="#2D2D2F" offset="100%"></stop>
        </linearGradient>
        <linearGradient x1="71.1668322%" y1="-18.5413321%" x2="21.4592075%" y2="123.979707%" id="linearGradient-47">
            <stop stop-color="#DF6B7D" offset="5%"></stop>
            <stop stop-color="#D5687C" offset="7%"></stop>
            <stop stop-color="#AA5B76" offset="14%"></stop>
            <stop stop-color="#854F70" offset="22%"></stop>
            <stop stop-color="#67466C" offset="30%"></stop>
            <stop stop-color="#503F69" offset="38%"></stop>
            <stop stop-color="#403A67" offset="47%"></stop>
            <stop stop-color="#363765" offset="57%"></stop>
            <stop stop-color="#333665" offset="69%"></stop>
            <stop stop-color="#2F3043" offset="89%"></stop>
            <stop stop-color="#2D2D2F" offset="100%"></stop>
        </linearGradient>
        <linearGradient x1="0.0415143157%" y1="49.9612102%" x2="99.8834435%" y2="49.9612102%" id="linearGradient-48">
            <stop stop-color="#EEB47B" offset="0%"></stop>
            <stop stop-color="#DF6B7D" offset="100%"></stop>
        </linearGradient>
        <linearGradient x1="9.54831457e-05%" y1="50.1066098%" x2="99.5180727%" y2="50.1066098%" id="linearGradient-49">
            <stop stop-color="#EEB47B" offset="0%"></stop>
            <stop stop-color="#DF6B7D" offset="100%"></stop>
        </linearGradient>
        <linearGradient x1="0%" y1="49.9999994%" x2="100.07776%" y2="49.9999994%" id="linearGradient-50">
            <stop stop-color="#EEB47B" offset="0%"></stop>
            <stop stop-color="#DF6B7D" offset="100%"></stop>
        </linearGradient>
        <linearGradient x1="-0.713153724%" y1="50.0629594%" x2="99.6038035%" y2="50.0629594%" id="linearGradient-51">
            <stop stop-color="#EEB47B" offset="0%"></stop>
            <stop stop-color="#DF6B7D" offset="100%"></stop>
        </linearGradient>
        <linearGradient x1="-0.242130751%" y1="50.0544922%" x2="99.7578692%" y2="50.0544922%" id="linearGradient-52">
            <stop stop-color="#EEB47B" offset="0%"></stop>
            <stop stop-color="#DF6B7D" offset="100%"></stop>
        </linearGradient>
        <linearGradient x1="87.0402609%" y1="7.57721382%" x2="36.052241%" y2="100%" id="linearGradient-53">
            <stop stop-color="#E946A1" offset="0%"></stop>
            <stop stop-color="#FCBE63" offset="100%"></stop>
        </linearGradient>
        <linearGradient x1="2.94068385e-13%" y1="49.9890547%" x2="99.7930678%" y2="49.9890547%" id="linearGradient-54">
            <stop stop-color="#EEB47B" offset="0%"></stop>
            <stop stop-color="#DF6B7D" offset="100%"></stop>
        </linearGradient>
        <linearGradient x1="53.5833547%" y1="-24.2378049%" x2="46.0827126%" y2="131.021341%" id="linearGradient-55">
            <stop stop-color="#DF6B7D" offset="5%"></stop>
            <stop stop-color="#D5687C" offset="7%"></stop>
            <stop stop-color="#AA5B76" offset="14%"></stop>
            <stop stop-color="#854F70" offset="22%"></stop>
            <stop stop-color="#67466C" offset="30%"></stop>
            <stop stop-color="#503F69" offset="38%"></stop>
            <stop stop-color="#403A67" offset="47%"></stop>
            <stop stop-color="#363765" offset="57%"></stop>
            <stop stop-color="#333665" offset="69%"></stop>
            <stop stop-color="#2F3043" offset="89%"></stop>
            <stop stop-color="#2D2D2F" offset="100%"></stop>
        </linearGradient>
        <linearGradient x1="89.2114051%" y1="29.528536%" x2="-25.533008%" y2="67.9900744%" id="linearGradient-56">
            <stop stop-color="#DF6B7D" offset="5%"></stop>
            <stop stop-color="#D5687C" offset="7%"></stop>
            <stop stop-color="#AA5B76" offset="14%"></stop>
            <stop stop-color="#854F70" offset="22%"></stop>
            <stop stop-color="#67466C" offset="30%"></stop>
            <stop stop-color="#503F69" offset="38%"></stop>
            <stop stop-color="#403A67" offset="47%"></stop>
            <stop stop-color="#363765" offset="57%"></stop>
            <stop stop-color="#333665" offset="69%"></stop>
            <stop stop-color="#2F3043" offset="89%"></stop>
            <stop stop-color="#2D2D2F" offset="100%"></stop>
        </linearGradient>
        <linearGradient x1="82.7637444%" y1="48.9038074%" x2="-13.8187221%" y2="51.9064791%" id="linearGradient-57">
            <stop stop-color="#DF6B7D" offset="5%"></stop>
            <stop stop-color="#D5687C" offset="7%"></stop>
            <stop stop-color="#AA5B76" offset="14%"></stop>
            <stop stop-color="#854F70" offset="22%"></stop>
            <stop stop-color="#67466C" offset="30%"></stop>
            <stop stop-color="#503F69" offset="38%"></stop>
            <stop stop-color="#403A67" offset="47%"></stop>
            <stop stop-color="#363765" offset="57%"></stop>
            <stop stop-color="#333665" offset="69%"></stop>
            <stop stop-color="#2F3043" offset="89%"></stop>
            <stop stop-color="#2D2D2F" offset="100%"></stop>
        </linearGradient>
        <linearGradient x1="93.226292%" y1="48.2768778%" x2="-34.5208229%" y2="53.4904271%" id="linearGradient-58">
            <stop stop-color="#DF6B7D" offset="5%"></stop>
            <stop stop-color="#D5687C" offset="7%"></stop>
            <stop stop-color="#AA5B76" offset="14%"></stop>
            <stop stop-color="#854F70" offset="22%"></stop>
            <stop stop-color="#67466C" offset="30%"></stop>
            <stop stop-color="#503F69" offset="38%"></stop>
            <stop stop-color="#403A67" offset="47%"></stop>
            <stop stop-color="#363765" offset="57%"></stop>
            <stop stop-color="#333665" offset="69%"></stop>
            <stop stop-color="#2F3043" offset="89%"></stop>
            <stop stop-color="#2D2D2F" offset="100%"></stop>
        </linearGradient>
        <linearGradient x1="89.7058873%" y1="49.4900414%" x2="-24.838489%" y2="62.4869352%" id="linearGradient-59">
            <stop stop-color="#DF6B7D" offset="5%"></stop>
            <stop stop-color="#D5687C" offset="7%"></stop>
            <stop stop-color="#AA5B76" offset="14%"></stop>
            <stop stop-color="#854F70" offset="22%"></stop>
            <stop stop-color="#67466C" offset="30%"></stop>
            <stop stop-color="#503F69" offset="38%"></stop>
            <stop stop-color="#403A67" offset="47%"></stop>
            <stop stop-color="#363765" offset="57%"></stop>
            <stop stop-color="#333665" offset="69%"></stop>
            <stop stop-color="#2F3043" offset="89%"></stop>
            <stop stop-color="#2D2D2F" offset="100%"></stop>
        </linearGradient>
        <linearGradient x1="72.5275436%" y1="124.327423%" x2="16.856774%" y2="-59.6466546%" id="linearGradient-60">
            <stop stop-color="#FFFFFF" offset="0%"></stop>
            <stop stop-color="#DF6B7D" offset="100%"></stop>
        </linearGradient>
        <linearGradient x1="275.006398%" y1="100%" x2="-471.489781%" y2="-115.270464%" id="linearGradient-61">
            <stop stop-color="#FFFFFF" offset="0%"></stop>
            <stop stop-color="#DF6B7D" offset="100%"></stop>
        </linearGradient>
        <linearGradient x1="2.61589594e-13%" y1="50%" x2="100%" y2="50%" id="linearGradient-62">
            <stop stop-color="#EEB47B" offset="0%"></stop>
            <stop stop-color="#DF6B7D" offset="100%"></stop>
        </linearGradient>
        <linearGradient x1="-2.70296392%" y1="8.41446453%" x2="74.6133859%" y2="80.3751424%" id="linearGradient-63">
            <stop stop-color="#A3DB5A" offset="0%"></stop>
            <stop stop-color="#FFD656" offset="100%"></stop>
        </linearGradient>
    </defs>
    <g id="Design" stroke="none" stroke-width="1" fill="none" fill-rule="evenodd">
        <g id="3b-Talents" transform="translate(-194.000000, -1513.000000)">
            <g id="Section-2" transform="translate(138.000000, 1173.000000)">
                <g id="illu-talent-2" transform="translate(0.000000, 230.000000)">
                    <mask id="mask-3" fill="white">
                        <use xlink:href="#path-2"></use>
                    </mask>
                    <use id="Mask" fill="url(#linearGradient-1)" fill-rule="nonzero" transform="translate(314.654997, 314.901993) rotate(-240.000000) translate(-314.654997, -314.901993) " xlink:href="#path-2"></use>
                    <g id="illu2-talants" mask="url(#mask-3)">
                        <g transform="translate(32.000000, 195.000000)">
                            <g id="Layer_65" transform="translate(284.000000, 0.000000)">
                                <path d="M5.99720339,126.790701 C3.05652542,127.760243 0.7775,129.097035 0.998050847,129.728706 L16.5983475,175.737871 C17.0939574,177.515767 18.5253426,178.879043 20.3265146,179.288643 C22.1276866,179.698242 24.0086322,179.088213 25.2256009,177.699769 C26.4425695,176.311325 26.7996127,174.368025 26.1555508,172.638275 L11.8050424,126.29124 C11.5844915,125.600809 9.02610169,125.835849 5.99720339,126.790701 Z" id="Path" fill="#000000" opacity="0.2"></path>
                                <ellipse id="Oval" fill="#000000" opacity="0.2" transform="translate(6.563725, 128.388047) rotate(-18.072322) translate(-6.563725, -128.388047) " cx="6.563725" cy="128.388047" rx="5.02459486" ry="1"></ellipse>
                                <path d="M122.13928,7.00822102 L116.581398,9.00606469 L109.009153,30.9088949 C109.273814,31.88823 109.553178,32.8675651 109.847246,33.8469003 C111.508729,39.13531 108.097542,42.8371968 107.112415,47.4204852 L111.920424,50.0793801 C111.920424,50.0793801 111.332288,58.6142857 122.212797,60.0392183 C133.093305,61.4641509 143.018093,53.2671159 143.018093,53.2671159 L144.150254,38.5770889 L139.739237,18.6427224 L122.13928,7.00822102 Z" id="visage_ombre" fill="url(#linearGradient-4)"></path>
                                <path d="M127.094322,56.1463612 C126.829661,54.5010782 124.903517,54.0897574 123.256737,52.5766846 C121.609958,51.0636119 127.094322,48.1696765 130.12322,45.5548518 C133.152119,42.940027 134.122542,40.2076819 132.887458,36.3588949 C131.652373,32.5101078 129.446864,32.6423181 126.417966,32.7745283 C123.389068,32.9067385 122.286314,30.438814 125.579873,30.0274933 C128.873432,29.6161725 129.1675,25.3560647 129.1675,25.3560647 L126.359153,13.4571429 L119.801441,9.13827493 L114.243559,11.1361186 L106.65661,33.0389488 C106.921271,34.0182839 107.200636,34.997619 107.494703,35.9769542 C109.17089,41.2653639 111.023517,41.852965 110.053093,46.4215633 L109.567881,52.209434 C109.567881,52.209434 110.317754,55.9113208 117.198941,58.5702156 C124.756483,61.2584906 127.373686,57.8063342 127.094322,56.1463612 Z" id="Path" fill="url(#linearGradient-5)"></path>
                                <path d="M148.840636,174.180728 C148.840636,174.180728 173.836398,240.021429 152.560593,411.968194 C153.546281,417.047204 155.301457,421.946332 157.765593,426.496631 C160.706271,431.961321 151.090254,435.824798 149.531695,435.824798 C146.261348,435.625424 143.328382,433.746028 141.783008,430.859569 C139.606907,426.834501 142.09178,426.21752 143.253347,417.844205 C144.414915,409.470889 125.579873,257.943261 120.771864,224.28841 C120.771864,224.28841 106.921271,332.627358 82.5430508,387.75903 C82.5430508,387.75903 76.852839,403.345148 79.0730508,412.923046 C81.5432203,423.529245 70.3392373,421.252291 65.7370763,423.426415 C63.1198729,424.675067 58.0177966,427.304582 51.9011864,426.702291 C46.4462288,426.15876 38.8298729,423.881806 42.8144915,419.078167 C45.2699576,416.140162 49.2692797,415.537871 53.1068644,413.877898 C59.5616525,411.116173 62.9287288,411.468733 67.2515254,394.854313 C71.574322,378.239892 91.6297458,170.361321 91.6297458,170.361321 L148.840636,174.180728 Z" id="Path" fill="url(#linearGradient-6)"></path>
                                <path d="M146.5175,311.59124 C144.944237,295.784771 143.032797,293.963208 142.988686,264.744744 C142.944576,235.52628 133.402076,174.180728 133.402076,174.180728 L111.111737,177.250943 L107.494703,177.500674 C102.216186,175.20903 98.6726695,174.636119 91.6297458,170.331941 C87.6304237,211.464016 71.045,380.399326 67.2956356,394.854313 C66.7663136,396.881536 66.2516949,398.64434 65.7517797,400.201482 C70.8097458,404.12372 74.8090678,397.043127 74.8090678,397.043127 C92.1443644,356.013881 92.1443644,293.551887 93.4970763,281.138814 C94.8497881,268.725741 117.0225,205.485175 115.155169,191.294609 L120.742458,224.28841 C125.153475,254.638005 140.959619,380.751887 143.13572,411.439353 C144.326695,412.746765 145.458856,413.187466 146.5175,412.482345 C155.589492,406.400674 148.090763,327.412399 146.5175,311.59124 Z" id="Path" fill="url(#linearGradient-7)"></path>
                                <path d="M153.251653,63.667655 C153.251653,63.667655 142.635805,57.2774933 142.95928,53.1936658 C142.981911,53.0938276 143.011387,52.9956626 143.0475,52.8998652 L140.797881,51.9009434 L103.818856,65.8858491 L96.5994915,63.3738544 C96.4442371,64.5586915 96.4442371,65.7586939 96.5994915,66.943531 C88.8211678,68.0057279 82.2334346,73.2036196 79.3965254,80.5171159 C74.5002966,93.0036388 63.0904661,116.081671 63.0904661,116.081671 L79.9405508,119.019677 L86.057161,113.760647 C86.057161,113.760647 82.1166525,120.106739 89.1742797,125.512668 C89.1742797,125.512668 94.3057627,138.498652 90.8945763,145.873046 C89.8212288,148.20876 86.0424576,150.280054 79.1318644,152.836119 C82.4401271,156.376415 83.2929237,163.339488 85.3661017,164.58814 L92.1002542,162.604987 L91.7473729,170.19973 C112.332119,186.608491 148.943559,174.048518 148.958263,174.048518 C148.531864,171.110512 146.767458,162.737197 146.635127,160.342722 C146.354406,156.538271 146.354406,152.718333 146.635127,148.913881 C146.635127,148.913881 154.736695,147.018868 155.721822,140.099865 C157.035294,133.164966 158.698901,126.300857 160.706271,119.533827 C162.779449,111.880323 165.587797,71.3358491 153.251653,63.667655 Z" id="Path" fill="url(#linearGradient-8)"></path>
                                <path d="M145.414746,87.0541779 C136.386864,87.3039084 136.386864,101.230054 135.784025,112.820485 C135.181186,124.410916 121.433517,131.300539 121.433517,131.300539 C122.477458,125.042588 119.963178,122.324933 117.669449,117.947305 C111.141144,105.681132 108.421017,105.328571 118.316398,89.9040431 C130.226144,71.3652291 122.727415,66.5175202 124.021314,60.1273585 L116.875466,54.412938 L109.656102,51.9009434 C109.494364,53.0467655 105.994958,59.9363881 103.333644,60.7149596 C103.333644,60.7149596 84.2192373,67.9865229 79.3230085,80.4877358 C74.4267797,92.9889488 63.0169492,116.052291 63.0169492,116.052291 C61.6854627,118.404352 59.8100365,120.403996 57.5472881,121.884232 L26.9642373,138.146092 C26.9642373,138.146092 25.7732627,146.049326 33.2572881,146.960108 C33.2572881,146.960108 63.0610593,138.146092 67.4867797,135.105256 C67.4867797,135.105256 75.3383898,132.240701 82.5136441,119.974528 L85.1455508,114.627358 C85.1455508,114.627358 82.0872458,120.106739 89.1448729,125.542049 C89.1448729,125.542049 92.2619915,136.721159 90.8651695,145.902426 C87.1228228,148.512138 83.1910327,150.839607 79.1024576,152.865499 C82.0431356,157.904178 83.2194068,161.679515 85.3366949,164.61752 L90.0417797,163.266038 L101.657458,159.637601 C103.598305,159.21159 106.671314,157.801348 109.332627,156.905256 C118.84572,153.129919 128.094153,150.206604 126.976695,149.046092 C125.859237,147.88558 107.112415,149.046092 117.80178,146.343127 C126.459975,144.06003 134.291642,139.368357 140.386186,132.813612 C144.00322,128.685714 142.709322,121.223181 145.547076,115.55283 C148.384831,109.88248 154.442627,86.7897574 145.414746,87.0541779 Z" id="Path" fill="url(#linearGradient-9)"></path>
                                <path d="M111.229364,28.9551213 C111.229364,28.9551213 113.670127,29.5721024 113.449576,30.5269542 C113.229025,31.4818059 111.126441,31.3202156 111.126441,31.3202156 C111.126441,31.3202156 111.126441,30.2037736 111.229364,28.9551213" id="Path" fill="url(#linearGradient-10)"></path>
                                <path d="M116.155,39.7816712 C117.199912,40.3215103 118.417365,40.421991 119.53678,40.0607817 C121.507034,39.4438005 118.728093,41.4416442 117.84589,41.5297844 C116.963686,41.6179245 115.008136,39.7229111 116.155,39.7816712 Z" id="Path" fill="url(#linearGradient-11)"></path>
                                <path d="M81.82497,150.879309 L91.523777,150.848328 C92.1699469,150.846264 92.6954443,151.368415 92.6975083,152.014585 C92.6975163,152.017084 92.6975163,152.019584 92.6975083,152.022084 L92.6663426,161.714136 C92.6642742,162.357379 92.143329,162.878313 91.500086,162.880368 L81.801279,162.911349 C81.1551091,162.913413 80.6296117,162.391262 80.6275476,161.745092 C80.6275396,161.742592 80.6275397,161.740092 80.6275477,161.737592 L80.6587134,152.045541 C80.6607818,151.402298 81.1817269,150.881363 81.82497,150.879309 Z" id="Rectangle" fill="url(#linearGradient-12)" transform="translate(86.662528, 156.879838) rotate(-25.440000) translate(-86.662528, -156.879838) "></path>
                                <path d="M82.3798302,151.43387 L90.9653389,151.406446 C91.6115087,151.404382 92.1370061,151.926533 92.1390702,152.572702 C92.1390782,152.575202 92.1390782,152.577702 92.1390701,152.580202 L92.1114824,161.159574 C92.109414,161.802818 91.5884688,162.323752 90.9452257,162.325806 L82.3597171,162.353231 C81.7135472,162.355295 81.1880498,161.833144 81.1859858,161.186974 C81.1859778,161.184474 81.1859778,161.181974 81.1859858,161.179475 L81.2135736,152.600102 C81.215642,151.956859 81.7365872,151.435925 82.3798302,151.43387 Z" id="Rectangle" fill="url(#linearGradient-13)" transform="translate(86.662528, 156.879838) rotate(-25.440000) translate(-86.662528, -156.879838) "></path>
                                <path d="M82.3798302,151.43387 L90.9653389,151.406446 C91.6115087,151.404382 92.1370061,151.926533 92.1390702,152.572702 C92.1390782,152.575202 92.1390782,152.577702 92.1390701,152.580202 L92.1114824,161.159574 C92.109414,161.802818 91.5884688,162.323752 90.9452257,162.325806 L82.3597171,162.353231 C81.7135472,162.355295 81.1880498,161.833144 81.1859858,161.186974 C81.1859778,161.184474 81.1859778,161.181974 81.1859858,161.179475 L81.2135736,152.600102 C81.215642,151.956859 81.7365872,151.435925 82.3798302,151.43387 Z" id="Rectangle" fill="url(#linearGradient-13)" transform="translate(86.662528, 156.879838) rotate(-25.440000) translate(-86.662528, -156.879838) "></path>
                                <path d="M90.0858898,151.264286 C89.6294562,150.316936 88.4924313,149.916384 87.5422034,150.368194 L86.1894915,151.014555 C86.7472458,152.535534 86.9140775,154.17203 86.6747034,155.774124 C86.1112921,158.204118 85.9081781,160.703615 86.0718644,163.192588 L92.2472881,160.254582 C93.2011041,159.804 93.6091281,158.666516 93.1588983,157.713208 L90.0858898,151.264286 Z" id="Path" fill="url(#linearGradient-14)"></path>
                                <polygon id="Path" fill="url(#linearGradient-15)" points="80.9403814 152.894879 80.4110593 151.851887 86.6747034 148.39973 87.4098729 149.824663"></polygon>
                                <polygon id="Path" fill="url(#linearGradient-16)" points="85.9689407 163.868329 86.3071186 164.72035 93.7176271 162.502156 92.6736864 160.680593"></polygon>
                                <path d="M82.7930085,158.506469 C82.7198962,158.53763 82.6352332,158.505097 82.6018644,158.433019 L82.0725424,157.316577 C82.0413529,157.243531 82.0739156,157.158945 82.1460593,157.125606 C82.1805397,157.10599 82.2220108,157.102867 82.2590448,157.117098 C82.2960788,157.131329 82.3247668,157.161411 82.3372034,157.199057 L82.8665254,158.315499 C82.8861598,158.349948 82.8892858,158.391381 82.8750419,158.428381 C82.8607981,158.465382 82.8306878,158.494044 82.7930085,158.506469 Z" id="Path" fill="#FFFFFF"></path>
                                <path d="M83.5428814,160.078302 C83.4655831,160.110856 83.3762025,160.078963 83.3370339,160.004852 L82.8224153,158.88841 C82.7963515,158.863472 82.7816126,158.82898 82.7816126,158.792925 C82.7816126,158.756869 82.7963515,158.722378 82.8224153,158.697439 C82.8795884,158.641449 82.9710895,158.641449 83.0282627,158.697439 L83.5575847,159.813881 C83.5991046,159.846467 83.6220914,159.897249 83.6191627,159.949918 C83.616234,160.002587 83.5877585,160.050512 83.5428814,160.078302 Z" id="Path" fill="#FFFFFF"></path>
                                <path d="M83.7046186,158.080458 C83.6273204,158.113012 83.5379398,158.08112 83.4987712,158.007008 L83.1017797,157.169677 C83.0705902,157.096631 83.1031529,157.012045 83.1752966,156.978706 C83.2097769,156.95909 83.2512481,156.955967 83.2882821,156.970197 C83.3253161,156.984428 83.3540041,157.014511 83.3664407,157.052156 L83.7634322,157.889488 C83.7837552,157.922009 83.7889472,157.961743 83.7776618,157.998387 C83.7663764,158.035032 83.7397253,158.064977 83.7046186,158.080458 Z" id="Path" fill="#FFFFFF"></path>
                                <path d="M84.3074576,159.373181 C84.2824967,159.399221 84.2479739,159.413946 84.2118856,159.413946 C84.1757973,159.413946 84.1412744,159.399221 84.1163136,159.373181 L83.719322,158.521159 C83.6996876,158.48671 83.6965617,158.445277 83.7108055,158.408276 C83.7250493,158.371276 83.7551596,158.342614 83.792839,158.330189 C83.792839,158.330189 83.9398729,158.330189 83.9839831,158.403639 L84.3809746,159.24097 C84.3828029,159.295227 84.3545322,159.346068 84.3074576,159.373181 Z" id="Path" fill="#FFFFFF"></path>
                                <path d="M85.1014407,157.419407 C85.0283498,157.443476 84.9484062,157.412756 84.9102966,157.345957 L84.5133051,156.508625 C84.4821156,156.43558 84.5146783,156.350993 84.586822,156.317655 C84.6117829,156.291615 84.6463057,156.276889 84.6823941,156.276889 C84.7184824,156.276889 84.7530052,156.291615 84.7779661,156.317655 L85.1749576,157.169677 C85.2323333,157.198267 85.2609404,157.263838 85.2428491,157.325293 C85.2247577,157.386748 85.165173,157.426404 85.1014407,157.419407 Z" id="Path" fill="#FFFFFF"></path>
                                <path d="M85.7189831,158.712129 C85.6940222,158.738169 85.6594993,158.752895 85.623411,158.752895 C85.5873227,158.752895 85.5527999,158.738169 85.527839,158.712129 L85.1308475,157.860108 C85.1047837,157.83517 85.0900448,157.800678 85.0900448,157.764623 C85.0900448,157.728567 85.1047837,157.694076 85.1308475,157.669137 C85.1880206,157.613147 85.2795217,157.613147 85.3366949,157.669137 L85.7336864,158.521159 C85.7767061,158.579696 85.7704574,158.660855 85.7189831,158.712129 Z" id="Path" fill="#FFFFFF"></path>
                                <path d="M84.2045339,156.479245 L83.5869915,156.773046 C83.5138793,156.804207 83.4292162,156.771674 83.3958475,156.699596 C83.3697837,156.674657 83.3550448,156.640166 83.3550448,156.604111 C83.3550448,156.568055 83.3697837,156.533564 83.3958475,156.508625 L84.0133898,156.214825 C84.0865021,156.183664 84.1711651,156.216197 84.2045339,156.288275 C84.2305977,156.313213 84.2453365,156.347705 84.2453365,156.38376 C84.2453365,156.419816 84.2305977,156.454307 84.2045339,156.479245 Z" id="Path" fill="#FFFFFF"></path>
                                <path d="M85.4837288,159.16752 L84.8661864,159.461321 C84.7930742,159.492482 84.7084111,159.459949 84.6750424,159.387871 C84.655408,159.353422 84.652282,159.311988 84.6665258,159.274988 C84.6807697,159.237987 84.71088,159.209326 84.7485593,159.1969 L85.3513983,158.9031 C85.4286966,158.870546 85.5180771,158.902438 85.5572458,158.97655 C85.5884352,159.049596 85.5558725,159.134182 85.4837288,159.16752 Z" id="Path" fill="#FFFFFF"></path>
                                <path d="M86.7776271,156.626146 C86.7526662,156.652186 86.7181434,156.666911 86.6820551,156.666911 C86.6459668,156.666911 86.6114439,156.652186 86.5864831,156.626146 L86.1894915,155.774124 C86.1722374,155.704924 86.2072216,155.633339 86.272449,155.604376 C86.3376765,155.575412 86.414303,155.597437 86.4541525,155.656604 L86.8511441,156.493935 C86.8567794,156.549041 86.8274344,156.601814 86.7776271,156.626146 Z" id="Path" fill="#FFFFFF"></path>
                                <path d="M87.3951695,157.933558 C87.3220572,157.964719 87.2373942,157.932186 87.2040254,157.860108 L86.8070339,157.008086 C86.7809701,156.983148 86.7662313,156.948657 86.7662313,156.912601 C86.7662313,156.876546 86.7809701,156.842054 86.8070339,156.817116 C86.8843322,156.784562 86.9737127,156.816454 87.0128814,156.890566 L87.4098729,157.727898 C87.4550714,157.791075 87.4488968,157.87744 87.3951695,157.933558 Z" id="Path" fill="#FFFFFF"></path>
                                <path d="M88.1891525,155.965094 C88.1160403,155.996255 88.0313772,155.963722 87.9980085,155.891644 L87.6010169,155.054313 C87.5698275,154.981267 87.6023902,154.896681 87.6745339,154.863342 C87.7090142,154.843726 87.7504854,154.840603 87.7875194,154.854834 C87.8245534,154.869064 87.8532414,154.899147 87.865678,154.936792 L88.2626695,155.774124 C88.2938589,155.84717 88.2612962,155.931756 88.1891525,155.965094 Z" id="Path" fill="#FFFFFF"></path>
                                <path d="M88.8066949,157.272507 C88.7516713,157.319528 88.6705745,157.319528 88.6155508,157.272507 L88.2038559,156.420485 C88.1567922,156.365512 88.1567922,156.284488 88.2038559,156.229515 C88.2383363,156.209898 88.2798074,156.206775 88.3168414,156.221006 C88.3538754,156.235237 88.3825634,156.26532 88.395,156.302965 L88.8066949,157.140296 C88.8255656,157.18235 88.8255656,157.230453 88.8066949,157.272507 Z" id="Path" fill="#FFFFFF"></path>
                                <path d="M87.2775424,155.024933 L86.6747034,155.318733 C86.5974051,155.351287 86.5080246,155.319395 86.4688559,155.245283 C86.4376665,155.172237 86.4702292,155.087651 86.5423729,155.054313 L87.1599153,154.760512 C87.2330275,154.729351 87.3176906,154.761884 87.3510593,154.833962 C87.3706937,154.868411 87.3738197,154.909845 87.3595758,154.946845 C87.345332,154.983845 87.3152217,155.012507 87.2775424,155.024933 Z" id="Path" fill="#FFFFFF"></path>
                                <path d="M88.5567373,157.713208 L87.9391949,158.007008 C87.8841713,158.054029 87.8030745,158.054029 87.7480508,158.007008 C87.7219871,157.98207 87.7072482,157.947578 87.7072482,157.911523 C87.7072482,157.875467 87.7219871,157.840976 87.7480508,157.816038 L88.3655932,157.522237 C88.4387055,157.491076 88.5233685,157.523609 88.5567373,157.595687 C88.5731041,157.633154 88.5731041,157.675741 88.5567373,157.713208 Z" id="Path" fill="#FFFFFF"></path>
                                <path d="M89.0566525,155.553774 C89.0316917,155.579814 88.9971688,155.594539 88.9610805,155.594539 C88.9249922,155.594539 88.8904694,155.579814 88.8655085,155.553774 L88.4685169,154.701752 C88.4512628,154.632552 88.486247,154.560967 88.5514745,154.532004 C88.616702,154.50304 88.6933284,154.525065 88.733178,154.584232 L89.1301695,155.421563 C89.1319978,155.47582 89.1037271,155.526661 89.0566525,155.553774 Z" id="Path" fill="#FFFFFF"></path>
                                <path d="M89.6741949,156.861186 C89.6010826,156.892347 89.5164196,156.859814 89.4830508,156.787736 L89.0860593,155.935714 C89.0599955,155.910776 89.0452567,155.876285 89.0452567,155.840229 C89.0452567,155.804174 89.0599955,155.769682 89.0860593,155.744744 C89.1633576,155.71219 89.2527382,155.744082 89.2919068,155.818194 L89.6888983,156.655526 C89.7340968,156.718703 89.7279222,156.805068 89.6741949,156.861186 Z" id="Path" fill="#FFFFFF"></path>
                                <path d="M90.468178,154.892722 C90.3950657,154.923883 90.3104027,154.89135 90.2770339,154.819272 L89.8800424,153.981941 C89.8488529,153.908895 89.8814156,153.824309 89.9535593,153.79097 C89.9785202,153.76493 90.013043,153.750205 90.0491314,153.750205 C90.0852197,153.750205 90.1197425,153.76493 90.1447034,153.79097 L90.5416949,154.628302 C90.5907237,154.664475 90.6123324,154.727119 90.59602,154.78579 C90.5797076,154.844462 90.5288561,154.886996 90.468178,154.892722 Z" id="Path" fill="#FFFFFF"></path>
                                <path d="M91.0857203,156.200135 C91.0126081,156.231296 90.927945,156.198763 90.8945763,156.126685 L90.4828814,155.274663 C90.4516919,155.201617 90.4842546,155.117031 90.5563983,155.083693 C90.5813592,155.057653 90.615882,155.042927 90.6519703,155.042927 C90.6880587,155.042927 90.7225815,155.057653 90.7475424,155.083693 L91.1592373,155.921024 C91.2049946,155.96145 91.2240538,156.024182 91.208509,156.083198 C91.1929642,156.142215 91.1454673,156.187448 91.0857203,156.200135 Z" id="Path" fill="#FFFFFF"></path>
                                <path d="M89.5565678,153.952561 L88.9537288,154.246361 C88.8939684,154.295616 88.8076418,154.295616 88.7478814,154.246361 C88.7008176,154.191388 88.7008176,154.110364 88.7478814,154.055391 L89.3654237,153.76159 C89.4141046,153.728863 89.4776011,153.728185 89.5269706,153.759866 C89.57634,153.791548 89.6021299,153.849522 89.5925847,153.907364 C89.5830395,153.965206 89.5399869,154.01184 89.4830508,154.026011 L89.5565678,153.952561 Z" id="Path" fill="#FFFFFF"></path>
                                <path d="M90.8210593,156.640836 L90.2182203,156.934636 C90.1451081,156.965797 90.060445,156.933264 90.0270763,156.861186 C90.0010125,156.836248 89.9862736,156.801756 89.9862736,156.765701 C89.9862736,156.729645 90.0010125,156.695154 90.0270763,156.670216 L90.6446186,156.376415 C90.6996423,156.329394 90.7807391,156.329394 90.8357627,156.376415 C90.9088468,156.380472 90.9648017,156.442953 90.9607415,156.51597 C90.9566812,156.588988 90.8941434,156.644892 90.8210593,156.640836 Z" id="Path" fill="#FFFFFF"></path>
                                <ellipse id="Oval" fill="#FFFFFF" cx="85.7336864" cy="156.640836" rx="1" ry="1"></ellipse>
                                <ellipse id="Oval" fill="#FFFFFF" cx="86.2336017" cy="157.698518" rx="1" ry="1"></ellipse>
                                <path d="M107.671144,42.3671159 C107.671144,42.3671159 114.214153,49.4477089 115.537458,50.7698113 C116.860763,52.0919137 117.992924,50.578841 118.007627,51.9009434 C117.444344,54.7306041 115.818766,57.2377103 113.46428,58.9080863 C110.920593,60.3770889 107.48,59.1871968 102.025042,61.2731806 C102.025042,61.2731806 103.907076,58.202965 102.025042,56.1757412 C100.143008,54.1485175 94.3792797,52.209434 96.1436864,46.0249326 C97.9080932,39.8404313 103.157203,35.874124 100.554703,31.8196765 C97.9522034,27.7652291 95.5702542,22.241779 97.8492797,16.2188679 C100.128305,10.1959569 101.760381,11.9440701 105.495042,7.00822102 C109.229703,2.07237197 113.567203,-0.189892183 120.110212,2.41024259 C123.852672,0.539314702 128.164699,0.151007754 132.181695,1.32318059 C139.165805,3.21819407 139.651017,7.93369272 143.944407,9.88746631 C148.237797,11.8412399 152.986992,16.5420485 151.193178,25.1650943 C149.399364,33.7881402 147.914322,40.2811321 151.590169,43.6892183 C155.266017,47.0973046 156.398178,51.166442 153.957415,55.4412399 C152.512868,57.9533285 152.20805,60.9613423 153.119322,63.7117251 C153.119322,63.7117251 150.061017,59.9804582 141.915339,65.0191375 C133.769661,70.0578167 131.343602,57.674124 133.46089,53.0026954 C135.578178,48.3312668 134.107839,48.7719677 134.446017,45.0407008 C134.784195,41.309434 138.989364,38.6946092 138.342415,32.3632075 C137.695466,26.0318059 136.181017,18.8630728 133.269746,17.2471698 C128.909701,15.325895 124.447937,13.643833 119.904364,12.2084906 L108.729788,15.146496 L107.671144,42.3671159 Z" id="Path" fill="url(#linearGradient-17)"></path>
                                <path d="M118.007627,14.9408356 C115.702082,14.4271648 113.33711,15.515386 112.229195,17.5997305 C111.871301,18.1925153 111.580354,18.8231491 111.361695,19.4800539 C109.317924,25.3560647 112.317415,27.177628 110.744153,32.2603774 C109.17089,37.3431267 109.950169,39.3850404 110.376568,40.9568733 C110.802966,42.5287062 115.934449,49.6239892 112.288008,54.0016173 C109.523771,57.3362534 111.317585,53.8987871 109.803136,51.0636119 C108.288686,48.2284367 103.333644,46.1865229 103.436568,41.6619946 C103.539492,37.1374663 107.024195,34.9192722 104.759873,30.2037736 C102.495551,25.4882749 100.642924,23.2113208 103.436568,18.8777628 C106.230212,14.5442049 104.980424,10.9451482 107.097712,8.05121294 C109.215,5.15727763 113.773051,4.24649596 119.080975,6.40592992 C119.080975,6.40592992 129.25572,1.35256065 136.725042,6.20026954 C144.194364,11.0479784 143.900297,17.7613208 142.724025,22.2858491 C141.547754,26.8103774 141.40072,28.5291105 143.356271,31.3936658 C145.311822,34.258221 144.82661,37.7691375 140.856695,40.7512129 C136.88678,43.7332884 136.210424,46.215903 136.827966,49.8296496 C137.445508,53.4433962 133.005085,59.1137466 132.181695,58.2911051 C131.358305,57.4684636 134.916525,53.7518868 133.446186,50.03531 C131.975847,46.3187332 127.226653,40.8540431 130.637839,36.9318059 C134.049025,33.0095687 135.901653,30.8501348 134.666568,26.4137466 C133.431483,21.9773585 130.358475,24.430593 127.4325,22.3886792 C123.286144,19.4653639 123.300847,11.8706199 118.007627,14.9408356 Z" id="Path" fill="url(#linearGradient-18)"></path>
                                <path d="M79.0142373,152.909569 C79.0142373,152.909569 69.3541102,157.992318 67.8102542,158.88841 C64.8846196,160.980067 62.2493713,163.44991 59.9733475,166.233423 C58.9588136,167.775876 56.4592373,176.766173 57.2238136,177.618194 C58.2089407,178.749326 59.6792797,178.573046 63.0169492,175.884771 C66.3546186,173.196496 69.2952966,170.596361 71.4861017,170.728571 C73.6769068,170.860782 81.6020339,169.90593 82.4695339,166.233423 L85.2484746,164.76442 L79.0142373,152.909569 Z M60.6938136,168.436927 C60.9400068,167.715253 61.2971658,167.036276 61.7524576,166.424394 C62.2817797,165.895553 66.6045763,162.237736 66.6045763,162.237736 L60.6938136,168.436927 Z" id="Shape" fill="url(#linearGradient-19)" fill-rule="nonzero"></path>
                                <path d="M26.9201271,138.131402 C26.9201271,138.131402 23.1707627,139.923585 21.9944915,140.378976 C20.8182203,140.834367 17.2894068,139.923585 16.0249153,139.923585 C14.7604237,139.923585 11.7609322,143.522642 11.6138983,144.330593 C11.4962712,144.771294 10.7758051,149.530863 11.6138983,150.118464 C12.4519915,150.706065 13.0842373,149.310512 13.8047034,146.122776 C14.6547496,145.292871 15.5479947,144.508315 16.4807203,143.772372 C17.2011864,143.302291 20.6417797,149.516173 23.8324153,149.383962 C27.0720934,148.934463 30.2556422,148.146684 33.3308051,147.033558 C33.3308051,147.033558 28.4933898,147.283288 26.9201271,138.131402 Z" id="Path" fill="url(#linearGradient-20)"></path>
                                <path d="M115.802119,9.13827493 C117.198941,10.7394879 121.507034,11.8559299 118.007627,14.9408356 C123.300847,11.8706199 123.286144,19.4653639 127.38839,22.2858491 C130.329068,24.3277628 133.387373,21.8745283 134.622458,26.3109164 C135.857542,30.7473046 134.004915,32.9067385 130.593729,36.8289757 C127.182542,40.7512129 131.931737,46.215903 133.402076,49.9324798 C134.872415,53.6490566 131.314195,57.3656334 132.137585,58.1882749 C132.960975,59.0109164 137.401398,53.340566 136.783856,49.7268194 C136.166314,46.1130728 136.88678,43.6451482 140.812585,40.6483827 C144.73839,37.6516173 145.223602,34.1553908 143.312161,31.2908356 C141.40072,28.4262803 141.488941,26.7075472 142.679915,22.1830189 C143.87089,17.6584906 144.150254,10.9451482 136.680932,6.09743935 C130.799576,2.27803235 123.315551,4.62843666 120.360169,5.74487871 L119.080975,6.30309973 C119.080975,6.30309973 114.405297,7.55175202 115.802119,9.13827493 Z" id="Path" fill="url(#linearGradient-21)"></path>
                                <path d="M10.3494068,154.202291 C11.7691722,153.498282 13.4901765,153.920383 14.4222458,155.201213 C16.3189831,157.448787 20.3036017,157.331267 20.3036017,157.331267 L25.1998305,173.299326 C25.6161941,175.434486 24.2842902,177.520962 22.1709322,178.044205 C20.7834554,178.486207 19.2695803,177.974101 18.4362712,176.780863 C17.5490799,175.434981 16.9069582,173.943032 16.5395339,172.373854 C16.2013559,171.228032 10.3494068,154.202291 10.3494068,154.202291 Z" id="Path" fill="url(#linearGradient-22)"></path>
                                <path d="M2.01258475,130.698248 L17.2452966,174.577358 C17.6408425,176.0442 18.6251246,177.282737 19.9654237,178.000135 C22.0974153,179.013747 24.8616525,176.971833 25.1410169,175.15027 C25.3151534,174.095958 25.1982335,173.014162 24.802839,172.021294 L11.3639407,127.598652 C11.3639407,127.598652 9.02610169,130.345687 2.01258475,130.698248 Z" id="Path" fill="url(#linearGradient-23)" opacity="0.3" style="mix-blend-mode: overlay;"></path>
                                <path d="M6.25326733,145.018765 C5.37533147,147.091712 4.93636354,148.359318 4.93636354,148.821583 C4.93636354,149.514981 6.87210141,155.361715 7.55639359,156.185445 C8.24068578,157.009174 17.7195056,156.185445 18.9267327,156.185445 C20.1339597,156.185445 18.7672578,152.189757 16.7574497,151.190836 C15.4175776,150.524888 12.1650943,149.300985 7,147.519128 L6.25326733,145.018765 Z" id="Path-2" fill="#E58B7C"></path>
                            </g>
                            <g id="Layer_64" transform="translate(0.000000, 126.000000)">
                                <polygon id="Path" fill="url(#linearGradient-24)" points="175.632739 104.436259 423.125941 163.126619 282.613861 208.138705 31.5438284 144.37036"></polygon>
                                <polygon id="Path" fill="url(#linearGradient-25)" points="31.5438284 144.37036 31.5438284 149.404317 282.304752 213.554245 423.125941 167.602878 423.125941 163.126619 282.613861 208.138705"></polygon>
                                <path d="M254.249439,206.39223 L246.065413,405.901295 C246.065413,405.901295 248.391089,409.761151 251.320264,405.901295 L273.399472,211.264748 L254.249439,206.39223 Z" id="Path" fill="url(#linearGradient-26)"></path>
                                <path d="M58.4215842,156.287482 L0,334.266475 C0,334.266475 0.0883168317,337.275108 2.76726073,335.499281 L75.8052805,160.69036 L58.4215842,156.287482 Z" id="Path" fill="url(#linearGradient-27)"></path>
                                <path d="M404.505809,173.693525 L445.793927,331.624748 C445.793927,331.624748 445.867525,333.811511 443.586007,332.769496 L388.903168,178.786187 L404.505809,173.693525 Z" id="Path" fill="url(#linearGradient-28)"></path>
                                <path d="M164.637294,183.467914 L154.333663,269.646906 C154.333663,269.646906 154.834125,272.65554 157.086205,270.909065 L177.045809,186.652662 L164.637294,183.467914 Z" id="Path" fill="url(#linearGradient-29)"></path>
                                <path d="M423.125941,163.126619 L247.022178,121.357986 C250.760924,125.878273 252.748053,133.333813 243.106799,139.497842 L243.106799,138.030216 C242.665215,138.294388 242.017558,138.573237 241.546535,138.83741 C228.828911,145.573813 201.612607,149.330935 190.911551,164.741007 L190.911551,165.797698 C187.548826,171.154669 186.063095,177.472424 186.687063,183.761439 L282.613861,208.138705 L423.125941,163.126619 Z" id="Path" fill="url(#linearGradient-30)"></path>
                                <path d="M295.581716,113.153957 C295.581716,113.153957 303.912937,109.470216 310.404224,113.476835 L311.596502,112.244029 L309.241386,110.248058 L303.633267,109.323453 L298.231221,110.101295 L295.007657,111.568921 L295.007657,113.036547 L295.581716,113.153957 Z" id="Path" fill="url(#linearGradient-31)"></path>
                                <path d="M321.296634,118.67223 C321.296634,118.67223 329.627855,114.973813 336.119142,118.995108 L337.311419,117.762302 L334.956304,115.766331 L329.304026,114.768345 L323.90198,115.531511 L320.678416,117.087194 L320.678416,118.55482 L321.296634,118.67223 Z" id="Path" fill="url(#linearGradient-32)"></path>
                                <polygon id="Path" fill="url(#linearGradient-33)" points="246.065413 106.505612 246.065413 108.604317 277.565083 115.854388 277.63868 113.418129"></polygon>
                                <polygon id="Path" fill="url(#linearGradient-34)" points="277.579802 115.326043 277.476766 117.85036 290.989241 121.079137 290.842046 118.481439"></polygon>
                                <polygon id="Path" fill="url(#linearGradient-35)" points="290.871485 118.804317 332.660066 128.52 359.994125 121.548777 359.994125 119.435396 332.895578 126.098417 290.768449 116.500144"></polygon>
                                <path d="M290.385743,102.997986 L290.753729,116.51482 L332.880858,126.098417 L359.979406,119.435396 L290.385743,102.997986 Z M302.956172,115.120576 C298.746403,115.120576 295.316766,113.931799 295.316766,112.449496 C295.316766,110.967194 298.746403,109.778417 302.956172,109.778417 C307.165941,109.778417 310.610297,110.981871 310.610297,112.449496 C310.610297,113.917122 307.19538,115.193957 302.970891,115.193957 L302.956172,115.120576 Z M328.818284,120.873669 C324.593795,120.873669 321.178878,119.684892 321.178878,118.20259 C321.178878,116.720288 324.593795,115.531511 328.818284,115.531511 C333.042772,115.531511 336.45769,116.720288 336.45769,118.20259 C336.45769,119.684892 333.072211,120.873669 328.833003,120.873669 L328.818284,120.873669 Z" id="Shape" fill="url(#linearGradient-36)" fill-rule="nonzero"></path>
                                <path d="M290.385743,101.559712 L277.977228,98.712518 L277.844752,104.113381 L278.374653,104.113381 C282.599142,104.113381 286.014059,105.302158 286.014059,106.78446 C286.014059,108.266763 282.599142,109.45554 278.374653,109.45554 L277.712277,109.45554 L277.579802,115.326043 L290.827327,118.481439 L290.385743,101.559712 Z" id="Path" fill="url(#linearGradient-37)" opacity="0.9"></path>
                                <path d="M277.859472,105.639712 C280.626382,105.431551 283.394044,106.033446 285.822706,107.371511 C285.951727,107.196787 286.023676,106.986697 286.028779,106.769784 C286.028779,105.302158 282.613861,104.098705 278.389373,104.098705 L277.859472,104.098705 L277.859472,103.159424 L273.531947,103.775827 L270.205347,105.37554 L270.205347,106.931223 L270.838284,107.019281 C273.080609,106.145305 275.443015,105.615819 277.844752,105.448921 L277.859472,105.639712 Z" id="Path" fill="url(#linearGradient-38)"></path>
                                <path d="M270.749967,106.769784 C270.749967,105.302158 273.885215,104.216115 277.859472,104.113381 L277.947789,100.121439 L246.065413,106.505612 L277.63868,113.418129 L277.726997,109.426187 C273.826337,109.323453 270.749967,108.164029 270.749967,106.769784 Z" id="Path" fill="url(#linearGradient-39)"></path>
                                <polygon id="Path" fill="url(#linearGradient-40)" points="246.065413 140.261007 277.947789 133.876835 359.994125 153.190791 332.895578 159.853813"></polygon>
                                <path d="M255.353399,110.791079 L255.353399,140.143597 C255.353399,140.627914 256.530957,141.024173 257.988185,141.024173 C259.445413,141.024173 260.608251,140.627914 260.608251,140.143597 L260.608251,111.950504 L257.664356,111.275396 L255.353399,110.791079 Z" id="Path" fill="url(#linearGradient-41)"></path>
                                <polygon id="Path" fill="url(#linearGradient-42)" points="246.065413 140.261007 246.065413 142.168921 332.866139 161.952518 359.994125 154.92259 359.994125 153.190791 332.895578 159.853813"></polygon>
                                <path d="M347.791683,124.645468 L347.791683,153.146763 C347.791683,153.631079 348.969241,154.027338 350.426469,154.027338 C351.883696,154.027338 353.061254,153.631079 353.061254,153.146763 L353.061254,123.309928 L347.791683,124.645468 Z" id="Path" fill="url(#linearGradient-43)"></path>
                                <path d="M274.488713,115.193957 L274.488713,135.740719 C274.488713,136.225036 275.666271,136.621295 277.123498,136.621295 C278.580726,136.621295 279.743564,136.225036 279.743564,135.740719 L279.743564,118.393381 L277.491485,117.865036 L277.565083,115.854388 L274.488713,115.193957 Z" id="Path" fill="url(#linearGradient-44)"></path>
                                <path d="M333.705149,144.986763 L333.705149,133.245755 C333.705149,132.423885 331.526667,131.778129 328.833003,131.778129 C326.13934,131.778129 323.960858,132.438561 323.960858,133.245755 L323.960858,144.546475 C323.960858,144.546475 323.563432,151.07741 328.833003,151.062734 C334.102574,151.048058 333.705149,144.986763 333.705149,144.986763 Z" id="Path" fill="url(#linearGradient-45)" opacity="0.91"></path>
                                <ellipse id="Oval" fill="#000000" opacity="0.2" cx="328.833003" cy="87.9254676" rx="4.87214521" ry="1.48230216"></ellipse>
                                <path d="M328.568053,120.873669 C330.74438,120.98822 332.919548,120.627591 334.941584,119.816978 L334.941584,87.9254676 C334.941584,86.9128058 332.203762,86.076259 328.833003,86.076259 C325.462244,86.076259 322.724422,86.9128058 322.724422,87.9254676 L322.724422,119.787626 C324.571858,120.562585 326.564659,120.932949 328.568053,120.873669 Z" id="Path" fill="#000000" opacity="0.2"></path>
                                <path d="M332.660066,128.52 L322.768581,126.215827 L322.768581,146.351655 C322.768581,149.715426 325.503486,152.442302 328.877162,152.442302 C332.250838,152.442302 334.985743,149.715426 334.985743,146.351655 L334.985743,127.947626 L332.660066,128.52 Z" id="Path" fill="#000000" opacity="0.2"></path>
                                <path d="M330.334389,127.976978 L330.334389,156.830504 C330.334389,157.31482 331.511947,157.711079 332.954455,157.711079 C334.396964,157.711079 335.589241,157.31482 335.589241,156.830504 L335.589241,127.771511 L332.645347,128.52 L330.334389,127.976978 Z" id="Path" fill="url(#linearGradient-46)"></path>
                                <path d="M302.970891,115.193957 C305.060654,115.259129 307.141097,114.889247 309.079472,114.107914 L309.079472,83.2877698 C309.079472,82.2604317 306.35637,81.4385612 302.970891,81.4385612 C299.585413,81.4385612 296.87703,82.2604317 296.87703,83.2877698 L296.87703,114.107914 C298.805158,114.906717 300.884617,115.277316 302.970891,115.193957 Z" id="Path" fill="#000000" opacity="0.2"></path>
                                <path d="M296.87703,120.198561 L296.87703,141.611223 C296.76642,143.855869 297.90451,145.978853 299.837803,147.134228 C301.771096,148.289602 304.185406,148.289602 306.118699,147.134228 C308.051992,145.978853 309.190082,143.855869 309.079472,141.611223 L309.079472,123.045755 L296.87703,120.198561 Z" id="Path" fill="#000000" opacity="0.2"></path>
                                <ellipse id="Oval" fill="#000000" opacity="0.2" cx="302.970891" cy="83.2143885" rx="4.87214521" ry="1.48230216"></ellipse>
                                <path d="M300.586337,115.003165 C300.586337,100.649784 300.586337,85.4745324 300.586337,85.4745324 C299.743597,85.3135915 298.923261,85.0524457 298.142904,84.6966906 L298.142904,114.489496 C298.941475,114.728808 299.758841,114.900638 300.586337,115.003165 Z" id="Path" fill="#C9C9C9" opacity="0.2"></path>
                                <path d="M300.542178,139.659281 C300.542178,137.780719 300.542178,130.09036 300.542178,121.06446 L298.054587,120.492086 L298.054587,141.376403 C298.105124,144.065401 300.232909,146.257444 302.926733,146.395683 C302.926733,146.395683 300.424422,144.810647 300.542178,139.659281 Z" id="Path" fill="#C9C9C9" opacity="0.2"></path>
                                <path d="M326.448449,120.741583 C326.448449,106.065324 326.448449,90.2002878 326.448449,90.2002878 C325.610872,90.0306183 324.795857,89.764669 324.019736,89.4077698 L324.019736,120.227914 C324.815055,120.460362 325.626974,120.632081 326.448449,120.741583 Z" id="Path" fill="#C9C9C9" opacity="0.2"></path>
                                <path d="M326.389571,144.37036 C326.389571,142.594532 326.389571,135.564604 326.389571,127.081727 L323.90198,126.494676 L323.90198,146.102158 C323.945329,148.794129 326.077087,150.990265 328.774125,151.121439 C328.774125,151.121439 326.271815,149.521727 326.389571,144.37036 Z" id="Path" fill="#C9C9C9" opacity="0.2"></path>
                                <path d="M307.857756,140.261007 L307.857756,124.117122 C307.857756,123.309928 305.664554,122.649496 302.970891,122.649496 C300.277228,122.649496 298.098746,123.309928 298.098746,124.117122 L298.098746,139.894101 C298.098746,139.894101 297.70132,146.425036 302.970891,146.395683 C308.240462,146.366331 307.857756,140.261007 307.857756,140.261007 Z" id="Path" fill="url(#linearGradient-47)" opacity="0.91"></path>
                                <path d="M321.296634,117.96777 C321.487987,117.233957 322.488911,116.602878 324.005017,116.16259 C326.051023,114.386763 326.212937,112.728345 325.344488,111.246043 L290.385743,102.997986 L290.753729,116.51482 L314.510957,121.915683 C315.882011,120.679728 317.455193,119.686967 319.16231,118.980432 C319.957162,118.642878 320.634257,118.305324 321.296634,117.96777 Z M302.970891,115.193957 C298.761122,115.193957 295.331485,114.00518 295.331485,112.522878 C295.331485,111.040576 298.761122,109.851799 302.970891,109.851799 C307.18066,109.851799 310.625017,111.055252 310.625017,112.522878 C310.625017,113.990504 307.19538,115.193957 302.970891,115.193957 Z" id="Shape" fill="url(#linearGradient-48)" fill-rule="nonzero"></path>
                                <path d="M296.87703,141.611223 C296.875282,142.867933 297.266296,144.09396 297.99571,145.118849 L300.939604,147.320288 C301.593465,147.567626 302.286292,147.696839 302.985611,147.701871 L302.485149,121.475396 L296.906469,120.169209 L296.87703,141.611223 Z" id="Path" fill="url(#linearGradient-49)" opacity="0.3" style="mix-blend-mode: overlay;"></path>
                                <path d="M296.87703,83.2143885 L296.87703,114.034532 C298.60498,114.742384 300.455128,115.106342 302.323234,115.105899 L301.749175,84.6820144 C297.877954,84.2270504 298.098746,83.2143885 298.098746,83.2143885 C298.098746,81.7467626 302.970891,81.7467626 302.970891,81.7467626 C303.456634,81.6 302.970891,81.3798561 302.970891,81.3798561 C299.600132,81.4385612 296.87703,82.1870504 296.87703,83.2143885 Z" id="Path" fill="url(#linearGradient-50)" opacity="0.3" style="mix-blend-mode: overlay;"></path>
                                <path d="M322.768581,87.9254676 L322.768581,119.787626 C324.499081,120.50407 326.355775,120.868331 328.229505,120.858993 L327.552409,89.3490647 C323.681188,88.908777 324.005017,87.8814388 324.005017,87.8814388 C324.18165,86.4138129 328.744686,86.4138129 328.744686,86.4138129 C329.230429,86.2523741 328.744686,86.0322302 328.744686,86.0322302 C325.373927,86.076259 322.768581,86.9128058 322.768581,87.9254676 Z" id="Path" fill="url(#linearGradient-51)" opacity="0.3" style="mix-blend-mode: overlay;"></path>
                                <path d="M322.768581,146.924029 C322.873435,148.388202 323.524635,149.760084 324.593795,150.769209 C325.734116,151.865791 327.263651,152.467366 328.847723,152.442302 L328.347261,127.492662 L322.768581,126.201151 L322.768581,146.924029 Z" id="Path" fill="url(#linearGradient-52)" opacity="0.3" style="mix-blend-mode: overlay;"></path>
                                <path d="M311.92033,156.184748 C310.080396,152.721151 293.167723,129.503309 291.725215,126.94964 C290.282706,124.395971 290.17967,82.7741007 290.17967,82.7741007 C290.17967,82.7741007 290.17967,82.0402878 291.224752,81.996259 C291.647794,81.9673281 291.982687,81.6282251 292.00517,81.206029 C292.027654,80.7838329 291.73066,80.4112769 291.313069,80.3378417 C290.45934,80.2644604 284.159406,80.3378417 284.159406,80.3378417 C284.159406,80.3378417 277.844752,80.2644604 276.991023,80.3378417 C276.572444,80.4134284 276.276839,80.7893911 276.30314,81.2127195 C276.329441,81.636048 276.669324,81.9727596 277.094059,81.996259 C278.109703,81.996259 278.139142,82.7741007 278.139142,82.7741007 C278.139142,82.7741007 278.021386,124.381295 276.578878,126.94964 C275.13637,129.517986 258.223696,152.721151 256.383762,156.184748 C255.255308,158.442816 254.589769,160.902571 254.426073,163.420144 C254.426073,169.099856 267.673597,173.693525 284.159406,173.693525 C300.645215,173.693525 313.87802,169.099856 313.87802,163.420144 C313.722671,160.9012 313.056691,158.439815 311.92033,156.184748 Z" id="Path" fill="#000000" opacity="0.2"></path>
                                <path d="M276.578878,130.016978 L257.85571,156.287482 C256.735568,158.533544 256.227922,161.033954 256.383762,163.537554 C256.383762,163.537554 257.85571,171.12518 281.789571,171.917698 C305.723432,172.710216 311.787855,164.506187 311.787855,164.212662 C311.787855,163.919137 312.361914,160.543597 309.359142,155.700432 C306.35637,150.857266 291.504422,129.958273 291.504422,129.958273 C286.712092,128.035569 281.355845,128.056636 276.578878,130.016978 Z" id="Path" fill="url(#linearGradient-53)" opacity="0.91"></path>
                                <path d="M278.610165,81.2771223 C279.083468,81.8469072 279.366499,82.5498403 279.419736,83.2877698 C279.419736,84.3444604 278.75736,124.381295 278.75736,124.381295 C278.048537,127.031464 276.893842,129.542499 275.342442,131.807482 C275.342442,131.807482 278.212739,126.934964 282.702178,126.12777 C285.395296,125.666171 288.155887,126.406606 290.253267,128.153094 C289.56472,126.234659 289.119678,124.237848 288.928515,122.209209 C288.604686,118.804317 288.531089,82.7153957 288.531089,82.7153957 C288.586827,82.1808273 288.844737,81.6875136 289.252343,81.3358273 L278.610165,81.2771223 Z" id="Path" fill="#C9C9C9" opacity="0.2"></path>
                                <path d="M276.991023,80.3378417 C276.572444,80.4134284 276.276839,80.7893911 276.30314,81.2127195 C276.329441,81.636048 276.669324,81.9727596 277.094059,81.996259 C278.109703,81.996259 278.139142,82.7741007 278.139142,82.7741007 C278.139142,82.7741007 278.021386,124.381295 276.578878,126.94964 C275.13637,129.517986 258.223696,152.721151 256.383762,156.184748 C255.255308,158.442816 254.589769,160.902571 254.426073,163.420144 C254.426073,166.751655 259.047987,169.716259 266.20165,171.59482 C266.182443,167.634237 266.677198,163.687818 267.673597,159.853813 C269.498812,154.511655 282.805215,126.098417 282.805215,126.098417 L282.878812,82.5392806 C282.243244,81.9990005 281.979195,81.1404965 282.201716,80.3378417 C280.214587,80.2938129 277.535644,80.2791367 276.991023,80.3378417 Z" id="Path" fill="url(#linearGradient-54)" opacity="0.3" style="mix-blend-mode: overlay;"></path>
                                <path d="M129.016172,131.646043 C113.192739,131.646043 100.372079,135.300432 100.372079,139.806043 L100.372079,142.741295 C100.372079,147.246906 113.192739,150.901295 129.016172,150.901295 C144.839604,150.901295 157.674983,147.246906 157.674983,142.741295 L157.674983,139.806043 C157.674983,135.300432 144.839604,131.646043 129.016172,131.646043 Z" id="Path" fill="url(#linearGradient-55)"></path>
                                <path d="M129.016172,146.498417 C114.075908,146.498417 101.799868,143.240288 100.504554,139.07223 C100.425035,139.309159 100.380412,139.556338 100.372079,139.806043 L100.372079,142.741295 C100.372079,147.246906 113.192739,150.901295 129.016172,150.901295 C144.839604,150.901295 157.674983,147.246906 157.674983,142.741295 L157.674983,139.806043 C157.666651,139.556338 157.622028,139.309159 157.542508,139.07223 C156.232475,143.240288 143.971155,146.498417 129.016172,146.498417 Z" id="Path" fill="url(#linearGradient-56)"></path>
                                <path d="M127.691419,138.675971 L100.372079,72.6328058 L101.711551,72.6328058 L130.090693,138.675971 C129.394299,139.249318 128.387813,139.249318 127.691419,138.675971 Z" id="Path" fill="url(#linearGradient-57)"></path>
                                <polygon id="Path" fill="url(#linearGradient-58)" points="100.372079 72.647482 129.016172 22.8215827 129.707987 23.3205755 101.711551 72.647482"></polygon>
                                <path d="M217.009175,45.3789928 C202.598812,45.3789928 190.911551,48.4316547 190.911551,52.2034532 L190.911551,166.678273 C190.911551,170.450072 202.598812,173.502734 217.009175,173.502734 C231.419538,173.502734 243.106799,170.450072 243.106799,166.678273 L243.106799,52.2034532 C243.106799,48.4316547 231.419538,45.3789928 217.009175,45.3789928 Z" id="Path" fill="#000000" opacity="0.2"></path>
                                <path d="M159.912343,0.220143885 C159.463946,0.146760408 159.006549,0.146760408 158.558152,0.220143885 L95.2644224,10.0679137 C93.4142408,10.4430275 92.007932,11.949473 91.7651557,13.8163469 C91.5223794,15.6832208 92.4968523,17.4974582 94.189901,18.3306475 L149.40264,44.88 C149.851137,45.1707692 150.350456,45.3748889 150.874587,45.4817266 C156.055842,46.5090647 162.296898,37.2336691 164.813927,24.7588489 C167.330957,12.2840288 165.093597,1.26215827 159.912343,0.220143885 Z" id="Path" fill="url(#linearGradient-59)"></path>
                                <ellipse id="Oval" fill="url(#linearGradient-60)" transform="translate(155.363148, 22.873717) rotate(-78.630000) translate(-155.363148, -22.873717) " cx="155.363148" cy="22.8737174" rx="21.3858489" ry="8.8750626"></ellipse>
                                <path d="M150.962904,12.3280576 C150.413247,12.2254433 149.849261,12.2254433 149.299604,12.3280576 C147.166759,17.5711404 145.95675,23.1416928 145.722772,28.7948201 C146.252109,29.1655681 146.854031,29.4206336 147.489109,29.5433094 C150.977624,30.2477698 154.583894,26.9602878 155.54066,22.2051799 C156.497426,17.4500719 154.451419,13.032518 150.962904,12.3280576 Z" id="Path" fill="url(#linearGradient-61)"></path>
                                <ellipse id="Oval" fill="#000000" opacity="0.2" cx="217.009175" cy="53.6710791" rx="22.8446205" ry="5.97323741"></ellipse>
                                <path d="M202.687129,166.678273 L202.687129,59.5415827 C196.681584,58.3821583 192.751485,55.7991367 192.751485,53.6710791 C192.751485,50.8679137 198.963102,48.1381295 208.619076,47.3015827 C213.310802,46.2620097 218.092341,45.6771307 222.896964,45.5551079 C220.998152,45.4523741 219.040462,45.3789928 217.009175,45.3789928 C202.598812,45.3789928 190.911551,48.4316547 190.911551,52.2034532 L190.911551,166.678273 C190.911551,170.450072 202.598812,173.502734 217.009175,173.502734 C219.040462,173.502734 220.998152,173.429353 222.896964,173.311942 C211.327459,172.622158 202.687129,169.90705 202.687129,166.678273 Z" id="Path" fill="url(#linearGradient-62)" opacity="0.3" style="mix-blend-mode: overlay;"></path>
                                <path d="M217.009175,106.388201 C204.394587,106.388201 194.164554,109.059281 194.164554,112.361439 L194.164554,163.728345 C194.164554,167.030504 204.394587,169.701583 217.009175,169.701583 C229.623762,169.701583 239.853795,167.030504 239.853795,163.728345 L239.853795,112.361439 C239.853795,109.073957 229.623762,106.388201 217.009175,106.388201 Z" id="Path" fill="url(#linearGradient-63)" opacity="0.91"></path>
                            </g>
                        </g>
                    </g>
                    <path d="M370.611302,203.544491 L374.265083,208.491508 C374.554231,208.877993 374.462229,209.431956 374.067936,209.715379 C373.673643,209.998802 373.10849,209.908622 372.819342,209.522136 L369.862146,205.528451 L366.904949,209.522136 C366.615801,209.908622 366.050648,209.998802 365.656355,209.715379 L365.643212,209.702496 C365.248919,209.419073 365.156917,208.865111 365.446065,208.478625 L369.139275,203.49296 C369.41528,203.13224 369.914718,203.04206 370.309011,203.273951 C370.309011,203.286834 370.322154,203.286834 370.322154,203.286834 C370.34844,203.286834 370.361583,203.299717 370.374726,203.3126 L370.387869,203.3126 C370.401013,203.325482 370.401013,203.325482 370.401013,203.325482 C370.493014,203.389897 370.55873,203.467194 370.611302,203.544491 Z M370.755876,197.876034 L370.755876,201.380171 C370.755876,201.86972 370.34844,202.256205 369.862146,202.256205 C369.362708,202.256205 368.968415,201.856837 368.968415,201.380171 L368.968415,197.876034 C368.968415,197.386486 369.375851,197 369.862146,197 C370.34844,197 370.755876,197.399369 370.755876,197.876034 Z M364.171185,201.289991 L367.575247,202.372151 C368.048398,202.526745 368.298117,203.016294 368.153543,203.480077 C367.995826,203.94386 367.496388,204.188634 367.023237,204.046922 L363.619175,202.95188 C363.146024,202.797285 362.896305,202.307737 363.040879,201.843954 C363.198596,201.393054 363.698034,201.135397 364.171185,201.289991 Z M376.091973,202.95188 L372.687911,204.03404 C372.21476,204.188634 371.715322,203.930977 371.557605,203.467194 C371.399888,203.003411 371.66275,202.513862 372.135901,202.359268 L375.539963,201.277108 C376.013114,201.122514 376.512552,201.380171 376.670269,201.843954 C376.827986,202.307737 376.565124,202.810168 376.091973,202.95188 Z" id="Path-4-Copy-4" fill="#FFFFFF" mask="url(#mask-3)"></path>
                    <path d="M501.611302,363.544491 L505.265083,368.491508 C505.554231,368.877993 505.462229,369.431956 505.067936,369.715379 C504.673643,369.998802 504.10849,369.908622 503.819342,369.522136 L500.862146,365.528451 L497.904949,369.522136 C497.615801,369.908622 497.050648,369.998802 496.656355,369.715379 L496.643212,369.702496 C496.248919,369.419073 496.156917,368.865111 496.446065,368.478625 L500.139275,363.49296 C500.41528,363.13224 500.914718,363.04206 501.309011,363.273951 C501.309011,363.286834 501.322154,363.286834 501.322154,363.286834 C501.34844,363.286834 501.361583,363.299717 501.374726,363.3126 L501.387869,363.3126 C501.401013,363.325482 501.401013,363.325482 501.401013,363.325482 C501.493014,363.389897 501.55873,363.467194 501.611302,363.544491 Z M501.755876,357.876034 L501.755876,361.380171 C501.755876,361.86972 501.34844,362.256205 500.862146,362.256205 C500.362708,362.256205 499.968415,361.856837 499.968415,361.380171 L499.968415,357.876034 C499.968415,357.386486 500.375851,357 500.862146,357 C501.34844,357 501.755876,357.399369 501.755876,357.876034 Z M495.171185,361.289991 L498.575247,362.372151 C499.048398,362.526745 499.298117,363.016294 499.153543,363.480077 C498.995826,363.94386 498.496388,364.188634 498.023237,364.046922 L494.619175,362.95188 C494.146024,362.797285 493.896305,362.307737 494.040879,361.843954 C494.198596,361.393054 494.698034,361.135397 495.171185,361.289991 Z M507.091973,362.95188 L503.687911,364.03404 C503.21476,364.188634 502.715322,363.930977 502.557605,363.467194 C502.399888,363.003411 502.66275,362.513862 503.135901,362.359268 L506.539963,361.277108 C507.013114,361.122514 507.512552,361.380171 507.670269,361.843954 C507.827986,362.307737 507.565124,362.810168 507.091973,362.95188 Z" id="Path-4-Copy-4" fill="#FFFFFF" mask="url(#mask-3)"></path>
                </g>
            </g>
        </g>
    </g>
</svg>