<?xml version="1.0" encoding="UTF-8"?>
<svg width="29px" height="26px" viewBox="0 0 29 26" version="1.1" xmlns="http://www.w3.org/2000/svg" xmlns:xlink="http://www.w3.org/1999/xlink">
    <!-- Generator: sketchtool 52.4 (67378) - http://www.bohemiancoding.com/sketch -->
    <title>077976F1-99AF-4FB4-AA83-943FD8056B4C@1x</title>
    <desc>Created with sketchtool.</desc>
    <defs>
        <linearGradient x1="100%" y1="100%" x2="15.3277447%" y2="0%" id="linearGradient-1">
            <stop stop-color="#EA46A1" offset="0%"></stop>
            <stop stop-color="#FFD656" offset="100%"></stop>
        </linearGradient>
    </defs>
    <g id="Design" stroke="none" stroke-width="1" fill="none" fill-rule="evenodd">
        <g id="3b-Talents" transform="translate(-228.000000, -300.000000)" fill="url(#linearGradient-1)" fill-rule="nonzero">
            <g id="Section-1" transform="translate(138.000000, 107.000000)">
                <g id="1" transform="translate(60.000000, 170.000000)">
                    <path d="M34.2291667,49 L54.7708333,49 C57.1065376,49 59,47.1050192 59,44.7674419 L59,32.6744186 C59,30.3368413 57.1065376,28.4418605 54.7708333,28.4418605 L50.2395833,28.4418605 C50.1593673,28.4421835 50.0823436,28.4104352 50.0256218,28.353668 C49.9689001,28.2969008 49.9371772,28.2198152 49.9375,28.1395349 L49.9375,26.627907 C49.9375,24.6242693 48.3145322,23 46.3125,23 L42.6875,23 C40.6854678,23 39.0625,24.6242693 39.0625,26.627907 L39.0625,28.1395349 C39.0628228,28.2198152 39.0310999,28.2969008 38.9743782,28.353668 C38.9176564,28.4104352 38.8406327,28.4421835 38.7604167,28.4418605 L34.2291667,28.4418605 C31.8934624,28.4418605 30,30.3368413 30,32.6744186 L30,44.7674419 C30,47.1050192 31.8934624,49 34.2291667,49 Z M41.4791667,26.627907 C41.4791667,25.9600277 42.0201559,25.4186047 42.6875,25.4186047 L46.3125,25.4186047 C46.9798441,25.4186047 47.5208333,25.9600277 47.5208333,26.627907 L47.5208333,28.1395349 C47.5211561,28.2198152 47.4894333,28.2969008 47.4327115,28.353668 C47.3759898,28.4104352 47.298966,28.4421835 47.21875,28.4418605 L41.78125,28.4418605 C41.701034,28.4421835 41.6240102,28.4104352 41.5672885,28.353668 C41.5105667,28.2969008 41.4788439,28.2198152 41.4791667,28.1395349 L41.4791667,26.627907 Z M45.8291667,40.496186 L42.248875,39.1659535 C41.1836903,38.6632157 40.5328716,37.5608733 40.60675,36.3845581 C40.5918669,34.9595043 41.6390661,33.7461219 43.05,33.5535814 C43.191116,33.5247544 43.2922719,33.4002329 43.2916667,33.256093 L43.2916667,32.6744186 C43.2916667,32.0065394 43.8326559,31.4651163 44.5,31.4651163 C45.1673441,31.4651163 45.7083333,32.0065394 45.7083333,32.6744186 L45.7083333,33.1786977 C45.7083333,33.3456675 45.8435806,33.4810233 46.0104167,33.4810233 L47.186125,33.4810233 C47.8534691,33.4810233 48.3944583,34.0224463 48.3944583,34.6903256 C48.3944583,35.3582048 47.8534691,35.8996279 47.186125,35.8996279 L43.8281667,35.8996279 C43.0222083,35.8996279 43.0222083,36.2539535 43.0222083,36.3833488 C43.0108498,36.5808583 43.0633909,36.7767732 43.1720417,36.9420465 L46.7523333,38.2722791 C47.8172813,38.7752769 48.4679948,39.8774413 48.3944583,41.0536744 C48.4112656,42.4790379 47.364795,43.6938136 45.953625,43.8870698 C45.8127677,43.9163233 45.7118232,44.0405847 45.7119583,44.1845581 L45.7119583,44.7662326 C45.7119583,45.4341118 45.1709691,45.9755349 44.503625,45.9755349 C43.8362809,45.9755349 43.2952917,45.4341118 43.2952917,44.7662326 L43.2952917,44.2631628 C43.2956145,44.1828825 43.2638916,44.1057969 43.2071699,44.0490297 C43.1504481,43.9922625 43.0734243,43.9605141 42.9932083,43.9608372 L41.813875,43.9608372 C41.1465309,43.9608372 40.6055417,43.4194141 40.6055417,42.7515349 C40.6055417,42.0836557 41.1465309,41.5422326 41.813875,41.5422326 L45.1718333,41.5422326 C45.9777917,41.5422326 45.9777917,41.1866977 45.9777917,41.0585116 C45.9902987,40.8599181 45.9381512,40.6626173 45.8291667,40.496186 Z" id="Shape7777"></path>
                </g>
            </g>
        </g>
    </g>
</svg>