<?xml version="1.0" encoding="UTF-8"?>
<svg width="25px" height="29px" viewBox="0 0 25 29" version="1.1" xmlns="http://www.w3.org/2000/svg" xmlns:xlink="http://www.w3.org/1999/xlink">
    <!-- Generator: sketchtool 52.4 (67378) - http://www.bohemiancoding.com/sketch -->
    <title>8B6C9BB2-2D67-4736-AC77-317C214C2421@1x</title>
    <desc>Created with sketchtool.</desc>
    <defs>
        <linearGradient x1="-1.11022302e-14%" y1="5.55111512e-15%" x2="91.5514106%" y2="100%" id="linearGradient-1">
            <stop stop-color="#FFB242" offset="0%"></stop>
            <stop stop-color="#D955FF" offset="13.6850078%"></stop>
            <stop stop-color="#562FFD" offset="60.4897517%"></stop>
            <stop stop-color="#562FFD" offset="76.3270469%"></stop>
            <stop stop-color="#489BFF" offset="100%"></stop>
        </linearGradient>
    </defs>
    <g id="Design" stroke="none" stroke-width="1" fill="none" fill-rule="evenodd">
        <g id="3b-Talents" transform="translate(-939.000000, -2422.000000)" fill="url(#linearGradient-1)">
            <g id="Section-3" transform="translate(138.000000, 2227.000000)">
                <g id="3" transform="translate(801.000000, 194.000000)">
                    <path d="M19.8170732,1.3041873 C22.1743861,1.3041873 24.0853659,3.21083737 24.0853659,5.56280943 C24.0853659,7.91478149 22.1743861,9.82143157 19.8170732,9.82143157 C19.2500351,9.82175318 18.6890726,9.70492637 18.1695122,9.4783083 C17.9409751,9.3770643 17.6736486,9.4252959 17.495122,9.59998322 L16.3146341,10.7777964 C16.1415572,10.9504678 16.0887364,11.2096616 16.1804878,11.4360577 C16.3656409,11.8893074 16.4616945,12.373857 16.4634146,12.8633045 C16.4607269,15.0461668 14.6878192,16.8150577 12.5,16.8177394 C12.0093633,16.8139307 11.524221,16.7143112 11.0719512,16.5245028 C10.8981552,16.453118 10.7010759,16.4656881 10.5378049,16.5585718 L6.37073171,18.9348829 C6.19072082,19.0376535 6.07540868,19.2246684 6.06463415,19.4313166 C5.98594595,21.0339818 4.66066979,22.293086 3.05243902,22.2931107 C1.36864409,22.2931106 0.00365862745,20.9312177 0.00365862745,19.2512377 C0.00365862745,17.5712577 1.36864409,16.2093648 3.05243902,16.2093648 C3.63676464,16.210551 4.20790578,16.382732 4.69512195,16.7045817 C4.8873711,16.8308977 5.13453107,16.8384275 5.33414634,16.7240497 L8.50487805,14.9135269 C8.76330956,14.7665381 8.87771676,14.4549449 8.77560976,14.1761769 C8.44160889,13.2909312 8.45817985,12.311979 8.82195122,11.4384912 C8.91370267,11.2120951 8.86088186,10.9529013 8.68780488,10.7802299 L4.87439024,6.97058824 C4.69847239,6.79453842 4.43289699,6.742989 4.20365854,6.84039607 C3.83913325,6.99853442 3.44626533,7.08131749 3.04878049,7.08374591 C1.36498552,7.08374591 -2.70786104e-16,5.721853 0,4.04187295 C2.70786104e-16,2.36189291 1.36498552,1 3.04878049,1 C4.73257546,1 6.09756098,2.36189291 6.09756098,4.04187295 C6.09723703,4.16188133 6.08949877,4.28175566 6.07439024,4.40081396 C6.05101417,4.58735738 6.11538889,4.774205 6.24878049,4.90698162 L10.4121951,9.05852983 C10.5852586,9.23121468 10.8450409,9.28391581 11.0719512,9.19237224 C11.9874096,8.81361748 13.0162489,8.81361748 13.9317073,9.19237224 C14.158514,9.2830658 14.4176816,9.22991316 14.5902439,9.05731308 L15.7707317,7.87949987 C15.947386,7.70298183 15.9981417,7.43675636 15.8987805,7.20785433 C15.6701264,6.68930518 15.5509839,6.12932017 15.5487805,5.56280943 C15.5487805,3.21083737 17.4597602,1.3041873 19.8170732,1.3041873 Z M25,14.1822606 L25,26.958127 C25,28.6381071 23.6350145,30 21.9512195,30 L16.4634146,30 C14.7796197,30 13.4146341,28.6381071 13.4146341,26.958127 L13.4146341,20.2660065 C13.4146341,19.5940145 13.9606284,19.0492574 14.6341463,19.0492574 C15.3076643,19.0492574 15.8536585,19.5940145 15.8536585,20.2660065 L15.8536585,23.9162541 C15.8536585,24.2522501 16.1266556,24.5246287 16.4634146,24.5246287 L21.9512195,24.5246287 C22.2879785,24.5246287 22.5609756,24.2522501 22.5609756,23.9162541 L22.5609756,14.1822606 C22.5609756,13.8462646 22.2879785,13.573886 21.9512195,13.573886 L20.1219512,13.573886 C19.4484332,13.573886 18.902439,13.0291289 18.902439,12.3571369 C18.902439,11.6851448 19.4484332,11.1403877 20.1219512,11.1403877 L21.9512195,11.1403877 C23.6350145,11.1403877 25,12.5022806 25,14.1822606 Z" id="Shape-3087832"></path>
                </g>
            </g>
        </g>
    </g>
</svg>