<?xml version="1.0" encoding="UTF-8"?>
<svg width="29px" height="26px" viewBox="0 0 29 26" version="1.1" xmlns="http://www.w3.org/2000/svg" xmlns:xlink="http://www.w3.org/1999/xlink">
    <!-- Generator: sketchtool 52.4 (67378) - http://www.bohemiancoding.com/sketch -->
    <title>672A418D-0AE8-495E-8C9D-2B0B198486E7@1x</title>
    <desc>Created with sketchtool.</desc>
    <g id="Design" stroke="none" stroke-width="1" fill="none" fill-rule="evenodd">
        <g id="3b-Talents" transform="translate(-228.000000, -1366.000000)" fill="#6A6992" fill-rule="nonzero">
            <g id="Section-2" transform="translate(138.000000, 1173.000000)">
                <g id="1" transform="translate(90.000000, 170.000000)">
                    <path d="M4.22916667,49 L24.7708333,49 C27.1065376,49 29,47.1050192 29,44.7674419 L29,32.6744186 C29,30.3368413 27.1065376,28.4418605 24.7708333,28.4418605 L20.2395833,28.4418605 C20.1593673,28.4421835 20.0823436,28.4104352 20.0256218,28.353668 C19.9689001,28.2969008 19.9371772,28.2198152 19.9375,28.1395349 L19.9375,26.627907 C19.9375,24.6242693 18.3145322,23 16.3125,23 L12.6875,23 C10.6854678,23 9.0625,24.6242693 9.0625,26.627907 L9.0625,28.1395349 C9.0628228,28.2198152 9.03109993,28.2969008 8.97437819,28.353668 C8.91765645,28.4104352 8.84063267,28.4421835 8.76041667,28.4418605 L4.22916667,28.4418605 C1.89346241,28.4418605 2.86041274e-16,30.3368413 0,32.6744186 L0,44.7674419 C2.86041274e-16,47.1050192 1.89346241,49 4.22916667,49 Z M11.4791667,26.627907 C11.4791667,25.9600277 12.0201559,25.4186047 12.6875,25.4186047 L16.3125,25.4186047 C16.9798441,25.4186047 17.5208333,25.9600277 17.5208333,26.627907 L17.5208333,28.1395349 C17.5211561,28.2198152 17.4894333,28.2969008 17.4327115,28.353668 C17.3759898,28.4104352 17.298966,28.4421835 17.21875,28.4418605 L11.78125,28.4418605 C11.701034,28.4421835 11.6240102,28.4104352 11.5672885,28.353668 C11.5105667,28.2969008 11.4788439,28.2198152 11.4791667,28.1395349 L11.4791667,26.627907 Z M15.8291667,40.496186 L12.248875,39.1659535 C11.1836903,38.6632157 10.5328716,37.5608733 10.60675,36.3845581 C10.5918669,34.9595043 11.6390661,33.7461219 13.05,33.5535814 C13.191116,33.5247544 13.2922719,33.4002329 13.2916667,33.256093 L13.2916667,32.6744186 C13.2916667,32.0065394 13.8326559,31.4651163 14.5,31.4651163 C15.1673441,31.4651163 15.7083333,32.0065394 15.7083333,32.6744186 L15.7083333,33.1786977 C15.7083333,33.3456675 15.8435806,33.4810233 16.0104167,33.4810233 L17.186125,33.4810233 C17.8534691,33.4810233 18.3944583,34.0224463 18.3944583,34.6903256 C18.3944583,35.3582048 17.8534691,35.8996279 17.186125,35.8996279 L13.8281667,35.8996279 C13.0222083,35.8996279 13.0222083,36.2539535 13.0222083,36.3833488 C13.0108498,36.5808583 13.0633909,36.7767732 13.1720417,36.9420465 L16.7523333,38.2722791 C17.8172813,38.7752769 18.4679948,39.8774413 18.3944583,41.0536744 C18.4112656,42.4790379 17.364795,43.6938136 15.953625,43.8870698 C15.8127677,43.9163233 15.7118232,44.0405847 15.7119583,44.1845581 L15.7119583,44.7662326 C15.7119583,45.4341118 15.1709691,45.9755349 14.503625,45.9755349 C13.8362809,45.9755349 13.2952917,45.4341118 13.2952917,44.7662326 L13.2952917,44.2631628 C13.2956145,44.1828825 13.2638916,44.1057969 13.2071699,44.0490297 C13.1504481,43.9922625 13.0734243,43.9605141 12.9932083,43.9608372 L11.813875,43.9608372 C11.1465309,43.9608372 10.6055417,43.4194141 10.6055417,42.7515349 C10.6055417,42.0836557 11.1465309,41.5422326 11.813875,41.5422326 L15.1718333,41.5422326 C15.9777917,41.5422326 15.9777917,41.1866977 15.9777917,41.0585116 C15.9902987,40.8599181 15.9381512,40.6626173 15.8291667,40.496186 Z" id="Shape"></path>
                </g>
            </g>
        </g>
    </g>
</svg>