<svg xmlns="http://www.w3.org/2000/svg" xmlns:xlink="http://www.w3.org/1999/xlink" viewBox="0 0 532 495">
    <g id="desc-illu-1">
        <defs>
            <linearGradient id="b" x1="37.266%" x2="86.605%" y1="13.265%" y2="90.211%">
                <stop offset="0%" stop-color="#562FFD"/>
                <stop offset="100%" stop-color="#4897FF"/>
            </linearGradient>
            <path id="a" d="M267.338 435.517c124.427 0 243.539-27.987 231.228-139.441-6.782-61.401-98.13-91.268-103-196.697C392.2 26.533 338.485.578 257.555.578 133.127.578.448 110.128.448 234.659c0 124.53 142.463 200.858 266.89 200.858z"/>
            <linearGradient id="d" x1="-3.592%" x2="211.492%" y1="-1.285%" y2="174.914%">
                <stop offset="5%" stop-color="#DF6B7D"/>
                <stop offset="7%" stop-color="#D5687C"/>
                <stop offset="14%" stop-color="#AA5B76"/>
                <stop offset="22%" stop-color="#854F70"/>
                <stop offset="30%" stop-color="#67466C"/>
                <stop offset="38%" stop-color="#503F69"/>
                <stop offset="47%" stop-color="#403A67"/>
                <stop offset="57%" stop-color="#363765"/>
                <stop offset="69%" stop-color="#333665"/>
                <stop offset="89%" stop-color="#2F3043"/>
                <stop offset="100%" stop-color="#2D2D2F"/>
            </linearGradient>
            <linearGradient id="e" x1="-26.229%" x2="104.596%" y1="9.466%" y2="69.213%">
                <stop offset="0%" stop-color="#EEB47B"/>
                <stop offset="100%" stop-color="#DF6B7D"/>
            </linearGradient>
            <linearGradient id="f" x1="137.044%" x2="-125.839%" y1="-178.409%" y2="511.451%">
                <stop offset="5%" stop-color="#DF6B7D"/>
                <stop offset="7%" stop-color="#D5687C"/>
                <stop offset="14%" stop-color="#AA5B76"/>
                <stop offset="22%" stop-color="#854F70"/>
                <stop offset="30%" stop-color="#67466C"/>
                <stop offset="38%" stop-color="#503F69"/>
                <stop offset="47%" stop-color="#403A67"/>
                <stop offset="57%" stop-color="#363765"/>
                <stop offset="69%" stop-color="#333665"/>
                <stop offset="89%" stop-color="#2F3043"/>
                <stop offset="100%" stop-color="#2D2D2F"/>
            </linearGradient>
            <linearGradient id="g" x1="-19.577%" x2="274.754%" y1="48.273%" y2="57.911%">
                <stop offset="5%" stop-color="#DF6B7D"/>
                <stop offset="7%" stop-color="#D5687C"/>
                <stop offset="14%" stop-color="#AA5B76"/>
                <stop offset="22%" stop-color="#854F70"/>
                <stop offset="30%" stop-color="#67466C"/>
                <stop offset="38%" stop-color="#503F69"/>
                <stop offset="47%" stop-color="#403A67"/>
                <stop offset="57%" stop-color="#363765"/>
                <stop offset="69%" stop-color="#333665"/>
                <stop offset="89%" stop-color="#2F3043"/>
                <stop offset="100%" stop-color="#2D2D2F"/>
            </linearGradient>
            <linearGradient id="h" x1="-18.958%" x2="334.705%" y1="54.12%" y2="34.08%">
                <stop offset="5%" stop-color="#DF6B7D"/>
                <stop offset="6%" stop-color="#D5687C"/>
                <stop offset="12%" stop-color="#AA5B76"/>
                <stop offset="17%" stop-color="#854F70"/>
                <stop offset="23%" stop-color="#67466C"/>
                <stop offset="29%" stop-color="#503F69"/>
                <stop offset="36%" stop-color="#403A67"/>
                <stop offset="43%" stop-color="#363765"/>
                <stop offset="52%" stop-color="#333665"/>
                <stop offset="83%" stop-color="#2F3043"/>
                <stop offset="100%" stop-color="#2D2D2F"/>
            </linearGradient>
            <linearGradient id="i" x1="-47.762%" x2="301.649%" y1="53.715%" y2="41.79%">
                <stop offset="5%" stop-color="#DF6B7D"/>
                <stop offset="7%" stop-color="#D5687C"/>
                <stop offset="14%" stop-color="#AA5B76"/>
                <stop offset="22%" stop-color="#854F70"/>
                <stop offset="30%" stop-color="#67466C"/>
                <stop offset="38%" stop-color="#503F69"/>
                <stop offset="47%" stop-color="#403A67"/>
                <stop offset="57%" stop-color="#363765"/>
                <stop offset="69%" stop-color="#333665"/>
                <stop offset="89%" stop-color="#2F3043"/>
                <stop offset="100%" stop-color="#2D2D2F"/>
            </linearGradient>
            <linearGradient id="j" x1="-45.274%" x2="294.972%" y1="52.584%" y2="43.761%">
                <stop offset="5%" stop-color="#DF6B7D"/>
                <stop offset="7%" stop-color="#D5687C"/>
                <stop offset="14%" stop-color="#AA5B76"/>
                <stop offset="22%" stop-color="#854F70"/>
                <stop offset="30%" stop-color="#67466C"/>
                <stop offset="38%" stop-color="#503F69"/>
                <stop offset="47%" stop-color="#403A67"/>
                <stop offset="57%" stop-color="#363765"/>
                <stop offset="69%" stop-color="#333665"/>
                <stop offset="89%" stop-color="#2F3043"/>
                <stop offset="100%" stop-color="#2D2D2F"/>
            </linearGradient>
            <linearGradient id="k" x1="-74.646%" x2="66.002%" y1="46.705%" y2="49.655%">
                <stop offset="0%" stop-color="#EEB47B"/>
                <stop offset="100%" stop-color="#DF6B7D"/>
            </linearGradient>
            <linearGradient id="l" x1="-59.034%" x2="57.88%" y1="47.733%" y2="49.908%">
                <stop offset="0%" stop-color="#EEB47B"/>
                <stop offset="100%" stop-color="#DF6B7D"/>
            </linearGradient>
            <linearGradient id="m" x1="-75.476%" x2="63.022%" y1="46.973%" y2="50.18%">
                <stop offset="0%" stop-color="#EEB47B"/>
                <stop offset="100%" stop-color="#DF6B7D"/>
            </linearGradient>
            <linearGradient id="n" x1="-20.638%" x2="75.816%" y1="52.985%" y2="49.382%">
                <stop offset="0%" stop-color="#EEB47B"/>
                <stop offset="100%" stop-color="#DF6B7D"/>
            </linearGradient>
            <linearGradient id="o" x1="136.926%" x2="-125.605%" y1="-222.14%" y2="599.788%">
                <stop offset="5%" stop-color="#DF6B7D"/>
                <stop offset="7%" stop-color="#D5687C"/>
                <stop offset="14%" stop-color="#AA5B76"/>
                <stop offset="22%" stop-color="#854F70"/>
                <stop offset="30%" stop-color="#67466C"/>
                <stop offset="38%" stop-color="#503F69"/>
                <stop offset="47%" stop-color="#403A67"/>
                <stop offset="57%" stop-color="#363765"/>
                <stop offset="69%" stop-color="#333665"/>
                <stop offset="89%" stop-color="#2F3043"/>
                <stop offset="100%" stop-color="#2D2D2F"/>
            </linearGradient>
            <linearGradient id="p" x1="-119.284%" x2="77.042%" y1="50.229%" y2="49.971%">
                <stop offset="0%" stop-color="#EEB47B"/>
                <stop offset="100%" stop-color="#DF6B7D"/>
            </linearGradient>
            <linearGradient id="q" x1="-102.335%" x2="77.782%" y1="81.067%" y2="44.888%">
                <stop offset="0%" stop-color="#EEB47B"/>
                <stop offset="100%" stop-color="#DF6B7D"/>
            </linearGradient>
            <linearGradient id="r" x1="22.872%" x2="190.514%" y1="50.149%" y2="48.7%">
                <stop offset="5%" stop-color="#DF6B7D"/>
                <stop offset="7%" stop-color="#D5687C"/>
                <stop offset="14%" stop-color="#AA5B76"/>
                <stop offset="22%" stop-color="#854F70"/>
                <stop offset="30%" stop-color="#67466C"/>
                <stop offset="38%" stop-color="#503F69"/>
                <stop offset="47%" stop-color="#403A67"/>
                <stop offset="57%" stop-color="#363765"/>
                <stop offset="69%" stop-color="#333665"/>
                <stop offset="89%" stop-color="#2F3043"/>
                <stop offset="100%" stop-color="#2D2D2F"/>
            </linearGradient>
            <linearGradient id="s" x1="28.559%" x2="86.459%" y1="10.42%" y2="95.096%">
                <stop offset="0%" stop-color="#DF6B7D"/>
                <stop offset="19%" stop-color="#935472"/>
                <stop offset="44%" stop-color="#333665"/>
                <stop offset="80%" stop-color="#2F3043"/>
                <stop offset="100%" stop-color="#2D2D2F"/>
            </linearGradient>
            <linearGradient id="t" x1="-41.332%" x2="288.17%" y1="51.874%" y2="45.394%">
                <stop offset="5%" stop-color="#DF6B7D"/>
                <stop offset="7%" stop-color="#D5687C"/>
                <stop offset="14%" stop-color="#AA5B76"/>
                <stop offset="22%" stop-color="#854F70"/>
                <stop offset="30%" stop-color="#67466C"/>
                <stop offset="38%" stop-color="#503F69"/>
                <stop offset="47%" stop-color="#403A67"/>
                <stop offset="57%" stop-color="#363765"/>
                <stop offset="69%" stop-color="#333665"/>
                <stop offset="89%" stop-color="#2F3043"/>
                <stop offset="100%" stop-color="#2D2D2F"/>
            </linearGradient>
            <linearGradient id="u" x1="-26.677%" x2="164.736%" y1="30.115%" y2="68.381%">
                <stop offset="0%" stop-color="#DF6B7D"/>
                <stop offset="19%" stop-color="#935472"/>
                <stop offset="44%" stop-color="#333665"/>
                <stop offset="56%" stop-color="#2F3043"/>
                <stop offset="63%" stop-color="#2D2D2F"/>
            </linearGradient>
            <linearGradient id="v" x1="6.183%" x2="153.847%" y1="26.771%" y2="105.776%">
                <stop offset="0%" stop-color="#DF6B7D"/>
                <stop offset="19%" stop-color="#935472"/>
                <stop offset="44%" stop-color="#333665"/>
                <stop offset="56%" stop-color="#2F3043"/>
                <stop offset="63%" stop-color="#2D2D2F"/>
            </linearGradient>
            <linearGradient id="w" x1="7.186%" x2="153.284%" y1="24.628%" y2="110.203%">
                <stop offset="0%" stop-color="#DF6B7D"/>
                <stop offset="19%" stop-color="#935472"/>
                <stop offset="44%" stop-color="#333665"/>
                <stop offset="56%" stop-color="#2F3043"/>
                <stop offset="63%" stop-color="#2D2D2F"/>
            </linearGradient>
            <linearGradient id="x" x1="99.469%" x2=".073%" y1="49.97%" y2="49.97%">
                <stop offset="0%" stop-color="#581EFD"/>
                <stop offset="100%" stop-color="#FA92A7"/>
            </linearGradient>
            <linearGradient id="y" x1="24.347%" x2="92.487%" y1="47.293%" y2="52.021%">
                <stop offset="0%" stop-color="#DF6B7D"/>
                <stop offset="2%" stop-color="#D5687C"/>
                <stop offset="11%" stop-color="#AA5B76"/>
                <stop offset="20%" stop-color="#854F70"/>
                <stop offset="30%" stop-color="#67466C"/>
                <stop offset="40%" stop-color="#503F69"/>
                <stop offset="51%" stop-color="#403A67"/>
                <stop offset="63%" stop-color="#363765"/>
                <stop offset="79%" stop-color="#333665"/>
                <stop offset="93%" stop-color="#2F3043"/>
                <stop offset="100%" stop-color="#2D2D2F"/>
            </linearGradient>
            <linearGradient id="z" x1="49.952%" x2="97.915%" y1="48.516%" y2="53.542%">
                <stop offset="0%" stop-color="#EEB47B"/>
                <stop offset="100%" stop-color="#DF6B7D"/>
            </linearGradient>
            <linearGradient id="A" x1="41.87%" x2="91.62%" y1="33.656%" y2="86.071%">
                <stop offset="0%" stop-color="#6FBEE8"/>
                <stop offset="48%" stop-color="#2964EC"/>
                <stop offset="100%" stop-color="#2D2D2F"/>
            </linearGradient>
            <linearGradient id="B" x1="36.324%" x2="74.934%" y1="66.041%" y2="33.802%">
                <stop offset="0%" stop-color="#DF6B7D"/>
                <stop offset="100%" stop-color="#333665"/>
            </linearGradient>
            <linearGradient id="C" x1="38.333%" x2="83.321%" y1="67.51%" y2="20.188%">
                <stop offset="0%" stop-color="#EEB47B"/>
                <stop offset="100%" stop-color="#DF6B7D"/>
            </linearGradient>
            <linearGradient id="D" x1="32.685%" x2="54.242%" y1="112.565%" y2="21.314%">
                <stop offset="0%" stop-color="#DF6B7D"/>
                <stop offset="100%" stop-color="#333665"/>
            </linearGradient>
            <linearGradient id="E" x1="34.648%" x2="53.844%" y1="145.078%" y2="-22.02%">
                <stop offset="0%" stop-color="#DF6B7D"/>
                <stop offset="100%" stop-color="#333665"/>
            </linearGradient>
            <linearGradient id="F" x1="45.737%" x2="56.709%" y1="102.915%" y2="-24.242%">
                <stop offset="0%" stop-color="#6FBEE8"/>
                <stop offset="100%" stop-color="#2964EC"/>
            </linearGradient>
            <linearGradient id="G" x1="51.134%" x2="94.802%" y1="56.466%" y2="21.437%">
                <stop offset="0%" stop-color="#DF6B7D"/>
                <stop offset="100%" stop-color="#333665"/>
            </linearGradient>
            <linearGradient id="H" x1="-1.501%" x2="124.514%" y1="45.862%" y2="52.909%">
                <stop offset="0%" stop-color="#DF6B7D"/>
                <stop offset="49%" stop-color="#333665"/>
                <stop offset="100%" stop-color="#2D2D2F"/>
            </linearGradient>
            <linearGradient id="I" x1="33.741%" x2="90.204%" y1="27.753%" y2="86.454%">
                <stop offset="0%" stop-color="#EEB47B"/>
                <stop offset="100%" stop-color="#DF6B7D"/>
            </linearGradient>
            <linearGradient id="J" x1="-15.781%" x2="270.974%" y1="7.848%" y2="196.188%">
                <stop offset="0%" stop-color="#DF6B7D"/>
                <stop offset="2%" stop-color="#D5687C"/>
                <stop offset="11%" stop-color="#AA5B76"/>
                <stop offset="20%" stop-color="#854F70"/>
                <stop offset="30%" stop-color="#67466C"/>
                <stop offset="40%" stop-color="#503F69"/>
                <stop offset="51%" stop-color="#403A67"/>
                <stop offset="63%" stop-color="#363765"/>
                <stop offset="79%" stop-color="#333665"/>
                <stop offset="93%" stop-color="#2F3043"/>
                <stop offset="100%" stop-color="#2D2D2F"/>
            </linearGradient>
            <linearGradient id="K" x1="-37.989%" x2="65.101%" y1="11.812%" y2="59.061%">
                <stop offset="0%" stop-color="#DF6B7D"/>
                <stop offset="2%" stop-color="#D5687C"/>
                <stop offset="11%" stop-color="#AA5B76"/>
                <stop offset="20%" stop-color="#854F70"/>
                <stop offset="30%" stop-color="#67466C"/>
                <stop offset="40%" stop-color="#503F69"/>
                <stop offset="51%" stop-color="#403A67"/>
                <stop offset="63%" stop-color="#363765"/>
                <stop offset="79%" stop-color="#333665"/>
                <stop offset="93%" stop-color="#2F3043"/>
                <stop offset="100%" stop-color="#2D2D2F"/>
            </linearGradient>
            <linearGradient id="L" x1="-15.173%" x2="277.014%" y1="12.398%" y2="153.45%">
                <stop offset="0%" stop-color="#EEB47B"/>
                <stop offset="100%" stop-color="#DF6B7D"/>
            </linearGradient>
            <linearGradient id="M" x1="-39.388%" x2="69.776%" y1="17.516%" y2="53.297%">
                <stop offset="0%" stop-color="#EEB47B"/>
                <stop offset="100%" stop-color="#DF6B7D"/>
            </linearGradient>
            <linearGradient id="N" x1="10.599%" x2="78.201%" y1="32.313%" y2="55.37%">
                <stop offset="0%" stop-color="#6FBEE8"/>
                <stop offset="100%" stop-color="#2964EC"/>
            </linearGradient>
            <linearGradient id="O" x1="9.242%" x2="79.032%" y1="40.675%" y2="52.856%">
                <stop offset="0%" stop-color="#6FBEE8"/>
                <stop offset="100%" stop-color="#2964EC"/>
            </linearGradient>
            <linearGradient id="P" x1="-123.371%" x2="505.194%" y1="57.951%" y2="26.442%">
                <stop offset="0%" stop-color="#DF6B7D"/>
                <stop offset="2%" stop-color="#D5687C"/>
                <stop offset="11%" stop-color="#AA5B76"/>
                <stop offset="20%" stop-color="#854F70"/>
                <stop offset="30%" stop-color="#67466C"/>
                <stop offset="40%" stop-color="#503F69"/>
                <stop offset="51%" stop-color="#403A67"/>
                <stop offset="63%" stop-color="#363765"/>
                <stop offset="79%" stop-color="#333665"/>
                <stop offset="93%" stop-color="#2F3043"/>
                <stop offset="100%" stop-color="#2D2D2F"/>
            </linearGradient>
            <linearGradient id="Q" x1="-479.117%" x2="148.635%" y1="76.437%" y2="44.961%">
                <stop offset="0%" stop-color="#DF6B7D"/>
                <stop offset="2%" stop-color="#D5687C"/>
                <stop offset="11%" stop-color="#AA5B76"/>
                <stop offset="20%" stop-color="#854F70"/>
                <stop offset="30%" stop-color="#67466C"/>
                <stop offset="40%" stop-color="#503F69"/>
                <stop offset="51%" stop-color="#403A67"/>
                <stop offset="63%" stop-color="#363765"/>
                <stop offset="79%" stop-color="#333665"/>
                <stop offset="93%" stop-color="#2F3043"/>
                <stop offset="100%" stop-color="#2D2D2F"/>
            </linearGradient>
            <linearGradient id="R" x1="45.071%" x2="60.197%" y1="147.467%" y2="-22.598%">
                <stop offset="0%" stop-color="#DF6B7D"/>
                <stop offset="2%" stop-color="#D5687C"/>
                <stop offset="11%" stop-color="#AA5B76"/>
                <stop offset="20%" stop-color="#854F70"/>
                <stop offset="30%" stop-color="#67466C"/>
                <stop offset="40%" stop-color="#503F69"/>
                <stop offset="51%" stop-color="#403A67"/>
                <stop offset="63%" stop-color="#363765"/>
                <stop offset="79%" stop-color="#333665"/>
                <stop offset="93%" stop-color="#2F3043"/>
                <stop offset="100%" stop-color="#2D2D2F"/>
            </linearGradient>
            <linearGradient id="S" x1="46.176%" x2="51.869%" y1="440.625%" y2="-189.792%">
                <stop offset="0%" stop-color="#DF6B7D"/>
                <stop offset="100%" stop-color="#333665"/>
            </linearGradient>
            <linearGradient id="T" x1="-1021.038%" x2="863.934%" y1="69.761%" y2="33.458%">
                <stop offset="0%" stop-color="#DF6B7D"/>
                <stop offset="2%" stop-color="#D5687C"/>
                <stop offset="11%" stop-color="#AA5B76"/>
                <stop offset="20%" stop-color="#854F70"/>
                <stop offset="30%" stop-color="#67466C"/>
                <stop offset="40%" stop-color="#503F69"/>
                <stop offset="51%" stop-color="#403A67"/>
                <stop offset="63%" stop-color="#363765"/>
                <stop offset="79%" stop-color="#333665"/>
                <stop offset="93%" stop-color="#2F3043"/>
                <stop offset="100%" stop-color="#2D2D2F"/>
            </linearGradient>
            <linearGradient id="U" x1="33.393%" x2="73.433%" y1="92.11%" y2="-14.477%">
                <stop offset="5%" stop-color="#DF6B7D"/>
                <stop offset="7%" stop-color="#D5687C"/>
                <stop offset="14%" stop-color="#AA5B76"/>
                <stop offset="22%" stop-color="#854F70"/>
                <stop offset="30%" stop-color="#67466C"/>
                <stop offset="38%" stop-color="#503F69"/>
                <stop offset="47%" stop-color="#403A67"/>
                <stop offset="57%" stop-color="#363765"/>
                <stop offset="69%" stop-color="#333665"/>
                <stop offset="89%" stop-color="#2F3043"/>
                <stop offset="100%" stop-color="#2D2D2F"/>
            </linearGradient>
            <linearGradient id="V" x1="-42.946%" x2="202.219%" y1="1.646%" y2="129.116%">
                <stop offset="5%" stop-color="#DF6B7D"/>
                <stop offset="7%" stop-color="#D5687C"/>
                <stop offset="14%" stop-color="#AA5B76"/>
                <stop offset="22%" stop-color="#854F70"/>
                <stop offset="30%" stop-color="#67466C"/>
                <stop offset="38%" stop-color="#503F69"/>
                <stop offset="47%" stop-color="#403A67"/>
                <stop offset="57%" stop-color="#363765"/>
                <stop offset="69%" stop-color="#333665"/>
                <stop offset="89%" stop-color="#2F3043"/>
                <stop offset="100%" stop-color="#2D2D2F"/>
            </linearGradient>
            <linearGradient id="W" x1="-29.89%" x2="201.837%" y1="103.03%" y2="-48.97%">
                <stop offset="5%" stop-color="#DF6B7D"/>
                <stop offset="7%" stop-color="#D5687C"/>
                <stop offset="14%" stop-color="#AA5B76"/>
                <stop offset="22%" stop-color="#854F70"/>
                <stop offset="30%" stop-color="#67466C"/>
                <stop offset="38%" stop-color="#503F69"/>
                <stop offset="47%" stop-color="#403A67"/>
                <stop offset="57%" stop-color="#363765"/>
                <stop offset="69%" stop-color="#333665"/>
                <stop offset="89%" stop-color="#2F3043"/>
                <stop offset="100%" stop-color="#2D2D2F"/>
            </linearGradient>
            <linearGradient id="X" x1="-263.209%" x2="90.924%" y1="37.452%" y2="51.774%">
                <stop offset="5%" stop-color="#DF6B7D"/>
                <stop offset="7%" stop-color="#D5687C"/>
                <stop offset="14%" stop-color="#AA5B76"/>
                <stop offset="22%" stop-color="#854F70"/>
                <stop offset="30%" stop-color="#67466C"/>
                <stop offset="38%" stop-color="#503F69"/>
                <stop offset="47%" stop-color="#403A67"/>
                <stop offset="57%" stop-color="#363765"/>
                <stop offset="69%" stop-color="#333665"/>
                <stop offset="89%" stop-color="#2F3043"/>
                <stop offset="100%" stop-color="#2D2D2F"/>
            </linearGradient>
            <linearGradient id="Y" x1="23.842%" x2="70.951%" y1="28.162%" y2="119.567%">
                <stop offset="0%" stop-color="#EEB47B"/>
                <stop offset="100%" stop-color="#DF6B7D"/>
            </linearGradient>
            <linearGradient id="Z" x1="31.574%" x2="76.308%" y1="26.933%" y2="122.533%">
                <stop offset="0%" stop-color="#DF6B7D"/>
                <stop offset="100%" stop-color="#333665"/>
            </linearGradient>
            <linearGradient id="aa" x1="48%" x2="54%" y1="47%" y2="54%">
                <stop offset="0%" stop-color="#DF6B7D"/>
                <stop offset="100%" stop-color="#333665"/>
            </linearGradient>
            <linearGradient id="ab" x1="-5.059%" x2="105.84%" y1="23.327%" y2="76.081%">
                <stop offset="0%" stop-color="#FFF"/>
                <stop offset="100%" stop-color="#BDBDBD"/>
            </linearGradient>
            <linearGradient id="ac" x1="-4.606%" x2="105.317%" y1="23.603%" y2="75.892%">
                <stop offset="0%" stop-color="#EEB47B"/>
                <stop offset="100%" stop-color="#DF6B7D"/>
            </linearGradient>
            <linearGradient id="ad" x1="-4.606%" x2="105.317%" y1="23.603%" y2="75.892%">
                <stop offset="0%" stop-color="#A93EE1"/>
                <stop offset="100%" stop-color="#F48BAC"/>
            </linearGradient>
            <linearGradient id="ae" x1="-25.814%" x2="296.279%" y1="42.391%" y2="74.638%">
                <stop offset="0%" stop-color="#FFF"/>
                <stop offset="100%" stop-color="#4C4C4E"/>
            </linearGradient>
            <linearGradient id="af" x1="94.169%" x2="21.976%" y1="17.33%" y2="107.57%">
                <stop offset="0%" stop-color="#DF6B7D"/>
                <stop offset="2%" stop-color="#D5687C"/>
                <stop offset="11%" stop-color="#AA5B76"/>
                <stop offset="20%" stop-color="#854F70"/>
                <stop offset="30%" stop-color="#67466C"/>
                <stop offset="40%" stop-color="#503F69"/>
                <stop offset="51%" stop-color="#403A67"/>
                <stop offset="63%" stop-color="#363765"/>
                <stop offset="79%" stop-color="#333665"/>
                <stop offset="93%" stop-color="#2F3043"/>
                <stop offset="100%" stop-color="#2D2D2F"/>
            </linearGradient>
            <linearGradient id="ag" x1="31.448%" x2="87.335%" y1="26.567%" y2="50%">
                <stop offset="0%" stop-color="#A93EE1"/>
                <stop offset="100%" stop-color="#F48BAC"/>
            </linearGradient>
            <linearGradient id="ah" x1="56.487%" x2="45.067%" y1="102.295%" y2="19.714%">
                <stop offset="0%" stop-color="#DF6B7D"/>
                <stop offset="2%" stop-color="#D5687C"/>
                <stop offset="11%" stop-color="#AA5B76"/>
                <stop offset="20%" stop-color="#854F70"/>
                <stop offset="30%" stop-color="#67466C"/>
                <stop offset="40%" stop-color="#503F69"/>
                <stop offset="51%" stop-color="#403A67"/>
                <stop offset="63%" stop-color="#363765"/>
                <stop offset="79%" stop-color="#333665"/>
                <stop offset="93%" stop-color="#2F3043"/>
                <stop offset="100%" stop-color="#2D2D2F"/>
            </linearGradient>
            <linearGradient id="ai" x1="-50%" x2="964%" y1="2.308%" y2="484.615%">
                <stop offset="0%" stop-color="#DF6B7D"/>
                <stop offset="2%" stop-color="#D5687C"/>
                <stop offset="11%" stop-color="#AA5B76"/>
                <stop offset="20%" stop-color="#854F70"/>
                <stop offset="30%" stop-color="#67466C"/>
                <stop offset="40%" stop-color="#503F69"/>
                <stop offset="51%" stop-color="#403A67"/>
                <stop offset="63%" stop-color="#363765"/>
                <stop offset="79%" stop-color="#333665"/>
                <stop offset="93%" stop-color="#2F3043"/>
                <stop offset="100%" stop-color="#2D2D2F"/>
            </linearGradient>
            <ellipse id="ak" cx="41.545" cy="41.541" rx="41.545" ry="41.541"/>
            <filter id="aj" width="175.8%" height="175.8%" x="-37.9%" y="-27.1%" filterUnits="objectBoundingBox">
                <feOffset dy="9" in="SourceAlpha" result="shadowOffsetOuter1"/>
                <feGaussianBlur in="shadowOffsetOuter1" result="shadowBlurOuter1" stdDeviation="9"/>
                <feColorMatrix in="shadowBlurOuter1" values="0 0 0 0 0.780392157 0 0 0 0 0.901960784 0 0 0 0 0.22745098 0 0 0 0.2 0"/>
            </filter>
            <linearGradient id="al" x1="20.173%" x2="88.169%" y1="22.696%" y2="100%">
                <stop offset="0%" stop-color="#FFD656"/>
                <stop offset="100%" stop-color="#9ADB5B"/>
            </linearGradient>
            <ellipse id="an" cx="41.545" cy="41.541" rx="41.545" ry="41.541"/>
            <filter id="am" width="179.4%" height="179.4%" x="-39.7%" y="-28.9%" filterUnits="objectBoundingBox">
                <feOffset dy="9" in="SourceAlpha" result="shadowOffsetOuter1"/>
                <feGaussianBlur in="shadowOffsetOuter1" result="shadowBlurOuter1" stdDeviation="9.5"/>
                <feColorMatrix in="shadowBlurOuter1" values="0 0 0 0 0.788235294 0 0 0 0 0.368627451 0 0 0 0 0.8 0 0 0 0.2 0"/>
            </filter>
            <linearGradient id="ao" x1="84.291%" x2="0%" y1="76.95%" y2="0%">
                <stop offset="0%" stop-color="#581EFD"/>
                <stop offset="100%" stop-color="#FA92A7"/>
            </linearGradient>
        </defs>
        <g fill="none" fill-rule="evenodd">
            <g transform="translate(32.547 39.367)">
                <mask id="c" fill="#fff">
                    <use xlink:href="#a"/>
                </mask>
                <use fill="url(#b)" fill-rule="nonzero" transform="rotate(-180 249.946 218.047)" xlink:href="#a"/>
                <path fill="#FFF" d="M284.944 194.367l3.658 4.943a.87.87 0 0 1-.198 1.223.914.914 0 0 1-1.25-.193l-2.96-3.99-2.96 3.99a.914.914 0 0 1-1.25.193l-.013-.013a.87.87 0 0 1-.197-1.223l3.697-4.981a.896.896 0 0 1 1.17-.22c0 .014.014.014.014.014.026 0 .04.012.052.025h.014l.013.013a.828.828 0 0 1 .21.22zm.145-5.664v3.501c0 .49-.408.876-.895.876-.5 0-.894-.4-.894-.876v-3.501c0-.49.407-.875.894-.875.487 0 .895.399.895.875zm-6.591 3.411l3.407 1.082a.882.882 0 0 1 .579 1.107.91.91 0 0 1-1.131.566l-3.408-1.094a.882.882 0 0 1-.579-1.107.903.903 0 0 1 1.132-.554zm11.932 1.66l-3.407 1.082a.9.9 0 0 1-1.132-.566c-.157-.464.106-.953.58-1.107l3.407-1.082a.9.9 0 0 1 1.131.567.867.867 0 0 1-.579 1.107zM143.482 109.16l3.657 4.943a.87.87 0 0 1-.197 1.223.914.914 0 0 1-1.25-.193l-2.96-3.99-2.96 3.99a.914.914 0 0 1-1.25.193l-.013-.013a.87.87 0 0 1-.197-1.222l3.697-4.982a.896.896 0 0 1 1.17-.22c0 .014.014.014.014.014.026 0 .04.013.052.025h.013l.014.013a.828.828 0 0 1 .21.22zm.145-5.664v3.502a.886.886 0 0 1-.895.875c-.5 0-.894-.4-.894-.875v-3.502c0-.49.407-.875.894-.875.487 0 .895.399.895.875zm-6.591 3.411l3.407 1.082a.882.882 0 0 1 .579 1.107.91.91 0 0 1-1.132.566l-3.407-1.094a.882.882 0 0 1-.579-1.107.903.903 0 0 1 1.132-.554zm11.932 1.661l-3.407 1.081a.9.9 0 0 1-1.132-.566c-.158-.463.106-.953.58-1.107l3.407-1.081a.9.9 0 0 1 1.131.566.867.867 0 0 1-.579 1.107z" mask="url(#c)"/>
                <g mask="url(#c)">
                    <g transform="translate(364.835 142.529)">
                        <ellipse style="mix-blend-mode:multiply" cx="37.601" cy="225.457" fill="#333665" opacity=".3" rx="37.601" ry="7.06"/>
                        <path fill="url(#d)" d="M90.475 169.337v-.084c-.045-.159-.083-.182-.083-.182-1.589-2.86-16.987-5.112-35.76-5.112s-34.172 2.275-35.76 5.112l-.076.182a.464.464 0 0 0 0 .084 15.688 15.688 0 0 0-.182 3.087v7.48a4.01 4.01 0 0 0 2.633 1.858l13.409 45.409s10.283 2.92 20.006 2.92 20.006-2.92 20.006-2.92l13.409-45.409a4.01 4.01 0 0 0 2.633-1.858v-7.48a15.688 15.688 0 0 0-.235-3.087z"/>
                        <path fill="url(#e)" d="M45.302 201.865c-8.853-9.62-1.513-17.015-1.513-17.015 5.91.243 10.782 0 10.782 0 6.848-7.647 0-10.43 0-10.43s-17.857-.76-17.918-4.34c0-1.699 5.433-4.043 11.13-6.023-15.579.47-27.58 2.504-28.972 5.014l-.076.182a.464.464 0 0 0 0 .084 15.688 15.688 0 0 0-.181 3.087v7.48a4.01 4.01 0 0 0 2.633 1.858l13.408 45.409s10.283 2.92 20.007 2.92c8.08-9.785-.44-18.608-9.3-28.226z"/>
                        <ellipse cx="54.609" cy="170.08" fill="url(#f)" rx="31.13" ry="4.339"/>
                        <path fill="url(#g)" d="M44.644 172.447a12.804 12.804 0 0 1-2.27-7.062c-.106-3.55 1.112-9.005 7.566-14.785 5.547-5.006 6.054-7.707 5.978-8.64 0-.38-.083-1.517-2.55-3.323-3.51-2.54-7.302-5.651-7.794-10.521-.355-3.558 1.158-7.116 4.631-10.87 1.355-1.472 4.956-5.364 4.775-7.237-.053-.622-.681-2.064-4.23-4.688-3.904-2.898-5.902-6.205-5.917-9.862 0-5.826 5.13-10.498 9.64-13.92l4.737 6.266c-5.418 4.112-6.546 6.41-6.538 7.586 0 1.343 1.718 2.807 2.74 3.565 3.207 2.375 6.945 5.69 7.377 10.271.461 4.954-3.118 9.293-6.81 13.313-1.779 1.92-2.694 3.611-2.58 4.741.158 1.518 2.27 3.285 4.577 4.931 3.655 2.64 5.607 5.758 5.796 9.278.25 4.612-2.557 9.482-8.573 14.906-3.306 2.98-5.016 5.992-4.933 8.708.012.9.243 1.782.673 2.572l-6.295 4.771z"/>
                        <path fill="url(#h)" d="M48.215 134.116c-4.956 5.955-3.783 13.328 3.504 21.946 5.81 6.865 3.299 11.917 3.193 12.137v-.068l6.81 3.914c.227-.394 5.44-9.861-4.048-21.058-5.918-6.994-5.093-10.081-3.655-11.811l-2.875-2.276a35.601 35.601 0 0 1-2.929-2.784z"/>
                        <path fill="url(#i)" d="M59.285 102.347a12.013 12.013 0 0 0 2.27-6.827c0-5.545-3.897-10.18-7.324-13.594l-5.524 5.576c3.382 3.375 5.024 5.977 5.01 7.972 0 .55-.128 1.093-.372 1.586a13.9 13.9 0 0 0 2.596 2.51 31.737 31.737 0 0 1 3.344 2.777z"/>
                        <path fill="url(#j)" d="M54.193 108.454a4.402 4.402 0 0 0 0 3.61 27.908 27.908 0 0 0 3.307 5.584c.438.622.824 1.22 1.165 1.813 3.443 5.924.583 13.828.583 13.828-.349-.303-1.294-.872-3.784-2.822-2.49-1.949-2.27-3.33-2.27-3.33 0-1.327-.605-2.882-2.058-4.96a85.41 85.41 0 0 1-2.27-3.384c-3.027-4.961-4.411-9.861-.575-15.596 0 0 1.8 1.676 3.375 2.83a13.18 13.18 0 0 1 2.527 2.427z"/>
                        <path fill="url(#k)" d="M54.844 113.445c.877-.614 1.657-.979 1.838-1.464.432-1.115-1.71-1.972-.643-4.347 1.067-2.374-1.891-3.459-5.675-5.31-3.783-1.85-2.451-3.413-2.557-4.08-.106-.668-1.007-1.01-.674-2.125a11.26 11.26 0 0 0 .757-4.794c-.182-1.646 5.841-6.258 8.005-7.859l-1.415-1.904c-4.54 3.421-9.677 8.094-9.64 13.92 0 3.634 2.013 6.94 5.918 9.861 3.548 2.625 4.176 4.066 4.23 4.688a4.21 4.21 0 0 1-.757 2.155"/>
                        <path fill="url(#l)" d="M48.594 151.867c-5.252 5.31-6.296 10.226-6.198 13.518a12.804 12.804 0 0 0 2.27 7.062l1.09-.827a3.604 3.604 0 0 0-.522-.758c-1.559-1.851.083-3.262.757-5.788.673-2.526-1.96-3.08-2.202-4.863-.242-1.782 2.27-2.162 3.503-3.884s.984-2.95 1.907-3.565l-.605-.895z"/>
                        <path fill="url(#m)" d="M48.866 118.793c-2.52 3.194-3.602 6.258-3.3 9.323.493 4.87 4.284 7.98 7.795 10.521 2.466 1.775 2.534 2.944 2.55 3.323 0 .592-.152 1.896-1.703 4.05.424.82.91 1.606 1.453 2.352a24.5 24.5 0 0 0 .378-3.52c0-1.6.371-1.471 1.294-3.2.923-1.73-.181-2.89-2.225-3.338-2.043-.448-2.073-1.23-3.299-4.188-1.225-2.958-3.117-3.034-4.116-3.595-.999-.562-1.112-.918-.113-2.913.998-1.995-1-1.237-.523-3.793.303-1.608 1.885-1.92 3.163-2.913"/>
                        <path fill="url(#n)" d="M56.228 158.793c.076-1.434-3.851-.57-4.207-4.863-.355-4.293-2.64-5.94-4.139-6.652-1.498-.714.144-2.716.432-3.915.287-1.198-2.354-2.594-.432-4.164a9.96 9.96 0 0 0 2.558-2.845v-.099c-1.067-.955-2.187-2.139-2.187-2.139-4.956 5.955-3.783 13.328 3.503 21.946 5.812 6.865 3.3 11.917 3.194 12.137v-.068l2.716 1.562a7.478 7.478 0 0 0-1.718-8.033c-1.142-1.153.212-1.434.28-2.867z"/>
                        <ellipse cx="54.609" cy="170.839" fill="url(#o)" rx="30.645" ry="3.58"/>
                        <path fill="url(#p)" d="M56.1 126.599c-.545-1.35-2.164-1.828-2.633-3.247-.47-1.418.756-2.276-1.143-3.307-1.9-1.032-2.497-1.555-2.096-5.204.401-3.649-1.612-4.939-2.558-7.169-.643-1.517.757-2.799 1.733-3.482-.65-.569-1.112-.993-1.112-.993-3.836 5.727-2.429 10.62.575 15.596a43.3 43.3 0 0 0 2.27 3.383c1.453 2.079 2.066 3.634 2.058 4.961 0 0-.174 1.047 1.445 2.61.863-1.093 1.748-2.428 1.46-3.148z"/>
                        <path fill="url(#q)" d="M53.171 89.732c-1.513-1.077-2.065-3.034-2.27-4.483l-2.217 2.23c3.383 3.376 5.025 5.978 5.01 7.973 0 .55-.127 1.092-.371 1.585a14.398 14.398 0 0 0 1.619 1.714c1.377-.523.492-2.222 1.468-4.331 1.15-2.503-.704-2.89-3.239-4.688z"/>
                        <path fill="url(#r)" d="M53.005 83.125c1.226.53 2.588 1.305 2.618 2.124.053 1.517 0 3.072 1.135 3.239 1.135.167 1.68.842 1.566 1.858-.113 1.017-1.77 3.611 0 6.66a3.565 3.565 0 0 1-.257 4.256 24.606 24.606 0 0 1 1.203 1.085 12.013 12.013 0 0 0 2.27-6.827c0-5.545-3.897-10.18-7.324-13.594l-1.211 1.199z"/>
                        <path fill="url(#s)" d="M17.025 69.675a6.245 6.245 0 0 0-5.153 3.922s1.801 2.01 6.417-.432c0 0-2.21 3.277 2.149 6.129h-2.414s.287 4.824 4.343 5.31c0 0-3.443 1.274-3.261 4.847 1.98.588 4.122.08 5.63-1.335 0 0-2.414 1.859 0 5.78l1.687-1.22L28.05 95.2a4.085 4.085 0 0 0 1.907-4.377l-.47 1.745s3.08 1.085 4.911-1.32a4.498 4.498 0 0 0 1.294 3.952 4.354 4.354 0 0 0 1.037-3.557 1.09 1.09 0 0 0 .999 1.168s.378-.243 0-1.366a2.934 2.934 0 0 0 2.663 1.404s0 .364.462.963a3.035 3.035 0 0 0 1.687-2.549s-1.99 1.904-.915 5.591c0 0 1.513-3.118 3.601-4.005a2.428 2.428 0 0 0 1.688-2.663s-.84 1.464 1.846 4.134c0 0 2.058-2.435.492-4.316 0 0 1.702 2.928 4.593.076 0 0-.719 1.07.582 2.329.45-.141.807-.483.969-.926a2.167 2.167 0 0 0 0 1.176s2.452.85 3.624-1.403a3.26 3.26 0 0 0 .515 3.504 1.515 1.515 0 0 0-1.407 1.328 1.88 1.88 0 0 0 2.633-.19s-.204.759 1.173 1.176c.37-.638.37-1.426 0-2.063a3.16 3.16 0 0 0 2.043-1.115s-1.597 3.315 1.029 5.31c0 0 1.823-.425 1.513-3.543a2.552 2.552 0 0 0-.757 1.896c.13 1.04 3.315 1.207 4.397 0a2.275 2.275 0 0 0-1.824 2.375s1.37.758 2.338 0a4.338 4.338 0 0 0 1.264 3.96 5.989 5.989 0 0 0 1.37-1.601 1.75 1.75 0 0 0 1.43.554 1.421 1.421 0 0 0 0-1.6s-.235 1.873 2.164 4.02c.364-1.16.558-2.366.575-3.58 0 0 .756.758 2.171-.995.185.336.534.547.916.554 0 0 .454-.205 0-1.312 0 0 2.603 2.488 4.404-.683a3.284 3.284 0 0 0-.492 3.307s.484-1.517 1.392-1.517c.908 0 3.027-1.175 2.528-3.163l-.659.956s-.378 1.183 1.12 2.109c0 0 1.907-2.048.447-3.596 0 0 2.587 2.276 7.15 1.517a5.493 5.493 0 0 0-4.918-5.082s1.044.432 3.216-.531a2.202 2.202 0 0 0-.757-1.7 4.655 4.655 0 0 0 2.421 2.967s.833-1.965-1.384-3.968a2.033 2.033 0 0 0 2.625 1.002s-.318-2.01-2.217-1.874c0 0 1.975-1.388 5.138.25 0 0-1.279-3.034-3.95-2.42a11.497 11.497 0 0 0 6.69-3.2s-2.27-2.041-6.213-1.078c0 0 2.338.705 3.783-2.496a3.286 3.286 0 0 0-3.026-.827s3.321-.478 6.34 2.868c0 0 .25-7.586-5.584-7.275 0 0 3.118 3.034 7.28 2.48 0 0-2.134-4.99-7.567-5.21 0 0 4.54-.896 5.296-4.135 0 0-4.388-1.077-6.19.986a4.155 4.155 0 0 0 3.3-2.48s-2.02-1.025-3.48-.44a6.102 6.102 0 0 0 5.954-4.62s-4.237-.683-6.764 2.48c0 0 1.188-.697 1.263-3.216a5.11 5.11 0 0 0-3.026 0s6.741-.842 8.724-6.198c0 0-7.219-.69-9.678 4.286 0 0 4.54 2.14 7.06.759 0 0-1.74-4.43-7.294-2.594a4.683 4.683 0 0 0 3.571-3.793 6.04 6.04 0 0 0-5.077.758 12.508 12.508 0 0 0 6.318-6.296s-3.632-.652-6.197 0c0 0 2.27-2.564-.083-8.246 0 0 .461 2.693 3.094 2.921 0 0 .462-3.33-2.444-3.725 0 0 3.996 2.526 7.643-3.231 0 0-4.495-2.39-8.142 2.17l4.669-1.776s.461-4.445-3.254-4.824c0 0 7.438.121 7.786-6.266 0 0-4.01 3.535-8.369.842 0 0 4.359-.675 4.54-3.034 0 0-1.392-2.352-5.75-2.018 0 0 3.836-2.01 4.01-4.028a4.397 4.397 0 0 0-4.707 1.342 11.93 11.93 0 0 1 5.751-5.545s-4.827-1.297-6.81.698c0 0 2.709-1.63 1.763-6.455a3.787 3.787 0 0 0-2.028 1.835s1.31-2.518-1.309-5.044a5.688 5.688 0 0 0-2.497 5.849S85.36 6.82 81.736 7.13c0 0 2.33 1.039 3.64-1.738 0 0-2.346-2.002-5.1 1.169 0 0-1.37-2.906-4.382-1.017 0 0 3.027-1.661 2.58-4.3 0 0-4.759-.115-4.54 4.247a2.501 2.501 0 0 0-3.563.137 4.242 4.242 0 0 0 0-4.43 3.52 3.52 0 0 0-1.665 1.517s-.121-1.608-3.095-2.64c0 0-.953 4.703 2.497 6.311 0 0-.862-2.761-4.797-3.034 0 0-1.196 1.874 1.37 4.347 0 0-2.929-1.411-4.185 3.315 0 0 1.513-1.267-.197-5.667 0 0-3.874 2.792-1.286 7.093 0 0-.159-1.89-4.616-.873 0 0 1.514 2.64 3.821 1.927 0 0-2.36-.06-2.928 2.761 0 0 0-4.346-5.01-4.05 0 0 2.566.758 2.362 2.177-.205 1.418-.923 3.27 1.127 3.565 0 0-.817-2.769-5.645-1.783a2.413 2.413 0 0 0 1.438 2.276s-1.34.197-1.438 1.29c0 0-2.05 0-2.565 2.571l-.514-1.98s-2.982 1.093-2.982 5.25c0 0-2.663-1.98-1.43-5.94 0 0-2.156 1.783-2.156 4.256 0 2.473 1.438 2.67 1.438 2.67s-1.234-2.177-4.54-.759c0 0 1.513-3.467-1.34-5.742 0 0-2.67 2.374 0 6.235 0 0-.757-2.473-4.94.152a2.57 2.57 0 0 0 1.249-3.52c-.001 0-3.028-.152-2.688 3.391 0 0 .757-6.653-4.706-8.14a2.762 2.762 0 0 1 1.233 2.079c0 1.29-1.437 3.71 1.438 5.81l-4.313-.31v-2.33s-3.027.76-3.307 2.52c0 0-.9-3.414-5.728-2.921a4.06 4.06 0 0 0 .106 1.881 2.209 2.209 0 0 0-2.058 1.191l-.817-1.684a5.318 5.318 0 0 0-1.688 6.41s-3.473-.046-2.587 3.998c0 0-2.808.872-2.808 4.93l1.514-1.183v4.847s-.356-1.38-3.542-.986c0 0 .712 3.656 3.542 2.079 0 0-4.359 3.163-2.104 6.068 0 0 2.565-.303 2.565-4.157 0 0-.56 3.467 2.8 4.408 0 0-2.898-2.033-6.386 1.426 0 0 3.435 3.072 6.386-.395 0 0-1.362 2.678 2.338 3.861 0 0-2.777.69-1.513 3.96 0 0 2.67-.887 2.466-3.17 0 0-1.513 2.275 1.953 4.46 0 0-3.7 1.085-6.16-.402 0 0 .757 3.072 3.784 3.368 3.026.296 3.178-2.079 3.178-2.079a3.847 3.847 0 0 0 2.338 4.059s-1.324 3.246 1.445 3.762z"/>
                        <path fill="url(#s)" d="M17.025 69.675a6.245 6.245 0 0 0-5.153 3.922s1.801 2.01 6.417-.432c0 0-2.21 3.277 2.149 6.129h-2.414s.287 4.824 4.343 5.31c0 0-3.443 1.274-3.261 4.847 1.98.588 4.122.08 5.63-1.335 0 0-2.414 1.859 0 5.78l1.687-1.22L28.05 95.2a4.085 4.085 0 0 0 1.907-4.377l-.47 1.745s3.08 1.085 4.911-1.32a4.498 4.498 0 0 0 1.294 3.952 4.354 4.354 0 0 0 1.037-3.557 1.09 1.09 0 0 0 .999 1.168s.378-.243 0-1.366a2.934 2.934 0 0 0 2.663 1.404s0 .364.462.963a3.035 3.035 0 0 0 1.687-2.549s-1.99 1.904-.915 5.591c0 0 1.513-3.118 3.601-4.005a2.428 2.428 0 0 0 1.688-2.663s-.84 1.464 1.846 4.134c0 0 2.058-2.435.492-4.316 0 0 1.702 2.928 4.593.076 0 0-.719 1.07.582 2.329.45-.141.807-.483.969-.926a2.167 2.167 0 0 0 0 1.176s2.452.85 3.624-1.403a3.26 3.26 0 0 0 .515 3.504 1.515 1.515 0 0 0-1.407 1.328 1.88 1.88 0 0 0 2.633-.19s-.204.759 1.173 1.176c.37-.638.37-1.426 0-2.063a3.16 3.16 0 0 0 2.043-1.115s-1.597 3.315 1.029 5.31c0 0 1.823-.425 1.513-3.543a2.552 2.552 0 0 0-.757 1.896c.13 1.04 3.315 1.207 4.397 0a2.275 2.275 0 0 0-1.824 2.375s1.37.758 2.338 0a4.338 4.338 0 0 0 1.264 3.96 5.989 5.989 0 0 0 1.37-1.601 1.75 1.75 0 0 0 1.43.554 1.421 1.421 0 0 0 0-1.6s-.235 1.873 2.164 4.02c.364-1.16.558-2.366.575-3.58 0 0 .756.758 2.171-.995.185.336.534.547.916.554 0 0 .454-.205 0-1.312 0 0 2.603 2.488 4.404-.683a3.284 3.284 0 0 0-.492 3.307s.484-1.517 1.392-1.517c.908 0 3.027-1.175 2.528-3.163l-.659.956s-.378 1.183 1.12 2.109c0 0 1.907-2.048.447-3.596 0 0 2.587 2.276 7.15 1.517a5.493 5.493 0 0 0-4.918-5.082s1.044.432 3.216-.531a2.202 2.202 0 0 0-.757-1.7 4.655 4.655 0 0 0 2.421 2.967s.833-1.965-1.384-3.968a2.033 2.033 0 0 0 2.625 1.002s-.318-2.01-2.217-1.874c0 0 1.975-1.388 5.138.25 0 0-1.279-3.034-3.95-2.42a11.497 11.497 0 0 0 6.69-3.2s-2.27-2.041-6.213-1.078c0 0 2.338.705 3.783-2.496a3.286 3.286 0 0 0-3.026-.827s3.321-.478 6.34 2.868c0 0 .25-7.586-5.584-7.275 0 0 3.118 3.034 7.28 2.48 0 0-2.134-4.99-7.567-5.21 0 0 4.54-.896 5.296-4.135 0 0-4.388-1.077-6.19.986a4.155 4.155 0 0 0 3.3-2.48s-2.02-1.025-3.48-.44a6.102 6.102 0 0 0 5.954-4.62s-4.237-.683-6.764 2.48c0 0 1.188-.697 1.263-3.216a5.11 5.11 0 0 0-3.026 0s6.741-.842 8.724-6.198c0 0-7.219-.69-9.678 4.286 0 0 4.54 2.14 7.06.759 0 0-1.74-4.43-7.294-2.594a4.683 4.683 0 0 0 3.571-3.793 6.04 6.04 0 0 0-5.077.758 12.508 12.508 0 0 0 6.318-6.296s-3.632-.652-6.197 0c0 0 2.27-2.564-.083-8.246 0 0 .461 2.693 3.094 2.921 0 0 .462-3.33-2.444-3.725 0 0 3.996 2.526 7.643-3.231 0 0-4.495-2.39-8.142 2.17l4.669-1.776s.461-4.445-3.254-4.824c0 0 7.438.121 7.786-6.266 0 0-4.01 3.535-8.369.842 0 0 4.359-.675 4.54-3.034 0 0-1.392-2.352-5.75-2.018 0 0 3.836-2.01 4.01-4.028a4.397 4.397 0 0 0-4.707 1.342 11.93 11.93 0 0 1 5.751-5.545s-4.827-1.297-6.81.698c0 0 2.709-1.63 1.763-6.455a3.787 3.787 0 0 0-2.028 1.835s1.31-2.518-1.309-5.044a5.688 5.688 0 0 0-2.497 5.849S85.36 6.82 81.736 7.13c0 0 2.33 1.039 3.64-1.738 0 0-2.346-2.002-5.1 1.169 0 0-1.37-2.906-4.382-1.017 0 0 3.027-1.661 2.58-4.3 0 0-4.759-.115-4.54 4.247a2.501 2.501 0 0 0-3.563.137 4.242 4.242 0 0 0 0-4.43 3.52 3.52 0 0 0-1.665 1.517s-.121-1.608-3.095-2.64c0 0-.953 4.703 2.497 6.311 0 0-.862-2.761-4.797-3.034 0 0-1.196 1.874 1.37 4.347 0 0-2.929-1.411-4.185 3.315 0 0 1.513-1.267-.197-5.667 0 0-3.874 2.792-1.286 7.093 0 0-.159-1.89-4.616-.873 0 0 1.514 2.64 3.821 1.927 0 0-2.36-.06-2.928 2.761 0 0 0-4.346-5.01-4.05 0 0 2.566.758 2.362 2.177-.205 1.418-.923 3.27 1.127 3.565 0 0-.817-2.769-5.645-1.783a2.413 2.413 0 0 0 1.438 2.276s-1.34.197-1.438 1.29c0 0-2.05 0-2.565 2.571l-.514-1.98s-2.982 1.093-2.982 5.25c0 0-2.663-1.98-1.43-5.94 0 0-2.156 1.783-2.156 4.256 0 2.473 1.438 2.67 1.438 2.67s-1.234-2.177-4.54-.759c0 0 1.513-3.467-1.34-5.742 0 0-2.67 2.374 0 6.235 0 0-.757-2.473-4.94.152a2.57 2.57 0 0 0 1.249-3.52c-.001 0-3.028-.152-2.688 3.391 0 0 .757-6.653-4.706-8.14a2.762 2.762 0 0 1 1.233 2.079c0 1.29-1.437 3.71 1.438 5.81l-4.313-.31v-2.33s-3.027.76-3.307 2.52c0 0-.9-3.414-5.728-2.921a4.06 4.06 0 0 0 .106 1.881 2.209 2.209 0 0 0-2.058 1.191l-.817-1.684a5.318 5.318 0 0 0-1.688 6.41s-3.473-.046-2.587 3.998c0 0-2.808.872-2.808 4.93l1.514-1.183v4.847s-.356-1.38-3.542-.986c0 0 .712 3.656 3.542 2.079 0 0-4.359 3.163-2.104 6.068 0 0 2.565-.303 2.565-4.157 0 0-.56 3.467 2.8 4.408 0 0-2.898-2.033-6.386 1.426 0 0 3.435 3.072 6.386-.395 0 0-1.362 2.678 2.338 3.861 0 0-2.777.69-1.513 3.96 0 0 2.67-.887 2.466-3.17 0 0-1.513 2.275 1.953 4.46 0 0-3.7 1.085-6.16-.402 0 0 .757 3.072 3.784 3.368 3.026.296 3.178-2.079 3.178-2.079a3.847 3.847 0 0 0 2.338 4.059s-1.324 3.246 1.445 3.762z"/>
                        <path fill="url(#t)" d="M57.507 117.648a27.908 27.908 0 0 1-3.307-5.584 4.402 4.402 0 0 1 0-3.61 10.668 10.668 0 0 0-1.142-1.252 3.862 3.862 0 0 1-1.362 2.01c-2.119 1.73.68 3.793 1.998 4.84 1.316 1.047-.492 4.043 1.422 5.515 1.914 1.471 4.865 2.617 4.086 4.968-.567 1.715-2.626 3.96-3.587 6.069 2.4 1.843 3.315 2.405 3.655 2.7 0 0 2.86-7.904-.582-13.828a21.217 21.217 0 0 0-1.18-1.828z"/>
                        <path fill="url(#u)" d="M20.612 66.884s-2.8 1.926-6.946 0c0 0 2.027-4.066 5.296-3.293 0 0-1.83 0-1.83-2.61 0 0-3.784-2.13-3.474-4.839h3.466s-.553-2.898.166-4.058c.719-1.16-5.668.106-6.72 1.836 0 0 .583-4.446 5.017-4.833 4.435-.386 2.702 1.738 2.702 1.738s-1.718-2.413-.999-5.03c0 0-.545 1.457-3.632 0a3.245 3.245 0 0 1 3.632-2.124 7.4 7.4 0 0 1 1.77-5.219 4.462 4.462 0 0 1 .757 3.793s.485-2.033 3.186-2.033c0 0-4.056-1.16-2.316-6.964a8.6 8.6 0 0 0 3.572 3.58c2.27 1.063.96 2.899.96 2.899s.485-2.322 4.05-2.322a3.549 3.549 0 0 0-3.95-2.51s5.493-3.581 5.591 1.35c0 0-.257-2.8 1.513-3.793 0 0 .704-.19 1.514.872 0 0-1.445-2.42.484-4.066 0 0-1.513 1.457-4.343 0 0 0 1.354-3.095 5.402-1.517 0 0-1.83-2.51 1.067-5.219 0 0 1.514.675 1.347 4.832 0 0 1.105-4.718 5.47-3.034a4.04 4.04 0 0 1-1.134-2.427s2.421-.069 2.27 2.002a4.344 4.344 0 0 1 3.42-1.145s-.757 1.926-2.134 2.427a2.109 2.109 0 0 1 1.567 2.428s-.356-1.995 2.413-3.21c0 0 .757 1.783 0 2.709 0 0 1.514-.926 2.566-.068a4.661 4.661 0 0 1-2.066-4.142s3.117.5 2.913 3.353a2.187 2.187 0 0 1 2.353-1.639s.462-3.793-3.026-4.37c0 0 2.845-.894 3.98 0 1.135.896 0 3.339 0 3.339s.976-1.305 2.194-.494a3.732 3.732 0 0 1 .65-3.906s-1.876 1.031-4.388-1.222c0 0 3.208-1.38 4.45 0 0 0-.795-2.192.423-3.497a3.943 3.943 0 0 1-3.087-3.99s4.54-.644 4.139 3.095a4.6 4.6 0 0 1 4.964-3.155 2.956 2.956 0 0 1-.848 3.793s-.242-2.913 4.359-4.855a3.362 3.362 0 0 1-1.976-1.716 3.376 3.376 0 0 1-.15-2.616s4.668-.28 3.578 3.968c0 0 1.816-1.7 3.784-.365 0 0-.62-3.269 1.695-5.31 0 0 2.179 2.064 0 5.462 0 0 4.116-2.276 4.842-5.462 0 0 2.059 6.19-2.784 6.312 0 0 2.686-.243 3.216 4.49 0 0 .756-1.213 3.783-.606a10.343 10.343 0 0 1-1.816 3.876s2.308-1.745 5.297.971c0 0-2.422 2.427-5.297.85a2.447 2.447 0 0 1-.605 3.398s3.912-2.185 6.969 2.162c0 0-1.673-.888-2.762 0 0 0 3.155.887 3.253 3.755a6.681 6.681 0 0 1-4.54-.395s2.369 3.96 5.524 2.572c0 0-.59 2.078-4.245 2.078 0 0 4.094-.174 5.297 1.874a5.236 5.236 0 0 1-1.77 1.881 4.251 4.251 0 0 1 3.942 2.375 5.821 5.821 0 0 1-5.72.197s-2.27.099-2.96 1.881a6.306 6.306 0 0 0 3.844.986 1.675 1.675 0 0 1 1.514 1.684s-2.074 1.381-3.45-.098c0 0 1.475 2.465.294 4.248 0 0-1.778-.759-1.876-2.079-.098-1.32-2.27-1.775-3.549-.197 0 0 .28 2.124 3.027 1.684a10.746 10.746 0 0 1 8.876-1.881s-4.639.592-5.13 3.459c-.493 2.867-2.86 2.079-2.86 2.079s3.919.614 5.424 3.679c0 0-1.172 2.116-3.026 2.382 0 0 3.851 1.107 5.576-1.108 0 0 .56 3.694-3.685 5.947 0 0 1.688.243 2.407 2.974 0 0-2.323 1.123-6.568-.402a3.714 3.714 0 0 1 1.997-1.199c1.045-.09 2.565 2.162 1.446 5.371-1.12 3.209 3.67 3.876 3.67 3.876a4.592 4.592 0 0 1-3.36.964 2.449 2.449 0 0 0-2.807-1.123 5.62 5.62 0 0 0 1.68 3.937s-3.527-1.047-5.524 2.01a4.477 4.477 0 0 1 4.328 0s1.68-1.608 3.027-.326c0 0 .877 1.768-2.482 2.814 0 0 2.398.243 1.997 4.18a5.61 5.61 0 0 1-4.888-3.937s.242 2.405-2.8 3.209c0 0 2.641.243 2.8 2.73a3.228 3.228 0 0 1-3.685-1.615s1.203 3.71-1.68 5.477c0 0-2.406-2.116.401-5.477 0 0-1.68 3.224-6.333 1.38 0 0 2.088.213 2.89-1.38 0 0-1.604-1.517-3.45.577 0 0 3.125-3.46-1.279-6.19 0 0-1.922 3.292.242 5.947 0 0-2.164-1.608-4.54 1.122 0 0 1.446.32.961 2.572 0 0-1.763.16-2.005-2.01 0 0 1.014 1.972-2.179 4.862 0 0 1.385 2.663-2.08 4.552 0 0-.833-2.177.045-3.793a2.786 2.786 0 0 1-2.376.258A3.342 3.342 0 0 1 63 90.635s1.392-2.542-.984-3.733a4.449 4.449 0 0 0-1.294 2.436 3.451 3.451 0 0 1-5.297-1.245s1.862.933 3.617-1.517a1.888 1.888 0 0 0-2.951-.834s2.49-2.8.363-5.234c0 0-2.739.516-2.587 4.202 0 0 1.248 5.12-1.219 7.396a3.8 3.8 0 0 0-.711-3.3 2.371 2.371 0 0 1-.378-2.814s-.62 2.7-2.618 3.444a9.665 9.665 0 0 1-.227-3.034 3.03 3.03 0 0 0 2.096-2.132s-2.558-1.062-4.306 3.133c0 0 1.748.812.999 3.315 0 0-2.27-.06-2.27-2.814a5.304 5.304 0 0 1-3.98 4.104 4.797 4.797 0 0 1 .302-4.78s0 1.23-2.86 1.336c0 0-1.226-.926.106-3.793 0 0-5.63 1.024-6.288 5.226 0 0-1.067-4.612 1.279-6.963 0 0-1.634 1.737-5.108 1.327 0 0-.204-2.002.613-2.791a11.393 11.393 0 0 1-6.325 1.054s2.444-3.178 6.121-2.36c0 0 1.945.41 2.353-1.433a2.447 2.447 0 0 0-2.656.311s-2.466.091-2.92-2.882c0 0 .68 2.473-1.415 3.565a3.337 3.337 0 0 1-.137-4.21 2.266 2.266 0 0 1-3.026.09 2.964 2.964 0 0 1 2.928-1.418 2.59 2.59 0 0 0 2.028-.316 2.602 2.602 0 0 0 1.165-1.694 2.734 2.734 0 0 0-3.564.046s-2.436.857-2.784-2.276c-.106-.023 1.021-2.147-.454-3.163z"/>
                        <path fill="url(#v)" d="M27.664 47.684s-2.74-.842-3.382-5.636c0 0 5.395-.091 5.395 3.618 0 0 1.051-1.911 2.77-1.684a2.171 2.171 0 0 1-1.022-1.942s1.513-.174 1.793.455a3.45 3.45 0 0 1 .689-3.436c.88.74 1.186 1.965.756 3.034a3.253 3.253 0 0 0 .174-4.392s2.573.053 2.369 2.435c0 0 .998-.584 2.11.637a2.168 2.168 0 0 1 1.514-1.85 2.352 2.352 0 0 1-2.217-1.222 1.631 1.631 0 0 1 2.217 0c.579.56 1.45.689 2.164.319a1.376 1.376 0 0 0-1.513-.759s-1.007-.584-.371-2.647c0 0 1.31.948 1.377 1.911a3.8 3.8 0 0 1 .999-3.975 1.52 1.52 0 0 0 .53 1.518 1.398 1.398 0 0 1-.265 2.275s.212 1.373 2.482 1.32c0 0-.106-1.213-.757-1.517a1.693 1.693 0 0 1-.757-1.752 1.511 1.511 0 0 1 1.847.584s-1.37-2.594.847-4.392c0 0 1.264 2.807 0 4.286a2.001 2.001 0 0 1 2.376-.266s.22-.63 1.952-.402c0 0 .5.41-.756 1.912 0 0-.757.758.317 1.555 0 0 .56-.273.553-.759a1.588 1.588 0 0 0 .293 2.117 1.579 1.579 0 0 0 2.129-.098 1.59 1.59 0 0 0 .098-2.135 1.579 1.579 0 0 0-2.112-.293s1.158-1.457.417-2.777a2.081 2.081 0 0 1 .855 2.731c.129.555.606.959 1.172.994 0 0 .371-1.062-.287-1.555a2.492 2.492 0 0 0 2.89.129s-1.218-2.101-2.429-1.608a2.225 2.225 0 0 1-1.445-1.1s1.287-.592 1.877-.122c0 0-.416-3.224-2.437-3.451 0 0 3.489-.584 3.685 1.024a2.827 2.827 0 0 1-.507 2.314 1.775 1.775 0 0 1 1.256-1.92s1.014 1.252.424 2.117c0 0 1.294-2.124 2.83-.342 0 0-1.513-2.677-.333-4.361a2.665 2.665 0 0 1 1.385 3.269s.295-.888 1.581-.493a2.707 2.707 0 0 1-1.672-2.109c.671-.12 1.36.07 1.877.516 0 0-1.514-2.14.469-3.505a2.78 2.78 0 0 1-2.815.509s.424-1.624 2.815-1.07c0 0-2.944-.759-3.118-3.034a3.22 3.22 0 0 0 1.968.902c1.067 0 1.748.47 1.452 1.282a1.91 1.91 0 0 0 2.323 1.403 1.744 1.744 0 0 0-1.513-1.865s2.664-.668 2.664-3.035a3.247 3.247 0 0 0-2.528 1.798 1.461 1.461 0 0 1-1.331-1.13s.862-.759 1.596-.137c0 0-.666-2.275.666-3.74 0 0 1.196 1.35.93 2.405 0 0 1.658-2.275.992-3.793 0 0 1.203 1.464 1.203 2.33 0 .864-1.135 1.334-1.135 1.334.19.893.952 1.549 1.861 1.6 0 0 .265-.758-.665-1.797 0 0 2.096.82 3.783-.045 0 0 .431-.759-.25-2.155 0 0 2.323.933 1.612 2.769-.312.334-.8.435-1.218.25 0 0-.893 1.29.756 2.223.56-.344.822-1.022.636-1.654 0 0 .613 2.337 2.436 2.276 0 0 .038-1.828 2.27-1.76 0 0 0 2.01-1.513 2.117 0 0 1.158-1.13 3.784.394 0 0-1.748 1.76-3.466 1.327 0 0-.507.903.855 1.904.487-.14.806-.609.757-1.115 0 0 2.474-.424 2.58-1.752a3.47 3.47 0 0 1-1.574 3.482c-2.005 1.214-2.61-.539-2.61-.539a1.867 1.867 0 0 0-1.188 2.185c.348.04.698-.064.968-.288.282.416.7.722 1.18.865a1.58 1.58 0 0 0-.567-1.654l1.21-.607c.576-.288 2.006.569 2.12 1.578.113 1.009-1.015 2.162-1.015 2.162s1.794-1.153 2.967.356a2.443 2.443 0 0 1-2.225 1.313 1.702 1.702 0 0 0-.197 2.275 1.64 1.64 0 0 0 .757-1.555 3.273 3.273 0 0 0 1.34 3.247 3.176 3.176 0 0 0-.863-3.406s1.142-.607 1.687-.22c-.186.582-.722.98-1.332.986 0 0 3.935-.895 4.6-2.101 0 0-.415 3.793-3.026 4.741-2.61.948-2.822-1.145-2.822-1.145a2.213 2.213 0 0 0-1.998 2.13c.646.25 1.38.072 1.839-.447a4.64 4.64 0 0 0 3.836 1.433 3.22 3.22 0 0 1 2.195-2.32s-.386 2.062-1.809 2.639a3.561 3.561 0 0 1 2.315 2.382s-2.474.387-3.783-1.108c0 0-1.34-.258-2.444 1.517 0 0 .984.698 2.951.061 0 0 2.421.918 3.027 2.792 0 0-4.23 2.275-6.674.5 0 0-4.018-1.077-4.88 2.663a3.022 3.022 0 0 1 3.881-.865 2.051 2.051 0 0 1-2.187 1.578s-1.437.144-.862 2.01A1.908 1.908 0 0 0 78.8 50.27s2.467-.683 2.83 2.382c0 0-1.74.227-2.535-.69a4.014 4.014 0 0 1-.204 3.838 3.203 3.203 0 0 1-1.567-2.951c.298-.225.498-.557.56-.925 0 0-1.513-.16-2.088.85 0 0 2.452.158 1.77 3.504a1.08 1.08 0 0 1 1.514.447s3.503-1.358 5.032 1.138a2.265 2.265 0 0 0-2.338 0c-1.128.759-2.134 1.123-3.027.273a3.884 3.884 0 0 1 2.505 3.748 3.682 3.682 0 0 1-2.717-1.328s.923 3.634 3.783 3.596c0 0-2.845.872-4.426-.956.22-.384.318-.826.28-1.267a2.62 2.62 0 0 0-2.058 1.745s2.414.318 2.77 3.649c0 0-1.62-.562-2.331.758a3.021 3.021 0 0 0 3.95-.356s-.757.516-.356 2.42c0 0 .946-.357.983-1.07a1.513 1.513 0 0 1 1.824 1.07s-1.029 1.896-3.783 1.342c0 0 1.513 1.275.159 4.15a4.189 4.189 0 0 1-2.27-3.755 2.13 2.13 0 0 1-2.649.515 2.225 2.225 0 0 1-1.105 2.724 2.145 2.145 0 0 1 2.717.516s-.802 1.403-3.45.758c0 0 2.133.493 2.201 4.005 0 0-2.572.122-3.745-3.565 0 0 .953 3.315-1.513 5.53 0 0 .287-2.51-.757-4.126a1.801 1.801 0 0 1 .514-2.587 2.085 2.085 0 0 1-2.64.447c.61.686.925 1.586.877 2.504 0 0-1.248.591-3.163-1.176 0 0 .076 1.517-1.906 2.655a3.396 3.396 0 0 1 .877-2.951s-4.04.516-4.774 3.907a4.957 4.957 0 0 1-.295-3.543 2.358 2.358 0 0 0-1.514-1.911s-1.18 1.031 0 2.799c0 0 1.582 2.435-1.634 4.498a7.718 7.718 0 0 1 0-4.202l.462-1.624a2.344 2.344 0 0 0-2.4 1.184l.758 1.471s-.825.94-3.17.69a4.82 4.82 0 0 1-.28 2.481 2.275 2.275 0 0 1-1.817-2.48s.121 4.028-3.117 5.43c0 0 1.475-2.07.15-4.058a1.983 1.983 0 0 1 .515-3.034s.515-1.031-.81-1.995a2.705 2.705 0 0 0-.597 1.768s-.87-3.391-3.518-3.46c0 0 1.362.812 1.082 1.912-.28 1.1-.939 3.323.756 4.059 0 0-.151 1.327-2.724 2.139 0 0-.545-1.335.59-3.247a38.975 38.975 0 0 1-5.947 2.723 9.926 9.926 0 0 1 3.526-4.46s-1.513.758-3.526-.675c0 0 1.597-1.684 3.61-1.176 0 0 2.103-1.517-.167-4.969a4.933 4.933 0 0 1-.59 2.526 2.923 2.923 0 0 1-1.256-2.442s-2.354 2.693-5.547 1.092c0 0 1.347-1.517 2.437-1.517 0 0-2.687-2.276-5.373.675 0 0 .47-2.792 4.268-3.414a1.885 1.885 0 0 1 0-2.146s-2.845 2.526-5.365-.167c0 0 3.45.758 4.374-2.36 0 0-2.104.425-3.027-.25a5.469 5.469 0 0 1 2.943-1.85s2.52-.524 1.34-3.672c0 0-2.013.978-1.68 2.321 0 0-.25-3.368-3.027-3.368 0 0-.09 1.934 1.09 2.867 0 0-2.353 1.684-4.033-.424 0 0 .923-1.01 1.513-1.01 0 0-2.686-.674-3.11-2.108 0 0 1.514-1.343 3.027-.334 0 0-.84-1.85.757-2.693 0 0-.341 1.6-3.11 1.684 0 0 .507-3.216 3.11-3.504 0 0-1.514-.038-2.694-2.223 0 0 2.088-.592 3.102.925 0 0 1.097 1.26 2.194-.333 0 0-.143-1.267-1.596-.842a2.01 2.01 0 0 0 1.596-2.276c-.91-.21-1.833.29-2.156 1.168z"/>
                        <path fill="url(#w)" d="M38.273 48.344s-2.86-.485-.916-4.043c0 0 2.187.235 2.187 3.034a3.833 3.833 0 0 0 2.845 2.655s.893-3.345-1.514-4.27c0 0 2.361.348 3.027-1.389 0 0-1.158-.994-3.027 0 0 0-1.044-.364-.567-2.882a4.327 4.327 0 0 0 2.694 1.699 2.189 2.189 0 0 1 .476-1.7 2.738 2.738 0 0 1 2.15 2.974 1.462 1.462 0 0 1 1.354-1.403 1.876 1.876 0 0 1-.568-1.358s2.535-.357 2.71 1.972a2.785 2.785 0 0 1 1.664-2.723s.757 1.1-.348 2.594a1.98 1.98 0 0 1 2.739.304c.35-.86.13-1.846-.552-2.473 0 0 1.967.144 1.967 1.957 0 1.813-.976 1.813-.976 1.813a2.749 2.749 0 0 1 3.132-.349s-1.044-.417 0-2.716c0 0 .833.418.833.835 0 0-1.514-2.511 0-4.051 0 0-.348 1.889 1.256 2.443a1.376 1.376 0 0 1 .832 2.025 2.456 2.456 0 0 1 1.87-2.23s0 .902 1.755.698c0 0-.068-1.677-1.188-1.89 0 0 .976.145 1.188-1.516a2.268 2.268 0 0 0-1.46.697 3.326 3.326 0 0 1-1.393-3.034s1.74.068 2.27 1.184c0 0-.386-2.162 1.03-3.035a4.037 4.037 0 0 1 0 3.346s.642-1.328 2.943-.418c0 0 1.18-2.374 0-4.05 0 0 2.852.978 1.672 4.468a1.938 1.938 0 0 0-.492 2.374 2.178 2.178 0 0 0 1.256-2.23 2.117 2.117 0 0 0 1.324 2.23 2.173 2.173 0 0 0-.492-2.655 1.815 1.815 0 0 1 2.27-1.047 2.841 2.841 0 0 1-.756 1.957 3.568 3.568 0 0 1 3.897 1.608 2.854 2.854 0 0 0-2.99.137 3.504 3.504 0 0 1-2.86.63s-1.324.348-1.044 2.374c.855.18 1.72-.253 2.089-1.047a2.65 2.65 0 0 0 .976 2.23s.696-.902-.204-2.549c0 0 2.186-1.342 3.556.57a3.378 3.378 0 0 1-1.725.712 4.129 4.129 0 0 0-2.02 3.513s2.163-.539 2.67-2.2a3.248 3.248 0 0 1 3.39.895s-2.436-.539-3.087 1.722a1.896 1.896 0 0 1-1 1.351 1.887 1.887 0 0 1-1.678.022s-1.007-2.026-3.625-.478a2.942 2.942 0 0 0 2.27 1.373l1.067-.182s.295 1.19-1.249 1.669a2.093 2.093 0 0 1 1.668.567c.445.425.682 1.024.648 1.64h-.59s-1.43.57-2.618-1.327c0 0 1.37.493 0 2.336 0 0 1.846-.417 1.725 1.67 0 0 .06-.471 1.309-.297 0 0 .174 1.517-1.786 1.608 0 0 1.96.478 2.437 3.634a4.103 4.103 0 0 1-3.625-2.738s-.477-.835-1.9-.357a1.621 1.621 0 0 0 1.605 1.517 4.107 4.107 0 0 0-1.907 3.634 3.79 3.79 0 0 0 2.437-3.035s3.571 1.518 3.45 4.764c0 0-.477-1.669-1.9-1.73a1.673 1.673 0 0 1-1.664-1.25s.833 2.024.06 2.98c0 0-1.513-.652-2.436 1.252 0 0 1.514.834 2.49 0 0 0-1.249.895-.174 2.564 0 0 1.029-.22.71-2.321 0 0 2.619-.418 3.27 2.025 0 0-1.96.592-2.61-.72a5.128 5.128 0 0 1-1.612 5.31 4.302 4.302 0 0 0-.712-3.278c-1.127-1.517-.06-2.556-.06-2.556s-1.188 3.338-3.209 4.225a9.024 9.024 0 0 1 .598-3.39 2.683 2.683 0 0 0-3.095-1.138 2.152 2.152 0 0 0 1.786 1.79 3.677 3.677 0 0 0-1.074 4.764s-2.27-1.517-1.9-4.112a2.088 2.088 0 0 0-2.436-1.426 2.373 2.373 0 0 0 1.687 1.965s-2.686-.653-3.783 1.669c0 0 1.513.895 3.443-.653 0 0 1.067 2.504-.182 3.93 0 0-1.067.06-2.497-2.086a1.626 1.626 0 1 1-3.133.77 1.633 1.633 0 0 1 .735-2.022 7.462 7.462 0 0 1-3.247 4.233c.438-.8.606-1.721.477-2.625a2.021 2.021 0 0 1 .537-1.965s-1.014-1.73-2.618-.174c.22.497.707.82 1.249.827a5.434 5.434 0 0 0-3.33 1.517s.296-.66-.756-2.086a2.498 2.498 0 0 0-1.249 2.738 2.372 2.372 0 0 1-2.852.759s-.182-1.608 1.96-2.557c0 0-2.377.531-3.33-.834 0 0 1.513-.759 2.497-.243 0 0 1.786.122 1.513-3.398 0 0-.885 1.616-1.899 1.616a1.377 1.377 0 0 0-1.309.834l-.356.592a2.065 2.065 0 0 1-.953-1.904s-1.127.114-2.436-1.313c0 0 1.513-1.016 2.678-.477a3.038 3.038 0 0 0 1.37-3.755 2.155 2.155 0 0 1-2.27 1.077s-.477-1.313 1.067-2.807c0 0-1.665.834-3.383-1.517 0 0 2.913-1.252 3.98.478 0 0 1.605-.478.712-2.686 0 0-1.203.175-1.514 1.017 0 0-2.202 2.443-4.638 1.19 0 0 .953-2.381 2.792-1.79 0 0-1.127-.47-.59-2.085a1.63 1.63 0 0 1-1.43 1.615 3.277 3.277 0 0 1-.174-2.39s-2.202.244-3.209-1.425c0 0 2.497-1.191 3.443.174 0 0 1.665 0 1.31-1.98a2.5 2.5 0 0 1-2.619 0 2.983 2.983 0 0 1 2.444-1.95s.34-.508-.65-1.03z"/>
                    </g>
                </g>
            </g>
            <path fill="#00BDF4" d="M344.53 26.942l3.657 4.943a.87.87 0 0 1-.198 1.223.914.914 0 0 1-1.25-.193l-2.96-3.99-2.96 3.99a.914.914 0 0 1-1.25.193l-.013-.013a.87.87 0 0 1-.197-1.223l3.697-4.982a.896.896 0 0 1 1.17-.219c0 .013.014.013.014.013.026 0 .04.013.052.026h.013l.014.013a.828.828 0 0 1 .21.219zm.144-5.664v3.501c0 .49-.408.875-.895.875a.885.885 0 0 1-.894-.875v-3.501c0-.49.407-.876.894-.876.487 0 .895.4.895.876zm-6.591 3.411l3.407 1.081a.882.882 0 0 1 .579 1.107.91.91 0 0 1-1.131.567l-3.408-1.094a.882.882 0 0 1-.579-1.107.903.903 0 0 1 1.132-.554zm11.932 1.66l-3.407 1.082a.9.9 0 0 1-1.132-.566c-.157-.464.106-.953.58-1.108l3.407-1.08a.9.9 0 0 1 1.131.566.867.867 0 0 1-.579 1.107z"/>
            <path fill="url(#x)" d="M940.443 368.189l-111.97 36.118c-15.564 5.16-31.992-3.44-37.18-18.922-5.189-15.48 3.457-31.82 19.02-36.98l111.97-36.12c15.564-5.16 31.993 3.442 37.18 18.922 5.19 15.481-3.457 32.252-19.02 36.982z" transform="rotate(-15 -302.687 1910.958)"/>
            <path fill="#333665" d="M105.591 486.628s94.366-26.606 101.44-26.563c7.073.043 84.15 26.463 92.945 29.897 11.334 4.437-8.25 3.95-10.259 4.093-2.009.144-176.708-2.619-176.708-2.619s-21.02-.214-7.418-4.808z" opacity=".3" style="mix-blend-mode:multiply"/>
            <path fill="url(#y)" d="M213.266 158.544s22.01 57.89 3.286 209.064a44.779 44.779 0 0 0 4.577 12.78c2.64 4.809-5.883 8.2-7.174 8.2a8.31 8.31 0 0 1-6.83-4.293c-1.908-3.535.273-4.079 1.363-11.45 1.09-7.37-15.639-140.582-19.886-170.179 0 0-12.21 95.244-33.617 143.718 0 0-5.007 13.71-3.042 22.125 2.181 9.331-7.69 7.313-11.75 9.246-2.296 1.087-6.801 3.406-12.182 2.862-4.806-.487-11.478-2.49-7.991-6.712 2.152-2.576 5.739-3.12 9.067-4.566 5.668-2.433 8.61-2.132 12.44-16.73s21.436-197.4 21.436-197.4l50.303 3.335z" transform="translate(101 100)"/>
            <path fill="url(#z)" d="M211.2 279.362c-1.435-13.896-3.085-15.485-3.113-41.188-.03-25.704-8.365-79.63-8.365-79.63l-19.628 2.705 2.87 10.19c-2.77-6.398-13.545-7.686-20.92-7.786-3.515 36.137-17.289 176.204-20.603 188.913a77.84 77.84 0 0 1-1.363 4.694c4.462 3.45 7.992-2.776 7.992-2.776 15.251-36.065 15.251-90.979 16.442-101.899 1.191-10.92 20.704-66.506 19.083-78.985l4.921 29.01c3.831 26.676 17.806 137.548 19.714 164.583 1.047 1.144 2.052 1.53 2.984.916 7.992-5.396 1.42-74.836-.014-88.747z" transform="translate(101 100)"/>
            <path fill="url(#A)" d="M223.625 118.157c.875 2.332 5.553-6.126 5.84-10.205.287-4.078-.875-10.504 0-14.597.875-4.094-8.609-27.565-11.235-36.953l-12.066-5.353-32.555 12.294-6.356-2.204c-.13 1.04-.13 2.094 0 3.134A19.016 19.016 0 0 0 152.1 76.21c-4.304 10.977-14.348 31.257-14.348 31.257l14.85 2.633 2.626-4.293s-.717 5.252 5.51 10.018c0 0 4.505 11.449 1.506 17.904-.947 2.06-4.304 3.907-10.388 6.125 2.87 3.12 3.66 9.23 5.481 10.376l5.926-1.732-.301 6.67c18.15 14.425 50.375 3.377 50.375 3.377-.373-2.533-1.923-9.932-2.038-12.036a68.523 68.523 0 0 1 0-10.018s7.174-1.66 8.007-7.8c1.154-6.1 2.62-12.138 4.39-18.09 0 0-1.019 5.224-.072 7.557z" transform="translate(101 100)"/>
            <path fill="url(#B)" d="M189.75 11.578l-4.893 1.76-6.657 19.25c.244.844.488 1.674.746 2.518 1.435 4.652-1.535 7.9-2.41 11.936l4.304 2.347s-.53 7.5 8.996 8.745c9.527 1.245 18.337-5.954 18.337-5.954l.99-12.88-3.975-17.618-15.438-10.104z" transform="translate(101 100)"/>
            <path fill="url(#C)" d="M194.126 54.785c-.244-1.431-1.937-1.818-3.386-3.134-1.45-1.317 3.386-3.879 6.055-6.183 2.668-2.304 3.515-4.709 2.425-8.086-1.09-3.378-3.042-3.263-5.74-3.149-2.697.115-3.644-2.046-.731-2.418 2.912-.372 3.156-4.108 3.156-4.108l-2.468-10.462-5.739-3.792-4.892 1.76-6.686 19.25c.23.844.473 1.688.746 2.518 1.434 4.651-1.55 7.914-2.41 11.95l4.232 2.333s.66 3.249 6.715 5.582c6.657 2.433 8.967-.601 8.723-2.061z" transform="translate(101 100)"/>
            <path fill="url(#D)" d="M180.137 30.87s2.152.544 1.966 1.431c-.187.888-2.052.702-2.052.702s0-.988.086-2.09" transform="translate(101 100)"/>
            <path fill="url(#E)" d="M184.484 40.402c.922.48 2 .562 2.985.229 1.721-.53-.718 1.216-1.435 1.36-.717.142-2.568-1.704-1.55-1.59z" transform="translate(101 100)"/>
            <path fill="url(#F)" d="M210.253 81.948c-7.949.23-7.949 12.466-8.48 22.655-.53 10.19-12.64 16.258-12.64 16.258.918-5.51-1.263-7.885-3.314-11.75-5.74-10.79-8.15-11.09.574-24.658 10.474-16.301 3.888-20.552 5.021-26.176l-6.284-5.01-6.37-2.218c-.13 1.002-3.229 7.07-5.567 7.772 0 0-16.845 6.397-21.15 17.388-4.303 10.992-14.347 31.257-14.347 31.257a14.857 14.857 0 0 1-4.864 5.095c-2.87 1.617-10.746 5.796-10.746 5.796l19.24 4.15s4.878-1.631 11.206-12.408l2.625-4.293s-.717 5.252 5.51 10.018c0 0 2.726 9.832 1.506 17.904a80.81 80.81 0 0 1-10.387 6.125c2.568 4.422 3.615 7.771 5.48 10.376l4.147-1.174 10.216-3.191c1.721-.387 4.433-1.617 6.772-2.405 8.365-3.32 16.529-5.882 15.496-6.912-1.034-1.03-17.49 0-8.078-2.376a41.715 41.715 0 0 0 19.886-11.893c3.185-3.62 2.052-10.19 4.548-15.184 2.497-4.995 7.949-25.303 0-25.146z" transform="translate(101 100)"/>
            <path fill="url(#G)" d="M224.013 67.336c-2.554-9.36 3.687-11.907 2.87-20.408-.819-8.501-3.975-7.657-4.55-23.242C221.76 8.1 215.16 5.567 208.116 1.975c-3.415-1.76-11.794-3.878-18.81 1.202 0 0-2.87.616-8.192 2.204-6.63 1.96-10.044 8.673-10.733 14.941-.688 6.269-1.119 12.609 1.435 20.724 2.554 8.114-7.934 14.383-7.174 22.14 5.524-1.56 16.127-2.977 18.351-4.752 2.755-2.232 3.917-8.215 3.917-8.215s-4.16-1.531-5.739-4.179c-1.578-2.647-1.306-4.007-1.033-14.497.172-6.784 3.415-12.38 6.07-12.494 2.653-.115 9.31.901 15.782 8.844 6.47 7.943 3.615 12.194 1.061 21.296-2.553 9.102 6.04 10.476 12.11 14.111a25.188 25.188 0 0 1 8.48 8.788c7.173 10.476-.388 34.934-.388 34.934s-.86 5.095 0 7.356c.861 2.261 5.395-5.94 5.74-9.918.344-3.978-.862-10.204 0-14.168.86-3.964-2.425-13.61-4.98-22.956z" transform="translate(101 100)"/>
            <path fill="url(#H)" d="M229.938 90.02c.861-3.964-3.371-13.338-5.925-22.684-2.554-9.345 3.687-11.907 2.87-20.408-.819-8.501-3.975-7.657-4.55-23.242-.343-9.532-3.443-16.416-10.588-19.836 1.148 1.918 3.214 2.934 2.181 3.792-3.989 3.278-4.548 3.464-3.989 7.442.56 3.979-22.124-1.173-23.788 3.965 0 0 6.341.73 10.23 3.563a15.232 15.232 0 0 1 4.921 6.44c2.726 6.555.316 11.664-2.224 20.767-2.54 9.102 9.283 11.678 14.018 14.197a23.343 23.343 0 0 1 9.154 9.116c4.419 10.018.947 33.89.947 33.89s-1.578 8.873.459 11.135c2.324 2.619 7.016-7.156 6.428-13.353-.402-3.965-.99-10.805-.144-14.784z" transform="translate(101 100)"/>
            <path fill="url(#I)" d="M157.267 150.229a5.62 5.62 0 0 1-2.87 2.619l-7.676-11.149 5.05-1.846 5.496 10.376z" transform="translate(101 100)"/>
            <path fill="url(#J)" d="M141.326 351.207s7.934.815 11.077 3.406c3.142 2.59.63 9.36-.976 9.36-4.577 0-12.827-2.52-13.387-3.936-.56-1.417-.703-8.83 3.286-8.83z" transform="translate(101 100)"/>
            <path fill="url(#K)" d="M212.635 359.02s6.04.187 7.174 2.047c1.133 1.86.875 8.186-3.559 8.916-4.433.73-7.475.73-9.067 0-1.593-.73-3.386-6.898-.89-8.916a11.613 11.613 0 0 1 6.342-2.046z" transform="translate(101 100)"/>
            <path fill="url(#L)" d="M138.026 360.037c.402 1.016 4.75 2.59 8.881 3.406 2.526-3.707 2.282-8.859 2.124-10.562a38.565 38.565 0 0 0-7.72-1.674c-3.974 0-3.83 7.413-3.285 8.83z" transform="translate(101 100)"/>
            <path fill="url(#M)" d="M211.286 359.12c-1.851.181-3.62.853-5.122 1.947-2.497 2.018-.717 8.186.89 8.916 1.606.73 3.859.716 7.389.244a11.238 11.238 0 0 0-.144-11.078l-3.013-.028z" transform="translate(101 100)"/>
            <path fill="url(#N)" d="M139.13 373.518c-3.07.802-9.756.93-11.893-1.073-1.048-.973-.302-1.975.746-2.734-3.056 1.16-6.098 1.832-8.035 4.15-3.515 4.223 3.185 6.226 7.992 6.713 5.38.53 9.885-1.789 12.18-2.862 4.061-1.932 13.933.085 11.752-9.246a18.56 18.56 0 0 1-.388-2.762c-4.232-.916-9.283 7.013-12.353 7.814z" transform="translate(101 100)"/>
            <path fill="url(#O)" d="M221.129 380.388a40.767 40.767 0 0 1-2.468-5.381c-.13 2.433-.933 6.197-4.764 6.383a6.283 6.283 0 0 1-6.356-4.451c-1.018 3.606-1.951 4.565-.488 7.284a8.31 8.31 0 0 0 6.83 4.294c1.363.071 9.886-3.32 7.246-8.13z" transform="translate(101 100)"/>
            <path fill="url(#P)" d="M43.878 32.713l-20.566 213.31s1.087 2.376 2.975 0L54.705 32.8l-10.827-.086z" transform="translate(110 244)"/>
            <path fill="url(#Q)" d="M160.023 33.916l20.58 213.438s-1.086 2.362-2.974 0l-28.46-213.539 10.854.1z" transform="translate(110 244)"/>
            <path fill="url(#R)" d="M4.848 25.086S99.054.358 106.12.343c7.065-.014 83.665 23.355 92.39 26.403 11.27 3.921-8.238 3.62-10.24 3.764-2.003.143-176.028-1.13-176.028-1.13s-20.952-.03-7.394-4.294z" transform="translate(110 244)"/>
            <path fill="url(#S)" d="M.286 27.404a4.407 4.407 0 0 0 3.618 4.737c2.231.472 195.092 2.132 195.092 2.132a6.899 6.899 0 0 0 2.974-5.58L.286 27.403z" transform="translate(110 244)"/>
            <path fill="url(#T)" d="M96.452 33.357v185.42s.958 1.43 1.887 0c.93-1.431 8.582-185.32 8.582-185.32l-10.47-.1z" transform="translate(110 244)"/>
            <g transform="translate(-442 -252)">
                <path fill="#333665" d="M636.861 511.281s-2.63 1.544-1.9 1.43c.728-.115 30.215 1.686 31.001 1.686.786 0 33.075-5.503 33.846-6.289.772-.786-47.753-2.687-47.753-2.687l-15.194 5.86z" opacity=".5" style="mix-blend-mode:multiply"/>
                <path fill="url(#U)" d="M634.46 468.716l1.1-.557 2.688.071c1.815 0 43.465 1.93 43.465 1.93a3.516 3.516 0 0 1 2.673 2c.958 1.873 13.007 31.875 13.007 31.875s.672 2.172-2.073 3.616l-60.86-38.935z"/>
                <path fill="url(#V)" d="M693.22 507.994l-44.753-2.116c-2.058 0-3.016-1.886-3.745-3.744l-12.149-29.916c-.714-2.03 1.315-4.002 3.73-3.745l44.767 2.116c2.058 0 2.987 1.915 3.745 3.744l12.149 29.93c.686 2.044-1.587 4.131-3.745 3.73z"/>
                <path fill="url(#W)" d="M645.737 489.07l-8.876 22.211 26.786 1.372 8.218-22.554z"/>
                <path fill="url(#X)" d="M671.865 490.099l.6 1.415-7.704 21.14h-1.114z"/>
                <path fill="url(#Y)" d="M634.117 476.177a4.645 4.645 0 0 0-1.53 2.859c-.164 2.85.36 5.7 1.53 8.304.872 1.287 14.436.172 15.951 0 1.515-.171-2.601-9.562-15.008-8.833l-.943-2.33"/>
                <path fill="url(#Z)" fill-rule="nonzero" d="M635.06 478.464l-.943-2.33a4.617 4.617 0 0 0-1.43 2.459c0 .143-.07.257-.1.4a8.018 8.018 0 0 0 0 1.801 23.555 23.555 0 0 0 6.49 1.23c3.83.128 9.419 1.657 11.32 4.83.071-1.844-4.402-9.033-15.337-8.39zm-.6 0h-.443.443zm-.93.086h-.414.415z"/>
                <path fill="url(#aa)" d="M632.373 478.621h.315z"/>
                <path fill="url(#ab)" d="M697.018 489.603l8.15-.105a1.17 1.17 0 0 1 1.185 1.185l-.105 8.15a1.17 1.17 0 0 1-1.155 1.155l-8.15.105a1.17 1.17 0 0 1-1.185-1.185l.105-8.15a1.17 1.17 0 0 1 1.155-1.155z" transform="rotate(-25.44 701.055 494.796)"/>
                <path fill="url(#ac)" d="M697.502 490.074l7.176-.092a1.17 1.17 0 0 1 1.185 1.185l-.093 7.176a1.17 1.17 0 0 1-1.154 1.155l-7.177.093a1.17 1.17 0 0 1-1.185-1.185l.093-7.177a1.17 1.17 0 0 1 1.155-1.155z" transform="rotate(-25.44 701.059 494.786)"/>
                <path fill="url(#ad)" d="M697.502 490.074l7.176-.092a1.17 1.17 0 0 1 1.185 1.185l-.093 7.176a1.17 1.17 0 0 1-1.154 1.155l-7.177.093a1.17 1.17 0 0 1-1.185-1.185l.093-7.177a1.17 1.17 0 0 1 1.155-1.155z" transform="rotate(-25.44 701.059 494.786)"/>
                <path fill="#000" fill-opacity=".2" d="M704.053 489.856c-.398-.833-.952-1.421-2.23-.786l-1.186.557a8.576 8.576 0 0 1 .43 4.188 21.818 21.818 0 0 0-.53 6.503l5.417-2.572c1.331-.465 1.189-1.393.8-2.23l-2.7-5.66z"/>
                <path fill="url(#ae)" d="M696.02 491.285l-.457-.929 5.503-3.016.643 1.244zm4.432 9.619l.285.744 6.504-1.93-.915-1.6z"/>
                <path fill="#FFF" d="M697.664 496.188a.129.129 0 0 1-.171-.072l-.458-.972a.114.114 0 0 1 0-.171.143.143 0 0 1 .172 0l.457.986a.143.143 0 0 1 0 .229zm.644 1.429a.143.143 0 0 1-.172 0l-.457-.986a.143.143 0 0 1 0-.172.129.129 0 0 1 .171.072l.472.972a.129.129 0 0 1-.014.114zm.142-1.787a.129.129 0 0 1-.171-.071l-.343-.729a.129.129 0 0 1 0-.172.143.143 0 0 1 .171 0l.343.744a.129.129 0 0 1 0 .228zm.544 1.144a.129.129 0 0 1-.172-.072l-.357-.743a.143.143 0 0 1 0-.171.129.129 0 0 1 .171.071l.358.743a.144.144 0 0 1 0 .172zm.7-1.73a.129.129 0 0 1-.172 0l-.357-.743a.129.129 0 0 1 .072-.171.114.114 0 0 1 .157 0l.357.743a.129.129 0 0 1-.057.171zm.529 1.144a.129.129 0 0 1-.172-.072l-.343-.743a.129.129 0 0 1 0-.171.129.129 0 0 1 .172.071l.343.743a.114.114 0 0 1 0 .172zm-1.329-1.973l-.544.258a.143.143 0 0 1-.171 0 .129.129 0 0 1 0-.172l.543-.257a.129.129 0 1 1 .114.229l.058-.058zm1.1 2.359l-.529.257a.129.129 0 1 1-.114-.229l.543-.257a.143.143 0 0 1 .172 0 .129.129 0 0 1-.072.229zm1.158-2.216a.129.129 0 0 1-.172-.071l-.343-.73a.129.129 0 0 1 0-.17.114.114 0 0 1 .172 0l.357.743a.129.129 0 0 1-.014.228zm.543 1.129a.114.114 0 0 1-.171 0l-.358-.743a.129.129 0 0 1 .072-.171.143.143 0 0 1 .171 0l.343.743a.129.129 0 0 1-.057.171zm.7-1.715a.129.129 0 0 1-.171 0l-.343-.743a.114.114 0 0 1 0-.171.143.143 0 0 1 .171 0l.343.743a.14.14 0 0 1 0 .171zm.529 1.144a.129.129 0 0 1-.171-.072l-.343-.743a.143.143 0 0 1 0-.171.129.129 0 0 1 .171.071l.358.743a.129.129 0 0 1-.015.172zm-1.329-1.973l-.543.258a.143.143 0 0 1-.172 0 .129.129 0 0 1 0-.172l.53-.257a.129.129 0 0 1 .114.228l.071-.057zm1.115 2.359l-.543.257a.143.143 0 0 1-.172 0 .129.129 0 0 1 0-.172l.543-.257a.129.129 0 1 1 .115.229l.057-.057zm.443-1.887a.129.129 0 0 1-.172-.072l-.343-.728a.129.129 0 1 1 .23-.115l.342.743a.114.114 0 0 1-.057.172zm.543 1.143a.129.129 0 0 1-.186 0l-.357-.743a.129.129 0 0 1 .071-.171.143.143 0 0 1 .172 0l.343.757a.143.143 0 0 1-.043.157zm.7-1.729a.129.129 0 0 1-.171 0l-.357-.743a.129.129 0 0 1 .071-.172.143.143 0 0 1 .172 0l.343.743a.129.129 0 0 1-.058.172zm.544 1.143a.129.129 0 0 1-.172 0l-.343-.743a.143.143 0 0 1 0-.171.129.129 0 0 1 .172.071l.357.743a.13.13 0 0 1-.014.1zm-1.344-1.972l-.543.257a.143.143 0 0 1-.172 0 .129.129 0 0 1 .072-.171l.529-.258a.129.129 0 1 1 .114.23v-.058zm1.114 2.358l-.542.258a.129.129 0 1 1-.115-.23l.544-.256a.143.143 0 0 1 .171 0 .129.129 0 0 1-.057.228z"/>
                <circle cx="700.237" cy="494.558" r="1" fill="#FFF"/>
                <circle cx="700.68" cy="495.487" r="1" fill="#FFF"/>
            </g>
            <g transform="translate(160 254)">
                <path fill="#333665" d="M1.693 8.504S-.777 9.162.567 9.71c1.342.548 13.181 3.906 13.773 3.906.592 0 19.65-8.69 20.212-9.087.563-.398-1.645-.754-1.645-.754L1.693 8.504z" opacity=".5" style="mix-blend-mode:multiply"/>
                <path fill="url(#af)" d="M20.028.157L1.75 7.68l12.431 3.29 18.711-7.868z"/>
                <path fill="url(#ag)" d="M18.137 1.267L3.064 7.503l11.377 3.016 15.491-6.552z"/>
                <path fill="url(#ah)" d="M1.75 7.681l-.057.823 12.43 3.276L32.85 3.775l.043-.672-18.71 7.868z"/>
                <path fill="#000" fill-opacity=".2" d="M14.441 10.519l15.491-6.552-10.106-2.33c-.93.13-1.76.628-2.28 1.37-.896 2.056 0 5.483-7.942 6.182l4.837 1.33z"/>
                <ellipse cx="24.896" cy="2.04" fill="url(#ai)" rx="1" ry="1" transform="rotate(-86.12 24.896 2.04)"/>
            </g>
            <g transform="translate(210.919 9)">
                <use fill="#000" filter="url(#aj)" xlink:href="#ak"/>
                <use fill="#FFF" xlink:href="#ak"/>
            </g>
            <path fill="url(#al)" fill-rule="nonzero" d="M55.092 41.186a13.261 13.261 0 0 1-5.02 10.136.325.325 0 0 0-.117.247v5.839c0 .707-.575 1.28-1.285 1.28a1.282 1.282 0 0 1-1.284-1.28v-6.625c0-.408.195-.792.525-1.033a10.804 10.804 0 0 0 4.616-8.559c-.004-5.869-4.774-10.625-10.66-10.63-8.032 0-9.992 6.262-12.257 13.51l-.237.758a.32.32 0 0 0 .307.416h1.65c.71 0 1.285.573 1.285 1.28v3.515a2.39 2.39 0 0 0 2.39 2.383h1.463c.71 0 1.285.574 1.285 1.281v3.714c0 .707-.575 1.28-1.285 1.28a1.282 1.282 0 0 1-1.284-1.28V55.17a.178.178 0 0 0-.18-.178 4.956 4.956 0 0 1-4.958-4.945v-1.913a.32.32 0 0 0-.32-.32h-2.251c-.413 0-.8-.199-1.041-.532a1.278 1.278 0 0 1-.177-1.154c.311-.933.605-1.875.9-2.817C29.398 36.134 31.94 28 41.862 27.995c7.304.005 13.224 5.908 13.23 13.191zM45.84 43.53l-1.26-.29a.207.207 0 0 0-.246.143l-.379 1.24a1.78 1.78 0 0 1-1.706 1.263 1.78 1.78 0 0 1-1.705-1.264l-.38-1.24a.2.2 0 0 0-.243-.143l-1.262.291a1.79 1.79 0 0 1-1.948-.848 1.779 1.779 0 0 1 .241-2.105l.883-.95a.219.219 0 0 0 0-.291l-.883-.948a1.78 1.78 0 0 1-.233-2.1 1.791 1.791 0 0 1 1.939-.85l1.263.292a.206.206 0 0 0 .244-.144l.379-1.24a1.78 1.78 0 0 1 1.705-1.264 1.78 1.78 0 0 1 1.706 1.264l.379 1.24a.202.202 0 0 0 .245.144l1.26-.292a1.791 1.791 0 0 1 1.947.85 1.78 1.78 0 0 1-.24 2.105l-.88.948a.216.216 0 0 0 0 .292l.88.944c.535.572.633 1.426.241 2.105a1.79 1.79 0 0 1-1.947.848zm-3.596-2.127h.005a1.924 1.924 0 0 0 1.922-1.921 1.924 1.924 0 0 0-1.927-1.921c-1.064 0-1.926.86-1.926 1.92 0 1.062.862 1.922 1.926 1.922z" transform="translate(210.919 9)"/>
            <g transform="translate(19 164.892)">
                <use fill="#000" filter="url(#am)" xlink:href="#an"/>
                <use fill="#FFF" xlink:href="#an"/>
            </g>
            <path fill="url(#ao)" d="M53.545 49.342l2.403 3.973a.345.345 0 0 1 0 .351l-2.403 3.973a.317.317 0 0 1-.272.155h-4.347a.317.317 0 0 1-.272-.155l-2.403-3.973a.345.345 0 0 1 0-.351l2.403-3.973a.317.317 0 0 1 .272-.155h4.347c.11 0 .213.058.272.155zM31.352 36.449l-2.403-3.975a.345.345 0 0 1 0-.35l2.403-3.974a.317.317 0 0 1 .272-.155h4.347a.32.32 0 0 1 .272.156l2.403 3.974a.345.345 0 0 1 0 .35l-2.403 3.974a.317.317 0 0 1-.272.155h-4.347a.317.317 0 0 1-.272-.155zm6.568.972l2.403-3.973a.317.317 0 0 1 .272-.155h3.706c.11 0 .214.058.272.155l2.403 3.973a.345.345 0 0 1 0 .351l-2.403 3.974a.317.317 0 0 1-.272.155h-3.706a.317.317 0 0 1-.272-.155l-2.403-3.974a.345.345 0 0 1 0-.35zm-6.568 9.624l-2.403-3.974a.345.345 0 0 1 0-.35l2.403-3.974a.317.317 0 0 1 .272-.155h4.347c.11 0 .213.058.272.155l2.403 3.973a.345.345 0 0 1 0 .351l-2.403 3.974a.317.317 0 0 1-.272.155h-4.347a.317.317 0 0 1-.272-.155zm7.294 6.271a.345.345 0 0 1 0 .351l-2.403 3.974a.317.317 0 0 1-.272.155h-4.347a.317.317 0 0 1-.272-.155l-2.403-3.974a.345.345 0 0 1 0-.35l2.403-3.974a.317.317 0 0 1 .272-.155h4.347c.11 0 .213.058.272.155l2.403 3.973zm8.33-4.947l-2.403 3.974a.317.317 0 0 1-.272.155h-3.706a.317.317 0 0 1-.272-.155l-2.403-3.974a.345.345 0 0 1 0-.35l2.403-3.974a.317.317 0 0 1 .272-.155h3.706c.11 0 .214.058.272.155l2.403 3.973a.345.345 0 0 1 0 .351zm-.725-15.895a.345.345 0 0 1 0-.35l2.403-3.974a.317.317 0 0 1 .272-.155h4.347c.11 0 .213.058.272.155l2.403 3.973a.345.345 0 0 1 0 .351l-2.403 3.974a.317.317 0 0 1-.272.155h-4.347a.317.317 0 0 1-.272-.155l-2.403-3.974zm9.697 10.246a.345.345 0 0 1 0 .351l-2.403 3.974a.317.317 0 0 1-.272.155h-4.347a.317.317 0 0 1-.272-.155L46.25 43.07a.345.345 0 0 1 0-.35l2.403-3.974a.317.317 0 0 1 .272-.155h4.347c.11 0 .213.058.272.155l2.403 3.973z" transform="translate(19 164.892)"/>
        </g>
    </g>
</svg>
