<svg xmlns="http://www.w3.org/2000/svg" xmlns:xlink="http://www.w3.org/1999/xlink" viewBox="0 0 517 465">
    <defs>
        <linearGradient id="b" x1="15.328%" x2="74.231%" y1="80.27%" y2="4.655%">
            <stop offset="0%" stop-color="#EA46A1"/>
            <stop offset="100%" stop-color="#FFD656"/>
        </linearGradient>
        <path id="a" d="M267.073 435.851c124.305 0 247.397-73.793 235.098-185.333-6.775-61.448-102.131-45.553-106.996-151.063C391.813 26.553 338.15.578 257.3.578 132.996.578.447 110.213.447 234.838c0 124.627 142.322 201.013 266.626 201.013z"/>
        <linearGradient id="d" x1="87.941%" x2="25.928%" y1="107.965%" y2="10.869%">
            <stop offset="6%" stop-color="#DF9AA6"/>
            <stop offset="100%" stop-color="#7849E3"/>
        </linearGradient>
        <linearGradient id="e" x1="56.83%" x2="45.639%" y1="4.628%" y2="108.494%">
            <stop offset="0%" stop-color="#DF6B7D"/>
            <stop offset="2%" stop-color="#D5687C"/>
            <stop offset="11%" stop-color="#AA5B76"/>
            <stop offset="20%" stop-color="#854F70"/>
            <stop offset="30%" stop-color="#67466C"/>
            <stop offset="40%" stop-color="#503F69"/>
            <stop offset="51%" stop-color="#403A67"/>
            <stop offset="63%" stop-color="#363765"/>
            <stop offset="79%" stop-color="#333665"/>
            <stop offset="93%" stop-color="#2F3043"/>
            <stop offset="100%" stop-color="#2D2D2F"/>
        </linearGradient>
        <linearGradient id="f" x1="50.636%" x2="49.583%" y1="109.651%" y2="8.257%">
            <stop offset="6%" stop-color="#DF9AA6"/>
            <stop offset="100%" stop-color="#7849E3"/>
        </linearGradient>
        <linearGradient id="g" x1="54.265%" x2="44.284%" y1="83.046%" y2="32.651%">
            <stop offset="0%" stop-color="#EEB47B"/>
            <stop offset="100%" stop-color="#DF6B7D"/>
        </linearGradient>
        <linearGradient id="h" x1="14.584%" x2="75.502%" y1="64.77%" y2="28.453%">
            <stop offset="0%" stop-color="#DF6B7D"/>
            <stop offset="100%" stop-color="#333665"/>
        </linearGradient>
        <linearGradient id="i" x1="12.066%" x2="-13.126%" y1="99.267%" y2="19.774%">
            <stop offset="0%" stop-color="#DF6B7D"/>
            <stop offset="100%" stop-color="#333665"/>
        </linearGradient>
        <linearGradient id="j" x1="50.949%" x2="48.884%" y1="-8.596%" y2="123.319%">
            <stop offset="0%" stop-color="#DF6B7D"/>
            <stop offset="2%" stop-color="#D5687C"/>
            <stop offset="11%" stop-color="#AA5B76"/>
            <stop offset="20%" stop-color="#854F70"/>
            <stop offset="30%" stop-color="#67466C"/>
            <stop offset="40%" stop-color="#503F69"/>
            <stop offset="51%" stop-color="#403A67"/>
            <stop offset="63%" stop-color="#363765"/>
            <stop offset="79%" stop-color="#333665"/>
            <stop offset="93%" stop-color="#2F3043"/>
            <stop offset="100%" stop-color="#2D2D2F"/>
        </linearGradient>
        <linearGradient id="k" x1="50.591%" x2="47.866%" y1="14.446%" y2="109.033%">
            <stop offset="0%" stop-color="#DF6B7D"/>
            <stop offset="2%" stop-color="#D5687C"/>
            <stop offset="11%" stop-color="#AA5B76"/>
            <stop offset="20%" stop-color="#854F70"/>
            <stop offset="30%" stop-color="#67466C"/>
            <stop offset="40%" stop-color="#503F69"/>
            <stop offset="51%" stop-color="#403A67"/>
            <stop offset="63%" stop-color="#363765"/>
            <stop offset="79%" stop-color="#333665"/>
            <stop offset="93%" stop-color="#2F3043"/>
            <stop offset="100%" stop-color="#2D2D2F"/>
        </linearGradient>
        <linearGradient id="l" x1="42.343%" x2="51.313%" y1="106.261%" y2="19.312%">
            <stop offset="5%" stop-color="#DF6B7D"/>
            <stop offset="7%" stop-color="#D5687C"/>
            <stop offset="14%" stop-color="#AA5B76"/>
            <stop offset="22%" stop-color="#854F70"/>
            <stop offset="30%" stop-color="#67466C"/>
            <stop offset="38%" stop-color="#503F69"/>
            <stop offset="47%" stop-color="#403A67"/>
            <stop offset="57%" stop-color="#363765"/>
            <stop offset="69%" stop-color="#333665"/>
            <stop offset="89%" stop-color="#2F3043"/>
            <stop offset="100%" stop-color="#2D2D2F"/>
        </linearGradient>
        <linearGradient id="m" x1="10.418%" x2="94.311%" y1="26.237%" y2="68.42%">
            <stop offset="0%" stop-color="#EEB47B"/>
            <stop offset="100%" stop-color="#DF6B7D"/>
        </linearGradient>
        <linearGradient id="n" x1="40.546%" x2="67.922%" y1="112.294%" y2="11.28%">
            <stop offset="6%" stop-color="#DF9AA6"/>
            <stop offset="100%" stop-color="#7849E3"/>
        </linearGradient>
        <linearGradient id="o" x1="91.353%" x2="-5.211%" y1="57.26%" y2="50.045%">
            <stop offset="0%" stop-color="#DF6B7D"/>
            <stop offset="2%" stop-color="#D5687C"/>
            <stop offset="11%" stop-color="#AA5B76"/>
            <stop offset="20%" stop-color="#854F70"/>
            <stop offset="30%" stop-color="#67466C"/>
            <stop offset="40%" stop-color="#503F69"/>
            <stop offset="51%" stop-color="#403A67"/>
            <stop offset="63%" stop-color="#363765"/>
            <stop offset="79%" stop-color="#333665"/>
            <stop offset="93%" stop-color="#2F3043"/>
            <stop offset="100%" stop-color="#2D2D2F"/>
        </linearGradient>
        <linearGradient id="p" x1="97.227%" x2="58.272%" y1="42.392%" y2="51.05%">
            <stop offset="0%" stop-color="#EEB47B"/>
            <stop offset="100%" stop-color="#DF6B7D"/>
        </linearGradient>
        <linearGradient id="q" x1="68.499%" x2="16.562%" y1="61.395%" y2="22.441%">
            <stop offset="0%" stop-color="#6FBEE8"/>
            <stop offset="48%" stop-color="#2964EC"/>
            <stop offset="100%" stop-color="#2D2D2F"/>
        </linearGradient>
        <linearGradient id="r" x1="76.509%" x2="43.248%" y1="91.407%" y2="59.667%">
            <stop offset="0%" stop-color="#6FBEE8"/>
            <stop offset="100%" stop-color="#2964EC"/>
        </linearGradient>
        <linearGradient id="s" x1="155.723%" x2="87.885%" y1="49.789%" y2="45.459%">
            <stop offset="0%" stop-color="#6FBEE8"/>
            <stop offset="100%" stop-color="#2964EC"/>
        </linearGradient>
        <linearGradient id="t" x1="90.338%" x2="44.287%" y1="94.326%" y2="58.253%">
            <stop offset="0%" stop-color="#EEB47B"/>
            <stop offset="100%" stop-color="#DF6B7D"/>
        </linearGradient>
        <linearGradient id="u" x1="102.242%" x2="38.758%" y1="72.588%" y2="50.947%">
            <stop offset="0%" stop-color="#DF6B7D"/>
            <stop offset="100%" stop-color="#333665"/>
        </linearGradient>
        <linearGradient id="v" x1="44.671%" x2="8.653%" y1="313.093%" y2="144.818%">
            <stop offset="0%" stop-color="#DF6B7D"/>
            <stop offset="100%" stop-color="#333665"/>
        </linearGradient>
        <linearGradient id="w" x1="45.911%" x2="-4.507%" y1="53.944%" y2="22.203%">
            <stop offset="0%" stop-color="#DF6B7D"/>
            <stop offset="54%" stop-color="#333665"/>
            <stop offset="100%" stop-color="#2D2D2F"/>
        </linearGradient>
        <linearGradient id="x" x1="65.073%" x2="16.016%" y1="99.461%" y2="-13.046%">
            <stop offset="0%" stop-color="#DF6B7D"/>
            <stop offset="49%" stop-color="#333665"/>
            <stop offset="100%" stop-color="#2D2D2F"/>
        </linearGradient>
        <linearGradient id="y" x1="43.008%" x2="-39.214%" y1="46.891%" y2="20.919%">
            <stop offset="0%" stop-color="#DF6B7D"/>
            <stop offset="54%" stop-color="#333665"/>
            <stop offset="100%" stop-color="#2D2D2F"/>
        </linearGradient>
        <linearGradient id="z" x1="-17.546%" x2="187.342%" y1="50.329%" y2="60.428%">
            <stop offset="0%" stop-color="#DF6B7D"/>
            <stop offset="2%" stop-color="#D5687C"/>
            <stop offset="11%" stop-color="#AA5B76"/>
            <stop offset="20%" stop-color="#854F70"/>
            <stop offset="30%" stop-color="#67466C"/>
            <stop offset="40%" stop-color="#503F69"/>
            <stop offset="51%" stop-color="#403A67"/>
            <stop offset="63%" stop-color="#363765"/>
            <stop offset="79%" stop-color="#333665"/>
            <stop offset="93%" stop-color="#2F3043"/>
            <stop offset="100%" stop-color="#2D2D2F"/>
        </linearGradient>
        <linearGradient id="A" x1="94.155%" x2="-12.606%" y1="53.143%" y2="84.877%">
            <stop offset="0%" stop-color="#DF6B7D"/>
            <stop offset="2%" stop-color="#D5687C"/>
            <stop offset="11%" stop-color="#AA5B76"/>
            <stop offset="20%" stop-color="#854F70"/>
            <stop offset="30%" stop-color="#67466C"/>
            <stop offset="40%" stop-color="#503F69"/>
            <stop offset="51%" stop-color="#403A67"/>
            <stop offset="63%" stop-color="#363765"/>
            <stop offset="79%" stop-color="#333665"/>
            <stop offset="93%" stop-color="#2F3043"/>
            <stop offset="100%" stop-color="#2D2D2F"/>
        </linearGradient>
        <linearGradient id="B" x1="43.421%" x2="62.178%" y1="72.327%" y2="3.056%">
            <stop offset="0%" stop-color="#DF6B7D"/>
            <stop offset="2%" stop-color="#D5687C"/>
            <stop offset="11%" stop-color="#AA5B76"/>
            <stop offset="20%" stop-color="#854F70"/>
            <stop offset="30%" stop-color="#67466C"/>
            <stop offset="40%" stop-color="#503F69"/>
            <stop offset="51%" stop-color="#403A67"/>
            <stop offset="63%" stop-color="#363765"/>
            <stop offset="79%" stop-color="#333665"/>
            <stop offset="93%" stop-color="#2F3043"/>
            <stop offset="100%" stop-color="#2D2D2F"/>
        </linearGradient>
        <linearGradient id="C" x1="115.148%" x2="5.566%" y1="25.478%" y2="60.103%">
            <stop offset="5%" stop-color="#DF6B7D"/>
            <stop offset="7%" stop-color="#D5687C"/>
            <stop offset="14%" stop-color="#AA5B76"/>
            <stop offset="22%" stop-color="#854F70"/>
            <stop offset="30%" stop-color="#67466C"/>
            <stop offset="38%" stop-color="#503F69"/>
            <stop offset="47%" stop-color="#403A67"/>
            <stop offset="57%" stop-color="#363765"/>
            <stop offset="69%" stop-color="#333665"/>
            <stop offset="89%" stop-color="#2F3043"/>
            <stop offset="100%" stop-color="#2D2D2F"/>
        </linearGradient>
        <linearGradient id="D" x1="70.903%" x2="40.602%" y1="3.533%" y2="117.379%">
            <stop offset="0%" stop-color="#DF6B7D"/>
            <stop offset="100%" stop-color="#333665"/>
        </linearGradient>
        <linearGradient id="E" x1="93.224%" x2="-49.596%" y1="65.129%" y2="130.039%">
            <stop offset="0%" stop-color="#DF6B7D"/>
            <stop offset="2%" stop-color="#D5687C"/>
            <stop offset="11%" stop-color="#AA5B76"/>
            <stop offset="20%" stop-color="#854F70"/>
            <stop offset="30%" stop-color="#67466C"/>
            <stop offset="40%" stop-color="#503F69"/>
            <stop offset="51%" stop-color="#403A67"/>
            <stop offset="63%" stop-color="#363765"/>
            <stop offset="79%" stop-color="#333665"/>
            <stop offset="93%" stop-color="#2F3043"/>
            <stop offset="100%" stop-color="#2D2D2F"/>
        </linearGradient>
        <linearGradient id="F" x1="123.406%" x2="41.188%" y1="64.485%" y2="71.694%">
            <stop offset="0%" stop-color="#EEB47B"/>
            <stop offset="100%" stop-color="#DF6B7D"/>
        </linearGradient>
        <linearGradient id="G" x1="100.437%" x2="26.863%" y1="-69.331%" y2="110.88%">
            <stop offset="0%" stop-color="#DF6B7D"/>
            <stop offset="2%" stop-color="#D5687C"/>
            <stop offset="11%" stop-color="#AA5B76"/>
            <stop offset="20%" stop-color="#854F70"/>
            <stop offset="30%" stop-color="#67466C"/>
            <stop offset="40%" stop-color="#503F69"/>
            <stop offset="51%" stop-color="#403A67"/>
            <stop offset="63%" stop-color="#363765"/>
            <stop offset="79%" stop-color="#333665"/>
            <stop offset="93%" stop-color="#2F3043"/>
            <stop offset="100%" stop-color="#2D2D2F"/>
        </linearGradient>
        <linearGradient id="H" x1="84.064%" x2="-224.291%" y1="83.333%" y2="-35.507%">
            <stop offset="0%" stop-color="#DF6B7D"/>
            <stop offset="2%" stop-color="#D5687C"/>
            <stop offset="11%" stop-color="#AA5B76"/>
            <stop offset="20%" stop-color="#854F70"/>
            <stop offset="30%" stop-color="#67466C"/>
            <stop offset="40%" stop-color="#503F69"/>
            <stop offset="51%" stop-color="#403A67"/>
            <stop offset="63%" stop-color="#363765"/>
            <stop offset="79%" stop-color="#333665"/>
            <stop offset="93%" stop-color="#2F3043"/>
            <stop offset="100%" stop-color="#2D2D2F"/>
        </linearGradient>
        <linearGradient id="I" x1="95.448%" x2="14.775%" y1="130.262%" y2="43.395%">
            <stop offset="0%" stop-color="#EEB47B"/>
            <stop offset="100%" stop-color="#DF6B7D"/>
        </linearGradient>
        <linearGradient id="J" x1="147.645%" x2="-21.149%" y1="36.218%" y2="69.401%">
            <stop offset="5%" stop-color="#DF6B7D"/>
            <stop offset="7%" stop-color="#D5687C"/>
            <stop offset="14%" stop-color="#AA5B76"/>
            <stop offset="22%" stop-color="#854F70"/>
            <stop offset="30%" stop-color="#67466C"/>
            <stop offset="38%" stop-color="#503F69"/>
            <stop offset="47%" stop-color="#403A67"/>
            <stop offset="57%" stop-color="#363765"/>
            <stop offset="69%" stop-color="#333665"/>
            <stop offset="89%" stop-color="#2F3043"/>
            <stop offset="100%" stop-color="#2D2D2F"/>
        </linearGradient>
        <linearGradient id="K" x1="98.687%" x2="-41.275%" y1="4.888%" y2="219.851%">
            <stop offset="0%" stop-color="#DF6B7D"/>
            <stop offset="2%" stop-color="#D5687C"/>
            <stop offset="11%" stop-color="#AA5B76"/>
            <stop offset="20%" stop-color="#854F70"/>
            <stop offset="30%" stop-color="#67466C"/>
            <stop offset="40%" stop-color="#503F69"/>
            <stop offset="51%" stop-color="#403A67"/>
            <stop offset="63%" stop-color="#363765"/>
            <stop offset="79%" stop-color="#333665"/>
            <stop offset="93%" stop-color="#2F3043"/>
            <stop offset="100%" stop-color="#2D2D2F"/>
        </linearGradient>
        <linearGradient id="L" x1="47.204%" x2="116.335%" y1="6.821%" y2="103.119%">
            <stop offset="5%" stop-color="#DF6B7D"/>
            <stop offset="7%" stop-color="#D5687C"/>
            <stop offset="14%" stop-color="#AA5B76"/>
            <stop offset="22%" stop-color="#854F70"/>
            <stop offset="30%" stop-color="#67466C"/>
            <stop offset="38%" stop-color="#503F69"/>
            <stop offset="47%" stop-color="#403A67"/>
            <stop offset="57%" stop-color="#363765"/>
            <stop offset="69%" stop-color="#333665"/>
            <stop offset="89%" stop-color="#2F3043"/>
            <stop offset="100%" stop-color="#2D2D2F"/>
        </linearGradient>
        <linearGradient id="M" x1="35.187%" x2="74.16%" y1="134.115%" y2="328.29%">
            <stop offset="5%" stop-color="#DF6B7D"/>
            <stop offset="7%" stop-color="#D5687C"/>
            <stop offset="14%" stop-color="#AA5B76"/>
            <stop offset="22%" stop-color="#854F70"/>
            <stop offset="30%" stop-color="#67466C"/>
            <stop offset="38%" stop-color="#503F69"/>
            <stop offset="47%" stop-color="#403A67"/>
            <stop offset="57%" stop-color="#363765"/>
            <stop offset="69%" stop-color="#333665"/>
            <stop offset="89%" stop-color="#2F3043"/>
            <stop offset="100%" stop-color="#2D2D2F"/>
        </linearGradient>
        <linearGradient id="N" x1="32.327%" x2="91.456%" y1="58.989%" y2="257.561%">
            <stop offset="5%" stop-color="#DF6B7D"/>
            <stop offset="7%" stop-color="#D5687C"/>
            <stop offset="14%" stop-color="#AA5B76"/>
            <stop offset="22%" stop-color="#854F70"/>
            <stop offset="30%" stop-color="#67466C"/>
            <stop offset="38%" stop-color="#503F69"/>
            <stop offset="47%" stop-color="#403A67"/>
            <stop offset="57%" stop-color="#363765"/>
            <stop offset="69%" stop-color="#333665"/>
            <stop offset="89%" stop-color="#2F3043"/>
            <stop offset="100%" stop-color="#2D2D2F"/>
        </linearGradient>
        <linearGradient id="O" x1="148.661%" x2=".048%" y1="1.469%" y2="67.845%">
            <stop offset="0%" stop-color="#DF6B7D"/>
            <stop offset="2%" stop-color="#D5687C"/>
            <stop offset="11%" stop-color="#AA5B76"/>
            <stop offset="20%" stop-color="#854F70"/>
            <stop offset="30%" stop-color="#67466C"/>
            <stop offset="40%" stop-color="#503F69"/>
            <stop offset="51%" stop-color="#403A67"/>
            <stop offset="63%" stop-color="#363765"/>
            <stop offset="79%" stop-color="#333665"/>
            <stop offset="93%" stop-color="#2F3043"/>
            <stop offset="100%" stop-color="#2D2D2F"/>
        </linearGradient>
        <linearGradient id="P" x1="-51.348%" x2="117.399%" y1="36.218%" y2="69.401%">
            <stop offset="5%" stop-color="#DF6B7D"/>
            <stop offset="7%" stop-color="#D5687C"/>
            <stop offset="14%" stop-color="#AA5B76"/>
            <stop offset="22%" stop-color="#854F70"/>
            <stop offset="30%" stop-color="#67466C"/>
            <stop offset="38%" stop-color="#503F69"/>
            <stop offset="47%" stop-color="#403A67"/>
            <stop offset="57%" stop-color="#363765"/>
            <stop offset="69%" stop-color="#333665"/>
            <stop offset="89%" stop-color="#2F3043"/>
            <stop offset="100%" stop-color="#2D2D2F"/>
        </linearGradient>
        <linearGradient id="Q" x1="2.894%" x2="95.238%" y1="39.336%" y2="89.839%">
            <stop offset="5%" stop-color="#DF6B7D"/>
            <stop offset="7%" stop-color="#D5687C"/>
            <stop offset="14%" stop-color="#AA5B76"/>
            <stop offset="22%" stop-color="#854F70"/>
            <stop offset="30%" stop-color="#67466C"/>
            <stop offset="38%" stop-color="#503F69"/>
            <stop offset="47%" stop-color="#403A67"/>
            <stop offset="57%" stop-color="#363765"/>
            <stop offset="69%" stop-color="#333665"/>
            <stop offset="89%" stop-color="#2F3043"/>
            <stop offset="100%" stop-color="#2D2D2F"/>
        </linearGradient>
        <linearGradient id="R" x1="2.826%" x2="142.788%" y1="4.888%" y2="219.851%">
            <stop offset="0%" stop-color="#DF6B7D"/>
            <stop offset="2%" stop-color="#D5687C"/>
            <stop offset="11%" stop-color="#AA5B76"/>
            <stop offset="20%" stop-color="#854F70"/>
            <stop offset="30%" stop-color="#67466C"/>
            <stop offset="40%" stop-color="#503F69"/>
            <stop offset="51%" stop-color="#403A67"/>
            <stop offset="63%" stop-color="#363765"/>
            <stop offset="79%" stop-color="#333665"/>
            <stop offset="93%" stop-color="#2F3043"/>
            <stop offset="100%" stop-color="#2D2D2F"/>
        </linearGradient>
        <linearGradient id="S" x1="69.496%" x2=".461%" y1="-6.841%" y2="88.425%">
            <stop offset="5%" stop-color="#DF6B7D"/>
            <stop offset="7%" stop-color="#D5687C"/>
            <stop offset="14%" stop-color="#AA5B76"/>
            <stop offset="22%" stop-color="#854F70"/>
            <stop offset="30%" stop-color="#67466C"/>
            <stop offset="38%" stop-color="#503F69"/>
            <stop offset="47%" stop-color="#403A67"/>
            <stop offset="57%" stop-color="#363765"/>
            <stop offset="69%" stop-color="#333665"/>
            <stop offset="89%" stop-color="#2F3043"/>
            <stop offset="100%" stop-color="#2D2D2F"/>
        </linearGradient>
        <linearGradient id="T" x1="70.089%" x2="29.651%" y1="135.901%" y2="330.076%">
            <stop offset="5%" stop-color="#DF6B7D"/>
            <stop offset="7%" stop-color="#D5687C"/>
            <stop offset="14%" stop-color="#AA5B76"/>
            <stop offset="22%" stop-color="#854F70"/>
            <stop offset="30%" stop-color="#67466C"/>
            <stop offset="38%" stop-color="#503F69"/>
            <stop offset="47%" stop-color="#403A67"/>
            <stop offset="57%" stop-color="#363765"/>
            <stop offset="69%" stop-color="#333665"/>
            <stop offset="89%" stop-color="#2F3043"/>
            <stop offset="100%" stop-color="#2D2D2F"/>
        </linearGradient>
        <linearGradient id="U" x1="87.738%" x2="28.529%" y1="-126.059%" y2="76.469%">
            <stop offset="5%" stop-color="#DF6B7D"/>
            <stop offset="7%" stop-color="#D5687C"/>
            <stop offset="14%" stop-color="#AA5B76"/>
            <stop offset="22%" stop-color="#854F70"/>
            <stop offset="30%" stop-color="#67466C"/>
            <stop offset="38%" stop-color="#503F69"/>
            <stop offset="47%" stop-color="#403A67"/>
            <stop offset="57%" stop-color="#363765"/>
            <stop offset="69%" stop-color="#333665"/>
            <stop offset="89%" stop-color="#2F3043"/>
            <stop offset="100%" stop-color="#2D2D2F"/>
        </linearGradient>
        <linearGradient id="V" x1="-42.112%" x2="106.501%" y1="1.469%" y2="67.845%">
            <stop offset="0%" stop-color="#DF6B7D"/>
            <stop offset="2%" stop-color="#D5687C"/>
            <stop offset="11%" stop-color="#AA5B76"/>
            <stop offset="20%" stop-color="#854F70"/>
            <stop offset="30%" stop-color="#67466C"/>
            <stop offset="40%" stop-color="#503F69"/>
            <stop offset="51%" stop-color="#403A67"/>
            <stop offset="63%" stop-color="#363765"/>
            <stop offset="79%" stop-color="#333665"/>
            <stop offset="93%" stop-color="#2F3043"/>
            <stop offset="100%" stop-color="#2D2D2F"/>
        </linearGradient>
        <linearGradient id="W" x1="100%" x2="0%" y1="21.508%" y2="77.562%">
            <stop offset="0%" stop-color="#562FFD"/>
            <stop offset="100%" stop-color="#4897FF"/>
        </linearGradient>
        <ellipse id="Y" cx="41.504" cy="41.573" rx="41.504" ry="41.573"/>
        <filter id="X" width="175.9%" height="175.8%" x="-37.9%" y="-27.1%" filterUnits="objectBoundingBox">
            <feOffset dy="9" in="SourceAlpha" result="shadowOffsetOuter1"/>
            <feGaussianBlur in="shadowOffsetOuter1" result="shadowBlurOuter1" stdDeviation="9"/>
            <feColorMatrix in="shadowBlurOuter1" values="0 0 0 0 0.780392157 0 0 0 0 0.901960784 0 0 0 0 0.22745098 0 0 0 0.2 0"/>
        </filter>
        <linearGradient id="Z" x1="20.173%" x2="88.169%" y1="22.696%" y2="100%">
            <stop offset="0%" stop-color="#FFD656"/>
            <stop offset="100%" stop-color="#9ADB5B"/>
        </linearGradient>
        <ellipse id="ab" cx="41.504" cy="41.573" rx="41.504" ry="41.573"/>
        <filter id="aa" width="179.5%" height="179.4%" x="-39.8%" y="-28.9%" filterUnits="objectBoundingBox">
            <feOffset dy="9" in="SourceAlpha" result="shadowOffsetOuter1"/>
            <feGaussianBlur in="shadowOffsetOuter1" result="shadowBlurOuter1" stdDeviation="9.5"/>
            <feColorMatrix in="shadowBlurOuter1" values="0 0 0 0 1 0 0 0 0 0.0823529412 0 0 0 0 0 0 0 0 0.15 0"/>
        </filter>
    </defs>
    <g fill="none" fill-rule="evenodd">
        <g transform="translate(3.246 28.488)">
            <mask id="c" fill="#fff">
                <use xlink:href="#a"/>
            </mask>
            <use fill="url(#b)" fill-rule="nonzero" transform="matrix(1 0 0 -1 0 436.43)" xlink:href="#a"/>
            <g mask="url(#c)">
                <path fill="url(#d)" d="M24.03 76.764c-10.969 9.008-9.64 29.473-8.481 39.77.155 1.416 1.13 19.02 1.413 22.278 1.018 13.597.764 21.826 0 24.715C16.03 167.082 5.5 191.244 5.5 191.244l10.092 3.144 4.51 1.686 15.873-4.943V71.24s-5.145-.057-11.944 5.523z" transform="translate(278.754 112.512)"/>
                <path fill="url(#e)" d="M20.722 329.42h34.08c-1.894-8.06-3.449-14.05-3.802-18.937-1.102-15.04 3.901-48.055 3.901-48.055 4.962 14.701 13.203 44.925 16.298 66.991h32.186c-2.728-29.898-6.686-53.607-8.226-66.991-3.59-31.074-5.824-64.895-5.824-64.895l-70.676 5.17-1.513 24.983s-4.17 74.738 1.187 93.009a418.537 418.537 0 0 1 2.39 8.724z" transform="translate(278.754 112.512)"/>
                <path fill="url(#f)" d="M87.116 159.278l1.413 26.91 1.258 16.826s-37.402 19.304-70.422 15.58l-3.83-38.666-7.238-37.858s-10.46-48.863 2.827-60.207c9.584-8.215 16.1-8.682 23.423-21.004l15.874.637c1.017 2.578 5.866 7.45 9.4 9.376 6.219 3.4 13.371 10.722 16.382 14.163 4.495 5.141 6.432 12.039 14.644 31.272 3.096 7.252 4.41 23.525 4.368 24.941-.198 7.875-1.851 11.487-1.851 11.487l-6.248 6.543z" transform="translate(278.754 112.512)"/>
                <path fill="url(#g)" d="M34.476 60.873s-4.764-5.665-5.3-8.144a22.704 22.704 0 0 1-.481-4.801 51.533 51.533 0 0 1-3.379-9.079V28.015l20.807-1.148 10.927 3.145 1.145 7.081c-.07.156-.141.312-.198.468-1.159 2.832.156 6.472-3.83 10.962 0 0-2.206 6.416-3.195 7.62a118.238 118.238 0 0 1-1.725 2.053 13.934 13.934 0 0 0 2.29 5.34s-9.796 7.931-19.252.58a25.326 25.326 0 0 0 2.19-3.243z" transform="translate(278.754 112.512)"/>
                <path fill="url(#h)" d="M42.208 60.207c-2.106-.736-1.032-1.119-1.555-2.592-.523-1.473-1.413 0-2.36.369-.948.368-3.266-3.343-2.008-3.541a6.718 6.718 0 0 1 4.453.991c.99.85.89 2.011 2.7 1.714 1.809-.297 5.852-5.396 5.654-7.804-.198-2.408-3.746-.24-4.792-1.416-1.046-1.176-.89-1.997.876-3.003 1.767-1.005 2.39-.68 2.163-2.931-.141-1.417-2.177-9.476-3.604-15.056l2.43-.127 10.927 3.144 1.145 7.081c-.07.156-.141.312-.198.468-1.159 2.832.156 6.472-3.83 10.962 0 0-2.205 6.416-3.195 7.62a120.33 120.33 0 0 1-1.724 2.053 13.937 13.937 0 0 0 2.247 5.397 19.05 19.05 0 0 1-8.227 3.526s.99-6.118-1.102-6.855z" transform="translate(278.754 112.512)"/>
                <path fill="url(#i)" d="M68.415 15.622c-2.05 2.833 6.544 1.416 4.495 3.06-2.05 1.642-5.216 8.497-6.87 12.52-1.555 3.81-7.619 16.244-12.722 19.828-.396-1.927 1.414-4.887 1.838-6.827 1.018-4.9 4.862-14.163 0-14.687-4.863-.524-6.7 3.187-13.075 2.04-6.375-1.148-10.206-4.065-12.27-3.74-2.063.326-2.389 3.754-2.417 11.416-.028 7.662 1.315 8.753 1.315 8.753 0-1.12-2.644-4.49-2.644-4.49a126.48 126.48 0 0 1-5.23-12.11c-1.413-4.249-3.11-12.746-2.077-17.08.96-4.037 8.014-5.311 8.014-5.311A13.99 13.99 0 0 1 40.625.85c10.559.382 18.531 8.13 28.044 8.498 9.513.368 1.81 3.413-.254 6.274z" transform="translate(278.754 112.512)"/>
                <path fill="url(#j)" d="M69.87 267.328l75.964-13.228v4.291l-73.377 12.35z" transform="translate(278.754 112.512)"/>
                <path fill="url(#k)" d="M145.834 254.1L35.86 223.111v1.247l34.01 42.97z" transform="translate(278.754 112.512)"/>
                <path fill="url(#l)" d="M51.283 243.888l10.912-4.249s3.463-2.832-4.24-5.551c-7.704-2.72-19.253-6.26-19.253-6.26l12.58 16.06z" transform="translate(278.754 112.512)"/>
                <path fill="url(#m)" d="M25.316 179.673s-6.983 2.903-8.99 3.484c-2.007.58-13.768 10.424-15.181 12.45-1.414 2.025.466 2.294 1.894 1.416 1.428-.878 7.605-4.646 8.128-4.476.523.17.07 2.125.48 2.649s6.065 6.019 8.566 6.84c2.502.822 10.913-4.546 14.772-12.746 0-.156-.976-5.481-9.669-9.617z" transform="translate(278.754 112.512)"/>
                <path fill="url(#n)" d="M75.906 82.94c-5.145-4.49-7.534-5.864-13.131-10.213-3.167-2.478-10.63-6.486-11.308-9.206l-8.227 3.527s2.502 13.115 1.145 20.876c-1.357 7.762 10.05 17.733 16.962 32.009 6.912 14.276 8.227 20.083 2.347 25.111-5.88 5.028-38.392 34.629-38.392 34.629s7.676 3.498 9.683 9.532l23.196-12.421 23.394-12.818s11.605-8.668 14.658-15.933c3.053-7.266.792-18.625-3.435-31.457C86.494 97.343 81.914 88.18 75.906 82.94z" transform="translate(278.754 112.512)"/>
                <path fill="url(#o)" d="M4.517 211.115c-1.42-13.153-2.03-23.684-2.556-32.358-.824-13.706-4.985-48.12 5.084-68.884a55.256 55.256 0 0 1 5.681-9.283l51.13 29.948c-.095.39-.147.79-.157 1.191 0 2.523 4.02 49.409 4.02 58.112 0 8.702 4.9 33.166 6.334 45 1.434 11.836 6.306 36.852 6.306 36.852H66.866s-14.67-37.588-18.35-51.223c-4.402-16.314-5.865-23.699-9.444-36.384-1.42-4.79-5.894-30.657-5.894-30.657s-2.145 16.172-3.636 29.24c-.866 7.512-5.283 45.469-4.687 59.018.597 13.55-.667 30.006-.667 30.006H13.877s-7.158-40.863-9.36-60.578z" transform="translate(117.754 169.374)"/>
                <path fill="url(#p)" d="M13.848 217.04c-.27-10.12.299-17.278.611-23.188.34-7.087.994-11.155 2.06-20.524.809-7.086 2.655-16.724 3.351-21.16.696-4.437 1.094-10.872 3.977-16.655 1.96-3.954 3.55-7.908 7.598-10.559l32.311 5.584a4.81 4.81 0 0 0-.156 1.191c0 2.523 4.02 49.409 4.02 58.112 0 8.702 4.885 33.166 6.32 45 1.434 11.836 6.334 36.852 6.334 36.852H74.11a82.101 82.101 0 0 1-4.162-11.098c-1.76-5.485-2.84-8.263-5.68-19.021-3.083-11.438-2.713-10.006-4.744-17.844-4.176-16.06-6.633-20.836-7.925-30.318-1.009-7.412-8.778-34.668-8.778-42.52 0-7.852-3.92-12.02-5.68-10.8-1.137.807-3.253 9.17-4.574 14.797-2.045 6.01-5.184 27.255-5.851 41.443-.355 7.512-2.57 31.834-2.003 45.355.568 13.522-.667 30.006-.667 30.006h-4.261s-3.92-22.494-4.687-31.295c-.866-11.14-1.037-16.144-1.25-23.358z" transform="translate(117.754 169.374)"/>
                <path fill="url(#q)" d="M41.146 75.318C52.08 62.052 56.143 45.894 81.722 44.462a53.21 53.21 0 0 0 5.809-.354l24.755 17.008 3.693 3.345s2.641 2.75 2.173 13.238c-.213 4.578 3.252 19.602 4.559 22.877a28.457 28.457 0 0 0 6.561 9.793c3.253 3.275 15.623 11.113 21.56 20.269h-16.958s-20.21-7.853-24.144-14.387c-3.935-6.534-8.394-19.545-8.394-19.545a26.407 26.407 0 0 1-6.562 1.304c-2.599 0-10.424 7.186-10.424 7.186s1.96 13.068 1.96 17.008c0 3.94-1.42 27.497-1.42 30.077 0 1.29.127 4.989 1.306 6.392l-.483.24c-10.126 3.176-9.09 3.034-9.09 3.034s-3.564-3.756-4.26-4.38c-.696-.623-.27-5.797-1.023-10.162-1.022-5.84-5.368-20.722-5.368-20.722a9.091 9.091 0 0 0-2.301 5.046c0 .213 0 .709.07 1.417-37.778-.58-49.58-24.52-52.108-31.181 9.203-13.267 20.11-15.322 29.513-26.647z" transform="translate(117.754 169.374)"/>
                <path fill="#267084" d="M218.621 266.165a1.28 1.28 0 0 1 .327-.113l-.327.113zm7.641-8.065c1.69 3.685 1.975 10.191 1.975 14.656 0 4.464-1.42 6.576 5.368 10.53 4.815 2.835 16.22 11.807 22.397 16.754h-4.46s-20.195-7.852-24.143-14.386c-3.949-6.534-8.437-19.602-8.437-19.602 6.505-1.304 7.3-7.952 7.3-7.952z"/>
                <path fill="url(#r)" d="M81.722 44.434s6.945-.383 9.175-.723l20.253 19.46-1.42 5.117 1.42-4.337s-6.235 6.747-7.5 11.07c-1.263 4.323-1.42 9.51-4.132 11.82-2.713 2.31-13.862 7.002-13.862 7.002s1.776-5.811 2.983-10.006c1.207-4.196 2.712-18.795 1.875-24.733-.753-5.315-4.687-12.756-9.289-14.627l.497-.043z" transform="translate(117.754 169.374)"/>
                <path fill="url(#s)" d="M31.445 124.954c2.713-6.307 8.252-12.345 13.62-17.533 6.349-6.123 7.5-18.61 6.832-27.794-.668-9.184 10.31-19.843 12.455-20.793 2.145-.95 5.866 0 7.982 6.18 2.116 6.18-.71 19.319-1.42 26.15-.71 6.832 4.26 15.038 3.593 19.319-.667 4.28-2.84 4.96-1.79 14.854a90.329 90.329 0 0 1 .086 22.153c-.724 4.947 4.772 11.509 4.772 11.509l-1.08 2.948a3.54 3.54 0 0 1-3.11-1.12c-.667-.623-1.676-4.705-2.329-10.587-.653-5.882-5.17-23.557-5.17-23.557a9.091 9.091 0 0 0-2.3 5.046c0 .213 0 .709.07 1.417-14.032-.113-24.485-3.614-32.21-8.192z" transform="translate(117.754 169.374)"/>
                <path fill="url(#t)" d="M135.422 56.496l-4.26 3.543c.02-.16.02-.322 0-.482 0-.935-.47-3.87-.47-3.87s-.497 3.87-2.414 5.316c-1.917 1.446-5.795 3.387-6.277 3.87-.483.481-2.4.481-2.4.481a15.163 15.163 0 0 1-5.37-1.587s-9.77 3.572-14.202-7.356a26.43 26.43 0 0 1-2.13-11.126 2.28 2.28 0 0 0 1.25-.383 6.522 6.522 0 0 0 .625-4.592c-.767-2.013-1.804-4.578-.483-6.053 1.32-1.474 1.874-1.87 1.945-2.437a5.001 5.001 0 0 1-2.513-4.437c.054-1.78.37-3.542.937-5.23l15.864 1.418 14.359 8.504 5.184 11.58c-.227.807-.426 1.417-.526 1.87a15.42 15.42 0 0 0 .483 9.2 6.48 6.48 0 0 1 .398 1.77z" transform="translate(117.754 169.374)"/>
                <path fill="url(#u)" d="M100.086 56.368a26.43 26.43 0 0 1-2.13-11.126 2.28 2.28 0 0 0 1.25-.383 6.522 6.522 0 0 0 .624-4.592c-.767-2.013-1.803-4.578-.482-6.052 1.32-1.474 1.874-1.871 1.945-2.438a5.001 5.001 0 0 1-2.514-4.436c.055-1.78.37-3.542.938-5.23l15.864 1.417 6.562 3.912c1.42 3.444 2.386 6.321 2.016 7.399-1.207 3.373-2.641 4.691-2.158 7.951.482 3.26-.611 2.523-2.656 2.466-2.045-.057-4.09-.41-5.894 2.24-1.804 2.65 4.161 3.5 4.26 5.06.1 1.559-3.167 2.537-3.039 3.614.128 1.077.554 1.814 3.04 4.11 1.93 1.772 3.01 3.402 2.499 5.018h-.582a15.462 15.462 0 0 1-5.369-1.588s-9.757 3.586-14.174-7.342z" transform="translate(117.754 169.374)"/>
                <path fill="url(#v)" d="M124.06 56.907s1.207-.581.895-1.106c-.313-.524-2.003-.326-2.528-.326-.526 0-.88.539 0 .95.88.411.838.482 1.633.482z" transform="translate(117.754 169.374)"/>
                <path fill="url(#w)" d="M131.02 85.339c-1.421-.624-.228-5.584-.938-8.362-.71-2.778-1.222-3.856-1.037-5.316.256-2.126 1.59-2.267 1.307-4.748 0-.68-1.42-1.786-2.16-2.834a3.89 3.89 0 0 1 .114-3.161 17.712 17.712 0 0 0 1.051-7.342c-.27-2.154 3.82-5.273 1.648-8.816-2.173-3.543 0-6.01-1.165-10.148-1.164-4.139-8.436-3.997-10.14-2.268-1.705 1.73-3.11 4.805-9.218 9.397-6.107 4.592-8.251 8.703-8.081 11.722.17 3.019 2.017 8.915-.64 14.244-2.655 5.33-4.33 5.599-2.84 9.468a11.9 11.9 0 0 1-1.42 9.581c-.767.865-.426-2.494-1.633-6.108-1.207-3.615-3.196-5.273-2.5-8.618.696-3.345 1.25-8.178-.128-11.636-1.377-3.459-5.922-6.492-4.26-12.204a8.488 8.488 0 0 0 .51-5.769c-1.093-2.834-2.584-6.576-.695-8.674 1.889-2.097 2.684-2.707 2.84-3.5a7.211 7.211 0 0 1-3.593-6.393c0-4.592 1.591-6.789 2.003-10.687.588-6.064 5.306-10.913 11.362-11.679 7.967-1.006 10.95-.113 14.202-1.006 3.253-.893 10.255 3.5 12.456 5.995 2.201 2.495 5.525 7.952 3.153 12.218 0 0 4.161 1.417 5.539 4.847 1.378 3.43 4.161 3.473 5.539 8.334 1.378 4.862 4.161 11.85-2.585 19.97-1.818 2.198-6.348 4.877-4.26 11.113 2.087 6.236-2.188 13.252-2.188 15.974-.07.042.739 7.71-2.244 6.406z" transform="translate(117.754 169.374)"/>
                <path fill="url(#x)" d="M101.876 1.417c7.498-.95 10.31-.099 13.307-.95.424-.098.86-.127 1.293-.084l1.718.354a24.031 24.031 0 0 1 6.874 3.756c.781 2.24 1.165 5.343-1.874 6.69-5.028 2.24-9.218-2.835-15.936.694-6.717 3.53-9.373 10.645-12.427 10.787-2.5.113-4.602.127-5.354-2.708.412-2.75 1.42-4.634 1.676-7.512.577-5.713 5.017-10.28 10.723-11.027z" transform="translate(117.754 169.374)"/>
                <path fill="url(#y)" d="M123.591 31.253c-.525-.837-1.164-.978-1.008-2.835.27-2.92 2.272-.836.27-6.321-2.003-5.486 8.322-3.43 8.322-3.43s4.148 1.417 5.54 4.861c1.391 3.444 4.147 3.473 5.538 8.32 1.392 4.847 4.162 11.85-2.585 19.985-1.817 2.197-6.362 4.861-4.26 11.112 2.102 6.25-2.202 13.252-2.202 15.973 0 0 .852 7.668-2.173 6.35-1.42-.61-.227-5.57-.937-8.362-.71-2.792-1.221-3.841-1.037-5.301.256-2.126 1.59-2.282 1.307-4.748 0-.68-1.42-1.786-2.159-2.835a3.89 3.89 0 0 1 .114-3.16 17.712 17.712 0 0 0 1.05-7.343c-.27-2.154 3.821-5.286 1.648-8.816-2.173-3.529 0-6.01-1.164-10.148-.682-2.41-3.65-3.345-6.264-3.302z" transform="translate(117.754 169.374)"/>
                <path fill="url(#z)" d="M26.246 23.16L.81 114.239h3.976l34.186-86.7z" transform="translate(122.428 326.7)"/>
                <path fill="url(#A)" d="M124.982.539L1.065 12.572 125.38 54.129l35.833-45.03z" transform="translate(122.428 326.7)"/>
                <path fill="url(#B)" d="M125.295 54.356L.653 12.643v3.416L122.795 57.26z" transform="translate(122.428 326.7)"/>
                <g transform="translate(230.367 288.432)">
                    <path fill="url(#C)" d="M53.7 17.49L4.772.964s-5.27-1.29-3.55 4.946c1.718 6.237 14.202 52.528 14.202 52.528a6.756 6.756 0 0 0 4.147 3.628c3.38 1.29 17.526 6.378 17.526 6.378l16.645-21.26L53.7 17.49z"/>
                    <ellipse cx="34.54" cy="38.023" fill="#FFF" rx="6.76" ry="9.413" transform="rotate(-15.71 34.54 38.023)"/>
                </g>
                <g transform="translate(187.347 328.118)">
                    <path fill="#333665" d="M1.918 4.536l7.641-.667 14.813 5.174c4.687-1.163 8.664-2.098 8.664-2.098 1.355.2 2.687.532 3.977.992L26.247 20.041a12.495 12.495 0 0 1-5.61 0c-2.727-.737-14.629-5.088-15.24-5.343-.61-.255-.17-.624 4.844-2.055l1.974-.539c-3.38 0-8.806-.397-10.865-2.834-3.082-3.586.568-4.734.568-4.734z" opacity=".5"/>
                    <path fill="url(#D)" d="M27.17 10.985c-4.26-.85-7.726-2.112-9.87-2.112-2.145 0-5.994 0-7.712-1.715L7.869 5.47s-.824-.822-1.193-1.304a16.107 16.107 0 0 1-1.165-2.041l9.942-1.7c.398 1.09 1.136 1.927 2.287 1.658C19.444 1.644 22 .369 23.35.369c1.33.039 2.64.327 3.863.85.852.425 5.581 2.126 6.008 2.551.426.425 2.996 5.103 3.437 5.103a.795.795 0 0 1 .426 1.261 19.424 19.424 0 0 1-9.914.85z"/>
                    <path fill="url(#E)" d="M37.027 7.937l-25.082 6.208 14.188 4.748 24.798-6.264z"/>
                    <path fill="url(#F)" d="M34.343 9.298l-19.841 4.748 12.327 4.139 19.614-4.805z"/>
                    <path fill="url(#G)" d="M50.931 12.629v1.105l-24.67 6.307-14.316-4.875v-1.02l14.188 4.747z"/>
                    <ellipse cx="41.799" cy="10.644" fill="url(#H)" rx="1.221" ry="1"/>
                    <path fill="url(#I)" d="M14.502 14.046l19.883-4.748 4.26 1.417c-3.323.156-7.413.624-8.151 1.9a11.274 11.274 0 0 1-6.136 4.69l-9.856-3.259z"/>
                </g>
                <path fill="#000" d="M221.235 414.449l62.49-78.763V108.57l-14.202-.368a3.899 3.899 0 0 1-3.096-4.252 3.758 3.758 0 0 1 3.338-4.04h58.969a3.772 3.772 0 0 1 3.337 4.04c.197 2-1.141 3.83-3.11 4.252l-14.203.368v227.117l62.491 78.763s12.57 13.762-.78 26.476H299.49l-.213-42.52-.213 42.52h-76.978c-13.422-12.714-.852-26.476-.852-26.476z" opacity=".2"/>
                <path fill="url(#J)" d="M67.96 206.467v-3.445l15.95 4.947-.313 61.5-.014 4.946-34.74-14.089 2.415-2.764L67.96 236.26v-29.792" transform="translate(215.752 99.512)"/>
                <path fill="url(#K)" d="M51.258 257.562l-2.415 2.764 34.74 14.089-.213 31.011-52.152-22.734.994-1.403 19.046-23.727h1.704" opacity=".6" transform="translate(215.752 99.512)"/>
                <path fill="url(#L)" d="M80.813 247.783a27.35 27.35 0 0 0-7.783 1.12 12.795 12.795 0 0 0-3.65 1.643 7.096 7.096 0 0 0-1.562 1.418c-.266.263-.47.583-.597.935-.127.411-.127.85 0 1.262a4.027 4.027 0 0 0 1.42 1.686c.536.42 1.112.785 1.72 1.092a25.878 25.878 0 0 0 3.663 1.516 46.79 46.79 0 0 0 7.627 1.871 96.11 96.11 0 0 1-3.75-1.219c-1.25-.44-2.456-.836-3.664-1.332a32.413 32.413 0 0 1-3.493-1.616 9.617 9.617 0 0 1-1.563-1.035 3.091 3.091 0 0 1-1.065-1.275 1.246 1.246 0 0 1 .384-1.333c.397-.465.85-.879 1.349-1.233a14.584 14.584 0 0 1 3.394-1.686 29.608 29.608 0 0 1 3.75-1.077c1.25-.27 2.528-.539 3.82-.737z" transform="translate(215.752 99.512)"/>
                <path fill="url(#M)" d="M83.682 250.15c-1.33.04-2.656.186-3.962.439-1.309.24-2.56.72-3.693 1.417a10.385 10.385 0 0 1 3.75-.893 21.817 21.817 0 0 1 3.848 0l.057-.963z" transform="translate(215.752 99.512)"/>
                <path fill="url(#N)" d="M83.696 256.046a31.619 31.619 0 0 1-5.41-.723 17.183 17.183 0 0 1-2.614-.766 9.65 9.65 0 0 1-2.415-1.29 9.362 9.362 0 0 0 2.33 1.503c.835.4 1.699.736 2.585 1.006a32.41 32.41 0 0 0 5.44 1.205l.084-.935z" transform="translate(215.752 99.512)"/>
                <path fill="url(#O)" d="M31.218 282.692l-4.005 4.847 56.1 25.711.057-7.824z" opacity=".6" transform="translate(215.752 99.512)"/>
                <path fill="url(#P)" d="M98.95 206.467v-3.445L83 207.97l.313 61.5.028 4.946 34.725-14.089-2.428-2.764L98.95 236.26v-29.792" transform="translate(215.752 99.512)"/>
                <path fill="url(#Q)" d="M10.54 320.691l55.929-70.414a29.76 29.76 0 0 1 14.983-4.124h3.977a29.786 29.786 0 0 1 14.998 4.124l55.915 70.414s5.681 11.07-5.525 20.722H16.121c-11.15-9.652-5.582-20.722-5.582-20.722z" opacity=".95" transform="translate(215.752 99.512)"/>
                <path fill="url(#R)" d="M115.638 257.562l2.428 2.764-34.725 14.089.2 31.011 52.165-22.734-.994-1.403-19.074-23.727h-1.69" opacity=".6" transform="translate(215.752 99.512)"/>
                <path fill="url(#S)" d="M86.082 247.783a47.09 47.09 0 0 1 3.835.722 28.35 28.35 0 0 1 3.75 1.063c1.201.41 2.342.977 3.394 1.687.502.35.956.765 1.35 1.233.384.327.54.849.397 1.332a3.32 3.32 0 0 1-1.065 1.276c-.503.392-1.04.738-1.605 1.035a32.526 32.526 0 0 1-3.494 1.63 53.65 53.65 0 0 1-3.664 1.332c-1.25.397-2.457.822-3.75 1.219a48.37 48.37 0 0 0 7.627-1.871 25.949 25.949 0 0 0 3.664-1.53 10.272 10.272 0 0 0 1.719-1.078 4.041 4.041 0 0 0 1.42-1.7 1.881 1.881 0 0 0 0-1.248 2.225 2.225 0 0 0-.582-.935 6.784 6.784 0 0 0-1.563-1.418 13.548 13.548 0 0 0-3.664-1.658 27.847 27.847 0 0 0-7.769-1.091z" transform="translate(215.752 99.512)"/>
                <path fill="url(#T)" d="M83.27 251.085a21.817 21.817 0 0 1 3.85 0c1.294.061 2.566.364 3.749.893a10.75 10.75 0 0 0-3.693-1.417 24.747 24.747 0 0 0-3.948-.44l.042.964z" transform="translate(215.752 99.512)"/>
                <path fill="url(#U)" d="M83.284 256.981a32.894 32.894 0 0 0 5.454-1.205 19.112 19.112 0 0 0 2.585-1.006 9.946 9.946 0 0 0 2.343-1.417 9.764 9.764 0 0 1-2.4 1.275 18.6 18.6 0 0 1-2.627.78c-1.776.39-3.581.631-5.397.723l.042.85z" transform="translate(215.752 99.512)"/>
                <path fill="url(#V)" d="M135.706 282.692l3.99 4.847-56.085 25.711-.07-7.824z" opacity=".6" transform="translate(215.752 99.512)"/>
            </g>
            <path fill="#FFF" d="M241.103 57.894l3.654 4.947a.87.87 0 0 1-.198 1.224.912.912 0 0 1-1.248-.193l-2.957-3.994-2.958 3.994a.912.912 0 0 1-1.248.193l-.013-.013a.87.87 0 0 1-.197-1.224l3.693-4.985a.895.895 0 0 1 1.17-.22c0 .014.013.014.013.014.026 0 .04.012.052.025h.013l.014.013a.828.828 0 0 1 .21.22zm.144-5.668v3.504c0 .49-.407.876-.893.876-.5 0-.894-.4-.894-.876v-3.504c0-.49.407-.876.894-.876.486 0 .893.4.893.876zm-6.584 3.414l3.404 1.082a.883.883 0 0 1 .578 1.108.909.909 0 0 1-1.13.567l-3.404-1.095a.883.883 0 0 1-.579-1.108.902.902 0 0 1 1.13-.554zm11.92 1.662l-3.404 1.082a.898.898 0 0 1-1.13-.567c-.158-.464.105-.953.578-1.108l3.404-1.082a.898.898 0 0 1 1.13.567.868.868 0 0 1-.578 1.108zM58.866 168.2l3.653 4.948a.87.87 0 0 1-.197 1.224.912.912 0 0 1-1.248-.193l-2.958-3.994-2.957 3.994a.912.912 0 0 1-1.248.193l-.014-.013a.87.87 0 0 1-.197-1.224l3.694-4.986a.895.895 0 0 1 1.17-.219c0 .013.012.013.012.013.027 0 .04.013.053.026h.013l.013.013a.828.828 0 0 1 .21.219zm.144-5.668v3.505c0 .49-.407.876-.894.876-.5 0-.893-.4-.893-.876v-3.505c0-.49.407-.876.893-.876.487 0 .894.4.894.876zm-6.585 3.414l3.404 1.083a.883.883 0 0 1 .579 1.108.909.909 0 0 1-1.13.566l-3.405-1.095a.883.883 0 0 1-.578-1.108.902.902 0 0 1 1.13-.554zm11.921 1.662l-3.404 1.082a.898.898 0 0 1-1.13-.566c-.158-.464.105-.954.578-1.108l3.404-1.082a.898.898 0 0 1 1.13.566.868.868 0 0 1-.578 1.108z" mask="url(#c)"/>
        </g>
        <path fill="#FF6076" d="M295.936 6.544l3.654 4.948a.87.87 0 0 1-.197 1.223.912.912 0 0 1-1.249-.193l-2.957-3.994-2.957 3.994a.912.912 0 0 1-1.249.193l-.013-.013a.87.87 0 0 1-.197-1.223l3.693-4.986a.895.895 0 0 1 1.17-.219c0 .013.013.013.013.013.026 0 .04.013.052.026h.014l.013.012a.828.828 0 0 1 .21.22zm.145-5.668V4.38c0 .49-.408.876-.894.876-.5 0-.894-.4-.894-.876V.876c0-.49.407-.876.894-.876.486 0 .894.4.894.876zm-6.585 3.414l3.404 1.082a.883.883 0 0 1 .578 1.108.909.909 0 0 1-1.13.567l-3.404-1.095a.883.883 0 0 1-.578-1.108.902.902 0 0 1 1.13-.554zm11.92 1.662l-3.403 1.082a.898.898 0 0 1-1.13-.567c-.158-.464.104-.953.578-1.108l3.404-1.082a.898.898 0 0 1 1.13.567.868.868 0 0 1-.578 1.108z"/>
        <path fill="url(#W)" fill-rule="nonzero" d="M180.938 120.554L69.05 156.745c-15.553 5.17-31.963-3.429-37.14-18.918-5.177-15.488 3.469-31.843 19.021-37.013l111.888-36.191c15.552-5.17 31.963 3.429 37.14 18.917 5.177 15.49-3.47 32.274-19.021 37.014z" transform="scale(-1 1) rotate(-15 -1.5 1002.687)"/>
        <g transform="translate(17.237 308.098)">
            <use fill="#000" filter="url(#X)" xlink:href="#Y"/>
            <use fill="#FFF" xlink:href="#Y"/>
        </g>
        <path fill="url(#Z)" fill-rule="nonzero" d="M58.39 38.962a.765.765 0 0 0-1.011-.095l-2.183 1.602a.729.729 0 0 0-.055.044l-.059.04-2.488 1.827a.32.32 0 0 0-.133.277c.01.133.005.267-.013.399-.178 1.2-1.32 2.033-2.552 1.86-1.231-.172-2.087-1.285-1.91-2.486.175-1.201 1.315-2.036 2.547-1.866.136.02.27.053.398.098a.328.328 0 0 0 .301-.045l1.052-.768a.72.72 0 0 0 .15-1.026l-1.292-1.678a.758.758 0 0 0-.59-.293 2.156 2.156 0 0 1-.234-.018c-1.231-.174-2.085-1.287-1.908-2.488.177-1.201 1.318-2.035 2.55-1.864 1.231.172 2.088 1.284 1.913 2.485-.012.076-.028.15-.048.224a.718.718 0 0 0 .123.633l1.288 1.68c.25.324.72.39 1.052.147l1.89-1.387a.73.73 0 0 0 .286-.457c.051-.272.077-.548.078-.824 0-1.36-.554-2.665-1.54-3.627a5.328 5.328 0 0 0-3.72-1.502l-.009-.003a.012.012 0 0 1-.004-.01c-.207-2.88-2.662-5.113-5.622-5.117a5.666 5.666 0 0 0-3.472 1.183.726.726 0 0 0-.285.576V39.38c0 .607-.505 1.1-1.127 1.1a1.114 1.114 0 0 1-1.127-1.1V26.483a.726.726 0 0 0-.286-.576 5.671 5.671 0 0 0-3.471-1.183c-2.96.004-5.415 2.238-5.623 5.118a.012.012 0 0 1-.004.009.012.012 0 0 1-.01.003c-2.904 0-5.259 2.296-5.259 5.13.002.275.028.55.08.821a.73.73 0 0 0 .287.458l1.887 1.388a.764.764 0 0 0 1.052-.147l1.293-1.674a.718.718 0 0 0 .123-.634 2.12 2.12 0 0 1-.048-.225c-.175-1.2.682-2.313 1.913-2.484 1.232-.172 2.373.662 2.55 1.863.177 1.201-.677 2.315-1.908 2.489-.078.01-.156.016-.235.017a.758.758 0 0 0-.589.293l-1.295 1.678a.72.72 0 0 0 .15 1.026l1.052.768c.086.063.198.08.3.047.13-.047.263-.08.399-.1 1.232-.17 2.372.665 2.548 1.867.176 1.2-.68 2.314-1.911 2.486-1.232.173-2.374-.66-2.552-1.86a1.964 1.964 0 0 1-.015-.398.316.316 0 0 0-.132-.279L28.4 40.522l-.015-.01a.642.642 0 0 0-.053-.04l-2.185-1.605a.765.765 0 0 0-1.012.095 5.04 5.04 0 0 0-1.406 3.35 5.349 5.349 0 0 0 2.481 4.273.722.722 0 0 1 .257.913 4.978 4.978 0 0 0-.09 4.08 5.166 5.166 0 0 0 3.008 2.835.765.765 0 0 0 .798-.167l2.518-2.454a.314.314 0 0 0 .088-.293 1.901 1.901 0 0 1-.043-.394c0-1.214 1.009-2.199 2.254-2.199s2.254.985 2.254 2.199-1.009 2.198-2.254 2.198c-.137 0-.274-.015-.407-.044a.335.335 0 0 0-.3.088L31.86 55.72a.72.72 0 0 0-.167.808c.668 1.585 2.061 2.771 3.762 3.204 1.7.432 3.51.06 4.887-1.006a.726.726 0 0 0 .287-.576v-3.381c0-.607.504-1.1 1.127-1.1.622 0 1.127.493 1.127 1.1v3.37c0 .225.106.438.287.577a5.702 5.702 0 0 0 4.891 1.017 5.552 5.552 0 0 0 3.77-3.205.72.72 0 0 0-.161-.802l-2.44-2.379a.34.34 0 0 0-.3-.088c-.134.029-.27.044-.407.044-1.245 0-2.253-.985-2.253-2.2 0-1.213 1.01-2.197 2.255-2.197 1.245 0 2.254.985 2.254 2.199a1.943 1.943 0 0 1-.044.395.314.314 0 0 0 .089.294l2.51 2.453c.209.204.52.27.797.167a5.166 5.166 0 0 0 3.01-2.835 4.978 4.978 0 0 0-.091-4.08.722.722 0 0 1 .257-.913 5.349 5.349 0 0 0 2.489-4.275 5.04 5.04 0 0 0-1.407-3.349z" transform="translate(17.237 308.098)"/>
        <g transform="translate(415.881 58.957)">
            <use fill="#000" filter="url(#aa)" xlink:href="#ab"/>
            <use fill="#FFF" xlink:href="#ab"/>
        </g>
        <path fill="url(#b)" fill-rule="nonzero" d="M54.04 43.78V33.244c0-4.297-7.06-6.617-13.701-6.617-6.64 0-13.695 2.314-13.711 6.603v10.552c0 3.944 5.95 6.22 12.066 6.568.176.01.314.157.315.336v.33c0 .135-.08.257-.203.31a3.962 3.962 0 0 0-2.075 2.099.333.333 0 0 1-.307.204h-4.551a1.34 1.34 0 0 0-1.333 1.348 1.34 1.34 0 0 0 1.333 1.348h4.549c.133 0 .254.08.306.205a3.914 3.914 0 0 0 3.61 2.428c1.577 0 3-.957 3.61-2.428a.333.333 0 0 1 .307-.205h4.55a1.34 1.34 0 0 0 1.333-1.348 1.34 1.34 0 0 0-1.333-1.348h-4.577a.29.29 0 0 1-.266-.18 3.956 3.956 0 0 0-2.085-2.123.337.337 0 0 1-.205-.31v-.332c0-.179.138-.327.314-.337C48.098 50 54.04 47.722 54.04 43.781zm-24.75-5.917c0-.12.062-.23.164-.291a.335.335 0 0 1 .332 0 22.8 22.8 0 0 0 10.552 2.287c3.645.092 7.26-.693 10.546-2.291a.33.33 0 0 1 .33.004c.101.06.164.17.164.29v.647c0 1.6-4.301 3.922-11.041 3.922S29.29 40.11 29.29 38.51v-.648zm11.048-8.54c6.736 0 11.035 2.318 11.041 3.917v.012c-.013 1.597-4.31 3.909-11.04 3.909-6.73 0-11.048-2.32-11.048-3.917 0-1.598 4.301-3.921 11.047-3.921zM29.291 43.78v-.65a.329.329 0 1 1 .496-.29 22.794 22.794 0 0 0 10.552 2.288 22.8 22.8 0 0 0 10.547-2.292.33.33 0 0 1 .33.004c.101.06.164.17.164.29v.65c0 1.598-4.3 3.92-11.041 3.92-6.74 0-11.048-2.322-11.048-3.92zm11.048 12.483c-.515 0-.98-.313-1.177-.794a1.298 1.298 0 0 1 .276-1.404 1.263 1.263 0 0 1 1.387-.279c.476.2.786.67.786 1.19a1.282 1.282 0 0 1-1.272 1.287zM56 54.978a1.34 1.34 0 0 1-1.333 1.348h-1.302a1.34 1.34 0 0 1-1.333-1.348 1.34 1.34 0 0 1 1.333-1.348h1.302A1.34 1.34 0 0 1 56 54.978zM26.01 53.63h1.303a1.34 1.34 0 0 1 1.333 1.348 1.34 1.34 0 0 1-1.333 1.348h-1.302a1.34 1.34 0 0 1-1.333-1.348 1.34 1.34 0 0 1 1.333-1.348z" transform="translate(415.881 58.957)"/>
        <path fill="url(#j)" d="M427.15 394.282l-.301 4.502-74.532 12.868-2.934-3.928z" transform="translate(3)"/>
        <path fill="url(#k)" d="M336.597 368.943L315 364l34.383 43.789 77.792-13.471z" transform="translate(3)"/>
        <path fill="url(#l)" d="M330.883 384.355l11.176-4.326s3.546-2.885-4.343-5.654C329.826 371.605 318 368 318 368l12.883 16.355z" transform="translate(3)"/>
    </g>
</svg>
