<svg xmlns="http://www.w3.org/2000/svg" viewBox="0 0 60 60"><defs><linearGradient id="a" x1="20.173%" x2="88.169%" y1="22.696%" y2="100%"><stop offset="0%" stop-color="#FFD656"/><stop offset="100%" stop-color="#9ADB5B"/></linearGradient></defs><g fill="none" fill-rule="evenodd"><circle cx="30" cy="30" r="30" fill="#FFF"/><path fill="url(#a)" fill-rule="nonzero" d="M33.658 37.075c.349 0 .632.294.632.658-.003 1.59-.926 3.022-2.337 3.629a.331.331 0 0 0-.194.304v.017c0 .727-.566 1.317-1.265 1.317-.698 0-1.264-.59-1.264-1.317v-.051a.29.29 0 0 0-.172-.263c-1.422-.602-2.353-2.039-2.357-3.636 0-.364.283-.658.633-.658h6.324zM30.498 18c2.254-.001 4.417.93 6.011 2.59C38.104 22.247 39 24.5 39 26.845c.003 3.688-2.223 6.979-5.559 8.22a.597.597 0 0 1-.213.037h-1.146a.646.646 0 0 1-.633-.658V28.57c0-.11.054-.213.142-.274l2.276-1.58a1 1 0 0 0 .45-.893.99.99 0 0 0-.538-.838.917.917 0 0 0-.964.089l-2.137 1.489a.305.305 0 0 1-.35 0l-2.143-1.487a.916.916 0 0 0-.946-.063.989.989 0 0 0-.525.821 1 1 0 0 0 .42.884l2.276 1.58c.088.062.14.164.14.274v5.87a.646.646 0 0 1-.632.657h-1.146a.61.61 0 0 1-.207-.032c-3.339-1.238-5.567-4.53-5.565-8.22C22 21.961 25.805 18 30.498 18z"/></g></svg>