<svg xmlns="http://www.w3.org/2000/svg" viewBox="0 0 60 60"><defs><linearGradient id="a" x1="0%" x2="91.551%" y1="0%" y2="100%"><stop offset="0%" stop-color="#FFB242"/><stop offset="13.685%" stop-color="#D955FF"/><stop offset="60.49%" stop-color="#562FFD"/><stop offset="76.327%" stop-color="#562FFD"/><stop offset="100%" stop-color="#489BFF"/></linearGradient></defs><g fill="none" fill-rule="evenodd"><circle cx="30" cy="30" r="30" fill="#FFF"/><path fill="url(#a)" d="M39.337 37.373l-9.533-.01c-2.025-.002-3.668 1.704-3.67 3.81-.002 2.106 1.638 3.815 3.663 3.817.864.005 1.7-.32 2.35-.912.19-.173.435-.268.687-.268h3.46c.252 0 .495.096.685.27.649.595 1.485.922 2.35.92 2.026.002 3.669-1.704 3.671-3.81.002-2.106-1.638-3.815-3.663-3.817zm-8.565 4.347h-.48a.266.266 0 0 0-.261.27v.504c0 .3-.233.542-.52.542a.532.532 0 0 1-.522-.542v-.506a.275.275 0 0 0-.076-.192.254.254 0 0 0-.184-.079h-.488a.532.532 0 0 1-.52-.541c0-.3.233-.542.52-.542h.488c.144 0 .26-.121.26-.27v-.504c0-.3.234-.542.521-.542.288 0 .521.242.521.542v.502c0 .072.027.141.076.192.049.05.115.08.184.08h.484c.287 0 .52.242.52.54 0 .3-.233.542-.52.542l-.003.004zm6.957.278c-.432 0-.781-.364-.781-.812 0-.45.35-.813.78-.813.432 0 .782.364.782.813 0 .448-.35.812-.781.812zm1.685 1.755c-.431 0-.781-.364-.781-.812 0-.45.35-.813.781-.813.432 0 .781.364.781.813 0 .448-.35.812-.78.812zm0-3.508c-.431 0-.781-.364-.781-.812 0-.449.35-.813.781-.813.432 0 .781.364.781.813 0 .448-.35.812-.78.812zm1.686 1.756c-.432 0-.782-.363-.782-.812 0-.449.35-.813.782-.813.431 0 .78.364.78.813 0 .449-.349.812-.78.812zM30.768 35.25c0 .598-.466 1.083-1.041 1.083h-5.738c-.575 0-1.041-.485-1.041-1.083s.466-1.083 1.041-1.083h5.738c.575 0 1.041.485 1.041 1.083zm-2.792-8.766l1.698 1.249a.554.554 0 0 1 .064.83 3.294 3.294 0 0 1-4.768-.042c-1.309-1.373-1.309-3.586 0-4.958a3.294 3.294 0 0 1 4.767-.042.554.554 0 0 1-.063.83L27.976 25.6a.549.549 0 0 0-.22.442c0 .175.082.34.22.442zm7.732 4.433c0 1.196-.933 2.166-2.083 2.166H20.083c-1.15 0-2.083-.97-2.083-2.166v-9.75C18 19.97 18.933 19 20.083 19h13.542c1.15 0 2.083.97 2.083 2.167v5.416c0 .3.233.542.52.542h.522c1.725 0 3.125 1.455 3.125 3.25v4.875c0 .598-.467 1.083-1.042 1.083s-1.042-.485-1.042-1.083v-4.875c0-.598-.466-1.083-1.041-1.083h-.521a.532.532 0 0 0-.521.541v1.084zm-2.604 0c.287 0 .52-.243.52-.542v-8.667c0-.299-.233-.541-.52-.541h-12.5a.532.532 0 0 0-.52.541v8.667c0 .3.232.542.52.542h12.5z"/></g></svg>