<svg xmlns="http://www.w3.org/2000/svg" viewBox="0 0 76 19"><g fill="none" fill-rule="evenodd"><path fill="#FFF02B" d="M70.08 18.763l-.87-.085-.999-.89-.435-.593-.217-.043-.174.043-.217.084-.435.636-.738.509-1 .211h-.652l-.52.128h-3.65l-1.391-.212-.347-.255-.522-.805-.043-.17-.13-.042h-.087l-.13.043-.783.974-.652.255-1.13.084-1.216-.339-.304-.424-.087-.127-.043-.212-.174-.084-.13-.042-.174.042-.392.466-.738.381-.913.212h-4.171l-1.26-.338-.477-.382-.435-.593-.13-.043h-.088l-.13.043-.435.72-.564.424-.521.17-2.086-.085-.869-.254-.478-.721-.174-.551-.087-.085-.043-.127-1.304-.17h-.086l-.391.297-.566.72-.608.51-.738.211h-.913l-.522.127h-2.737l-1.65-.296-.218-.043-.522-.593-.043-.17-.174-.084h-.13l-.565.508-.13-.042-.174.254-1.347.34h-2.998l-1-.213-.608-.509-.391-.593-.043-.127-.174-.043-.13.043-.956.848-.478.254-1.043.212h-1.434l-.521.127h-1.173l-.522-.127-1.65-.085-1.044-.381-.217-.128-.304-.508-.13-.085-.087-.042-.956.763-.826.381-1.695.339H5.686l-1.911-.466-1.13-.636-1.043-1.102-.651-1.102-.478-1.653v-1.907L.95 9.48l.781-1.865L2.906 5.75l.217-.17.174-.339.347-.297.174-.339 2.042-1.78 1.564-1.018 1.521-.635.913-.212h1.694l1.39.466.609.381.825 1.06.174.636 2.042-.042 1.173.381.609.382.435.466.304.042 2.52-.763 1.911-.339h1.825l1.782.467.564.339.218.042.912.763.261-.042.913-.721 1.433-.636.956-.212 1.26.085 1.173.382.87.635.564.594.087.042.652-.424.174-.212 1.477-.763.913-.211h1.172l.869.339.478.38.392.594.043.128.304.042 1.738-1.017 1.26-.34.826.085 1.087.382.39.339.392.042 1.954-.635 1.086-.212h2.347l1.782.466 1.129.509.174.211.608.297h.174l1.868-.89 1.174-.339 1.26-.085 1.347.254.478.17 1.042.763 3.302-.89 2.13-.17 1.867.17 1.696.509.738.635.52.806.218.763-.086 1.356-.39 1.145-.523.848-.347.296-.174.339-.348.17-.26.339-1.173.805v.679l1.172 3.22-.043.425-.782.847-1 .637-1.39.593z"/><path fill="#EA232E" fill-rule="nonzero" d="M42.185 15.711l-1.218-.084-.174-.085-.26-.043-.087-.212v-.466l1.173-3.01-.043-.127-.348.17-1.086 1.102-.348.169-.303.338-.739.425-.13-.043-.218-1.187-.087-1.06-.086-.042-.13.042-2.26 3.561-.695.297-1.26-.085-.088-.084-.13-.043-.044-.381.696-1.78 1.824-3.943 1.695-2.627 1.26-1.145.609-.212 1.13.085.304.678v2.797l-.088.297.044.127.087.043.39-.297.566-.72.217-.17.174-.34.869-.89.695-.763 1-.635.826-.17.564.042.565.255v.763L46.269 8.8l-.347.679-.304.847-1.652 3.095-1.086 1.865-.087.085-.043.127-.565.213zm-3.39-2.035l-.087-.084.087.084zm-33.37 1.908L4.08 15.5l-.826-.255-.739-.635-.39-.72-.218-.848.087-1.696.652-2.204.913-1.654.781-1.102.348-.296.174-.34 1.781-1.652 1.217-.89 1.651-.763 1.13-.213.912.085.869.382.478.381.13.127.044.467-.044.254-.217.17-1.998 3.009-.261.254-.087.043-1-.509h-.695l-.695.254-.87.72-1.041 1.273-.74 1.61-.043 1.018.261.55.348.255.869.212h.52l.218.17-1.173 1.907-.043.17-.13.211-.826.34zm55.139.254h-1.695l-.305-.085-.043-.297.695-1.695-.043-.127-.304-.085h-1.304l-.305.085-1.303 1.78-.738.297-1.26-.085-.087-.17-.044-.127.826-1.738.608-.975 1.999-3.306.348-.424.304-.594.217-.17.434-.72.218-.17.174-.339 1.13-1.017 1.26-.466 1.433.085.435.254.304.424.217.508.044.89-.173 1.611-.783 2.84-1.042 2.502-.652.974-.087.128-.478.212zm-.522-4.323l.435-1.442.087-.847-.174-.213-.13.043-.043.085-.608.806-.827 1.398.218.17h1.042zm-32.935 3.264l-.565.465-1.434.085-.304-.085-.044-.127v-.085l.304-.762.087-.043.174-.508.478-.721.174-.424 2.216-3.646 1.955-2.67.869-.763 1.173-.382h1.217l.738.255.391.593.174 1.399-.304 1.822-.651 2.459c-.485 1.09-.537 1.19-.913 2.246l-.13.086-.088.127-.174.55-.26.467-1 .381-.999.085-.695-.212-.043-.212.695-1.78-.609-.213h-1.042l-.304.086c-.595.789-.561.736-1.086 1.527zm3.867-3.646l.044-.085.478-1.822-.087-.594-.087.043-.782.89-.825 1.399.217.169h1.042zM14.42 15.329h-1.434l-.304-.085v-.762l.478-.975.087-.467h-1.695l-.304.085-1.347 1.78-.956.297-.782-.085-.304-.127-.043-.085.304-.763.348-.509.564-1.186 2.477-4.028 1-1.398.955-1.145.739-.636 1.129-.339h1.173l.608.212.218.128.304.593.174.594-.087 1.525-.782 3.307-1.173 2.755-.348.551-.044.212-.304.254-.651.297zm-.39-4.323l.564-1.908v-.55l-.13-.043-.087.042-.391.382-1.043 1.484-.087.593h1.173zm55.137 4.832l-1.087-.085-.651-.72-.826-1.441-.13-.085-.087-.043-.131.043-.955 1.653-.261.339-1.086.34-1.086-.086-.174-.084-.218-.043-.043-.297.564-1.356 1.825-3.434 1.694-2.628.218-.17.435-.805-.044-.424.044-.17.087-.212 2.172-.466h.652l1.043-.127 1.694.339.565.254.521.593.174.678-.174 1.06-.651 1.06-.347.254-.174.254-1.304 1.017-1.911.933-.044.381.565 1.526.347.72.044.34-.044.212-.608.466-.608.214zm-.13-5.977l.521-.212.955-.51.262-.338.043-.339-.13-.551-.609-.043-.435.128-.39.424-.826 1.356.173.043.435.042zm-19.814 5.723h-2.998l-.521-.128-.956-.084-.174-.254.174-.636 2.216-4.197 1.911-2.925.391-.508.044-.763.087-.212 2.172-.467h2.477l1.13.34.522.339.26.381.087.424.174.466-.131.51-.044.169h-.13l.044.254-.435.763-.087.085h-.13L55 9.65l-1.043.89-.086.042-.044.128.348 1.186-.087.933-.26.635-.653.763-1 .636-1.564.51-1.129.084-.26.127zm.957-5.892l.086.084.131.043 1.13-.296.607-.382.392-.466v-.763l-.826-.085-.435.212-.26.34h-.131l-.044.126-.13.382c-.442.604-.347.382-.52.805zm-1.218 3.603l1.13-.34.609-.465.173-.51-.044-.17-.086-.211-.174-.127-.304-.085-1.087.085-.043.127-.347.466-.565 1.144.217.044.521.042zm-26.2 2.034l-.825-.085-.782-.89-.782-1.356-.044-.127-.087-.043-.13.043-1.217 1.992-.347.254-.348.085h-1.434l-.347-.085-.087-.085-.13-.042-.044-.085.435-1.06 2.085-3.942 1.434-2.246.217-.17.304-.593.218-.17.043-1.102 2.13-.466 2.346-.127 1.39.339.608.381.174.212-.043.127.13.17.13.085.088.847-.304.89-.565.933-1.13 1.017-1.781 1.018-.826.296-.043.297.826 2.12.217.424.043.17-.043.169-.26.339-1.219.466zm-.13-5.976l1-.34.608-.381.391-.466.044-.255-.044-.381-.13-.127-.305-.085-.825.085-.044.127-.217.254-.826 1.399.087.085.26.085z"/></g></svg>