<svg xmlns="http://www.w3.org/2000/svg" viewBox="0 0 31 30"><g fill="none" fill-rule="evenodd"><path fill="#91BE1A" d="M30.705 14.927c0 8.268-6.717 14.927-15.057 14.927C7.38 29.854.664 23.122.664 14.927.664 6.659 7.381 0 15.721 0c8.267 0 14.984 6.659 14.984 14.927"/><path fill="#E1190A" d="M22.586 10.098c.369-.659 1.624-1.83 1.624-1.83C26.276 6.146 25.464 6 25.464 6c-.59-.366-2.288.512-2.288.512-.738.366-2.14 1.39-2.214 1.39-.96-.512-1.476-.658-1.698-.731-.295-.147-.59-.147-.738-.147-.738 0-1.402.586-1.402.586-.443-.147-1.698-.586-2.362-.586h-.443c-.369 0-.96.074-1.402.22-.738.293-1.403.878-1.772 1.244 0 0-1.919-.293-3.69-1.683-.148-.22-1.107-.732-1.624-.22 0 0-.37.659.369 1.683.074.073.074.147.074.147.147.22.369.365.59.585 0 .073.074.073.074.146.517.44.96 1.244 1.181 1.683l-.886-.22c-.885-.146-.96-.146-1.402-.072-.96.073-1.255.804-1.255 1.024-.147.951.222 1.537.517 2.195.074.146.221.44.443.659.295.292.59.658 2.066.658v.366H7.381c-.59.146-1.181 1.244-1.107 2.707.074 1.537.738 2.561 1.402 2.561h.59c.296 0 .517-.22.739-.585l.074.146c.738 1.537.811 4.244 1.697 5.927.222.44.443.951 1.107.805.222-.073.37-.073.517-.512.517-1.683.664-1.903 1.919-3.512.664 1.024 1.181 1.536 1.55 1.683.221.073.517.146.812.219.886.073 2.288.293 3.026-.512.96-1.025 1.107-2.707 1.107-2.927.074-.585.074-1.024.074-1.024.148-1.098.517-1.903.517-1.903s.885-1.39.96-1.683c.147 1.39.885 2.415 1.623 2.342l.59-.073c.739-.074 1.403-1.098 1.33-2.561-.075-1.39-.665-2.196-1.034-2.342-.37-.073-.443-.073-.443-.073h-.074c0-.146 0-.22.074-.366 0 0 1.033-.22 1.476-.878a11.62 11.62 0 0 0 .886-1.976c.221-.658.221-.95-.517-1.097-.738-.146-1.476-.146-1.919-.073-.59.073-1.55.292-1.771.366zm.96 3.95c-.591.147-1.034.952-1.182 1.976a6.37 6.37 0 0 0-.443-.95c-.073-.44.148-.952.37-1.391.295.073.811.146 1.254.146v.22z"/><path fill="#FFF" fill-rule="nonzero" d="M20.371 16.976c-.073 0-.295.073-.442.073-.222 0-.296-.073-.37-.147-.073-.146-.073-.292-.073-.512v-.22c0-.292.295-4.829.295-4.829v-.073h-1.107v.073s-.148 2.854-.222 3.44c-.147 1.463-1.18 2.268-2.066 2.268-.812 0-1.107-.44-1.181-.878h.221c1.55 0 2.436-.659 2.51-1.537v-.073c0-.732-.665-1.244-1.55-1.244-1.107 0-1.993.732-2.288 1.83-.148-.074-.296-.074-.443-.147-.074-.951-.59-1.683-1.624-1.683-.59 0-1.033.22-1.255.512l.148-2.634H9.817l-.37 6.293c.443.292 1.034.439 1.698.439 1.181 0 2.215-.659 2.436-2.122.148.073.221.073.369.073 0 .659.221 1.17.664 1.537.37.365.96.512 1.55.512 1.034 0 1.846-.659 2.215-1.025.073.586.442 1.025 1.18 1.025.296 0 .591-.073.812-.147l.074-.804h-.074zM16.83 14.56c0 .293-.222.439-.517.585-.295.074-.664.147-.96.147h-.147c.074-.513.516-1.098 1.033-1.098.37 0 .59.146.59.366zm-4.281.732c0 1.317-.59 1.683-1.329 1.683a1.4 1.4 0 0 1-.59-.147c0-.292.073-.658.073-1.097.074-.952.517-1.39 1.034-1.39.59-.074.812.365.812.95z"/></g></svg>