<svg xmlns="http://www.w3.org/2000/svg" viewBox="0 0 60 11"><g fill="none" fill-rule="evenodd"><path fill="#333" d="M43.046.327h-1.593s-.398 0-.601.245c-.203.245-2.26 3.752-2.26 3.752S36.496.883 36.332.572c-.171-.311-.455-.245-.455-.245h-1.593c-.574-.01-.354.433-.354.433s3.188 5.072 3.38 5.374c.19.301.164.353.162.552-.002.199 0 2.782 0 3.171 0 .414.397.406.397.406H39.263s.398.008.398-.406c-.01-.349 0-2.972 0-3.171 0-.199.023-.26.214-.552.192-.302 3.38-5.374 3.38-5.374s.365-.443-.209-.433zM16.956 8.8c0-.127-.195-.406-.593-.406h-4.359c-.35 0-.35-.16-.35-.18V6.31c0-.274.35-.236.407-.236h3.884c.614 0 .567-.396.567-.5v-.821c0-.132.056-.51-.567-.51h-4.092c-.056 0-.198 0-.198-.302V2.403c0-.02 0-.18.35-.18h4.393s.492.029.558-.405V.572s.088-.245-.394-.245h-5.376c-.473 0-.608.17-.778.453-.815 1.137-.815 1.21-.815 1.534 0 .325-.036 2.004-.036 2.646v.67c0 1.264.036 3.838.036 4.235 0 .398.398.398.398.398h6.571c.2 0 .394 0 .394-.246V8.8z"/><path fill="#333" d="M17.231 6.613s-.47-.037-.47.297c0 .334-.057 3.38 4.182 3.52 4.288-.038 4.326-3.14 4.115-3.817-.22-.799-.806-1.727-2.321-2.09a43.35 43.35 0 0 1-2.503-.668s-.998-.149-.97-1.03c.03-.883 1.171-.957 1.68-.948.508.01 1.553.13 1.687 1.198.058.232.03.427.451.427h1.391s.374.019.355-.343c.038-.298-.326-3.111-3.885-3.028-3.386-.102-3.846 2.266-3.856 2.87-.019.603.23 2.024 1.996 2.572 1.812.52 2.858.798 2.858.798s1.362.112.92 1.505c-.354.993-2.992 1.058-3.692-.037-.403-.632-.029-1.152-.672-1.217-.642-.065-1.266-.01-1.266-.01z"/><path stroke="#333" stroke-width=".5" d="M25.125.526h1.393s.46-.067.77.378c.26.37 4.244 6.1 4.244 6.1s.319.293.319-.086V.734s.104-.208.442-.208h.598"/><path stroke="#333" stroke-width=".5" d="M25.078 9.831s1.301-.317 1.378-2.346V3.582s.02-.413.318 0c.3.414 4.472 6.163 4.52 6.24.049.067.232.24.511.298h1.562s.491.038.491-.298V1.775"/><path fill="#333" d="M9.79.333H8.197s-.399 0-.602.245c-.203.245-2.26 3.752-2.26 3.752S3.24.889 3.077.578C2.904.267 2.621.333 2.621.333H1.028C.454.323.673.766.673.766s3.189 5.072 3.38 5.373c.191.302.164.354.163.553-.002.198 0 2.782 0 3.17 0 .415.396.407.396.407H6.006s.398.008.398-.406c-.01-.349 0-2.973 0-3.171 0-.199.023-.26.215-.553.191-.301 3.38-5.373 3.38-5.373s.365-.443-.21-.433z"/><path fill="#333" fill-rule="nonzero" d="M46.83.327c-4.78 0-4.78 4.173-4.78 4.968 0 .795 0 4.968 4.78 4.968 4.778 0 4.778-4.173 4.778-4.968 0-.795 0-4.968-4.779-4.968zm0 7.75c-2.395 0-2.58-2.236-2.59-2.98.02-.746.204-2.982 2.59-2.982 2.394.019 2.579 2.236 2.588 2.981-.01.745-.194 2.963-2.589 2.98z"/><path fill="#333" d="M59.573.327H58.38c-.399 0-.399.199-.399.596v5.763c0 .618-.434 1.788-1.99 1.788-1.558 0-1.992-1.17-1.992-1.788V.923c0-.397 0-.596-.398-.596h-1.195c-.398 0-.398.199-.398.596v6.558c.1 2.186 2.751 2.778 3.982 2.782 1.231.003 3.883-.398 3.983-2.782V.923c0-.397 0-.596-.399-.596z"/></g></svg>