<svg xmlns="http://www.w3.org/2000/svg" viewBox="0 0 82 22"><g fill="none" fill-rule="nonzero"><path fill="#E84281" d="M27.623 21.342c-1.589-5.097-10.102-2.416-10.102-10.222 0-3.242 2.061-5.537 5.187-5.537 3.688 0 4.915 2.66 4.915 6.18h-7.932c0 5.272 6.669 3.694 7.932 6.766v2.813zm-2.202-11.081c0-1.675-.998-3.048-2.756-3.048-1.999 0-2.823 1.632-2.974 3.048h5.73z"/><path fill="#454442" d="M28.493 18.53c1.26-3.073 7.933-1.497 7.933-6.766h-7.933c0-3.52 1.224-6.181 4.915-6.181 3.126 0 5.19 2.295 5.19 5.537 0 7.806-8.514 5.124-10.103 10.222-.002-.737-.002-2.133-.002-2.813zm7.933-8.27c-.154-1.415-.978-3.047-2.975-3.047-1.758 0-2.756 1.373-2.756 3.048h5.731zM.114 5.876h1.912v1.589h.04c.782-1.267 1.891-1.848 3.518-1.848 1.281 0 2.561.644 3.147 2.125.76-1.568 2.43-2.125 3.431-2.125 2.823 0 3.843 1.805 3.843 4.186v7.02h-2.04v-6.526c0-1.352-.326-3.048-1.976-3.048-2.084 0-2.909 2.018-2.909 4.057v5.518H7.042v-6.527c0-1.352-.327-3.048-1.977-3.048-2.085 0-2.909 2.018-2.909 4.057v5.518H.114V5.876zM47.284 7.506h-2.932v5.99c0 1.267.781 1.952 1.713 1.952a2.53 2.53 0 0 0 1.391-.387v1.72c-.456.126-1.086.297-1.737.297-2.106 0-3.408-.987-3.408-3.177V7.505h-2.497V5.873h2.497V3.339l2.04-.644v3.18h2.933v1.631zM51.404 3.428h-2.299V1.152h2.3v2.276zm-2.168 2.448h2.04v10.948h-2.04V5.876zM60.956 7.72c-.781-.322-1.563-.472-2.214-.472-2.278 0-3.56 2.018-3.56 4.1 0 1.955 1.064 4.1 3.692 4.1.694 0 1.563-.213 2.192-.621l.152 1.802c-.847.387-1.825.45-2.563.45-3.342 0-5.645-2.595-5.645-5.731 0-3.327 2.258-5.732 5.645-5.732.825 0 1.889.194 2.477.43l-.176 1.674zM63.765 14.402h2.39v2.363h-2.39v-2.363zM69 7.609h-2.56V6.006H69v-.992C69 2.398 69.684.69 72.65.69c.511 0 .938.063 1.344.126l-.086 1.603c-.234-.085-.619-.127-.96-.127-1.728 0-1.941 1.097-1.941 2.552v1.16h2.88v1.604h-2.88v9.155h-2.006V7.609H69zM75.358 6.006h1.878v1.667h.042c.533-1.119 1.686-1.92 2.838-1.92.598 0 .895.064 1.322.148v1.772c-.362-.147-.768-.19-1.11-.19-1.793 0-2.966 1.687-2.966 4.388v4.894h-2.006V6.006h.002z"/></g></svg>