<?xml version="1.0" encoding="UTF-8"?>
<svg width="17px" height="17px" viewBox="0 0 17 17" version="1.1" xmlns="http://www.w3.org/2000/svg" xmlns:xlink="http://www.w3.org/1999/xlink">
    <!-- Generator: sketchtool 52.4 (67378) - http://www.bohemiancoding.com/sketch -->
    <title>7AB5FAD5-96B6-4CC0-B5D2-32F02C8585A7-color</title>
    <desc>Created with sketchtool.</desc>
    <g id="Design" stroke="none" stroke-width="1" fill="none" fill-rule="evenodd">
        <g id="5a-Newz" transform="translate(-1293.000000, -778.000000)" fill="#4460A0">
            <g id="Content" transform="translate(122.000000, 600.000000)">
                <g id="1" transform="translate(1.000000, 0.000000)">
                    <g id="Icons-/-Facebook" transform="translate(1170.000000, 178.000000)">
                        <path d="M9.08025082,17 L0.938269497,17 C0.419925732,17 0,16.5798137 0,16.0616718 L0,0.938262216 C0,0.419988437 0.419991696,0 0.938269497,0 L16.0617965,0 C16.5799423,0 17,0.419988437 17,0.938262216 L17,16.0616718 C17,16.5798796 16.5798764,17 16.0617965,17 L11.729754,17 L11.729754,10.4166631 L13.9394762,10.4166631 L14.2703508,7.85101991 L11.729754,7.85101991 L11.729754,6.21301883 C11.729754,5.47020592 11.9360228,4.96400343 13.0012068,4.96400343 L14.3597978,4.96340976 L14.3597978,2.6686779 C14.1248346,2.63741129 13.3183608,2.56755614 12.3800913,2.56755614 C10.4212955,2.56755614 9.08025082,3.76320721 9.08025082,5.95892813 L9.08025082,7.85101991 L6.86485564,7.85101991 L6.86485564,10.4166631 L9.08025082,10.4166631 L9.08025082,17 L9.08025082,17 Z"></path>
                    </g>
                </g>
            </g>
        </g>
    </g>
</svg>