<?xml version="1.0" encoding="UTF-8"?>
<svg width="15px" height="15px" viewBox="0 0 15 15" version="1.1" xmlns="http://www.w3.org/2000/svg" xmlns:xlink="http://www.w3.org/1999/xlink">
    <!-- Generator: sketchtool 52.4 (67378) - http://www.bohemiancoding.com/sketch -->
    <title>431DD600-D9FB-4C84-BA4B-A0A1D4373ECE-color</title>
    <desc>Created with sketchtool.</desc>
    <g id="Design" stroke="none" stroke-width="1" fill="none" fill-rule="evenodd">
        <g id="5a-Newz" transform="translate(-1254.000000, -523.000000)" fill="#FFFFFF">
            <g id="Cover" transform="translate(406.000000, 180.000000)">
                <path d="M856.011986,358 L848.827885,358 C848.370523,358 848,357.629247 848,357.172063 L848,343.827878 C848,343.370578 848.370581,343 848.827885,343 L862.172173,343 C862.629361,343 863,343.370578 863,343.827878 L863,357.172063 C863,357.629306 862.629303,358 862.172173,358 L858.349783,358 L858.349783,352.191173 L860.299538,352.191173 L860.591486,349.927371 L858.349783,349.927371 L858.349783,348.482075 C858.349783,347.826652 858.531785,347.380003 859.471653,347.380003 L860.67041,347.379479 L860.67041,345.354716 C860.463089,345.327128 859.751495,345.265491 858.92361,345.265491 C857.195261,345.265491 856.011986,346.320477 856.011986,348.257878 L856.011986,349.927371 L854.057226,349.927371 L854.057226,352.191173 L856.011986,352.191173 L856.011986,358 L856.011986,358 Z" id="Icons-/-Facebook"></path>
            </g>
        </g>
    </g>
</svg>