<?xml version="1.0" encoding="UTF-8"?>
<svg width="15px" height="15px" viewBox="0 0 15 15" version="1.1" xmlns="http://www.w3.org/2000/svg" xmlns:xlink="http://www.w3.org/1999/xlink">
    <!-- Generator: sketchtool 52.4 (67378) - http://www.bohemiancoding.com/sketch -->
    <title>5A3148BA-F5BF-4071-9A22-11D8DA60C814-color</title>
    <desc>Created with sketchtool.</desc>
    <g id="Design" stroke="none" stroke-width="1" fill="none" fill-rule="evenodd">
        <g id="5a-Newz" transform="translate(-1314.000000, -523.000000)" fill="#FFFFFF">
            <g id="Cover" transform="translate(406.000000, 180.000000)">
                <path d="M915.500015,343 C917.536878,343 917.792286,343.008634 918.59224,343.045133 C919.390528,343.081544 919.93573,343.20834 920.412785,343.393755 C920.905976,343.585393 921.324233,343.841843 921.74121,344.25879 C922.158157,344.675767 922.414607,345.094024 922.606275,345.587215 C922.79166,346.06427 922.918456,346.609472 922.954867,347.40776 C922.991366,348.207714 923,348.463122 923,350.500015 C923,352.536878 922.991366,352.792286 922.954867,353.59224 C922.918456,354.390528 922.79166,354.93573 922.606275,355.412785 C922.414607,355.905976 922.158157,356.324233 921.74121,356.74121 C921.324233,357.158157 920.905976,357.414607 920.412785,357.606275 C919.93573,357.79166 919.390528,357.918456 918.59224,357.954867 C917.792286,357.991366 917.536878,358 915.500015,358 C913.463122,358 913.207714,357.991366 912.40776,357.954867 C911.609472,357.918456 911.06427,357.79166 910.587215,357.606275 C910.094024,357.414607 909.675767,357.158157 909.25879,356.74121 C908.841843,356.324233 908.585393,355.905976 908.393755,355.412785 C908.20834,354.93573 908.081544,354.390528 908.045133,353.59224 C908.008634,352.792286 908,352.536878 908,350.500015 C908,348.463122 908.008634,348.207714 908.045133,347.40776 C908.081544,346.609472 908.20834,346.06427 908.393755,345.587215 C908.585393,345.094024 908.841843,344.675767 909.25879,344.25879 C909.675767,343.841843 910.094024,343.585393 910.587215,343.393755 C911.06427,343.20834 911.609472,343.081544 912.40776,343.045133 C913.207714,343.008634 913.463122,343 915.500015,343 Z M915.500015,344.351349 C913.497419,344.351349 913.260201,344.359 912.469356,344.395083 C911.738114,344.428427 911.340994,344.550608 911.076715,344.653319 C910.726634,344.789374 910.476793,344.951896 910.214359,345.214359 C909.951896,345.476793 909.789374,345.726634 909.653319,346.076715 C909.550608,346.340994 909.428427,346.738114 909.395083,347.469356 C909.359,348.260201 909.351349,348.497419 909.351349,350.500015 C909.351349,352.502581 909.359,352.739799 909.395083,353.530644 C909.428427,354.261886 909.550608,354.659006 909.653319,354.923285 C909.789374,355.273366 909.951925,355.523207 910.214359,355.785641 C910.476793,356.048104 910.726634,356.210626 911.076715,356.346681 C911.340994,356.449392 911.738114,356.571573 912.469356,356.604917 C913.260112,356.641 913.49727,356.648651 915.500015,356.648651 C917.50273,356.648651 917.739918,356.641 918.530644,356.604917 C919.261886,356.571573 919.659006,356.449392 919.923285,356.346681 C920.273366,356.210626 920.523207,356.048104 920.785641,355.785641 C921.048104,355.523207 921.210626,355.273366 921.346681,354.923285 C921.449392,354.659006 921.571573,354.261886 921.604917,353.530644 C921.641,352.739799 921.648651,352.502581 921.648651,350.500015 C921.648651,348.497419 921.641,348.260201 921.604917,347.469356 C921.571573,346.738114 921.449392,346.340994 921.346681,346.076715 C921.210626,345.726634 921.048104,345.476793 920.785641,345.214359 C920.523207,344.951896 920.273366,344.789374 919.923285,344.653319 C919.659006,344.550608 919.261886,344.428427 918.530644,344.395083 C917.739799,344.359 917.502581,344.351349 915.500015,344.351349 Z M915.500015,346.648651 C917.627055,346.648651 919.351349,348.372945 919.351349,350.500015 C919.351349,352.627055 917.627055,354.351349 915.500015,354.351349 C913.372945,354.351349 911.648651,352.627055 911.648651,350.500015 C911.648651,348.372945 913.372945,346.648651 915.500015,346.648651 Z M915.500015,353 C916.880718,353 918,351.880718 918,350.500015 C918,349.119282 916.880718,348 915.500015,348 C914.119282,348 913,349.119282 913,350.500015 C913,351.880718 914.119282,353 915.500015,353 Z M920.403526,346.49649 C920.403526,346.993552 920.000572,347.396476 919.50351,347.396476 C919.006478,347.396476 918.603524,346.993552 918.603524,346.49649 C918.603524,345.999428 919.006478,345.596474 919.50351,345.596474 C920.000572,345.596474 920.403526,345.999428 920.403526,346.49649 Z" id="Instagram"></path>
            </g>
        </g>
    </g>
</svg>