<?xml version="1.0" encoding="UTF-8"?>
<svg width="16px" height="15px" viewBox="0 0 16 15" version="1.1" xmlns="http://www.w3.org/2000/svg" xmlns:xlink="http://www.w3.org/1999/xlink">
    <!-- Generator: sketchtool 52.4 (67378) - http://www.bohemiancoding.com/sketch -->
    <title>A60CBF5A-91AC-41D8-A1BB-4BF17DF6D8D9-color</title>
    <desc>Created with sketchtool.</desc>
    <g id="Design" stroke="none" stroke-width="1" fill="none" fill-rule="evenodd">
        <g id="5a-Newz" transform="translate(-1296.000000, -895.000000)" fill="#007EBB">
            <g id="Content" transform="translate(122.000000, 600.000000)">
                <g id="1" transform="translate(1.000000, 0.000000)">
                    <path d="M1189,310 L1185.46378,310 L1185.46378,304.7269 C1185.46378,303.346673 1184.91063,302.404431 1183.69426,302.404431 C1182.76388,302.404431 1182.24647,303.040277 1182.00564,303.65307 C1181.91533,303.873023 1181.92944,304.17942 1181.92944,304.485817 L1181.92944,310 L1178.42615,310 C1178.42615,310 1178.47131,300.659218 1178.42615,299.810143 L1181.92944,299.810143 L1181.92944,301.409362 C1182.13641,300.710124 1183.25588,299.712173 1185.04233,299.712173 C1187.2587,299.712173 1189,301.177883 1189,304.334059 L1189,310 L1189,310 Z M1174.88335,298.53557 L1174.86077,298.53557 C1173.73189,298.53557 1173,297.756611 1173,296.769226 C1173,295.76263 1173.75353,295 1174.90499,295 C1176.0555,295 1176.76294,295.760709 1176.78551,296.766344 C1176.78551,297.75373 1176.0555,298.53557 1174.88335,298.53557 L1174.88335,298.53557 L1174.88335,298.53557 Z M1173.40357,299.810143 L1176.52211,299.810143 L1176.52211,310 L1173.40357,310 L1173.40357,299.810143 L1173.40357,299.810143 Z" id="LinkedIn"></path>
                </g>
            </g>
        </g>
    </g>
</svg>