<?xml version="1.0" encoding="UTF-8"?>
<svg width="16px" height="15px" viewBox="0 0 16 15" version="1.1" xmlns="http://www.w3.org/2000/svg" xmlns:xlink="http://www.w3.org/1999/xlink">
    <!-- Generator: sketchtool 52.4 (67378) - http://www.bohemiancoding.com/sketch -->
    <title>6D308D65-FAF3-4AA6-8AB8-94C4F69DB54B-color</title>
    <desc>Created with sketchtool.</desc>
    <g id="Design" stroke="none" stroke-width="1" fill="none" fill-rule="evenodd">
        <g id="5a-Newz" transform="translate(-1344.000000, -523.000000)" fill="#FFFFFF">
            <g id="Cover" transform="translate(406.000000, 180.000000)">
                <g id="LinkedIn" transform="translate(938.000000, 343.000000)">
                    <path d="M16,15 L12.4637817,15 L12.4637817,9.72690017 C12.4637817,8.3466735 11.9106303,7.40443107 10.6942615,7.40443107 C9.76387582,7.40443107 9.24647225,8.04027662 9.0056444,8.65307037 C8.91533396,8.87302299 8.92944497,9.17941986 8.92944497,9.48581674 L8.92944497,15 L5.4261524,15 C5.4261524,15 5.47130762,5.65921752 5.4261524,4.81014279 L8.92944497,4.81014279 L8.92944497,6.40936159 C9.1364064,5.71012358 10.2558796,4.71217263 12.042333,4.71217263 C14.2587018,4.71217263 16,6.17788308 16,9.33405904 L16,15 L16,15 Z M1.88334901,3.53557021 L1.8607714,3.53557021 C0.731890875,3.53557021 0,2.75661139 0,1.76922584 C0,0.762630467 0.753527752,0 1.90498589,0 C3.05550329,0 3.76293509,0.760709483 3.7855127,1.76634437 C3.7855127,2.75372991 3.05550329,3.53557021 1.88334901,3.53557021 L1.88334901,3.53557021 L1.88334901,3.53557021 Z M0.403574788,4.81014279 L3.52210724,4.81014279 L3.52210724,15 L0.403574788,15 L0.403574788,4.81014279 L0.403574788,4.81014279 Z"></path>
                </g>
            </g>
        </g>
    </g>
</svg>