<?xml version="1.0" encoding="UTF-8"?>
<svg width="15px" height="13px" viewBox="0 0 15 13" version="1.1" xmlns="http://www.w3.org/2000/svg" xmlns:xlink="http://www.w3.org/1999/xlink">
    <!-- Generator: sketchtool 52.4 (67378) - http://www.bohemiancoding.com/sketch -->
    <title>08A41332-EE40-4893-AC33-8679B1D887A5-color</title>
    <desc>Created with sketchtool.</desc>
    <g id="Design" stroke="none" stroke-width="1" fill="none" fill-rule="evenodd">
        <g id="5a-Newz" transform="translate(-1284.000000, -524.000000)" fill="#FFFFFF">
            <g id="Cover" transform="translate(406.000000, 180.000000)">
                <path d="M893,345.538967 C892.448847,345.8 891.855432,345.976526 891.232964,346.055399 C891.868639,345.649765 892.356401,345.006573 892.586195,344.240376 C891.99102,344.615962 891.333333,344.889202 890.630745,345.035681 C890.070787,344.398122 889.27047,344 888.384751,344 C886.686388,344 885.308505,345.469484 885.308505,347.28169 C885.308505,347.538967 885.334918,347.788732 885.387744,348.029108 C882.830076,347.892019 880.562951,346.586854 879.044198,344.599061 C878.779186,345.085446 878.627751,345.649765 878.627751,346.250704 C878.627751,347.388732 879.170981,348.393427 879.99683,348.98216 C879.493221,348.966197 879.017785,348.816901 878.602219,348.57277 L878.602219,348.613146 C878.602219,350.203756 879.663145,351.530516 881.071844,351.830986 C880.813876,351.907981 880.541821,351.946479 880.260961,351.946479 C880.062863,351.946479 879.869167,351.926761 879.681634,351.888263 C880.073428,353.191549 881.209192,354.140845 882.55626,354.166197 C881.503258,355.046948 880.175559,355.571831 878.734284,355.571831 C878.486001,355.571831 878.240359,355.556808 878,355.526761 C879.362036,356.456338 880.980278,357 882.71738,357 C888.378588,357 891.473323,352 891.473323,347.662911 C891.473323,347.520188 891.470681,347.377465 891.465399,347.237559 C892.066737,346.774648 892.588836,346.197183 893,345.538967" id="Twitter"></path>
            </g>
        </g>
    </g>
</svg>