<svg xmlns:dc="http://purl.org/dc/elements/1.1/" xmlns:cc="http://creativecommons.org/ns#" xmlns:rdf="http://www.w3.org/1999/02/22-rdf-syntax-ns#" xmlns:svg="http://www.w3.org/2000/svg" xmlns="http://www.w3.org/2000/svg" xmlns:sodipodi="http://sodipodi.sourceforge.net/DTD/sodipodi-0.dtd" xmlns:inkscape="http://www.inkscape.org/namespaces/inkscape" version="1.1" x="0px" y="0px" viewBox="0 0 100 100">
	<g transform="translate(0,-952.36218)">
		<path d="m 39.966533,959.21134 c -18.7525,0 -33.9688003,15.25071 -33.9688003,34 0,18.75876 15.2171003,34.00006 33.9688003,34.00006 9.0955,0 17.394,-3.5776 23.5,-9.4063 l 27.0937,27.0938 a 2.000005,2.000005 0 1 0 2.8437,-2.8125 l -27.25,-27.2188 c 4.8871,-5.8884 7.8438,-13.4178 7.8438,-21.65626 0,-18.74928 -15.2693,-34 -34.0312,-34 z m 0,4 c 16.6006,0 30.0312,13.41238 30.0312,30 0,16.59836 -13.4299,30.00006 -30.0312,30.00006 -16.5908,0 -29.9688003,-13.4017 -29.9688003,-30.00006 0,-16.58761 13.3789003,-30 29.9688003,-30 z" fill="#38467A" fill-opacity="1" fill-rule="evenodd" stroke="none" marker="none" visibility="visible" display="inline" overflow="visible"/>
	</g>
</svg>