<?xml version="1.0" encoding="UTF-8"?>
<svg width="17px" height="14px" viewBox="0 0 17 14" version="1.1" xmlns="http://www.w3.org/2000/svg" xmlns:xlink="http://www.w3.org/1999/xlink">
    <!-- Generator: sketchtool 52.4 (67378) - http://www.bohemiancoding.com/sketch -->
    <title>A9A6FBC2-838A-4E1F-8E67-4A6CAD409116-color</title>
    <desc>Created with sketchtool.</desc>
    <g id="Design" stroke="none" stroke-width="1" fill="none" fill-rule="evenodd">
        <g id="5a-Newz" transform="translate(-1293.000000, -818.000000)" fill="#00AAEC">
            <g id="Content" transform="translate(122.000000, 600.000000)">
                <g id="1" transform="translate(1.000000, 0.000000)">
                    <g id="Twitter" transform="translate(1170.000000, 218.000000)">
                        <path d="M17,1.65734922 C16.3753595,1.93846154 15.7028233,2.12856627 14.9973587,2.21350668 C15.7177907,1.77667028 16.2705875,1.08400144 16.5310207,0.258866017 C15.8564888,0.663344168 15.1111111,0.957602022 14.3148442,1.1153485 C13.6802254,0.42874684 12.7731995,0 11.7693843,0 C9.84457358,0 8.28297235,1.58252077 8.28297235,3.53412784 C8.28297235,3.81119538 8.3129072,4.08017335 8.3727769,4.33903936 C5.47408581,4.19140484 2.90467805,2.78584326 1.18342431,0.645142651 C0.883078007,1.16894186 0.711451547,1.77667028 0.711451547,2.42383532 C0.711451547,3.64940412 1.32711158,4.73138317 2.26307448,5.36540267 C1.69231672,5.34821235 1.15348946,5.18743229 0.682514527,4.92452149 L0.682514527,4.96800289 C0.682514527,6.68096786 1.88489758,8.10978693 3.48142279,8.43336945 C3.18905911,8.51628747 2.88073018,8.55774648 2.56242296,8.55774648 C2.3379116,8.55774648 2.11838939,8.53651138 1.90585197,8.49505237 C2.34988554,9.89859155 3.63708399,10.9209101 5.16376123,10.9482124 C3.97035863,11.8967136 2.46563362,12.4619718 0.832188766,12.4619718 C0.550801197,12.4619718 0.272407114,12.4457927 0,12.4134345 C1.54364031,13.4145179 3.37764865,14 5.3463638,14 C11.7623995,14 15.2697658,8.61538462 15.2697658,3.94467317 C15.2697658,3.79097147 15.2667723,3.63726977 15.2607853,3.48660166 C15.942302,2.98808234 16.5340142,2.36619718 17,1.65734922"></path>
                    </g>
                </g>
            </g>
        </g>
    </g>
</svg>