<?xml version="1.0" encoding="UTF-8"?>
<svg width="18px" height="16px" viewBox="0 0 18 16" version="1.1" xmlns="http://www.w3.org/2000/svg" xmlns:xlink="http://www.w3.org/1999/xlink">
    <!-- Generator: sketchtool 52.4 (67378) - http://www.bohemiancoding.com/sketch -->
    <title>AC5AE4D6-0FC6-4FA4-8526-94ABECB961BE@1x</title>
    <desc>Created with sketchtool.</desc>
    <g id="Design" stroke="none" stroke-width="1" fill="none" fill-rule="evenodd">
        <g id="1a-Home" transform="translate(-1130.000000, -4696.000000)" fill="#232C4C">
            <g id="Footer" transform="translate(147.000000, 4583.000000)">
                <g id="Social">
                    <g transform="translate(983.000000, 113.000000)">
                        <path d="M18,16 L14.0217545,16 L14.0217545,10.3753602 C14.0217545,8.9031184 13.3994591,7.89805981 12.0310442,7.89805981 C10.9843603,7.89805981 10.4022813,8.57629506 10.13135,9.22994173 C10.0297507,9.46455785 10.0456256,9.79138119 10.0456256,10.1182045 L10.0456256,16 L6.10442145,16 C6.10442145,16 6.15522107,6.03649869 6.10442145,5.13081898 L10.0456256,5.13081898 L10.0456256,6.83665237 C10.2784572,6.09079849 11.5378645,5.02631747 13.5476246,5.02631747 C16.0410395,5.02631747 18,6.58974195 18,9.95632964 L18,16 L18,16 Z M2.11876764,3.77127489 L2.09336783,3.77127489 C0.823377234,3.77127489 0,2.94038548 0,1.88717423 C0,0.813472498 0.847718721,0 2.14310913,0 C3.4374412,0 4.23330198,0.811423449 4.25870179,1.88410066 C4.25870179,2.9373119 3.4374412,3.77127489 2.11876764,3.77127489 L2.11876764,3.77127489 L2.11876764,3.77127489 Z M0.454021637,5.13081898 L3.96237065,5.13081898 L3.96237065,16 L0.454021637,16 L0.454021637,5.13081898 L0.454021637,5.13081898 Z" id="LinkedIn"></path>
                    </g>
                </g>
            </g>
        </g>
    </g>
</svg>