<svg xmlns="http://www.w3.org/2000/svg" viewBox="0 0 176 51"><defs><linearGradient id="a" x1="50%" x2="50%" y1="-9.033%" y2="131.04%"><stop offset="0%" stop-color="#FFB242"/><stop offset="22.27%" stop-color="#D955FF"/><stop offset="60.49%" stop-color="#562FFD"/><stop offset="76.327%" stop-color="#562FFD"/><stop offset="100%" stop-color="#489BFF"/></linearGradient><linearGradient id="b" x1="100%" x2="15.328%" y1="100%" y2="0%"><stop offset="0%" stop-color="#EA46A1"/><stop offset="100%" stop-color="#FFD656"/></linearGradient><linearGradient id="c" x1="6.237%" x2="107.065%" y1="83.48%" y2="23.529%"><stop offset="0%" stop-color="#562FFD"/><stop offset="74.366%" stop-color="#4897FF"/><stop offset="100%" stop-color="#48D3FF"/></linearGradient></defs><g fill="none" fill-rule="evenodd"><path fill="#232C4C" d="M29.932 25.908a3.268 3.268 0 0 0-.827-.867l-.051-.051h-.052c-.052-.051-.103-.102-.207-.102 0 0-.052 0-.052-.051-1.55-.918-3.514-.561-4.6.867L9.62 45.441c-1.137 1.53-.775 3.723.776 4.845l.051.051c1.551 1.122 3.774.765 4.91-.765l11.63-15.81 11.63 15.81c1.137 1.53 3.36 1.887 4.91.765 1.55-1.122 1.912-3.315.775-4.845L29.932 25.908z"/><path fill="url(#a)" d="M30.5 3.468V17.34c0 1.938-1.601 3.468-3.514 3.468-1.964 0-3.515-1.581-3.515-3.468V3.468C23.471 1.53 25.074 0 26.986 0c1.913 0 3.515 1.581 3.515 3.468z"/><path fill="url(#b)" fill-rule="nonzero" d="M4.606 16.983l13.387 4.284a3.501 3.501 0 0 1 2.274 4.386c-.62 1.836-2.584 2.805-4.445 2.244L2.435 23.562a3.501 3.501 0 0 1-2.274-4.386 3.54 3.54 0 0 1 4.445-2.193z"/><path fill="url(#c)" fill-rule="nonzero" d="M51.486 23.562l-13.387 4.284c-1.86.612-3.825-.408-4.445-2.244-.62-1.836.413-3.774 2.274-4.386l13.387-4.284c1.86-.612 3.825.408 4.445 2.244.62 1.836-.414 3.825-2.274 4.386z"/><g fill="#232C4C"><path d="M66.35 35.599c-.5-.353-.85-1.01-.85-1.717 0-1.161.95-2.07 2.1-2.07.6 0 1 .202 1.3.404 2.1 1.666 4.35 2.626 7.1 2.626s4.5-1.313 4.5-3.232v-.05c0-1.818-1-2.828-5.7-3.889-5.4-1.313-8.45-2.928-8.45-7.624v-.051c0-4.393 3.6-7.423 8.65-7.423 3.2 0 5.75.859 8.05 2.374.5.303 1 .908 1 1.767 0 1.161-.95 2.07-2.1 2.07-.45 0-.8-.1-1.15-.353-1.95-1.263-3.85-1.92-5.8-1.92-2.6 0-4.1 1.364-4.1 3.03v.051c0 1.97 1.15 2.828 6.05 4.04 5.35 1.313 8.1 3.231 8.1 7.473v.05c0 4.797-3.75 7.625-9.05 7.625-3.6.05-6.85-1.06-9.65-3.181zM89.1 13.785c0-1.212.95-2.171 2.15-2.171 1.25 0 2.2 1.01 2.2 2.171v14.24l8.2-8.13c.6-.606 1.1-.96 1.9-.96 1.15 0 1.9.96 1.9 2.02 0 .707-.35 1.263-1 1.869L99.4 27.52l5.8 7.625c.4.555.6.959.6 1.464 0 1.212-.95 2.02-2.05 2.02-.85 0-1.35-.303-1.9-1.01l-5.5-7.322-2.9 2.777v3.383c0 1.263-1 2.172-2.2 2.172-1.2 0-2.15-.96-2.15-2.172V13.785z"/><path fill-rule="nonzero" d="M117.55 38.881c-5.55 0-9.8-4.04-9.8-9.998v-.05c0-5.504 3.85-10.049 9.35-10.049 6.1 0 9.1 5.05 9.1 9.493 0 1.263-.95 2.121-2.05 2.121H112.2c.45 3.13 2.7 4.898 5.5 4.898 1.85 0 3.3-.656 4.5-1.666.35-.253.6-.404 1.1-.404 1 0 1.75.757 1.75 1.767 0 .556-.25 1.01-.6 1.363-1.8 1.566-3.95 2.525-6.9 2.525zm4.3-11.412c-.3-2.827-1.95-5.1-4.85-5.1-2.7 0-4.55 2.07-4.95 5.1h9.8zM138.65 38.881c-5.55 0-9.8-4.04-9.8-9.998v-.05c0-5.504 3.85-10.049 9.35-10.049 6.1 0 9.1 5.05 9.1 9.493 0 1.263-.95 2.121-2.05 2.121H133.3c.45 3.13 2.7 4.898 5.5 4.898 1.85 0 3.3-.656 4.5-1.666.35-.253.6-.404 1.1-.404 1 0 1.75.757 1.75 1.767 0 .556-.25 1.01-.6 1.363-1.75 1.566-3.95 2.525-6.9 2.525zM143 27.47c-.3-2.827-1.95-5.1-4.85-5.1-2.7 0-4.55 2.07-4.95 5.1h9.8z"/><path d="M151.25 13.785c0-1.212.95-2.171 2.15-2.171 1.25 0 2.2 1.01 2.2 2.171v22.672c0 1.263-1 2.172-2.2 2.172-1.2 0-2.15-.96-2.15-2.172V13.785zM159 36.66v-.051c0-.859.3-1.363 1-2.12l10.15-11.665h-9c-1 0-1.8-.808-1.8-1.768 0-1.01.8-1.817 1.8-1.817h12.6c1.2 0 2.1.707 2.1 1.767v.1c0 .86-.3 1.364-.95 2.122l-10.25 11.614h9.4c1 0 1.8.808 1.8 1.817 0 1.01-.8 1.768-1.8 1.768H161.1c-1.2 0-2.1-.758-2.1-1.768z"/></g><g fill="#232C4C"><path fill-rule="nonzero" d="M66.75 44.79c0-.304.25-.556.55-.556h1.9c1.5 0 2.4.858 2.4 2.12 0 1.414-1.15 2.172-2.5 2.172h-1.25v1.515c0 .303-.25.555-.55.555-.3 0-.55-.252-.55-.555v-5.252zm2.4 2.726c.85 0 1.35-.455 1.35-1.111 0-.757-.55-1.11-1.35-1.11h-1.3v2.271h1.3v-.05z"/><path d="M75.45 50.04v-5.25c0-.304.25-.556.55-.556h3.65c.25 0 .5.202.5.505s-.25.505-.5.505h-3.1v1.666h2.7c.25 0 .5.202.5.505 0 .252-.25.505-.5.505h-2.7v1.717h3.15c.25 0 .5.202.5.505s-.2.505-.5.505H76c-.3-.051-.55-.303-.55-.606z"/><path fill-rule="nonzero" d="M83.75 47.415c0-1.818 1.35-3.282 3.3-3.282 1.95 0 3.3 1.464 3.3 3.282 0 1.767-1.35 3.282-3.3 3.282-1.95 0-3.3-1.464-3.3-3.282zm5.45 0c0-1.263-.9-2.272-2.15-2.272s-2.1 1.01-2.1 2.221c0 1.212.9 2.273 2.15 2.273 1.2 0 2.1-.96 2.1-2.222zM94.4 44.79c0-.304.25-.556.55-.556h1.9c1.5 0 2.4.858 2.4 2.12 0 1.414-1.15 2.172-2.5 2.172H95.5v1.515c0 .303-.25.555-.55.555-.3 0-.55-.252-.55-.555v-5.252zm2.4 2.726c.85 0 1.35-.455 1.35-1.111 0-.757-.55-1.11-1.35-1.11h-1.3v2.271h1.3v-.05z"/><path d="M103.1 44.739c0-.303.25-.556.55-.556.3 0 .55.253.55.556v4.847h2.85c.3 0 .5.202.5.505s-.2.505-.5.505h-3.4c-.3 0-.55-.252-.55-.555v-5.302zM111.3 50.04v-5.25c0-.304.25-.556.55-.556h3.65c.25 0 .5.202.5.505s-.25.505-.5.505h-3.1v1.666h2.7c.25 0 .5.202.5.505 0 .252-.2.505-.5.505h-2.7v1.717h3.15c.25 0 .5.202.5.505s-.2.505-.5.505h-3.7c-.3-.051-.55-.303-.55-.606zM125.45 44.739c0-.303.25-.556.55-.556h.1c.25 0 .4.152.5.303l1.9 3.03 1.9-3.03a.55.55 0 0 1 .5-.303h.1c.3 0 .55.253.55.556v5.302c0 .303-.25.555-.55.555-.3 0-.55-.252-.55-.555v-3.838l-1.55 2.323c-.1.202-.25.303-.45.303s-.35-.101-.45-.303l-1.55-2.323v3.787c0 .303-.25.556-.55.556-.3 0-.55-.253-.55-.556V44.74h.1z"/><path fill-rule="nonzero" d="M135.5 49.839l2.35-5.252c.15-.303.35-.454.65-.454h.05c.3 0 .55.151.65.454l2.35 5.252a.46.46 0 0 1 .05.252c0 .303-.25.556-.5.556s-.45-.152-.55-.404l-.5-1.212H137l-.55 1.212c-.1.202-.3.353-.5.353-.3 0-.5-.202-.5-.505 0-.05 0-.151.05-.252zm4.15-1.768l-1.1-2.575-1.1 2.575h2.2z"/><path d="M146.2 45.244h-1.55c-.3 0-.5-.253-.5-.505 0-.253.2-.505.5-.505h4.2c.3 0 .5.252.5.505 0 .252-.25.505-.5.505h-1.55v4.797c0 .303-.25.555-.55.555-.3 0-.55-.252-.55-.555v-4.797zM154.9 45.244h-1.55c-.3 0-.5-.253-.5-.505 0-.253.2-.505.5-.505h4.2c.3 0 .5.252.5.505 0 .252-.25.505-.5.505H156v4.797c0 .303-.25.555-.55.555-.3 0-.55-.252-.55-.555v-4.797zM161.85 50.04v-5.25c0-.304.25-.556.55-.556h3.65c.25 0 .5.202.5.505s-.25.505-.5.505h-3.1v1.666h2.7c.25 0 .5.202.5.505 0 .252-.2.505-.5.505h-2.7v1.717h3.15c.25 0 .5.202.5.505s-.2.505-.5.505h-3.7c-.3-.051-.55-.303-.55-.606z"/><path fill-rule="nonzero" d="M170.55 44.79c0-.304.25-.556.55-.556h2.25c.8 0 1.4.252 1.8.656.35.354.5.808.5 1.363 0 1.01-.6 1.616-1.45 1.92l1.2 1.514c.1.152.2.253.2.404 0 .303-.25.505-.55.505-.25 0-.4-.101-.55-.303l-1.55-1.97h-1.4v1.718c0 .303-.25.555-.55.555-.3 0-.55-.252-.55-.555v-5.252h.1zm2.75 2.574c.8 0 1.3-.404 1.3-1.06s-.5-1.06-1.3-1.06h-1.6v2.12h1.6z"/></g></g></svg>