<svg xmlns="http://www.w3.org/2000/svg" viewBox="0 0 132 37"><g fill="#FFF" fill-rule="evenodd"><path d="M22.07 18.796a2.37 2.37 0 0 0-.599-.629l-.037-.037h-.038c-.037-.037-.075-.074-.15-.074 0 0-.037 0-.037-.037-1.124-.666-2.548-.407-3.335.629L7.344 32.967c-.824 1.11-.562 2.701.563 3.515l.037.037c1.124.814 2.735.555 3.56-.555l8.431-11.47 8.431 11.47c.825 1.11 2.436 1.369 3.56.555s1.386-2.405.562-3.515L22.071 18.796zM22.483 2.516V12.58c0 1.406-1.162 2.516-2.548 2.516-1.424 0-2.548-1.147-2.548-2.516V2.516C17.387 1.11 18.549 0 19.935 0c1.386 0 2.548 1.147 2.548 2.516zM3.71 12.321l9.705 3.108a2.54 2.54 0 0 1 1.649 3.182c-.45 1.332-1.874 2.035-3.223 1.628l-9.705-3.145a2.54 2.54 0 0 1-1.649-3.182 2.566 2.566 0 0 1 3.223-1.591zM37.697 17.094l-9.706 3.108a2.556 2.556 0 0 1-3.222-1.628c-.45-1.332.3-2.738 1.649-3.182l9.705-3.108a2.556 2.556 0 0 1 3.222 1.628 2.496 2.496 0 0 1-1.648 3.182zM49.725 26.085c-.375-.259-.637-.74-.637-1.258 0-.851.712-1.517 1.574-1.517.45 0 .75.148.974.296 1.574 1.221 3.26 1.924 5.321 1.924s3.373-.962 3.373-2.368v-.037c0-1.332-.75-2.072-4.272-2.849-4.047-.962-6.333-2.146-6.333-5.587v-.037c0-3.219 2.698-5.439 6.483-5.439 2.398 0 4.309.629 6.033 1.739.374.222.75.666.75 1.295 0 .851-.713 1.517-1.575 1.517-.337 0-.6-.074-.862-.259-1.46-.925-2.885-1.406-4.346-1.406-1.949 0-3.073.999-3.073 2.22v.037c0 1.443.862 2.072 4.534 2.96 4.01.962 6.07 2.368 6.07 5.476v.037c0 3.515-2.81 5.587-6.782 5.587a11.65 11.65 0 0 1-7.232-2.331zM66.775 10.101a1.59 1.59 0 0 1 1.611-1.591c.937 0 1.649.74 1.649 1.591v10.434l6.145-5.957c.45-.444.825-.703 1.424-.703.862 0 1.424.703 1.424 1.48 0 .518-.262.925-.75 1.369l-3.784 3.441 4.347 5.587c.3.407.45.703.45 1.073 0 .888-.713 1.48-1.537 1.48-.637 0-1.012-.222-1.424-.74L72.208 22.2l-2.173 2.035v2.479c0 .925-.75 1.591-1.649 1.591a1.59 1.59 0 0 1-1.611-1.591V10.101z"/><path fill-rule="nonzero" d="M88.096 28.49c-4.16 0-7.344-2.96-7.344-7.326v-.037c0-4.033 2.885-7.363 7.007-7.363 4.572 0 6.82 3.7 6.82 6.956 0 .925-.712 1.554-1.536 1.554h-8.956c.337 2.294 2.023 3.589 4.122 3.589 1.386 0 2.473-.481 3.372-1.221.262-.185.45-.296.825-.296.749 0 1.311.555 1.311 1.295 0 .407-.187.74-.45.999-1.349 1.147-2.96 1.85-5.17 1.85zm3.223-8.362c-.225-2.072-1.462-3.737-3.635-3.737-2.023 0-3.41 1.517-3.71 3.737h7.345zM103.91 28.49c-4.16 0-7.345-2.96-7.345-7.326v-.037c0-4.033 2.885-7.363 7.007-7.363 4.572 0 6.82 3.7 6.82 6.956 0 .925-.712 1.554-1.536 1.554H99.9c.337 2.294 2.023 3.589 4.122 3.589 1.386 0 2.473-.481 3.372-1.221.263-.185.45-.296.825-.296.75 0 1.311.555 1.311 1.295 0 .407-.187.74-.45.999-1.311 1.147-2.96 1.85-5.17 1.85zm3.26-8.362c-.225-2.072-1.462-3.737-3.635-3.737-2.024 0-3.41 1.517-3.71 3.737h7.344z"/><path d="M113.352 10.101a1.59 1.59 0 0 1 1.612-1.591c.936 0 1.648.74 1.648 1.591v16.613c0 .925-.75 1.591-1.648 1.591a1.59 1.59 0 0 1-1.612-1.591V10.101zM119.16 26.862v-.037c0-.629.225-.999.75-1.554l7.607-8.547h-6.745c-.75 0-1.35-.592-1.35-1.295 0-.74.6-1.332 1.35-1.332h9.443c.899 0 1.573.518 1.573 1.295v.074c0 .629-.224.999-.712 1.554l-7.681 8.51h7.044c.75 0 1.35.592 1.35 1.332 0 .74-.6 1.295-1.35 1.295h-9.705c-.9 0-1.574-.555-1.574-1.295z"/></g></svg>