<?xml version="1.0" encoding="UTF-8"?>
<svg width="60px" height="60px" viewBox="0 0 60 60" version="1.1" xmlns="http://www.w3.org/2000/svg" xmlns:xlink="http://www.w3.org/1999/xlink">
    <!-- Generator: sketchtool 52.4 (67378) - http://www.bohemiancoding.com/sketch -->
    <title>FA9FCAAA-26BA-4867-BBED-9DFEA80AF6AD@1x</title>
    <desc>Created with sketchtool.</desc>
    <defs>
        <linearGradient x1="-28.1327232%" y1="-26.5199794%" x2="109.312101%" y2="110.217767%" id="linearGradient-1">
            <stop stop-color="#FFA9BE" offset="0%"></stop>
            <stop stop-color="#E257FE" offset="21.9427384%"></stop>
            <stop stop-color="#562FFD" offset="69.4032247%"></stop>
            <stop stop-color="#562FFD" offset="100%"></stop>
        </linearGradient>
    </defs>
    <g id="Export" stroke="none" stroke-width="1" fill="none" fill-rule="evenodd">
        <g transform="translate(-1297.000000, -592.000000)" id="Icon10">
            <g transform="translate(1297.000000, 592.000000)">
                <circle id="Oval" fill="#FFFFFF" cx="30" cy="30" r="30"></circle>
                <path d="M34.75,19 C35.1642136,19 35.5,19.3357864 35.5,19.75 L35.5,20.25 C35.5,20.3880712 35.6119288,20.5 35.75,20.5 L36.25,20.5 C36.6642136,20.5 37,20.8357864 37,21.25 C37,21.6642136 36.6642136,22 36.25,22 L35.75,22 C35.6119288,22 35.5,22.1119288 35.5,22.25 L35.5,22.75 C35.5,23.1642136 35.1642136,23.5 34.75,23.5 C34.3357864,23.5 34,23.1642136 34,22.75 L34,22.25 C34,22.1119288 33.8880712,22 33.75,22 L33.25,22 C32.8357864,22 32.5,21.6642136 32.5,21.25 C32.5,20.8357864 32.8357864,20.5 33.25,20.5 L33.75,20.5 C33.8880712,20.5 34,20.3880712 34,20.25 L34,19.75 C34,19.3357864 34.3357864,19 34.75,19 Z M35.75,42.75 L29.255,42.75 C25.34,42.75 27.173,40.831 19.75,40.75 C19.4738576,40.75 19.25,40.5261424 19.25,40.25 L19.25,32.25 C19.25,31.9738576 19.4738576,31.75 19.75,31.75 L21.25,31.75 C25.4836219,31.5106176 28.7839682,27.9902482 28.75,23.75 C28.75,22.169 31.75,21.969 31.75,24.969 C31.6336013,26.7130062 31.350646,28.4418798 30.905,30.132 C30.8687561,30.2812363 30.9031046,30.4388503 30.9981585,30.559473 C31.0932123,30.6800958 31.238426,30.7503452 31.392,30.75 L38.75,30.75 C39.5784271,30.75 40.25,31.4215729 40.25,32.25 C40.25,33.0784271 39.5784271,33.75 38.75,33.75 L37.75,33.75 C38.5784271,33.75 39.25,34.4215729 39.25,35.25 C39.25,36.0784271 38.5784271,36.75 37.75,36.75 L36.75,36.75 C37.5784271,36.75 38.25,37.4215729 38.25,38.25 C38.25,39.0784271 37.5784271,39.75 36.75,39.75 L35.75,39.75 C36.5784271,39.75 37.25,40.4215729 37.25,41.25 C37.25,42.0784271 36.5784271,42.75 35.75,42.75 Z M42.5,26.75 C42.5,27.1642136 42.1642136,27.5 41.75,27.5 L41.25,27.5 C41.1119288,27.5 41,27.6119288 41,27.75 L41,28.25 C41,28.6642136 40.6642136,29 40.25,29 C39.8357864,29 39.5,28.6642136 39.5,28.25 L39.5,27.75 C39.5,27.6119288 39.3880712,27.5 39.25,27.5 L38.75,27.5 C38.3357864,27.5 38,27.1642136 38,26.75 C38,26.3357864 38.3357864,26 38.75,26 L39.25,26 C39.3880712,26 39.5,25.8880712 39.5,25.75 L39.5,25.25 C39.5,24.8357864 39.8357864,24.5 40.25,24.5 C40.6642136,24.5 41,24.8357864 41,25.25 L41,25.75 C41,25.8880712 41.1119288,26 41.25,26 L41.75,26 C42.1642136,26 42.5,26.3357864 42.5,26.75 Z M20.25,25.5 L19.75,25.5 C19.3357864,25.5 19,25.1642136 19,24.75 C19,24.3357864 19.3357864,24 19.75,24 L20.25,24 C20.3880712,24 20.5,23.8880712 20.5,23.75 L20.5,23.25 C20.5,22.8357864 20.8357864,22.5 21.25,22.5 C21.6642136,22.5 22,22.8357864 22,23.25 L22,23.75 C22,23.8880712 22.1119288,24 22.25,24 L22.75,24 C23.1642136,24 23.5,24.3357864 23.5,24.75 C23.5,25.1642136 23.1642136,25.5 22.75,25.5 L22.25,25.5 C22.1119288,25.5 22,25.6119288 22,25.75 L22,26.25 C22,26.6642136 21.6642136,27 21.25,27 C20.8357864,27 20.5,26.6642136 20.5,26.25 L20.5,25.75 C20.5,25.6119288 20.3880712,25.5 20.25,25.5 Z" id="Shape-2" fill="url(#linearGradient-1)" fill-rule="nonzero"></path>
            </g>
        </g>
    </g>
</svg>