<?xml version="1.0" encoding="UTF-8"?>
<svg width="60px" height="60px" viewBox="0 0 60 60" version="1.1" xmlns="http://www.w3.org/2000/svg" xmlns:xlink="http://www.w3.org/1999/xlink">
    <!-- Generator: sketchtool 52.4 (67378) - http://www.bohemiancoding.com/sketch -->
    <title>4BDEE214-316D-49A2-8B9D-6517E23F9BD4@1x</title>
    <desc>Created with sketchtool.</desc>
    <defs>
        <linearGradient x1="100%" y1="100%" x2="15.3277447%" y2="0%" id="linearGradient-1">
            <stop stop-color="#EA46A1" offset="0%"></stop>
            <stop stop-color="#FFD656" offset="100%"></stop>
        </linearGradient>
    </defs>
    <g id="Export" stroke="none" stroke-width="1" fill="none" fill-rule="evenodd">
        <g transform="translate(-1097.000000, -592.000000)" id="Icon8">
            <g transform="translate(1097.000000, 592.000000)">
                <circle id="Oval" fill="#FFFFFF" cx="30" cy="30" r="30"></circle>
                <path d="M18.2708355,25.5454562 L43.7291645,25.5454562 C43.8010823,25.5451648 43.8701381,25.5738049 43.9209921,25.6250145 C43.971846,25.676224 44.0002872,25.7457628 43.9999978,25.8181835 L43.9999978,35.9090917 C43.9999978,36.8128303 43.2724607,37.5454552 42.3749981,37.5454552 L33.5685829,37.5454552 C33.4593655,37.5456969 33.3609799,37.6119751 33.319074,37.7135387 C33.2771681,37.8151022 33.2999434,37.9320739 33.3768329,38.0101825 L38.999332,43.6720002 C39.5123752,44.2072081 39.5047978,45.0577157 38.9823015,45.5835683 C38.4598051,46.1094209 37.6151998,46.1165701 37.083999,45.5996364 L32.2750831,40.7570913 C32.1976171,40.6788858 32.0809555,40.6554567 31.9796239,40.6977544 C31.8782922,40.7400522 31.8123036,40.8397228 31.8124999,40.9501822 L31.8124999,44.6363637 C31.8124999,45.3894793 31.2062189,46 30.4583334,46 C29.710448,46 29.104167,45.3894793 29.104167,44.6363637 L29.104167,40.9501822 C29.1043632,40.8397228 29.0383746,40.7400522 28.937043,40.6977544 C28.8357113,40.6554567 28.7190497,40.6788858 28.6415837,40.7570913 L23.8326679,45.5996364 C23.3014671,46.1165701 22.4568617,46.1094209 21.9343654,45.5835683 C21.411869,45.0577157 21.4042917,44.2072081 21.9173349,43.6720002 L27.5398339,38.0101825 C27.6167234,37.9320739 27.6394987,37.8151022 27.5975928,37.7135387 C27.5556869,37.6119751 27.4573013,37.5456969 27.3480839,37.5454552 L19.6250019,37.5454552 C18.7275393,37.5454552 18.0000022,36.8128303 18.0000022,35.9090917 L18.0000022,25.8181835 C17.9997128,25.7457628 18.028154,25.676224 18.0790079,25.6250145 C18.1298619,25.5738049 18.1989177,25.5451648 18.2708355,25.5454562 Z M43.7291623,23.0909088 L18.2708333,23.0909088 C18.1212562,23.0909088 18,22.9688046 18,22.8181815 L18,20.6363635 C18,19.7326249 18.7275372,19 19.6249997,19 L42.3749959,19 C43.2724585,19 43.9999956,19.7326249 43.9999956,20.6363635 L43.9999956,22.8181815 C43.9999956,22.9688046 43.8787394,23.0909088 43.7291623,23.0909088 Z" id="Shape-2" fill="url(#linearGradient-1)" fill-rule="nonzero"></path>
            </g>
        </g>
    </g>
</svg>