<?xml version="1.0" encoding="UTF-8"?>
<svg width="26px" height="29px" viewBox="0 0 26 29" version="1.1" xmlns="http://www.w3.org/2000/svg" xmlns:xlink="http://www.w3.org/1999/xlink">
    <!-- Generator: sketchtool 52.4 (67378) - http://www.bohemiancoding.com/sketch -->
    <title>1DBC1E63-0246-4B5F-9F72-A9ABA00F0FDD@1x</title>
    <desc>Created with sketchtool.</desc>
    <defs>
        <linearGradient x1="35.3780007%" y1="-12.6777223%" x2="77.0981031%" y2="82.9081413%" id="linearGradient-1">
            <stop stop-color="#562FFD" offset="0%"></stop>
            <stop stop-color="#4897FF" offset="100%"></stop>
        </linearGradient>
    </defs>
    <g id="Design" stroke="none" stroke-width="1" fill="none" fill-rule="evenodd">
        <g id="3b-Talents" transform="translate(-581.000000, -1368.000000)" fill="url(#linearGradient-1)" fill-rule="nonzero">
            <g id="Section-2" transform="translate(138.000000, 1173.000000)">
                <g id="2" transform="translate(443.000000, 194.000000)">
                    <path d="M24.292403,12.9095406 C23.9405334,12.3599616 23.6509211,11.7722606 23.4290069,11.1574786 C23.4290069,4.80051401 17.6067714,1.00035177 11.9761357,1.00035177 C8.77960832,0.975664554 5.70798205,2.25128308 3.45473853,4.53921071 C1.201495,6.82713835 -0.0433849828,9.93446993 0.00115536765,13.1596626 C0.00115536765,17.388778 1.52317537,20.5594062 4.52650043,22.6002564 C4.69195841,22.7125187 4.79117921,22.9005219 4.7911475,23.1017087 L4.7911475,29.3958407 C4.7911475,29.7295087 5.05921656,30 5.38989651,30 L17.3648768,30 C17.6955568,30 17.9636259,29.7295087 17.9636259,29.3958407 L17.9636259,25.7708846 C17.9636259,25.4372166 18.2316949,25.1667253 18.5623749,25.1667253 L20.3586219,25.1667253 C22.0120217,25.1667253 23.352367,23.8142686 23.352367,22.1459286 L23.352367,19.7486244 C23.352367,19.4149564 23.6204361,19.144465 23.951116,19.144465 C24.1750481,19.144465 24.4037703,19.144465 24.6121349,19.1323818 C25.0720454,19.1137891 25.4976603,18.8818892 25.7653255,18.5040561 C25.934678,18.2371849 26.0144494,17.9224179 25.9928502,17.6062753 L25.9928502,17.4395274 C26.0922425,16.0910437 25.1366391,14.4018142 24.292403,12.9095406 Z M15.8476468,13.0678304 C15.6417088,13.0451836 15.4388002,13.1315591 15.3111677,13.2962026 C14.6073932,14.1824915 13.5816523,14.7480705 12.4623199,14.8670169 C12.2609856,14.8899536 12.0848055,15.0140758 11.9940982,15.1968879 C11.2151336,16.8350631 9.58537854,17.8881863 7.78489258,17.9168132 C5.05915923,17.8280769 2.91763635,15.5321485 2.99490045,12.7814589 C2.98554515,11.2742761 3.6168324,9.83532616 4.7288776,8.82904848 C4.82250885,8.74540321 4.88783464,8.63427545 4.91568729,8.51126067 C5.34847276,6.59523608 7.03483492,5.23435677 8.98239061,5.22946714 C9.3157962,5.22812523 9.64806791,5.26871532 9.97152399,5.35029901 C10.1841555,5.40477364 10.4092861,5.33755138 10.558298,5.1750928 C11.297556,4.36789938 12.3612253,3.94486818 13.4474923,4.02603333 C14.5337592,4.10719849 15.5240756,4.68370216 16.1374414,5.59196274 C16.2359476,5.73751074 16.3925308,5.83239785 16.5661457,5.85175126 C18.4995528,6.09781108 19.8860037,7.85435378 19.691069,9.81082485 C19.4961343,11.7672959 17.7909033,13.210204 15.8476468,13.0629971 L15.8476468,13.0678304 Z" id="Shape0111"></path>
                </g>
            </g>
        </g>
    </g>
</svg>