<svg xmlns="http://www.w3.org/2000/svg" viewBox="0 0 96 11"><path fill="#232C4C" fill-rule="nonzero" d="M62.952 10.775c.985 0 1.742-.346 2.242-1.184v.434a.685.685 0 0 0 .684.685h.624a.683.683 0 0 0 .684-.685V4.069a.685.685 0 0 0-.684-.685h-.627a.684.684 0 0 0-.684.685v.3c-.479-.838-1.21-1.184-2.242-1.184-1.495 0-3.244 1.359-3.244 3.821 0 2.463 1.777 3.769 3.247 3.769zm.466-5.752c.982 0 1.767.825 1.767 1.983 0 1.24-.785 1.931-1.767 1.931-.983 0-1.757-.748-1.757-1.93 0-1.183.79-1.984 1.762-1.984h-.005zm22.794 5.752a6.276 6.276 0 0 0 1.682-.215.606.606 0 0 0 .444-.584v-.717a.487.487 0 0 0-.61-.47 5.68 5.68 0 0 1-1.464.2c-1.224 0-1.915-.52-2.128-1.331h4.19a.61.61 0 0 0 .606-.605c.028-1.669-.616-3.87-3.271-3.87-1.869 0-3.51 1.292-3.51 3.77 0 2.477 1.727 3.822 4.07 3.822h-.009zm-.523-5.868c.863 0 1.276.533 1.382 1.385h-2.989c.17-.87.69-1.385 1.607-1.385zm-15.962 5.8h.628a.684.684 0 0 0 .684-.684V7.3c0-1.652.813-2.038 1.92-2.038a.662.662 0 0 0 .626-.68v-.61a.644.644 0 0 0-.713-.68c-.735.056-1.557.458-1.833 1.448v-.673a.684.684 0 0 0-.684-.685h-.628a.683.683 0 0 0-.684.685v5.954a.685.685 0 0 0 .684.687zm-22.282 0h.628a.684.684 0 0 0 .683-.684V6.527c0-1.171.759-1.585 1.516-1.585.81 0 1.308.493 1.308 1.705v3.368c0 .379.306.685.683.685h.628a.684.684 0 0 0 .684-.685V6.527c0-1.171.757-1.585 1.515-1.585.811 0 1.308.493 1.308 1.705v3.368a.683.683 0 0 0 .669.693h.628a.684.684 0 0 0 .684-.685V6.486c0-2.41-1.258-3.303-2.654-3.303-1.162 0-2.017.375-2.503 1.396a2.303 2.303 0 0 0-2.227-1.394c-1.011 0-1.869.44-2.242 1.159v-.275a.685.685 0 0 0-.684-.685h-.624a.683.683 0 0 0-.684.685v5.954a.685.685 0 0 0 .684.685zm27.966 0h.62a.684.684 0 0 0 .684-.684V8.032l.818-.663 2.19 3.13c.09.13.24.21.4.209h1.087a.48.48 0 0 0 .396-.749l-2.72-3.855 2.212-1.87a.481.481 0 0 0-.32-.84h-1.027a.482.482 0 0 0-.308.111L76.719 5.73V1.273a.685.685 0 0 0-.684-.685h-.628a.684.684 0 0 0-.684.685v8.75a.685.685 0 0 0 .684.685h.004zm-63.279.068c.985 0 1.742-.346 2.242-1.184v.434a.685.685 0 0 0 .684.685h.628a.683.683 0 0 0 .684-.685V4.069a.685.685 0 0 0-.684-.685h-.628a.684.684 0 0 0-.684.685v.3c-.478-.838-1.209-1.184-2.242-1.184-1.494 0-3.243 1.359-3.243 3.821 0 2.463 1.762 3.769 3.243 3.769zm.465-5.752c.985 0 1.768.825 1.768 1.983 0 1.24-.785 1.931-1.768 1.931-.982 0-1.754-.748-1.754-1.93 0-1.183.78-1.984 1.749-1.984h.005zm81.991-1.637h-1.827V2.379a.684.684 0 0 0-.684-.685h-.628a.684.684 0 0 0-.684.685v1.007h-.373a.683.683 0 0 0-.684.684v.363c0 .379.306.685.684.685h.373v2.62c0 1.892.837 3.035 2.566 3.035.248 0 1.227-.024 1.444-.067a.404.404 0 0 0 .321-.399V9.196a.395.395 0 0 0-.44-.405c-1.475.29-1.897-.187-1.897-.815V5.113h1.827a.684.684 0 0 0 .682-.685v-.363a.684.684 0 0 0-.686-.68h.006zm-68.734 7.322h.627a.681.681 0 0 0 .684-.685V8.032l.819-.663 2.19 3.13a.48.48 0 0 0 .396.209h1.087a.48.48 0 0 0 .396-.749l-2.72-3.855 2.212-1.87a.481.481 0 0 0-.32-.84h-1.027a.48.48 0 0 0-.307.111L27.163 5.73V1.273a.685.685 0 0 0-.683-.685h-.628a.684.684 0 0 0-.684.685v8.75a.685.685 0 0 0 .686.685zm-4.11.067a4.2 4.2 0 0 0 1.565-.277.415.415 0 0 0 .269-.39v-.974a.416.416 0 0 0-.56-.39c-.4.13-.818.193-1.237.188-1.073 0-1.99-.749-2.039-1.905-.052-1.23.811-2.01 1.98-2.01.419 0 .835.057 1.238.169a.414.414 0 0 0 .532-.397V3.83a.42.42 0 0 0-.275-.391 4.368 4.368 0 0 0-1.586-.262c-2.008 0-3.843 1.291-3.843 3.768 0 2.478 1.818 3.829 3.957 3.829h-.002zm-20.695-.067h.62a.682.682 0 0 0 .682-.683v-.302a2.631 2.631 0 0 0 2.242 1.052c1.495 0 3.244-1.291 3.244-3.769 0-2.477-1.742-3.82-3.244-3.82a2.631 2.631 0 0 0-2.242 1.05V1.274A.684.684 0 0 0 1.67.588h-.62a.683.683 0 0 0-.688.685v8.752a.685.685 0 0 0 .688.683zm3.08-5.685c.97 0 1.753.812 1.753 1.983 0 1.211-.784 1.931-1.754 1.931s-1.77-.718-1.77-1.93c0-1.165.785-1.984 1.77-1.984z"/></svg>