<svg xmlns="http://www.w3.org/2000/svg" viewBox="0 0 67 18"><path fill="#E50914" fill-rule="evenodd" d="M55.029 0v16.667h-2.864V0h2.864zm2.169 16.864l3.487-8.544L57.73.01h2.864l1.625 4.562L64.072.045 64.1 0H67l-3.424 8.374L67 18c-.994-.143-1.997-.268-3-.394l-1.952-5.483-2.05 5.028c-.93-.1-1.87-.197-2.8-.287zm-23.671-1.136c-.19 0-.37.01-.56 0V0h6.83v2.613H35.84v4.401h3.442v2.604H35.84v6.12c-.768 0-1.536-.01-2.313-.01zm-8.89.161V2.613h-2.674V0h8.213v2.613H27.5V15.8c-.958.028-1.906.055-2.864.09zm-21.89 1.762c-.913.108-1.826.233-2.73.349H0V0h2.864l3.66 10.28V0h2.745v16.918a328.82 328.82 0 0 0-3.134.331L2.746 7.721v9.93zM19.197 2.613h-3.966v4.401h3.443v2.613h-3.443v4.169a195.36 195.36 0 0 1 3.957-.26v2.613c-2.286.133-4.562.295-6.83.491V0h6.839v2.613zM45.48 13.41c1.318.062 2.638.134 3.966.233v2.602a217.55 217.55 0 0 0-6.84-.348V0h2.874v13.41z"/></svg>