<svg xmlns="http://www.w3.org/2000/svg" viewBox="0 0 28 28"><path fill="#D0021B" fill-rule="evenodd" d="M.94 27.16V.644h26.322V27.16H.94zm19.378-22.9v8.377h1.686V4.26h-1.686zM9.786 9.854V4.261h-1.62v5.593c0 .635-.495 1.147-1.118 1.147-.621 0-1.12-.512-1.12-1.147V4.261H4.283v5.593c0 1.572 1.215 2.784 2.764 2.784 1.551 0 2.738-1.212 2.738-2.784zm7.787 13.695v-1.703h-3.86v-6.67h-1.679v8.373h5.539zm0-10.912V4.26H15.89v4.792L13.713 4.26h-1.679v8.377h1.68v-4.8l2.176 4.8h1.683zM7.046 15.176a2.76 2.76 0 0 0-2.763 2.767v2.84c0 1.495 1.217 2.767 2.763 2.767.187 0 .37-.02.543-.053l.577 1.749h1.62l-.767-2.517c.449-.518.766-1.223.766-1.946v-2.84c0-1.516-1.186-2.767-2.739-2.767zm1.12 5.607c0 .55-.495 1.064-1.12 1.064-.62 0-1.12-.514-1.12-1.064v-2.84c0-.3.118-.588.328-.8a1.119 1.119 0 0 1 1.912.8v2.84zm12.992-5.607c-1.55 0-2.74 1.251-2.74 2.767v2.84c0 1.495 1.19 2.767 2.74 2.767 1.548 0 2.74-1.272 2.74-2.767v-2.84c0-1.516-1.192-2.767-2.74-2.767zm1.124 5.607c0 .55-.507 1.064-1.124 1.064-.62 0-1.123-.514-1.123-1.064v-2.84c0-.626.503-1.129 1.123-1.129.617 0 1.124.503 1.124 1.129v2.84z"/></svg>