<svg xmlns="http://www.w3.org/2000/svg" xmlns:xlink="http://www.w3.org/1999/xlink" viewBox="0 0 534 473">
    <defs>
        <linearGradient id="a" x1="1.788%" x2="88.426%" y1="0%" y2="91.639%">
            <stop offset="0%" stop-color="#FFB242"/>
            <stop offset="71.111%" stop-color="#7900FF"/>
            <stop offset="100%" stop-color="#489BFF"/>
        </linearGradient>
        <path id="b" d="M273.019 435.381c124.391 0 243.469-27.978 231.162-139.398-6.78-61.381-98.102-91.239-102.971-196.635C397.846 26.525 344.145.578 263.238.578 138.847.577.448 32.233.448 156.725c0 124.491 148.179 278.655 272.57 278.655z"/>
        <path id="c" d="M273.019 435.381c124.391 0 243.469-27.978 231.162-139.398-6.78-61.381-98.102-91.239-102.971-196.635C397.846 26.525 344.145.578 263.238.578 138.847.577.448 32.233.448 156.725c0 124.491 148.179 278.655 272.57 278.655z"/>
        <linearGradient id="e" x1="15.635%" x2="83.794%" y1="11.609%" y2="83.483%">
            <stop offset="0%" stop-color="#489BFF"/>
            <stop offset="30.377%" stop-color="#505BFE"/>
            <stop offset="100%" stop-color="#333665"/>
        </linearGradient>
        <linearGradient id="f" x1="9.713%" x2="50%" y1="25.774%" y2="30.793%">
            <stop offset="0%" stop-color="#FFD656"/>
            <stop offset="100%" stop-color="#333665" stop-opacity="0"/>
        </linearGradient>
        <linearGradient id="g" x1="92.798%" x2="1.483%" y1="5.333%" y2="92.174%">
            <stop offset="0%" stop-color="#343665"/>
            <stop offset="100%" stop-color="#8B15EB"/>
        </linearGradient>
        <path id="h" d="M175.09 434.068c22.101-12.721 86.457-45.531 78.543-136.068-5.276-60.358-39.882-159.691-103.816-298L65.91 137 .94 473c31.573-4.158 57.046-7.775 76.417-10.85 19.37-3.075 31.919-5.495 37.644-7.258 25.326-5.401 45.356-12.342 60.09-20.824z"/>
        <linearGradient id="j" x1="174.575%" x2="-285.423%" y1="50%" y2="-28.037%">
            <stop offset="0%" stop-color="#FFB242"/>
            <stop offset="71.111%" stop-color="#7900FF"/>
            <stop offset="100%" stop-color="#489BFF"/>
        </linearGradient>
        <linearGradient id="k" x1="-37.617%" x2="60.834%" y1="68.804%" y2="74.039%">
            <stop offset="0%" stop-color="#FFD656"/>
            <stop offset="44.999%" stop-color="#652DA5"/>
            <stop offset="100%" stop-color="#411E31"/>
        </linearGradient>
        <linearGradient id="l" x1="144.977%" x2="-5.211%" y1="52.009%" y2="50.045%">
            <stop offset="0%" stop-color="#DF6B7D"/>
            <stop offset="2%" stop-color="#D5687C"/>
            <stop offset="11%" stop-color="#AA5B76"/>
            <stop offset="20%" stop-color="#854F70"/>
            <stop offset="30%" stop-color="#67466C"/>
            <stop offset="40%" stop-color="#503F69"/>
            <stop offset="51%" stop-color="#403A67"/>
            <stop offset="63%" stop-color="#363765"/>
            <stop offset="79%" stop-color="#333665"/>
            <stop offset="93%" stop-color="#2F3043"/>
            <stop offset="100%" stop-color="#2D2D2F"/>
        </linearGradient>
        <linearGradient id="m" x1="31.557%" x2="143.964%" y1="50%" y2="87.149%">
            <stop offset="0%" stop-color="#2E294C"/>
            <stop offset="54.478%" stop-color="#652DA5"/>
            <stop offset="100%" stop-color="#411E31"/>
        </linearGradient>
        <linearGradient id="n" x1="50%" x2="50%" y1="0%" y2="97.306%">
            <stop offset="0%" stop-color="#AB57B4"/>
            <stop offset="100%" stop-color="#FFB38E"/>
        </linearGradient>
        <linearGradient id="o" x1="50%" x2="50%" y1="28.508%" y2="100%">
            <stop offset="0%" stop-color="#A34FBB"/>
            <stop offset="100%" stop-color="#D7878B"/>
        </linearGradient>
        <linearGradient id="p" x1="91.353%" x2="-5.211%" y1="57.26%" y2="50.045%">
            <stop offset="0%" stop-color="#DF6B7D"/>
            <stop offset="2%" stop-color="#D5687C"/>
            <stop offset="11%" stop-color="#AA5B76"/>
            <stop offset="20%" stop-color="#854F70"/>
            <stop offset="30%" stop-color="#67466C"/>
            <stop offset="40%" stop-color="#503F69"/>
            <stop offset="51%" stop-color="#403A67"/>
            <stop offset="63%" stop-color="#363765"/>
            <stop offset="79%" stop-color="#333665"/>
            <stop offset="93%" stop-color="#2F3043"/>
            <stop offset="100%" stop-color="#2D2D2F"/>
        </linearGradient>
        <linearGradient id="q" x1="-13.729%" x2="84.895%" y1="75.946%" y2="80.27%">
            <stop offset="0%" stop-color="#EA46A1"/>
            <stop offset="100%" stop-color="#FFD656"/>
        </linearGradient>
        <path id="r" d="M65.644 105.105l60.484-23.445 12.38-.636v2.06l-12.38.636-60.484 23.495z"/>
        <ellipse id="t" cx="41.533" cy="41.528" rx="41.533" ry="41.528"/>
        <filter id="s" width="175.8%" height="175.9%" x="-37.9%" y="-27.1%" filterUnits="objectBoundingBox">
            <feOffset dy="9" in="SourceAlpha" result="shadowOffsetOuter1"/>
            <feGaussianBlur in="shadowOffsetOuter1" result="shadowBlurOuter1" stdDeviation="9"/>
            <feColorMatrix in="shadowBlurOuter1" values="0 0 0 0 0.780392157 0 0 0 0 0.901960784 0 0 0 0 0.22745098 0 0 0 0.2 0"/>
        </filter>
        <linearGradient id="u" x1="15.328%" x2="74.231%" y1="80.27%" y2="4.655%">
            <stop offset="0%" stop-color="#EA46A1"/>
            <stop offset="100%" stop-color="#FFD656"/>
        </linearGradient>
        <ellipse id="w" cx="41.533" cy="41.528" rx="41.533" ry="41.528"/>
        <filter id="v" width="179.5%" height="179.5%" x="-39.7%" y="-28.9%" filterUnits="objectBoundingBox">
            <feOffset dy="9" in="SourceAlpha" result="shadowOffsetOuter1"/>
            <feGaussianBlur in="shadowOffsetOuter1" result="shadowBlurOuter1" stdDeviation="9.5"/>
            <feColorMatrix in="shadowBlurOuter1" values="0 0 0 0 0.788235294 0 0 0 0 0.368627451 0 0 0 0 0.8 0 0 0 0.2 0"/>
        </filter>
        <linearGradient id="x" x1="84.291%" x2="0%" y1="76.95%" y2="0%">
            <stop offset="0%" stop-color="#581EFD"/>
            <stop offset="100%" stop-color="#FA92A7"/>
        </linearGradient>
    </defs>
    <g fill="none" fill-rule="evenodd">
        <g transform="translate(-.457 31.958)">
            <use fill="url(#a)" transform="rotate(-180 252.753 217.98)" xlink:href="#b"/>
            <mask id="d" fill="#fff">
                <use xlink:href="#c"/>
            </mask>
            <use fill="url(#a)" transform="rotate(-180 252.753 217.98)" xlink:href="#c"/>
            <g mask="url(#d)">
                <g transform="rotate(-180 92.887 155.035)">
                    <ellipse cx="201.373" cy="213.364" fill="url(#e)" rx="157.373" ry="157.364"/>
                    <path fill="url(#f)" d="M238.22 317.655c7.92 1.251 9.99 5.515 5.726 9.16-4.264 3.645-9.605 6.313-12.723 13.41-3.119 7.098-8.473 18.638-21.376 18.638-9.177 0-9.135 3.796-11.385 6.327a160.066 160.066 0 0 1-55.847-17.496 105.136 105.136 0 0 0-9.66-7.716c-2.456-4.608-6.016-7.978-10.335-8.638-2.057-.261-4.734-3.823-7.576-8.514-5.161-8.376-10.902-20.535-15.18-25.129-6.679-7.18-6.527-19.613-1.932-20.054 4.595-.44 2.967-14.882.124-18.967-2.842-4.085-3.588-2.985-4.733.633-1.145 3.617-7.77-9.12-9.66-11.32-1.89-2.2-2.65-7.07-4.402-11.622-1.752-4.553-8.528-9.147-8.997-15.24-.47-6.093-5.354-3.934-7.093-10.22-1.739-6.285-1.918-38.663 0-46.833 1.918-8.17 22.08-69.625 100.627-97.422 0 0-.124.248-.345.646-1.173 2.009-5.217 8.17-10.736 8.17-6.638 0 3.96 3.535 5.52 3.095 1.559-.44 11.301-10.563 9.521-5.942-1.78 4.622 1.394 2.435 4.678 0 3.285-2.434 8.142-3.287 8.142 0 0 3.288 4.002 7.703 7.962 9.463 3.961 1.76-4.87 5.75-7.079 3.535-2.208-2.214.883 1.816-3.09 3.989-3.975 2.173-9.219-7.084-3.727-8.404 5.493-1.32 1.684-4.429-4.595-2.847-6.279 1.582-9.812 1.98-10.695 6.877-.883 4.897-.497 1.376-6.665 1.376s-20.727 3.892-19.195 9.628c1.532 5.735 1.076 4.415 4.843 5.735 3.768 1.32-1.987 5.296-1.987 8.376 0 3.081 5.755 2.201 7.08 0 1.324-2.2.427-7.055 6.182-8.376 5.754-1.32 4.43-4.401 5.754-7.936 1.325-3.535 6.9-6.437 9.95-4.512 3.05 1.926-.621 6.974 3.45 7.992 4.07 1.018 7.024-6.066 7.88-3.838.855 2.228 2.69 6.891 2.083 8.707-.607 1.815-.621 3.438 2.636 5.061 3.256 1.623-.8 5.048.414 6.272 1.214 1.224 7.714 1.224 4.87 3.852-2.842 2.627-4.47 5.584 0 6.134 4.472.55 6.846 7.235 2.913 7.235-3.933 0-6.79-2.311-12.061-2.036-5.272.275 5.078-9.518 3.864-10.728-1.215-1.21-2.622 2.434-6.293 2.228-3.67-.206-12.585-3.439-17.47 0-4.885 3.438-13.427 8.5-10.17 8.5 3.256 0 6.706-7.675 15.041-6.67 8.335 1.003-4.278 5.666-1.835 8.706 2.442 3.04 7.934.206 9.963 0 2.029-.207 1.214 4.043-1.835 4.25-3.05.206-11.164 4.663-12.793 5.061-1.628.4-1.849-4.002 1.008-4.855 2.856-.853 4.485-2.627.62-2.228-3.863.399-12.391.99-14.02 7.11-1.628 6.122-6.982 3.673-10.198 5.503-3.215 1.829-2.98 7.317-3.215 10.33-.235 3.011-2.056 8.307-5.52 8.513-3.119.179-4.926-.798-9.66 2.53-.469.331-.966.689-1.49 1.115-5.892 4.649-10.777 6.272-10.777 12.145 0 5.873.607 16.629-2.843 17.014-3.45.385 1.228-15.006-3.05-19.256a11.916 11.916 0 0 0-10.06-3.837c-2.498 0-8.404-3.494-11.04 1.375-2.635 4.87-8.72 15.804-7.507 24.51 1.215 8.707 1.408 10.729 4.458 10.729 3.05 0 2.911-8.762 6.637-7.923 3.726.84 5.769 4.305 1.09 6.107-4.678 1.802-3.601 12.544-1.09 13.754 2.512 1.21 7.383 1.72 7.59 4.402.207 2.682 5.285 3.438 2.843 6.327-2.443 2.888-4.678 6.89-2.843 11.14 1.836 4.25 1.85 8.941 5.7 8.625 3.85-.317 4.47-1.94 7.106 2.517 2.636 4.456 4.872 3.851 5.686 0 .814-3.851 2.428-4.87 6.9-4.87.932-.01 1.86-.14 2.76-.384v5.391c-1.008 1.582-1.38 3.054 0 4.195l.11.124c3.257 2.42 2.525-5.818 5.285-6.354 2.76-.537 4.913.935 6.9 3.74 1.987 2.807 5.037.579 7.065 1.995 2.029 1.417 2.636 1.1 7.107 1.06 4.471-.042 19.734 21.429 24.177 21.429 4.444 0 18.216.591 20.7 7.482 2.483 6.89 5.906 7.29 3.863 10.935-2.042 3.645 15.65 9.93 24.177 9.93 8.529 0 15.842 5.873 23.777 7.084zM193.742 66.748s16.2-4.016 24.84-2.544c8.638 1.471 14.475 5.144 15.179 7.578.704 2.435 0 3.92-3.202 7.098-3.201 3.177-5.644 4.951-10.79 4.951-5.148 0-3.92 10.04-5.893 11.265-1.974 1.224-1.477-2.448-4.913-2.215-3.436.234-7.617-2.93-9.08-8.073-1.463-5.144 3.919-7.098 3.684-9.05-.234-1.954-17.925-4.306-9.825-9.01zm99.04 49.268c-2.953-.55-1.2-2.393-1.587-4.167-.386-1.775 1.007-3.356-.787-4.746-1.794-1.389-1.987 1.403-2.304 3.37-.318 1.967-5.893-.013-8.432-2.586-2.539-2.572 1.987-2.957 2.981-4.745.994-1.788-5.754-4.346-5.754-7.854 0-3.507 2.18.537 3.173 1.72.994 1.183 3.188-2.008 4.375 1.774 1.187 3.783 3.367 3.562 5.754 5.158 2.388 1.595 4.196 2.558 7.162 4.346 2.967 1.788 2.195 3.934 0 5.144-2.194 1.21-4.581 2.586-4.581 2.586zm53.524 130.907c-2.029 5.048-9.633 7.648-15.456 7.043-5.824-.606-10.626 1.361-13.413 0-2.788-1.362-11.896-13.782-10.13-18.074 1.767-4.29.76-14.552.76-19.173 0-4.622-5.575-4.622-1.27-19.256 4.306-14.635 6.596-13.122 8.363-19.683 1.766-6.56-1.518-10.109 0-14.896 1.518-4.786-1.78-7.812 3.629-6.423 5.41 1.39 5.99 1.183 5.99-3.163 0-4.347 5.823-6.314 8.858-9.848l.483-.537a390.894 390.894 0 0 1 15.428 23.671c6.035 9.95 12.328 19.348 18.878 28.197.345 3.287.594 6.63.704 10.164 1.463 42.927-14.793 74.274-14.793 74.274s1.007-18.61 4.816-33.561c3.809-14.95-2.87-3.782-4.568-8.074-1.697-4.291-6.265 4.292-8.28 9.34zM298.013 121.78c-2.622 0-2.47-4.03 1.38-4.594v4.704a9.885 9.885 0 0 0-1.38-.11zm1.242 15.515c-.952-.811-.8-1.389.069-1.802v1.871l-.069-.069zm12.594 13.886c-3.535.36-6.766-2.016-7.466-5.488v-15.075h3.85c3.105 0 2.18-3.728 0-7.139-1-1.38-2.32-2.499-3.85-3.26v-13.355c5.216 5.273 10.442 11.118 15.677 17.537a3.85 3.85 0 0 1-1.863 2.75c-3.12 1.899 2.125 4.086 1.242 6.878-.884 2.792 1.255 8.431 1.876 12.104.621 3.672-4.057 4.965-9.466 5.048z" transform="scale(1 -1) rotate(-40 -373.918 0)"/>
                </g>
            </g>
            <path fill="#FFF" d="M235.617 141.537l3.656 4.942a.87.87 0 0 1-.197 1.223.914.914 0 0 1-1.25-.193l-2.959-3.99-2.96 3.99a.914.914 0 0 1-1.249.193l-.013-.013a.869.869 0 0 1-.197-1.223l3.696-4.98a.896.896 0 0 1 1.17-.219c0 .013.013.013.013.013.027 0 .04.013.053.026h.013l.013.013a.828.828 0 0 1 .21.218zm.144-5.662v3.5a.886.886 0 0 1-.894.876.886.886 0 0 1-.894-.876v-3.5c0-.489.407-.875.894-.875.487 0 .894.399.894.875zm-6.589 3.41l3.406 1.081a.882.882 0 0 1 .58 1.107.91.91 0 0 1-1.132.566l-3.406-1.094a.882.882 0 0 1-.58-1.106.903.903 0 0 1 1.132-.554zm11.93 1.66l-3.407 1.081a.899.899 0 0 1-1.131-.566c-.158-.463.105-.952.578-1.107l3.407-1.08a.899.899 0 0 1 1.13.566.867.867 0 0 1-.578 1.106zm36.515 42.592l3.656 4.942a.87.87 0 0 1-.197 1.223.914.914 0 0 1-1.25-.193l-2.959-3.99-2.96 3.99a.914.914 0 0 1-1.249.193l-.013-.013a.869.869 0 0 1-.197-1.223l3.696-4.98a.896.896 0 0 1 1.17-.219c0 .013.013.013.013.013.027 0 .04.013.053.026h.013l.013.013a.828.828 0 0 1 .21.218zm.144-5.662v3.5a.886.886 0 0 1-.894.876.886.886 0 0 1-.894-.876v-3.5c0-.489.407-.875.894-.875.487 0 .894.399.894.875zm-6.589 3.41l3.406 1.081a.882.882 0 0 1 .58 1.107.91.91 0 0 1-1.132.566l-3.406-1.094a.882.882 0 0 1-.58-1.106.903.903 0 0 1 1.132-.554zm11.93 1.66l-3.407 1.081a.899.899 0 0 1-1.131-.566c-.158-.463.105-.952.578-1.107l3.407-1.08a.899.899 0 0 1 1.13.566.867.867 0 0 1-.578 1.106z" mask="url(#d)"/>
            <path stroke="url(#g)" d="M103.978 327.257l248.625-95.624" mask="url(#d)"/>
        </g>
        <g transform="translate(250)">
            <mask id="i" fill="#fff">
                <use xlink:href="#h"/>
            </mask>
            <g mask="url(#i)">
                <path fill="url(#j)" d="M49.898 253.85l85.229-103.578 37.293 13.362-33.089-22.893-53.361-20.729L41.978 179.8z" transform="rotate(24 -354.942 327.013)"/>
                <path fill="url(#k)" d="M41.749 293.778c32.934-35.766 72.042-72.215 117.324-109.348l106.79 28.761 97.918 36.794v41.744L86.385 414.05c-62.692-44.416-77.57-84.507-44.636-120.273z" transform="rotate(24 -354.942 327.013)"/>
                <path fill="url(#l)" d="M363.78 249.985l-98.793-37.122-105.914-28.433-98.802 107.299h37.697s21.124-17.681 45.424-15.012c24.3 2.669 71.66 39.486 71.66 39.486l148.729-24.474v-20.283s-98.583-38.772-117.963-53.835c0 0 25.623.522 117.963 36.945v-4.571z" transform="rotate(24 -354.942 327.013)"/>
                <path fill="#2E294C" d="M.776 446.765l163.869-81.884 85.398 81.642 6.504 16.444-1.572.508 3.512 12.06-85.86-69.71-133.902 57.836z"/>
                <path fill="url(#m)" d="M18.73 291.729l116.397-141.457 1.297 1.995L21.865 291.73zm20.282 0l107.726-126.024 1.508 2.155L41.599 291.73z" transform="rotate(24 -354.942 327.013)"/>
                <path fill="url(#l)" d="M36.577 270.04s5.056-68.266 5.41-90.24l43.983-59.78 53.37 20.721 33.08 22.893-20.029-7.182-13.7-10.264-22.32-7.754 16.717 14.313-34.783 42.283-22.455-41.996-19.691 25.974.96 66.06-20.542 24.972z" transform="rotate(24 -354.942 327.013)"/>
                <path fill="#2E294C" d="M67.547 353.972a19.486 19.486 0 0 0-6.83-3.862s.667-4.689-.232-7.476l64.671-37.324 11.755.819 40.457 43.661-2.74 6.154a2.763 2.763 0 0 0-2.006.756l-.248 1.18-40.328-40.637-64.499 36.729z"/>
                <path fill="url(#m)" d="M30.923 172.29l.447-3.116 42.88-59.299 10.75-3.62 53.253 22.53 2.359 2.492-54.718-23.431-11.072 4.041z" transform="rotate(24 -354.942 327.013)"/>
                <path fill="url(#l)" d="M39.93 157.294S33.19 95.663 7.727 30.529l7.878-12.115 10.01 4.84s33.257 49.002 84.41 93.626L85.01 106.297l-10.76 3.62-34.319 47.377z" transform="rotate(24 -354.942 327.013)"/>
                <path fill="#2E2E3A" d="M96.95 203.703s.719-3.523-2.932-9.222l11.036-7.16 5.604.984 7.563 9.818s-2.19 1.357-1.958 6.18l-7.175-8.495-12.139 7.895z"/>
                <path fill="#2F2F3D" d="M96.963 202.096a26.03 26.03 0 0 0-3.244-1.702s-1.704-3.736.473-9.495l10.374-6.624 6.243 1.101 8.98 12.293s.115 5.582-3.526 6.633c0 0-.69-4.289 1.958-6.179l-7.563-9.818-5.604-.984-11.036 7.16s2.937 4.174 2.945 7.615z"/>
                <path fill="#2E294C" d="M103.353 185.052l.12-10.398s.735-.493 1.138-.01l1.852 9.968-1.897-.337-1.213.777z"/>
                <path fill="url(#m)" d="M136.424 152.267l112.74 40.616-2.815-2.761-111.222-39.85zm11.822 15.593l109.503 35.741 1.23-1.103-112.241-36.793z" transform="rotate(24 -354.942 327.013)"/>
                <path fill="#000" d="M168.263 407.716l127.23 158.201-18.904 4.174 39.406 17.019 8.25-18.53-22.354-5.371-127.768-156.165-1.495-1.218zm-60.42-211.08s8.097 69.733 17.619 106.58l2.488.232s-15.921-74.884-18.876-107.61l-1.231.798z" opacity=".2"/>
                <path fill="#2E294C" d="M80.796 358.945l6.107 3.048L65.91 414.17l-11.16 5.802z"/>
                <path fill="#2E294C" d="M80.811 358.982l6.092 3.011L110 348.653l-.53-5.496zm73.409-8.42l17.409 15.633-2.09-3.728-17.2-16.015z"/>
                <path fill="#2E294C" d="M179.388 379.834l-9.855-17.367-1.768-1.639 9.546 17.162z"/>
            </g>
        </g>
        <g transform="translate(68 243)">
            <path fill="url(#n)" d="M.778 23.274L134.914.474l63.174 3.125v49.776L97.243 52.337l-13.597 4.125L0 54.536z" transform="translate(21.615 118.993)"/>
            <path fill="url(#o)" d="M168.66 5.847s-2.986 13.932-11.043 19.885c-8.057 5.954-18.508 15.526-19.668 21.17l30.711.544v-41.6m25.776 3.138s-2.134 14.18-8.39 18.527c-6.256 4.347-11.006 19.923-11.006 19.923l19.396.864V8.984m-67.802 6.324s-.641 10.758-3.911 14.5c-3.27 3.743-5.614 12.154-5.59 16.304h9.501V15.308m-18.224.765s-.777 13.451-1.962 16.057c-1.184 2.606-2.135 14.735-2.135 14.735h4.097V15.987m-24.53-1.05s-2.875 5.064-8.378 5.706c-5.503.643-8.156 6.312-8.156 6.312l16.337-1.025.197-10.993m-.234 13.105l-16.3 1.235v25.098h15.831l.469-26.333m-19.952-9.955a10.117 10.117 0 0 1-6.675 4.496c-4.294.555-6.663 6.015-6.663 6.015l13.215-.865.123-9.646m-.148 11.721l-13.19.914v23.11h12.881l.309-24.024m-16.522 2.1l-11.043.642-.173 20.664h11.216V31.908m0-10.993a6.171 6.171 0 0 1-5.515 4.768 6.283 6.283 0 0 0-5.528 5.014l11.043-.518V20.89m-13.782 1.73s-.543 3.223-4.825 4.335a6.246 6.246 0 0 0-4.824 4.718l9.649-.47V22.62m0 10.412l-9.871.482v19.7h9.87V33.032m-12.03-8.189a5.985 5.985 0 0 1-4.7 3.619 4.433 4.433 0 0 0-3.702 4.31l8.402-.395v-7.534m0 9.189l-8.402.346v16.193h8.402V34.032" opacity=".4" transform="translate(21.615 118.993)"/>
            <path fill="url(#o)" d="M10.686 26.152a5.432 5.432 0 0 1-3.578 3.706 5.58 5.58 0 0 0-3.59 3.89l7.168-.617V26.2m0 8.66l-7.168.531-.408 15.18h7.576V34.86" transform="translate(21.615 118.993)"/>
            <path fill="#433B67" fill-rule="nonzero" d="M229.7 217.866c-.162-1.083-1.709-2.153-1.709-2.153s1.646-3.36-2.797-5.488l-2.14-3.42.185-35.79-2.216-.333-.198-39.47s2.81-3.248 2.81-3.801c0-.554-.1-3.814-.1-3.814s2.6-1.526 2.6-3.052c0-1.525-2.983-3.432-2.983-3.432l-.186-2.461s0-1.144-4.802-4.294l-4.79-2.854-.383-11.64s.099-1.611-2.97-2.57c-3.07-.96-49.333-11.406-49.333-11.406a3.952 3.952 0 0 0-4.79.947c-2.4 2.387-7.426 7.628-7.426 7.628l.1 10.298-30.793 6.583s-3.453-4.676-10.929-3.15a10.853 10.853 0 0 0-7.426 7.923l-6.98 1.858-45 11.64s-1.696-3.483-8.095-2.19c0 0-4.196 1.291-4.95 5.068 0 0-10.595 3.58-11.4 3.778-.804.196-5.594 2.386-6.188 6.557 0 0 .1.8.508.997v5.167a1.33 1.33 0 0 0 .99 1.39l-.396 26.145a2.328 2.328 0 0 0-.396 2.88s-1.102 3.481.099 5.757l.099 13.423h1.002v3.482l3.998-.898 2.203 1.587-4.95 4.676h10.297c-.092.398.022.814.302 1.113.28.298.69.439 1.096.375h4.295s-.495 1.588 3.007 2.289l45.558 11.073-.16-3.691 69.963 12.66a11.775 11.775 0 0 0 5.73 2.153c3.714.455 44.89 1.07 49.68 0 4.79-1.07 14.555 0 19.976-4.318-.013 0 .111-6.152-.013-7.222zM32.17 169.353h-7.339l.149-15.12 7.19-.53v15.65zm0-17.422l-7.19.616v-6.509a10.239 10.239 0 0 1 7.19-1.009v6.902zm10.558 17.422h-8.453v-16.105l8.428-.345.025 16.45zm0-18.123l-8.429.394v-6.989a11.945 11.945 0 0 1 8.429-.873v7.468zm12.067 20.756h-9.901v-19.685l9.9-.468v20.153zm0-21.925l-9.679.468v-7.21c2.748-2.313 9.679-1.809 9.679-1.809v8.551zm13.824 21.925H57.37l.173-20.584 11.077-.652v21.236zm0-22.921l-11.077.516v-8.329c4.765-2.645 11.077-1.44 11.077-1.44v9.253zM84.894 172.6H71.961v-23.044l13.23-.91-.297 23.954zm.322-25.997l-13.255.861v-8.341c4.468-3.162 13.379-2.129 13.379-2.129l-.124 9.609zm19.666 26.526H89.003v-24.988l16.35-1.23-.47 26.218zm.508-28.298l-16.387 1.022v-9.29c4.864-3.69 16.585-2.682 16.585-2.682l-.198 10.95zm24.753 20.916h-4.11V134.99h4.11v30.758zm18.28-.787h-9.53v-30.734a11.199 11.199 0 0 1 9.53 0v30.734zm42.154 1.329l-30.805-.542.57-40.896c11.732-4.073 30.235 0 30.235 0v41.438zm25.855.86l-19.456-.86v-41.205s13.07-1.415 19.456 2.842v39.224z"/>
            <path fill="url(#p)" d="M229.693 217.015c-.16-1.084-1.703-2.155-1.703-2.155s1.641-3.362-2.79-5.492l-2.135-3.423.173-33.555c-11.33.37-71.672-1.232-71.672-1.232l-32.275-.874v5.258c-1.975.431-9.195 0-9.195 0l-88.074-3.066-.827-1.231v-26.696l-1.53.332-.569 23.987h-.629v2.77a2.336 2.336 0 0 0-.395 2.882s-1.098 3.485.099 5.763l.086 12.424h2.469l1.851.9v1.736l91.444 18.901s4.628.899 6.492 0l1.642-.813 31.2 4.495s-.69 3.337 1.963 3.337a227.878 227.878 0 0 0 37.768 2.29c18.414-.53 31.14-2.13 36.669-5.147-.013-.64-.025-1.157-.062-1.391z"/>
            <path fill="#000" d="M222.351 206.754s-5.685 9.355-66.018 1.814a8.483 8.483 0 0 1-3.7-1.863v-34.926l-33.953-.876v34.642s-1.455 1.913-6.918.851c-5.464-1.061-88.995-15.105-88.995-15.105l-.765-.136v1.592l-1.825-.778h-2.565v1.543h2.466l1.85.901v1.74l88.798 18.413c2.159.505 4.359.814 6.573.926a6.164 6.164 0 0 0 4.107-1.234l31.178 4.504s-.827 2.987 1.665 3.333c2.49.345 17.71 2.073 24.665 2.22 6.956.149 21.41.272 30.45-.875 9.04-1.148 13.776-1.383 19.511-4.196a3.135 3.135 0 0 0-1.763-3.555s1.911-3.702-2.788-5.504l-1.973-3.43z" opacity=".1"/>
            <path fill="#BCBBBE" d="M18.18 170.104l.465-23.958zm204.362 2.396l.016-2.396-.016 2.396z"/>
            <path fill="url(#q)" fill-rule="nonzero" d="M19.084 145.208l1.532-.329v26.395l.828 1.22 88.157 3.01s7.227.428 9.204 0V170.3l32.305.866s60.398 1.645 71.739 1.219v-2.244l-2.211-.329-.198-39.111s2.817-3.158 2.817-3.706c0-.549-.1-3.78-.1-3.78s2.595-1.512 2.595-3.023c0-1.512-2.977-3.402-2.977-3.402l-.186-2.438s0-1.134-4.793-4.255l-4.78-2.829-.384-11.533s.1-1.597-2.965-2.548c-3.063-.951-49.242-11.302-49.242-11.302a3.964 3.964 0 0 0-4.781.939c-2.397 2.365-7.412 7.559-7.412 7.559l.098 10.204-30.736 6.523s-3.447-4.633-10.908-3.121c-3.715 1.122-6.541 4.115-7.413 7.851l-6.967 1.841-44.919 11.534s-1.692-3.45-8.08-2.17c0 0-4.187 1.28-4.94 5.023 0 0-10.576 3.547-11.379 3.742-.803.195-5.584 2.366-6.177 6.499 0 0 .1.792.507.987v5.12a1.318 1.318 0 0 0 .988 1.378l-.358 23.165h.63l.506-23.75zm177.03-22.32c14.21-3.683 21.955 3.033 21.955 3.033v43.455h-21.955v-46.488zm-39.22-.945s19.136-4.912 35.71.7v46.733l-36.51-.982.8-46.451zm-20.367 9.467l12.572-.761v36.173h-12.572V131.41zm-12.819 1.044l7.906-.393v34.761h-7.906v-34.368zm-37.09 1.756c8.62-4.335 18.558-3.205 18.558-3.205l-.74 41.27H86.62V134.21zm-16.61 2.848c5.762-3.757 15.01-2.713 15.01-2.713l-.468 37.401H70.007v-34.688zm-14.088 2.1a20.863 20.863 0 0 1 12.437-1.83v33.804H55.711l.21-31.974zm-12.227 2.222c3.472-2.529 10.91-2.308 10.91-2.308v32.097h-10.91V141.38zm-10.48 1.4s3.436-2.456 9.384-1.51v29.53l-9.384-.085V142.78zm-9.112 1.646a9.75 9.75 0 0 1 7.992-1.376v27.665l-8.324-.074.332-26.215z"/>
            <path fill="#000" d="M124.884 174.097h4.803v29.549l-4.803-.429zm12.809 0h9.606l-.152 31.146-9.454-.944z" opacity=".3"/>
            <path fill="url(#l)" d="M218.516 110.288l-4.775-2.851-.382-11.626s.098-1.61-2.962-2.568c-3.06-.959-50.155-11.356-50.155-11.356a3.934 3.934 0 0 0-4.775.947c-2.393 2.384-7.403 7.619-7.403 7.619l.1 10.286-30.698 6.575s-3.442-4.67-10.895-3.146a10.832 10.832 0 0 0-7.403 7.914l-6.958 1.855-44.862 11.626s-1.69-3.478-8.069-2.187c0 0-4.183 1.29-4.935 5.063 0 0-10.562 3.576-11.364 3.772-.802.197-5.576 2.385-6.169 6.55 0 0 .099.8.506.996 0 0 .062-1.389 4.763-2.63 4.7-1.241 98.236-21.186 102.197-21.936 3.96-.75 40.826-7.14 72.005-2.95 8.84 1.077 18.61 2.657 27.268 4.732l-.185-2.458s-.062-1.081-4.85-4.227z"/>
            <path fill="#000" d="M158.507 85.537l.545 14.255s34.096.746 52.29 7.222V97.73c.024-1.88-1.305-3.494-3.123-3.794-3.31-.835-46.329-10.688-46.329-10.688s-3.383-1.176-3.383 2.29z" opacity=".1"/>
            <ellipse cx="197.008" cy="216.567" fill="#000" opacity=".3" rx="2.996" ry="3.423" transform="rotate(-32.05 197.008 216.567)"/>
            <ellipse cx="197.567" cy="216.215" fill="#FFD656" rx="2.589" ry="2.955" transform="rotate(-32.05 197.567 216.215)"/>
            <ellipse cx="223.915" cy="213.59" fill="#000" opacity=".3" rx="2.996" ry="3.423" transform="rotate(-32.05 223.915 213.59)"/>
            <ellipse cx="224.473" cy="213.238" fill="#FFD656" rx="2.589" ry="2.955" transform="rotate(-32.05 224.473 213.238)"/>
            <path stroke="url(#g)" stroke-width=".8" d="M0 114.201L296.6.4"/>
            <path fill="url(#l)" d="M65.644 107.014l60.484-23.958h12.365L74.08 107.014z"/>
            <use fill="url(#l)" xlink:href="#r"/>
            <use fill="#000" fill-opacity=".3" xlink:href="#r"/>
            <path stroke="#3C3371" stroke-linecap="round" stroke-linejoin="round" stroke-width=".8" d="M64.043 121.389l22.866-40.73 12.358 31.525" opacity=".4"/>
            <path stroke="#3C3371" stroke-linecap="round" stroke-linejoin="round" stroke-width=".8" d="M78.453 117.396l18.708-40.73 12.513 27.084" opacity=".6"/>
            <path stroke="#3C3371" stroke-linecap="round" stroke-linejoin="round" stroke-width=".8" d="M92.062 113.403l17.274-41.528 15.548 33.342" opacity=".8"/>
            <path stroke="#3C3371" stroke-linecap="round" stroke-linejoin="round" stroke-width=".8" d="M108.073 110.208l15.407-43.923 15.013 36.192"/>
        </g>
        <path fill="#6E2DFD" d="M202.617 6.537l3.656 4.942a.87.87 0 0 1-.197 1.223.914.914 0 0 1-1.25-.193l-2.959-3.99-2.96 3.99a.914.914 0 0 1-1.249.193l-.013-.013a.869.869 0 0 1-.197-1.223l3.696-4.98a.896.896 0 0 1 1.17-.219c0 .013.013.013.013.013.027 0 .04.013.053.026h.013l.013.013a.828.828 0 0 1 .21.218zm.144-5.662v3.5a.886.886 0 0 1-.894.876.886.886 0 0 1-.894-.876v-3.5c0-.489.407-.875.894-.875.487 0 .894.399.894.875zm-6.589 3.41l3.406 1.081a.882.882 0 0 1 .58 1.107.91.91 0 0 1-1.132.566l-3.406-1.094a.882.882 0 0 1-.58-1.106.903.903 0 0 1 1.132-.554zm11.93 1.66l-3.407 1.081a.899.899 0 0 1-1.131-.566c-.158-.463.105-.952.578-1.107l3.407-1.08a.899.899 0 0 1 1.13.566.867.867 0 0 1-.578 1.106z"/>
        <g transform="translate(433 167)">
            <use fill="#000" filter="url(#s)" xlink:href="#t"/>
            <use fill="#FFF" xlink:href="#t"/>
        </g>
        <path fill="url(#u)" fill-rule="nonzero" d="M51.684 31.371c-2.937 0-5.317 2.329-5.317 5.2.003.692.151 1.376.436 2.01a.73.73 0 0 1-.16.82l-1.47 1.437a.772.772 0 0 1-.82.165 4.746 4.746 0 0 0-3.562 0 .772.772 0 0 1-.822-.163l-5.186-5.07a.733.733 0 0 1-.217-.617c.019-.146.029-.292.029-.439 0-2.051-1.7-3.714-3.798-3.714C28.7 31 27 32.663 27 34.714c0 2.052 1.7 3.715 3.797 3.715a3.734 3.734 0 0 0 1.439-.298.772.772 0 0 1 .835.16l4.75 4.651a.73.73 0 0 1 .167.804 4.45 4.45 0 0 0-.057 3.343.735.735 0 0 1-.338.9l-3.949 2.21a.774.774 0 0 1-.796-.023 3.78 3.78 0 0 0-2.046-.605c-2.097 0-3.797 1.663-3.797 3.715 0 2.051 1.7 3.714 3.797 3.714 2.003 0 3.654-1.537 3.752-3.494a.741.741 0 0 1 .381-.607l5.19-2.901a.775.775 0 0 1 .666-.042 4.772 4.772 0 0 0 1.779.358c2.725-.003 4.933-2.163 4.936-4.828a4.572 4.572 0 0 0-.352-1.743.731.731 0 0 1 .167-.804l1.47-1.438a.772.772 0 0 1 .84-.149c.648.277 1.346.42 2.053.42 2.936 0 5.316-2.329 5.316-5.2 0-2.872-2.38-5.2-5.316-5.2z" transform="translate(433 167)"/>
        <g transform="translate(30 250)">
            <use fill="#000" filter="url(#v)" xlink:href="#w"/>
            <use fill="#FFF" xlink:href="#w"/>
        </g>
        <path fill="url(#x)" d="M53.188 32H27.811c-1 0-1.812.8-1.812 1.786v3.571c0 .986.811 1.786 1.813 1.786h25.375c1 0 1.812-.8 1.812-1.786v-3.571c0-.987-.811-1.786-1.813-1.786zm-23.26 3.571a1.5 1.5 0 0 1 1.51-1.488 1.5 1.5 0 0 1 1.51 1.488 1.5 1.5 0 0 1-1.51 1.489 1.5 1.5 0 0 1-1.51-1.489zm6.343 1.489a1.5 1.5 0 0 1-1.51-1.489 1.5 1.5 0 0 1 1.51-1.488 1.5 1.5 0 0 1 1.51 1.488 1.502 1.502 0 0 1-1.51 1.489zm16.916 3.869c1.002 0 1.813.8 1.813 1.785v3.572c0 .986-.811 1.785-1.813 1.785H27.814c-1.002 0-1.813-.8-1.813-1.785v-3.572c0-.986.811-1.785 1.813-1.785h25.375zM29.927 44.5a1.5 1.5 0 0 0 1.51 1.488 1.5 1.5 0 0 0 1.51-1.488 1.5 1.5 0 0 0-1.51-1.488 1.5 1.5 0 0 0-1.51 1.488zm6.344 1.488a1.502 1.502 0 0 0 1.51-1.488 1.5 1.5 0 0 0-1.51-1.488 1.5 1.5 0 0 0-1.51 1.488 1.5 1.5 0 0 0 1.51 1.488zm16.916 3.87c1.002 0 1.813.799 1.813 1.785v3.571c0 .987-.811 1.786-1.813 1.786H27.814C26.81 57 26 56.2 26 55.214v-3.571c0-.986.811-1.786 1.813-1.786h25.375zm-23.26 3.57a1.5 1.5 0 0 0 1.51 1.489 1.5 1.5 0 0 0 1.51-1.488 1.5 1.5 0 0 0-1.51-1.489 1.5 1.5 0 0 0-1.51 1.489zm6.344 1.489a1.502 1.502 0 0 0 1.51-1.488 1.5 1.5 0 0 0-1.51-1.489 1.5 1.5 0 0 0-1.51 1.489 1.5 1.5 0 0 0 1.51 1.488z" transform="translate(30 250)"/>
        <path fill="url(#u)" fill-rule="nonzero" d="M386.136 105.98l-111.937 36.106c-15.558 5.157-31.982-3.441-37.17-18.917-5.186-15.477 3.457-31.812 19.015-36.97l111.937-36.105c15.558-5.157 31.982 3.441 37.17 18.918 5.187 15.476-3.457 32.24-19.015 36.969z" transform="scale(-1 1) rotate(72 1.188 -345.664)"/>
    </g>
</svg>
