<svg xmlns="http://www.w3.org/2000/svg" viewBox="0 0 60 60"><defs><linearGradient id="a" x1="0%" x2="91.551%" y1="0%" y2="100%"><stop offset="0%" stop-color="#FFB242"/><stop offset="13.685%" stop-color="#D955FF"/><stop offset="60.49%" stop-color="#562FFD"/><stop offset="76.327%" stop-color="#562FFD"/><stop offset="100%" stop-color="#489BFF"/></linearGradient></defs><g fill="none" fill-rule="evenodd"><circle cx="30" cy="30" r="30" fill="#FFF"/><path fill="url(#a)" d="M19.885 29.59c0 2.147 1.21 3.999 2.973 4.98.136 1.197.46 2.352.984 3.417C19.935 37.16 17 33.718 17 29.591 17 24.847 20.875 21 25.654 21s8.654 3.847 8.654 8.59c0 2.739-1.314 5.148-3.323 6.72-.81-.633-1.325-1.52-1.433-2.525 1.142-1.046 1.871-2.531 1.871-4.194 0-3.158-2.588-5.727-5.77-5.727-3.18 0-5.768 2.57-5.768 5.727zm15.273-4.577C39.065 25.84 42 29.282 42 33.409 42 38.153 38.125 42 33.346 42s-8.654-3.847-8.654-8.59c0-2.739 1.314-5.148 3.323-6.72.81.633 1.325 1.519 1.433 2.525-1.142 1.046-1.871 2.531-1.871 4.194 0 3.158 2.588 5.727 5.77 5.727 3.18 0 5.768-2.57 5.768-5.727 0-2.146-1.21-3.998-2.973-4.979a10.365 10.365 0 0 0-.984-3.417z"/></g></svg>