<svg xmlns="http://www.w3.org/2000/svg" viewBox="0 0 60 60"><defs><linearGradient id="a" x1="100%" x2="15.328%" y1="100%" y2="0%"><stop offset="0%" stop-color="#EA46A1"/><stop offset="100%" stop-color="#FFD656"/></linearGradient></defs><g fill="none" fill-rule="evenodd"><circle cx="30" cy="30" r="30" fill="#FFF"/><path fill="url(#a)" fill-rule="nonzero" d="M31.554 34.842a7 7 0 0 1 5.405-2.62h.031a6.913 6.913 0 0 1 4.938 2.085A7.097 7.097 0 0 1 44 39.3a.7.7 0 0 1-.7.701H30.7a.7.7 0 0 1-.7-.701A7.087 7.087 0 0 1 30.112 38H18.7a.7.7 0 0 1-.7-.701c-.023-3.878 3.09-7.043 6.96-7.076h.03a6.913 6.913 0 0 1 4.938 2.084 7.09 7.09 0 0 1 1.626 2.535zm-7.16-6.022h-.025a4.905 4.905 0 0 1-4.91-4.899A4.905 4.905 0 0 1 24.346 19h.022a4.905 4.905 0 0 1 4.912 4.898 4.905 4.905 0 0 1-4.888 4.922zm12 2h-.025a4.905 4.905 0 0 1-4.91-4.899A4.905 4.905 0 0 1 36.346 21h.022a4.905 4.905 0 0 1 4.912 4.898 4.905 4.905 0 0 1-4.888 4.922z"/></g></svg>