<svg xmlns="http://www.w3.org/2000/svg" viewBox="0 0 60 60"><defs><linearGradient id="a" x1="35.378%" x2="77.098%" y1="-12.678%" y2="82.908%"><stop offset="0%" stop-color="#562FFD"/><stop offset="100%" stop-color="#4897FF"/></linearGradient></defs><g fill="none" fill-rule="evenodd"><circle cx="30" cy="30" r="30" fill="#FFF"/><path fill="url(#a)" fill-rule="nonzero" d="M39.865 27.875c.008-4.718-3.397-8.766-8.088-9.616-4.69-.85-9.325 1.742-11.008 6.156-1.682 4.415.068 9.388 4.157 11.814v7.54c0 .452.275.859.697 1.032.421.172.907.077 1.23-.243L29.8 41.64a.282.282 0 0 1 .4 0l2.948 2.918c.322.32.808.415 1.23.243.421-.173.696-.58.696-1.032v-7.54a9.734 9.734 0 0 0 4.791-8.354zM30 35.962c-4.514 0-8.174-3.62-8.174-8.087 0-4.466 3.66-8.087 8.174-8.087 4.514 0 8.174 3.62 8.174 8.087-.005 4.464-3.662 8.082-8.174 8.087zm6.765-8.087c0-3.696-3.029-6.692-6.765-6.692-3.736 0-6.765 2.996-6.765 6.692s3.029 6.692 6.765 6.692c3.734-.003 6.761-2.997 6.765-6.692z"/></g></svg>