<?xml version="1.0" encoding="UTF-8"?>
<svg width="60px" height="60px" viewBox="0 0 60 60" version="1.1" xmlns="http://www.w3.org/2000/svg" xmlns:xlink="http://www.w3.org/1999/xlink">
    <!-- Generator: sketchtool 52.4 (67378) - http://www.bohemiancoding.com/sketch -->
    <title>AA7E36F5-75AD-4070-9F94-24BA478EA062@1x</title>
    <desc>Created with sketchtool.</desc>
    <defs>
        <linearGradient x1="37.2662813%" y1="13.2652323%" x2="86.6052057%" y2="90.2106752%" id="linearGradient-1">
            <stop stop-color="#562FFD" offset="0%"></stop>
            <stop stop-color="#4897FF" offset="100%"></stop>
        </linearGradient>
    </defs>
    <g id="Export" stroke="none" stroke-width="1" fill="none" fill-rule="evenodd">
        <g transform="translate(-994.000000, -252.000000)" id="Group-5">
            <g transform="translate(994.000000, 252.000000)">
                <circle id="Oval" fill="#FFFFFF" cx="30" cy="30" r="30"></circle>
                <path d="M40.6012053,38.6839375 C40.6012473,37.6569671 40.4475016,36.6359691 40.145247,35.656 C40.0796388,35.4433942 40.1246759,35.2114853 40.2648476,35.0401419 C40.4050193,34.8687984 40.6211752,34.7814296 40.838872,34.808125 C42.9251796,35.0631742 44.708236,36.454749 45.488872,38.4371875 C45.5696369,38.6394358 45.5461589,38.8692511 45.4262333,39.0503302 C45.3063077,39.2314093 45.1056304,39.3400522 44.8908303,39.3401875 L41.2470386,39.3401875 C40.8903547,39.3401875 40.6012053,39.0463743 40.6012053,38.6839375 Z M21.0544136,35.5995625 C20.7398331,36.5964601 20.5799042,37.6370451 20.580372,38.6839375 C20.580372,39.0463743 20.2912225,39.3401875 19.9345386,39.3401875 L15.6462053,39.3401875 C15.4315157,39.3403121 15.2307995,39.2320229 15.1106376,39.0512412 C14.9904756,38.8704594 14.966578,38.6408207 15.046872,38.4385 C15.9294054,36.206612 18.0582418,34.7437173 20.425372,34.7425 L20.440872,34.7425 C20.6470142,34.7429254 20.840572,34.8433199 20.9618345,35.0127126 C21.083097,35.1821054 21.1174937,35.4001429 21.0544136,35.5995625 Z M27.4649553,30.5569375 L27.4649553,30.560875 C25.0933709,29.1375838 23.9512898,26.2785655 24.6756638,23.5783275 C25.4000378,20.8780894 27.8119746,19.0034859 30.5663092,19.0000049 C33.3206437,18.9965238 35.7371622,20.865025 36.4681444,23.5634236 C37.1991265,26.2618223 36.064048,29.1237186 33.6959553,30.553 C33.592202,30.6167874 33.5321553,30.7340777 33.540312,30.8570205 C33.5484687,30.9799633 33.6234651,31.0880027 33.7347053,31.1370625 C36.7180876,32.421112 38.6582395,35.3917113 38.6637053,38.6839375 C38.6637053,39.0463743 38.3745559,39.3401875 38.017872,39.3401875 L23.1637053,39.3401875 C22.8070214,39.3401875 22.517872,39.0463743 22.517872,38.6839375 C22.5201507,35.3968621 24.4511477,32.4278314 27.4262053,31.1370625 C27.5362091,31.0879067 27.6102509,30.9807469 27.6183886,30.8589182 C27.6265262,30.7370895 27.5674135,30.6207463 27.4649553,30.5569375 Z M27.0387053,25.21375 C27.0368648,27.0674044 28.4238166,28.6178794 30.239944,28.7924186 C32.0560714,28.9669577 33.7045022,27.7081985 34.0447053,25.8870625 C34.0792766,25.6796888 34.0139336,25.4680425 33.8689827,25.3178962 C33.7240319,25.16775 33.5170388,25.0972991 33.3123303,25.1284375 C32.9385833,25.1848803 32.5612657,25.2133943 32.1834136,25.21375 C30.7383323,25.2145867 29.3204087,24.8147949 28.082372,24.0574375 C27.9046186,23.949093 27.6864892,23.9340267 27.4959421,24.0169326 C27.3053951,24.0998385 27.1655889,24.2706405 27.1200803,24.476125 C27.0660295,24.7181574 27.0387355,24.9655642 27.0387053,25.21375 Z M40.110372,33.4339375 C38.4509401,33.4159309 37.0193165,32.2459761 36.646122,30.602875 C36.3110201,29.0961805 36.950538,27.5389652 38.240233,26.7212416 C39.529928,25.9035179 41.1875483,26.0042459 42.3721439,26.9723238 C43.5567394,27.9404017 44.0090595,29.5639642 43.4996315,31.0193395 C42.9902035,32.4747148 41.6305165,33.4433917 40.110372,33.4339375 Z M20.425372,33.4339375 C18.4636105,33.4339375 16.8732886,31.8179652 16.8732886,29.8245625 C16.8732886,27.8311597 18.4636105,26.2151875 20.425372,26.2151875 C22.3871334,26.2151875 23.9774553,27.8311597 23.9774553,29.8245625 C23.9774553,31.8179652 22.3871334,33.4339375 20.425372,33.4339375 Z" id="Shape-6" fill="url(#linearGradient-1)" fill-rule="nonzero"></path>
            </g>
        </g>
    </g>
</svg>