<?xml version="1.0" encoding="UTF-8"?>
<svg width="15px" height="15px" viewBox="0 0 15 15" version="1.1" xmlns="http://www.w3.org/2000/svg" xmlns:xlink="http://www.w3.org/1999/xlink">
    <!-- Generator: sketchtool 52.4 (67378) - http://www.bohemiancoding.com/sketch -->
    <title>90362639-0AE4-4FFF-AAEB-01D9C216DB1F@1x</title>
    <desc>Created with sketchtool.</desc>
    <g id="Design" stroke="none" stroke-width="1" fill="none" fill-rule="evenodd">
        <g id="1a-Home" transform="translate(-1228.000000, -4698.000000)" fill="#232C4C">
            <g id="Footer" transform="translate(147.000000, 4583.000000)">
                <g id="Social">
                    <g transform="translate(983.000000, 113.000000)">
                        <g id="Instagram" transform="translate(97.000000, 1.000000)">
                            <path d="M8.50001489,1 C10.5368777,1 10.7922857,1.00863368 11.5922404,1.04513329 C12.390528,1.08154358 12.9357297,1.20833954 13.412785,1.39375517 C13.9059763,1.58539301 14.3242332,1.84184296 14.74121,2.25878998 C15.158157,2.67576676 15.414607,3.09402371 15.6062746,3.58721501 C15.7916605,4.06427028 15.9184564,4.60947204 15.9548667,5.40775959 C15.9913663,6.20771434 16,6.46312229 16,8.50001489 C16,10.5368777 15.9913663,10.7922857 15.9548667,11.5922404 C15.9184564,12.390528 15.7916605,12.9357297 15.6062746,13.412785 C15.414607,13.9059763 15.158157,14.3242332 14.74121,14.74121 C14.3242332,15.158157 13.9059763,15.414607 13.412785,15.6062746 C12.9357297,15.7916605 12.390528,15.9184564 11.5922404,15.9548667 C10.7922857,15.9913663 10.5368777,16 8.50001489,16 C6.46312229,16 6.20771434,15.9913663 5.40775959,15.9548667 C4.60947204,15.9184564 4.06427028,15.7916605 3.58721501,15.6062746 C3.09402371,15.414607 2.67576676,15.158157 2.25878998,14.74121 C1.84184296,14.3242332 1.58539301,13.9059763 1.39375517,13.412785 C1.20833954,12.9357297 1.08154358,12.390528 1.04513329,11.5922404 C1.00863368,10.7922857 1,10.5368777 1,8.50001489 C1,6.46312229 1.00863368,6.20771434 1.04513329,5.40775959 C1.08154358,4.60947204 1.20833954,4.06427028 1.39375517,3.58721501 C1.58539301,3.09402371 1.84184296,2.67576676 2.25878998,2.25878998 C2.67576676,1.84184296 3.09402371,1.58539301 3.58721501,1.39375517 C4.06427028,1.20833954 4.60947204,1.08154358 5.40775959,1.04513329 C6.20771434,1.00863368 6.46312229,1 8.50001489,1 Z M8.50001489,2.35134894 C6.49741883,2.35134894 6.26020113,2.35900016 5.4693564,2.39508297 C4.73811381,2.42842683 4.34099448,2.55060823 4.07671468,2.6533192 C3.726634,2.78937403 3.47679327,2.95189554 3.21435929,3.21435929 C2.95189554,3.47679327 2.78937403,3.726634 2.6533192,4.07671468 C2.55060823,4.34099448 2.42842683,4.73811381 2.39508297,5.4693564 C2.35900016,6.26020113 2.35134894,6.49741883 2.35134894,8.50001489 C2.35134894,10.5025812 2.35900016,10.7397989 2.39508297,11.5306436 C2.42842683,12.2618862 2.55060823,12.6590055 2.6533192,12.9232853 C2.78937403,13.273366 2.95192531,13.5232067 3.21435929,13.7856407 C3.47679327,14.0481045 3.726634,14.210626 4.07671468,14.3466808 C4.34099448,14.4493918 4.73811381,14.5715732 5.4693564,14.604917 C6.26011182,14.6409998 6.49726997,14.6486511 8.50001489,14.6486511 C10.50273,14.6486511 10.739918,14.6409998 11.5306436,14.604917 C12.2618862,14.5715732 12.6590055,14.4493918 12.9232853,14.3466808 C13.273366,14.210626 13.5232067,14.0481045 13.7856407,13.7856407 C14.0481045,13.5232067 14.210626,13.273366 14.3466808,12.9232853 C14.4493918,12.6590055 14.5715732,12.2618862 14.604917,11.5306436 C14.6409998,10.7397989 14.6486511,10.5025812 14.6486511,8.50001489 C14.6486511,6.49741883 14.6409998,6.26020113 14.604917,5.4693564 C14.5715732,4.73811381 14.4493918,4.34099448 14.3466808,4.07671468 C14.210626,3.726634 14.0481045,3.47679327 13.7856407,3.21435929 C13.5232067,2.95189554 13.273366,2.78937403 12.9232853,2.6533192 C12.6590055,2.55060823 12.2618862,2.42842683 11.5306436,2.39508297 C10.7397989,2.35900016 10.5025812,2.35134894 8.50001489,2.35134894 Z M8.50001489,4.64865106 C10.627055,4.64865106 12.3513489,6.37294504 12.3513489,8.50001489 C12.3513489,10.627055 10.627055,12.3513489 8.50001489,12.3513489 C6.37294504,12.3513489 4.64865106,10.627055 4.64865106,8.50001489 C4.64865106,6.37294504 6.37294504,4.64865106 8.50001489,4.64865106 Z M8.50001489,11 C9.88071832,11 11,9.88071832 11,8.50001489 C11,7.11928168 9.88071832,6 8.50001489,6 C7.11928168,6 6,7.11928168 6,8.50001489 C6,9.88071832 7.11928168,11 8.50001489,11 Z M13.4035261,4.49648996 C13.4035261,4.99355154 13.0005716,5.39647627 12.50351,5.39647627 C12.0064782,5.39647627 11.6035237,4.99355154 11.6035237,4.49648996 C11.6035237,3.99942839 12.0064782,3.59647389 12.50351,3.59647389 C13.0005716,3.59647389 13.4035261,3.99942839 13.4035261,4.49648996 Z"></path>
                        </g>
                    </g>
                </g>
            </g>
        </g>
    </g>
</svg>