<?xml version="1.0" encoding="UTF-8"?>
<svg width="15px" height="13px" viewBox="0 0 15 13" version="1.1" xmlns="http://www.w3.org/2000/svg" xmlns:xlink="http://www.w3.org/1999/xlink">
    <!-- Generator: sketchtool 52.4 (67378) - http://www.bohemiancoding.com/sketch -->
    <title>75DDCFD8-C4DF-4C86-91BE-292BF66D1A16@1x</title>
    <desc>Created with sketchtool.</desc>
    <g id="Design" stroke="none" stroke-width="1" fill="none" fill-rule="evenodd">
        <g id="1a-Home" transform="translate(-1195.000000, -4699.000000)" fill="#232C4C">
            <g id="Footer" transform="translate(147.000000, 4583.000000)">
                <g id="Social">
                    <g transform="translate(983.000000, 113.000000)">
                        <path d="M79.5862815,3.24033193 C78.9911356,3.61603281 78.3335113,3.88926981 77.6306304,4.03546826 C77.0707286,3.39819294 76.2705257,3 75.3846154,3 C73.6864871,3 72.3083598,4.46948191 72.3083598,6.28175964 C72.3083598,6.53916888 72.3347929,6.78866425 72.3876592,7.02899619 C69.8300537,6.89196117 67.5628121,5.58700458 66.0441086,3.5989555 C65.7789763,4.08545064 65.6275866,4.64983499 65.6275866,5.25087309 C65.6275866,6.38880523 66.1706672,7.39345103 66.9969028,7.98199353 C66.4930713,7.96616577 66.0176755,7.81705168 65.6019544,7.57297107 L65.6019544,7.61295697 C65.6019544,9.20364615 66.6628841,10.5306783 68.0718501,10.8309891 C67.8139268,10.9080452 67.5415855,10.9467816 67.2608336,10.9467816 C67.0625851,10.9467816 66.8691427,10.9267886 66.6817077,10.8884688 C67.0733987,12.1917593 68.2092222,13.141008 69.5561103,13.1664157 C68.5031907,14.0469386 67.1755267,14.5717535 65.7341201,14.5717535 C65.4858089,14.5717535 65.2403012,14.5567588 65,14.5267694 C66.3617067,15.4564416 67.9801351,16 69.7175126,16 C75.3786079,16 78.4732865,11.0000961 78.4732865,6.66287527 C78.4732865,6.52000897 78.4708835,6.37755919 78.465677,6.23760854 C79.0668304,5.77485502 79.589085,5.19714203 80,4.53904072 C79.4489093,4.79978213 78.8553654,4.97638653 78.2329853,5.0555253 C78.868582,4.64983499 79.3563933,4.0067284 79.5862815,3.24033193" id="Twitter"></path>
                    </g>
                </g>
            </g>
        </g>
    </g>
</svg>