<svg xmlns="http://www.w3.org/2000/svg" viewBox="0 0 131 37"><defs><linearGradient id="a" x1="50%" x2="50%" y1="-9.033%" y2="131.04%"><stop offset="0%" stop-color="#FFB242"/><stop offset="22.27%" stop-color="#D955FF"/><stop offset="60.49%" stop-color="#562FFD"/><stop offset="76.327%" stop-color="#562FFD"/><stop offset="100%" stop-color="#489BFF"/></linearGradient><linearGradient id="b" x1="100%" x2="15.328%" y1="100%" y2="0%"><stop offset="0%" stop-color="#EA46A1"/><stop offset="100%" stop-color="#FFD656"/></linearGradient><linearGradient id="c" x1="6.237%" x2="107.065%" y1="83.48%" y2="23.529%"><stop offset="0%" stop-color="#562FFD"/><stop offset="74.366%" stop-color="#4897FF"/><stop offset="100%" stop-color="#48D3FF"/></linearGradient></defs><g fill="none" fill-rule="evenodd"><path fill="#232C4C" d="M21.418 18.562a2.34 2.34 0 0 0-.592-.62l-.037-.037h-.037c-.036-.037-.073-.073-.147-.073 0 0-.037 0-.037-.037-1.11-.658-2.515-.402-3.292.621L6.883 32.557c-.813 1.096-.555 2.668.555 3.471l.037.037c1.11.804 2.7.548 3.514-.548l8.321-11.328 8.322 11.328c.813 1.096 2.404 1.352 3.513.548 1.11-.804 1.369-2.375.555-3.471L21.418 18.562z"/><path fill="url(#a)" d="M21.825 2.485v9.939c0 1.388-1.146 2.484-2.515 2.484-1.405 0-2.515-1.132-2.515-2.484v-9.94C16.795 1.097 17.942 0 19.31 0c1.369 0 2.515 1.133 2.515 2.485z"/><path fill="url(#b)" fill-rule="nonzero" d="M3.296 12.168l9.579 3.07a2.51 2.51 0 0 1 1.627 3.142c-.444 1.315-1.85 2.01-3.18 1.607l-9.58-3.106A2.51 2.51 0 0 1 .115 13.74a2.533 2.533 0 0 1 3.18-1.571z"/><path fill="url(#c)" fill-rule="nonzero" d="M36.84 16.881l-9.578 3.07a2.522 2.522 0 0 1-3.18-1.608c-.445-1.315.295-2.704 1.626-3.142l9.58-3.07a2.522 2.522 0 0 1 3.18 1.608 2.465 2.465 0 0 1-1.627 3.142z"/><g fill="#232C4C"><path d="M48.725 26.085c-.375-.259-.637-.74-.637-1.258 0-.851.712-1.517 1.574-1.517.45 0 .75.148.974.296 1.574 1.221 3.26 1.924 5.321 1.924s3.373-.962 3.373-2.368v-.037c0-1.332-.75-2.072-4.272-2.849-4.047-.962-6.333-2.146-6.333-5.587v-.037c0-3.219 2.698-5.439 6.483-5.439 2.398 0 4.309.629 6.033 1.739.374.222.75.666.75 1.295 0 .851-.713 1.517-1.575 1.517-.337 0-.6-.074-.862-.259-1.46-.925-2.885-1.406-4.346-1.406-1.949 0-3.073.999-3.073 2.22v.037c0 1.443.862 2.072 4.534 2.96 4.01.962 6.07 2.368 6.07 5.476v.037c0 3.515-2.81 5.587-6.782 5.587a11.65 11.65 0 0 1-7.232-2.331zM65.775 10.101a1.59 1.59 0 0 1 1.611-1.591c.937 0 1.649.74 1.649 1.591v10.434l6.145-5.957c.45-.444.825-.703 1.424-.703.862 0 1.424.703 1.424 1.48 0 .518-.262.925-.75 1.369l-3.784 3.441 4.347 5.587c.3.407.45.703.45 1.073 0 .888-.713 1.48-1.537 1.48-.637 0-1.012-.222-1.424-.74L71.208 22.2l-2.173 2.035v2.479c0 .925-.75 1.591-1.649 1.591a1.59 1.59 0 0 1-1.611-1.591V10.101z"/><path fill-rule="nonzero" d="M87.096 28.49c-4.16 0-7.344-2.96-7.344-7.326v-.037c0-4.033 2.885-7.363 7.007-7.363 4.572 0 6.82 3.7 6.82 6.956 0 .925-.712 1.554-1.536 1.554h-8.956c.337 2.294 2.023 3.589 4.122 3.589 1.386 0 2.473-.481 3.372-1.221.262-.185.45-.296.825-.296.749 0 1.311.555 1.311 1.295 0 .407-.187.74-.45.999-1.349 1.147-2.96 1.85-5.17 1.85zm3.223-8.362c-.225-2.072-1.462-3.737-3.635-3.737-2.023 0-3.41 1.517-3.71 3.737h7.345zM102.91 28.49c-4.16 0-7.345-2.96-7.345-7.326v-.037c0-4.033 2.885-7.363 7.007-7.363 4.572 0 6.82 3.7 6.82 6.956 0 .925-.712 1.554-1.536 1.554H98.9c.337 2.294 2.023 3.589 4.122 3.589 1.386 0 2.473-.481 3.372-1.221.263-.185.45-.296.825-.296.75 0 1.311.555 1.311 1.295 0 .407-.187.74-.45.999-1.311 1.147-2.96 1.85-5.17 1.85zm3.26-8.362c-.225-2.072-1.462-3.737-3.635-3.737-2.024 0-3.41 1.517-3.71 3.737h7.344z"/><path d="M112.352 10.101a1.59 1.59 0 0 1 1.612-1.591c.936 0 1.648.74 1.648 1.591v16.613c0 .925-.75 1.591-1.648 1.591a1.59 1.59 0 0 1-1.612-1.591V10.101zM118.16 26.862v-.037c0-.629.225-.999.75-1.554l7.607-8.547h-6.745c-.75 0-1.35-.592-1.35-1.295 0-.74.6-1.332 1.35-1.332h9.443c.899 0 1.573.518 1.573 1.295v.074c0 .629-.224.999-.712 1.554l-7.681 8.51h7.044c.75 0 1.35.592 1.35 1.332 0 .74-.6 1.295-1.35 1.295h-9.705c-.9 0-1.574-.555-1.574-1.295z"/></g></g></svg>