<svg xmlns="http://www.w3.org/2000/svg" viewBox="0 0 60 60"><defs><linearGradient id="a" x1="35.378%" x2="77.098%" y1="-12.678%" y2="82.908%"><stop offset="0%" stop-color="#562FFD"/><stop offset="100%" stop-color="#4897FF"/></linearGradient></defs><g fill="none" fill-rule="evenodd"><circle cx="30" cy="30" r="30" fill="#FFF"/><path fill="url(#a)" fill-rule="nonzero" d="M40.054 34h-.043a.56.56 0 0 1-.507-.283l-5.46-9.431a.58.58 0 0 1-.02-.544 3.95 3.95 0 0 0 .41-1.742c0-2.21-1.761-4-3.934-4s-3.934 1.79-3.934 4a3.95 3.95 0 0 0 .41 1.737.58.58 0 0 1-.02.549l-5.461 9.431a.56.56 0 0 1-.506.283h-.043c-1.946-.007-3.603 1.435-3.9 3.39-.296 1.956.858 3.838 2.716 4.428 1.857.59 3.86-.29 4.71-2.07a.561.561 0 0 1 .505-.32h11.046c.215 0 .41.124.505.32.85 1.78 2.853 2.66 4.71 2.07 1.858-.59 3.012-2.472 2.716-4.428-.297-1.955-1.954-3.397-3.9-3.39zm-15.078 2.57a.561.561 0 0 1-.504-.317 3.862 3.862 0 0 0-.401-.653.58.58 0 0 1-.038-.638l5.086-8.792a.558.558 0 0 1 .608-.268 3.276 3.276 0 0 0 1.546 0 .558.558 0 0 1 .608.268l5.085 8.79a.58.58 0 0 1-.038.637c-.154.203-.288.421-.4.65a.561.561 0 0 1-.504.318l-11.048.005z"/></g></svg>