<svg xmlns="http://www.w3.org/2000/svg" viewBox="0 0 60 60"><defs><linearGradient id="a" x1="100%" x2="15.328%" y1="100%" y2="0%"><stop offset="0%" stop-color="#EA46A1"/><stop offset="100%" stop-color="#FFD656"/></linearGradient></defs><g fill="none" fill-rule="evenodd"><circle cx="30" cy="30" r="30" fill="#FFF"/><path fill="url(#a)" fill-rule="nonzero" d="M27.962 27.325a4.108 4.108 0 0 1-1.691-3.262 4.34 4.34 0 0 1 4.229-4.23 4.34 4.34 0 0 1 4.23 4.23 4.108 4.108 0 0 1-1.692 3.262.298.298 0 0 0-.121.242v.725c0 .333-.27.604-.605.604h-3.624a.604.604 0 0 1-.605-.604v-.725a.302.302 0 0 0-.12-.242zm2.538-8.7a1.208 1.208 0 0 1-1.208-1.208v-1.209a1.208 1.208 0 0 1 2.416 0v1.209c0 .667-.54 1.208-1.208 1.208zm6.542.604l-.854.854a1.209 1.209 0 1 1-1.709-1.71l.854-.854a1.209 1.209 0 0 1 1.709 1.71zm1.312 6.042h-1.208a1.208 1.208 0 0 1 0-2.417h1.208a1.208 1.208 0 0 1 0 2.417zm-11.833-6.897a1.209 1.209 0 1 1-1.709 1.71l-.854-.855a1.209 1.209 0 0 1 1.709-1.71l.854.855zm-2.667 4.48a1.208 1.208 0 0 1 0 2.417h-1.208a1.208 1.208 0 0 1 0-2.417h1.208zm5.438 9.365a.906.906 0 1 1 0-1.813h2.416a.906.906 0 1 1 0 1.813h-2.416zm-9.063 7.431a2.658 2.658 0 1 1 0-5.317 2.658 2.658 0 0 1 0 5.317zM16.393 44a.303.303 0 0 1-.287-.398 4.34 4.34 0 0 1 4.123-2.985 4.34 4.34 0 0 1 4.12 2.984.303.303 0 0 1-.283.399h-7.673zM30.5 39.65a2.658 2.658 0 1 1 0-5.317 2.658 2.658 0 0 1 0 5.317zm10.27 0a2.658 2.658 0 1 1 0-5.317 2.658 2.658 0 0 1 0 5.317zM26.665 44a.303.303 0 0 1-.287-.398 4.34 4.34 0 0 1 4.123-2.985 4.34 4.34 0 0 1 4.12 2.984.303.303 0 0 1-.286.398l-7.67.001zm10.27 0a.303.303 0 0 1-.286-.398 4.34 4.34 0 0 1 4.123-2.985 4.34 4.34 0 0 1 4.12 2.984.303.303 0 0 1-.286.398l-7.67.001z"/></g></svg>