<?xml version="1.0" encoding="UTF-8"?>
<svg width="504px" height="451px" viewBox="0 0 504 451" version="1.1" xmlns="http://www.w3.org/2000/svg" xmlns:xlink="http://www.w3.org/1999/xlink">
    <!-- Generator: sketchtool 52.4 (67378) - http://www.bohemiancoding.com/sketch -->
    <title>8C57E85E-996B-4949-BEC3-F109EDD7495E@1x</title>
    <desc>Created with sketchtool.</desc>
    <defs>
        <linearGradient x1="84.7453443%" y1="86.8999242%" x2="-5.55121789%" y2="0%" id="linearGradient-1">
            <stop stop-color="#EA46A1" offset="0%"></stop>
            <stop stop-color="#FFD656" offset="100%"></stop>
        </linearGradient>
        <path d="M313.368066,544.881463 C437.759803,544.881463 556.837129,516.90319 544.530039,405.483422 C537.749985,344.101573 489.729145,289.244061 484.86064,183.847661 C481.496786,111.024862 427.795737,85.0774767 346.888884,85.0774767 C222.497148,85.0774767 84.0980795,116.734445 84.0980795,241.225904 C84.0980795,365.717362 188.97633,544.881463 313.368066,544.881463 Z" id="path-2"></path>
        <linearGradient x1="40.2383226%" y1="49.0291262%" x2="71.008065%" y2="59.7087379%" id="linearGradient-4">
            <stop stop-color="#EEB47B" offset="0%"></stop>
            <stop stop-color="#DF6B7D" offset="100%"></stop>
        </linearGradient>
        <linearGradient x1="24.3070964%" y1="47.3022685%" x2="92.4685512%" y2="52.0294298%" id="linearGradient-5">
            <stop stop-color="#DF6B7D" offset="0%"></stop>
            <stop stop-color="#D5687C" offset="2%"></stop>
            <stop stop-color="#AA5B76" offset="11%"></stop>
            <stop stop-color="#854F70" offset="20%"></stop>
            <stop stop-color="#67466C" offset="30%"></stop>
            <stop stop-color="#503F69" offset="40%"></stop>
            <stop stop-color="#403A67" offset="51%"></stop>
            <stop stop-color="#363765" offset="63%"></stop>
            <stop stop-color="#333665" offset="79%"></stop>
            <stop stop-color="#2F3043" offset="93%"></stop>
            <stop stop-color="#2D2D2F" offset="100%"></stop>
        </linearGradient>
        <linearGradient x1="48.7034616%" y1="49.2236797%" x2="97.4069231%" y2="54.2507503%" id="linearGradient-6">
            <stop stop-color="#EEB47B" offset="0%"></stop>
            <stop stop-color="#DF6B7D" offset="100%"></stop>
        </linearGradient>
        <linearGradient x1="31.7773104%" y1="33.4748185%" x2="90.4416948%" y2="85.8433997%" id="linearGradient-7">
            <stop stop-color="#6FBEE8" offset="0%"></stop>
            <stop stop-color="#2964EC" offset="48%"></stop>
            <stop stop-color="#2D2D2F" offset="100%"></stop>
        </linearGradient>
        <linearGradient x1="-15.5830634%" y1="-9.51362636%" x2="159.656583%" y2="161.386356%" id="linearGradient-8">
            <stop stop-color="#6FBEE8" offset="0%"></stop>
            <stop stop-color="#2964EC" offset="100%"></stop>
        </linearGradient>
        <linearGradient x1="36.4317181%" y1="66.0412542%" x2="75.1101322%" y2="33.8327354%" id="linearGradient-9">
            <stop stop-color="#DF6B7D" offset="0%"></stop>
            <stop stop-color="#333665" offset="100%"></stop>
        </linearGradient>
        <linearGradient x1="38.2388499%" y1="67.5317375%" x2="83.2491627%" y2="20.1625857%" id="linearGradient-10">
            <stop stop-color="#EEB47B" offset="0%"></stop>
            <stop stop-color="#DF6B7D" offset="100%"></stop>
        </linearGradient>
        <linearGradient x1="37.1979931%" y1="113.933559%" x2="58.3623685%" y2="20.4824376%" id="linearGradient-11">
            <stop stop-color="#DF6B7D" offset="0%"></stop>
            <stop stop-color="#333665" offset="100%"></stop>
        </linearGradient>
        <linearGradient x1="34.8683358%" y1="145.295441%" x2="53.6929693%" y2="-22.3240783%" id="linearGradient-12">
            <stop stop-color="#DF6B7D" offset="0%"></stop>
            <stop stop-color="#333665" offset="100%"></stop>
        </linearGradient>
        <linearGradient x1="51.1146497%" y1="56.4567926%" x2="94.7857281%" y2="21.4334004%" id="linearGradient-13">
            <stop stop-color="#DF6B7D" offset="0%"></stop>
            <stop stop-color="#333665" offset="100%"></stop>
        </linearGradient>
        <linearGradient x1="-1.501044%" y1="45.8555616%" x2="124.521389%" y2="52.9035465%" id="linearGradient-14">
            <stop stop-color="#DF6B7D" offset="0%"></stop>
            <stop stop-color="#333665" offset="49%"></stop>
            <stop stop-color="#2D2D2F" offset="100%"></stop>
        </linearGradient>
        <linearGradient x1="33.4549502%" y1="52.3366133%" x2="79.216322%" y2="61.1135029%" id="linearGradient-15">
            <stop stop-color="#EEB47B" offset="0%"></stop>
            <stop stop-color="#DF6B7D" offset="100%"></stop>
        </linearGradient>
        <linearGradient x1="41.4078162%" y1="44.5396146%" x2="78.009368%" y2="50.7494647%" id="linearGradient-16">
            <stop stop-color="#EEB47B" offset="0%"></stop>
            <stop stop-color="#DF6B7D" offset="100%"></stop>
        </linearGradient>
        <linearGradient x1="42.7089922%" y1="47.2206802%" x2="72.642256%" y2="58.1724644%" id="linearGradient-17">
            <stop stop-color="#EEB47B" offset="0%"></stop>
            <stop stop-color="#DF6B7D" offset="100%"></stop>
        </linearGradient>
        <linearGradient x1="-52.0588235%" y1="28.7616511%" x2="163.764706%" y2="83.0892144%" id="linearGradient-18">
            <stop stop-color="#77C4FF" offset="0%"></stop>
            <stop stop-color="#524EFE" offset="100%"></stop>
        </linearGradient>
        <linearGradient x1="-20.6837186%" y1="213.254593%" x2="49.8524348%" y2="70.9973753%" id="linearGradient-19">
            <stop stop-color="#76C0FF" offset="0%"></stop>
            <stop stop-color="#524EFE" offset="100%"></stop>
        </linearGradient>
        <linearGradient x1="-34.9424161%" y1="-49.6626181%" x2="142.857143%" y2="216.59919%" id="linearGradient-20">
            <stop stop-color="#74B9FF" offset="0%"></stop>
            <stop stop-color="#524EFE" offset="100%"></stop>
        </linearGradient>
        <linearGradient x1="10%" y1="50.0207211%" x2="90%" y2="50.0207211%" id="linearGradient-21">
            <stop stop-color="#75BBFF" offset="0%"></stop>
            <stop stop-color="#524EFE" offset="100%"></stop>
        </linearGradient>
        <linearGradient x1="73.943662%" y1="89.3229828%" x2="32.3943662%" y2="2.1727212%" id="linearGradient-22">
            <stop stop-color="#76C0FF" offset="0%"></stop>
            <stop stop-color="#524EFE" offset="100%"></stop>
        </linearGradient>
        <linearGradient x1="42.00714%" y1="47.1751412%" x2="70.1705672%" y2="57.0150659%" id="linearGradient-23">
            <stop stop-color="#DF6B7D" offset="0%"></stop>
            <stop stop-color="#333665" offset="100%"></stop>
        </linearGradient>
        <linearGradient x1="62.4896041%" y1="-9.85312529%" x2="37.653928%" y2="70.9428933%" id="linearGradient-24">
            <stop stop-color="#AB4EA7" offset="0%"></stop>
            <stop stop-color="#F88799" offset="100%"></stop>
        </linearGradient>
        <linearGradient x1="22.1340738%" y1="13.3488102%" x2="54.9781833%" y2="74.7533372%" id="linearGradient-25">
            <stop stop-color="#DF6B7D" offset="0%"></stop>
            <stop stop-color="#333665" offset="100%"></stop>
        </linearGradient>
        <linearGradient x1="63.5487528%" y1="94.7240752%" x2="23.1877569%" y2="0%" id="linearGradient-26">
            <stop stop-color="#F283DD" offset="0%"></stop>
            <stop stop-color="#562FFD" offset="100%"></stop>
        </linearGradient>
        <linearGradient x1="68.4210526%" y1="107.017544%" x2="-37.7192982%" y2="-221.052632%" id="linearGradient-27">
            <stop stop-color="#DF6B7D" offset="0%"></stop>
            <stop stop-color="#333665" offset="100%"></stop>
        </linearGradient>
        <linearGradient x1="105.673885%" y1="87.1183079%" x2="26.7285706%" y2="36.43406%" id="linearGradient-28">
            <stop stop-color="#DF9AA6" offset="6%"></stop>
            <stop stop-color="#7849E3" offset="100%"></stop>
        </linearGradient>
        <linearGradient x1="44.9127693%" y1="4.26331615%" x2="56.4697639%" y2="108.129296%" id="linearGradient-29">
            <stop stop-color="#DF6B7D" offset="0%"></stop>
            <stop stop-color="#D5687C" offset="2%"></stop>
            <stop stop-color="#AA5B76" offset="11%"></stop>
            <stop stop-color="#854F70" offset="20%"></stop>
            <stop stop-color="#67466C" offset="30%"></stop>
            <stop stop-color="#503F69" offset="40%"></stop>
            <stop stop-color="#403A67" offset="51%"></stop>
            <stop stop-color="#363765" offset="63%"></stop>
            <stop stop-color="#333665" offset="79%"></stop>
            <stop stop-color="#2F3043" offset="93%"></stop>
            <stop stop-color="#2D2D2F" offset="100%"></stop>
        </linearGradient>
        <linearGradient x1="128.603191%" y1="38.857799%" x2="34.1807633%" y2="55.9875067%" id="linearGradient-30">
            <stop stop-color="#DF9AA6" offset="6%"></stop>
            <stop stop-color="#7849E3" offset="100%"></stop>
        </linearGradient>
        <linearGradient x1="39.4825165%" y1="80.8442603%" x2="49.4819818%" y2="30.5985024%" id="linearGradient-31">
            <stop stop-color="#EEB47B" offset="0%"></stop>
            <stop stop-color="#DF6B7D" offset="100%"></stop>
        </linearGradient>
        <linearGradient x1="76.0972257%" y1="62.5639404%" x2="15.2989585%" y2="26.3160937%" id="linearGradient-32">
            <stop stop-color="#DF6B7D" offset="0%"></stop>
            <stop stop-color="#333665" offset="100%"></stop>
        </linearGradient>
        <linearGradient x1="62.0830892%" y1="106.90692%" x2="48.870459%" y2="24.115701%" id="linearGradient-33">
            <stop stop-color="#DF6B7D" offset="0%"></stop>
            <stop stop-color="#333665" offset="100%"></stop>
        </linearGradient>
        <linearGradient x1="148.47869%" y1="42.0144336%" x2="8.16329276%" y2="57.9855664%" id="linearGradient-34">
            <stop stop-color="#DF9AA6" offset="6%"></stop>
            <stop stop-color="#7849E3" offset="100%"></stop>
        </linearGradient>
        <linearGradient x1="26.1457578%" y1="61.1907621%" x2="96.3937603%" y2="18.4815776%" id="linearGradient-35">
            <stop stop-color="#E06F7D" offset="0%"></stop>
            <stop stop-color="#EEB47B" offset="100%"></stop>
        </linearGradient>
        <linearGradient x1="129%" y1="99.0425935%" x2="-118.357143%" y2="-77.5990588%" id="linearGradient-36">
            <stop stop-color="#EEB47B" offset="0%"></stop>
            <stop stop-color="#DF6B7D" offset="100%"></stop>
        </linearGradient>
        <linearGradient x1="83.4719911%" y1="148.290598%" x2="30.1164725%" y2="-10.6837607%" id="linearGradient-37">
            <stop stop-color="#6FAFFF" offset="0%"></stop>
            <stop stop-color="#5150FD" offset="100%"></stop>
        </linearGradient>
        <linearGradient x1="105.459696%" y1="186.329866%" x2="76.5130054%" y2="111.441308%" id="linearGradient-38">
            <stop stop-color="#6DBBFB" offset="0%"></stop>
            <stop stop-color="#524EFE" offset="100%"></stop>
        </linearGradient>
        <linearGradient x1="60.3656966%" y1="119.038817%" x2="15.6579964%" y2="-296.672828%" id="linearGradient-39">
            <stop stop-color="#77C4FF" offset="0%"></stop>
            <stop stop-color="#5250FE" offset="100%"></stop>
        </linearGradient>
        <linearGradient x1="109.707588%" y1="87.7582645%" x2="41.0412123%" y2="25.5681818%" id="linearGradient-40">
            <stop stop-color="#EEB47B" offset="0%"></stop>
            <stop stop-color="#DF6B7D" offset="100%"></stop>
        </linearGradient>
        <linearGradient x1="25%" y1="50%" x2="75%" y2="50%" id="linearGradient-41">
            <stop stop-color="#77C3FF" offset="0%"></stop>
            <stop stop-color="#524EFE" offset="100%"></stop>
        </linearGradient>
        <linearGradient x1="26.056338%" y1="89.4117702%" x2="67.2535211%" y2="2.16901305%" id="linearGradient-42">
            <stop stop-color="#77C3FF" offset="0%"></stop>
            <stop stop-color="#524EFE" offset="100%"></stop>
        </linearGradient>
        <linearGradient x1="66.3554758%" y1="98.6101459%" x2="33.6445242%" y2="1.32036136%" id="linearGradient-43">
            <stop stop-color="#DF6B7D" offset="0%"></stop>
            <stop stop-color="#333665" offset="49%"></stop>
            <stop stop-color="#2D2D2F" offset="100%"></stop>
        </linearGradient>
        <linearGradient x1="30.5728266%" y1="-7.0492066%" x2="30.5728266%" y2="100%" id="linearGradient-44">
            <stop stop-color="#B757A5" offset="0%"></stop>
            <stop stop-color="#F88799" offset="100%"></stop>
        </linearGradient>
        <linearGradient x1="22.2453514%" y1="75.7662195%" x2="100%" y2="0%" id="linearGradient-45">
            <stop stop-color="#A656D1" offset="0%"></stop>
            <stop stop-color="#562FFD" offset="100%"></stop>
        </linearGradient>
        <linearGradient x1="106.311792%" y1="119.867717%" x2="-58.4790837%" y2="-84.5342634%" id="linearGradient-46">
            <stop stop-color="#DF6B7D" offset="0%"></stop>
            <stop stop-color="#333665" offset="49%"></stop>
            <stop stop-color="#2D2D2F" offset="100%"></stop>
        </linearGradient>
        <linearGradient x1="50.138714%" y1="-9.82260981%" x2="38.7959892%" y2="181.235124%" id="linearGradient-47">
            <stop stop-color="#DF6B7D" offset="0%"></stop>
            <stop stop-color="#333665" offset="49%"></stop>
            <stop stop-color="#2D2D2F" offset="100%"></stop>
        </linearGradient>
        <linearGradient x1="72.3945868%" y1="114.258254%" x2="27.6593601%" y2="-14.2876822%" id="linearGradient-48">
            <stop stop-color="#F88799" offset="0%"></stop>
            <stop stop-color="#B757A5" offset="100%"></stop>
        </linearGradient>
        <linearGradient x1="93.7168865%" y1="70.4797709%" x2="2.26371113%" y2="33.9631315%" id="linearGradient-49">
            <stop stop-color="#A656D1" offset="0%"></stop>
            <stop stop-color="#562FFD" offset="100%"></stop>
        </linearGradient>
        <linearGradient x1="34.2238911%" y1="-11.1649619%" x2="91.7800808%" y2="211.116818%" id="linearGradient-50">
            <stop stop-color="#DF6B7D" offset="0%"></stop>
            <stop stop-color="#333665" offset="49%"></stop>
            <stop stop-color="#2D2D2F" offset="100%"></stop>
        </linearGradient>
    </defs>
    <g id="Design" stroke="none" stroke-width="1" fill="none" fill-rule="evenodd">
        <g id="2a-Entreprise" transform="translate(-197.000000, -2353.000000)">
            <g id="Section-4" transform="translate(140.000000, 2262.000000)">
                <g id="Illustration3">
                    <g id="fond" transform="translate(0.543441, 0.958333)">
                        <mask id="mask-3" fill="white">
                            <use xlink:href="#path-2"></use>
                        </mask>
                        <use id="Oval" fill="url(#linearGradient-1)" transform="translate(314.753077, 314.979470) rotate(-240.000000) translate(-314.753077, -314.979470) " xlink:href="#path-2"></use>
                        <path d="M137.616661,283.537439 L141.273014,288.479126 C141.562366,288.865195 141.470299,289.418561 141.075729,289.701678 C140.681158,289.984796 140.115607,289.894713 139.826255,289.508644 L136.866977,285.519261 L133.907698,289.508644 C133.618347,289.894713 133.052796,289.984796 132.658225,289.701678 L132.645073,289.688809 C132.250502,289.405692 132.158436,288.852326 132.447788,288.466257 L136.143598,283.485963 C136.419797,283.125632 136.919586,283.035549 137.314157,283.267191 C137.314157,283.28006 137.327309,283.28006 137.327309,283.28006 C137.353614,283.28006 137.366766,283.292929 137.379919,283.305798 L137.393071,283.305798 C137.406223,283.318667 137.406223,283.318667 137.406223,283.318667 C137.49829,283.383012 137.564051,283.460225 137.616661,283.537439 Z M137.761337,277.87509 L137.761337,281.375451 C137.761337,281.864472 137.353614,282.250542 136.866977,282.250542 C136.367188,282.250542 135.972617,281.851604 135.972617,281.375451 L135.972617,277.87509 C135.972617,277.386069 136.38034,277 136.866977,277 C137.353614,277 137.761337,277.398938 137.761337,277.87509 Z M131.17201,281.285369 L134.578468,282.366362 C135.051953,282.52079 135.301847,283.009811 135.157172,283.473094 C134.999343,283.936377 134.499554,284.180888 134.02607,284.039329 L130.619611,282.945466 C130.146127,282.791039 129.896232,282.302018 130.040908,281.838735 C130.198736,281.38832 130.698525,281.130941 131.17201,281.285369 Z M143.10119,282.945466 L139.694732,284.02646 C139.221247,284.180888 138.721458,283.923508 138.56363,283.460225 C138.405802,282.996942 138.668849,282.507921 139.142333,282.353494 L142.548792,281.2725 C143.022276,281.118072 143.522066,281.375451 143.679894,281.838735 C143.837722,282.302018 143.574675,282.803908 143.10119,282.945466 Z" id="Path-4-Copy-4" fill="#FFFFFF" mask="url(#mask-3)"></path>
                        <path d="M449.616661,165.537439 L453.273014,170.479126 C453.562366,170.865195 453.470299,171.418561 453.075729,171.701678 C452.681158,171.984796 452.115607,171.894713 451.826255,171.508644 L448.866977,167.519261 L445.907698,171.508644 C445.618347,171.894713 445.052796,171.984796 444.658225,171.701678 L444.645073,171.688809 C444.250502,171.405692 444.158436,170.852326 444.447788,170.466257 L448.143598,165.485963 C448.419797,165.125632 448.919586,165.035549 449.314157,165.267191 C449.314157,165.28006 449.327309,165.28006 449.327309,165.28006 C449.353614,165.28006 449.366766,165.292929 449.379919,165.305798 L449.393071,165.305798 C449.406223,165.318667 449.406223,165.318667 449.406223,165.318667 C449.49829,165.383012 449.564051,165.460225 449.616661,165.537439 Z M449.761337,159.87509 L449.761337,163.375451 C449.761337,163.864472 449.353614,164.250542 448.866977,164.250542 C448.367188,164.250542 447.972617,163.851604 447.972617,163.375451 L447.972617,159.87509 C447.972617,159.386069 448.38034,159 448.866977,159 C449.353614,159 449.761337,159.398938 449.761337,159.87509 Z M443.17201,163.285369 L446.578468,164.366362 C447.051953,164.52079 447.301847,165.009811 447.157172,165.473094 C446.999343,165.936377 446.499554,166.180888 446.02607,166.039329 L442.619611,164.945466 C442.146127,164.791039 441.896232,164.302018 442.040908,163.838735 C442.198736,163.38832 442.698525,163.130941 443.17201,163.285369 Z M455.10119,164.945466 L451.694732,166.02646 C451.221247,166.180888 450.721458,165.923508 450.56363,165.460225 C450.405802,164.996942 450.668849,164.507921 451.142333,164.353494 L454.548792,163.2725 C455.022276,163.118072 455.522066,163.375451 455.679894,163.838735 C455.837722,164.302018 455.574675,164.803908 455.10119,164.945466 Z" id="Path-4-Copy-13" fill="#FFFFFF" mask="url(#mask-3)"></path>
                        <g id="illu3-entreprise" mask="url(#mask-3)">
                            <g transform="translate(157.456559, 170.041667)">
                                <g id="woman" transform="translate(147.000000, 40.000000)">
                                    <path d="M8.22465305,23.6900202 C8.22465305,23.6900202 6.48887814,24.8263015 2.96866175,26.6605841 C-0.551554642,28.4948668 -0.567776838,31.059616 2.46577369,33.7217608 L9.86309478,32.8452009 L12.1179799,27.4397484 L8.22465305,23.6900202 Z" id="Path" fill="url(#linearGradient-4)"></path>
                                    <path d="M122.396464,192.005746 C122.396464,192.005746 147.362423,257.65034 126.111347,429.115189 C127.088868,434.1825 128.83394,439.070738 131.286227,443.610892 C134.271111,449.065042 124.635127,452.912166 123.175129,452.912166 C119.915235,452.719949 116.990088,450.844442 115.453364,447.961226 C113.295812,443.951776 115.761586,443.334938 117.075584,434.975154 C118.389582,426.61537 99.393391,275.522422 94.5753989,241.953426 C94.5753989,241.953426 80.7865329,349.981312 56.5830174,404.977327 C56.5830174,404.977327 50.9214712,420.511916 53.143912,430.056679 C55.5934635,440.640328 44.4325931,438.367765 39.857934,440.542932 C37.2461605,441.776609 32.1686134,444.406289 26.0852901,443.78945 C20.6508547,443.253775 13.1075338,440.964979 17.0333051,436.192598 C19.4828566,433.254499 23.5221833,432.653893 27.2857326,430.998169 C33.7746107,428.238629 37.0190498,428.595746 41.3665982,412.022271 C45.7141465,395.448797 65.4403361,188.158622 65.4403361,188.158622 L122.396464,192.005746 Z" id="Path" fill="url(#linearGradient-5)"></path>
                                    <path d="M120.092912,329.041271 C118.470693,313.263194 116.621362,311.461376 116.572696,282.307645 C116.524029,253.153913 107.034045,192.005746 107.034045,192.005746 L84.8420817,195.073706 L81.9545309,194.602961 C77.2176499,190.690906 73.8434333,188.27225 65.4403361,188.109925 C61.4658982,229.097214 44.9679255,397.591499 41.2205984,412.006039 C40.685266,414.01888 40.1823779,415.788232 39.6794898,417.330328 C44.7245926,421.242383 48.6990305,414.181206 48.6990305,414.181206 C65.9432241,373.291312 65.9432241,310.990631 67.3058885,298.605165 C68.6685529,286.219699 90.6982942,223.172319 88.8651862,209.017501 L94.4293992,241.920961 C98.7769475,272.178508 114.561144,397.932383 116.734918,428.595746 C117.919138,429.894353 119.03847,430.332633 120.092912,429.634632 C129.128675,423.563643 121.666465,344.803116 120.092912,329.041271 Z" id="Path" fill="url(#linearGradient-6)"></path>
                                    <path d="M62.4230077,117.270902 C61.5277102,123.432477 61.7807182,129.706692 63.1692287,135.776054 C63.1692287,135.776054 68.0358873,156.488839 64.6454485,163.842202 C63.5747836,166.179695 59.7787899,168.2737 52.8843569,170.789751 C55.1230198,175.026457 56.1287959,177.282787 57.5076825,179.571582 L65.9918907,177.948323 L65.4403361,188.223553 C85.9776354,204.586003 122.396464,192.070677 122.396464,192.070677 C121.974687,189.181276 120.22269,180.789026 120.092912,178.402836 C119.816542,174.620279 119.816542,170.822579 120.092912,167.040023 C120.092912,167.040023 128.20401,165.157042 129.144897,158.193261 C130.450551,151.274075 132.107359,144.425882 134.108889,137.675267 C134.108889,137.675267 133.119335,143.632628 134.108889,146.27854 C135.098443,148.924452 140.386879,139.330992 140.727545,134.704703 C141.068211,130.078415 139.737991,122.789982 140.727545,118.147462 C141.717099,113.504941 130.994228,86.8834931 128.009344,76.2349141 L114.382699,70.180158 L77.6069826,84.0103247 L70.4043279,81.5105058 C70.2654614,82.6914113 70.2654614,83.8845376 70.4043279,85.0654431 C70.4043279,85.0654431 75.5792082,91.5584791 70.6963274,104.025108" id="pull" fill="url(#linearGradient-7)"></path>
                                    <path d="M118.989803,105.112692 C110.002707,105.372413 110.002707,119.251278 109.418708,130.808882 C108.834709,142.366486 95.1107314,149.249104 95.1107314,149.249104 C96.1651741,143.015789 93.6831782,140.304947 91.3634043,135.922148 C84.8745261,123.682775 82.1491973,123.34189 92.0122921,107.969628 C103.870717,89.464475 96.4247292,84.6433957 97.6900604,78.2802204 L90.5847389,72.5825813 L83.3820841,70.0827625 C83.2360844,71.2190438 79.7483124,78.0854293 77.1040945,78.8808263 C74.4141779,79.5686388 71.8550346,80.6927513 69.5283293,82.2085072 C57.9943484,81.185854 38.4303808,74.0922122 32.8661678,70.0827625 C26.1988455,65.2129855 18.4770805,37.8935364 18.4770805,37.8935364 C14.7659026,36.0743838 10.3005114,36.9204434 7.51087645,39.971308 C7.51087645,39.971308 12.2639797,69.3360633 15.7841961,79.5301299 C19.3044125,89.7241964 33.3041671,98.6845861 47.1903663,102.547943 C61.0765655,106.411299 60.8981214,112.579683 60.8981214,112.579683 C60.8981214,112.579683 60.6547884,114.202942 60.0707894,116.783924 L59.0812355,122.303005 C59.1164841,127.094598 60.5362131,131.773686 63.1692287,135.776054 C63.1692287,135.776054 66.0243351,154.703254 64.6454485,163.842202 C60.9021758,166.445894 56.9710235,168.768116 52.8843569,170.789751 C55.7881298,175.821854 54.9283535,175.497202 57.0210167,178.467766 L61.7092311,177.136694 L73.2756564,173.516826 C75.2060977,173.078546 78.2720926,171.682543 80.9163104,170.789751 C90.3900725,167.02379 101.664498,168.208769 100.512722,167.040023 C99.3609466,165.871276 80.7378663,167.040023 91.3634043,164.345413 C99.9863239,162.066099 107.787559,157.389113 113.863589,150.85613 C117.448694,146.749285 116.167141,139.298526 118.989803,133.649585 C121.812465,128.000644 127.976899,104.869203 118.989803,105.112692 Z" id="Path" fill="url(#linearGradient-8)"></path>
                                    <path d="M95.824508,25.2970466 L90.2927394,27.2936551 L82.7331963,49.1264887 C82.9927515,50.0842115 83.2685288,51.0419344 83.5767505,51.9834246 C85.19897,57.2590163 81.8247534,60.9438143 80.8514217,65.5214047 L85.6369693,68.1835494 C85.6369693,68.1835494 85.0367481,76.6894266 95.824508,78.1016619 C106.612268,79.5138973 116.540251,71.3489045 116.540251,71.3489045 L117.675805,56.7395735 L113.295812,36.8059529 L95.824508,25.2970466 Z" id="visage_ombre" fill="url(#linearGradient-9)"></path>
                                    <path d="M100.756055,74.3032359 C100.480278,72.6799769 92.4502913,69.2549004 90.8605162,68.3783405 C78.5154255,61.5606527 100.723611,68.832853 103.740939,66.219406 C106.743124,63.1437432 107.809342,58.6640081 106.514935,54.5644064 C105.282751,51.115498 101.964802,48.8583717 98.3065039,48.9803954 C95.2891755,49.1102561 94.0400665,45.7338774 97.3331721,45.3280627 C99.2527867,45.0947552 101.112189,44.5057507 102.816274,43.5911755 L100.026057,31.7413848 L93.5371784,27.4397484 L88.0054098,29.4201244 L80.4458668,51.252958 C80.7054219,52.2106808 80.9811992,53.1684036 81.2731987,54.1098939 C82.8954183,59.4017182 79.5374238,63.0865162 78.5478699,67.6641065 L83.4145285,70.3100187 C83.4145285,70.3100187 84.1445273,73.9948167 91.006516,76.6407288 C98.4200592,79.4002691 101.031833,75.9589601 100.756055,74.3032359 Z" id="Path" fill="url(#linearGradient-10)"></path>
                                    <path d="M85.2151922,44.4190376 C85.2151922,44.4190376 87.6485215,45.0196435 87.4214108,46.0422966 C87.1943,47.0649498 84.9069705,46.9513217 84.9069705,46.9513217 C84.9069705,46.9513217 85.0205259,45.7176448 85.2151922,44.483968" id="Path" fill="url(#linearGradient-11)"></path>
                                    <path d="M86.2858571,52.9898452 C87.3276561,53.5324431 88.5440517,53.6319238 89.6600737,53.2657992 C91.6229594,52.6489608 88.848964,54.6455693 88.0378542,54.7916627 C87.2267444,54.937756 85.1503034,52.9249148 86.2858571,52.9898452 Z" id="Path" fill="url(#linearGradient-12)"></path>
                                    <path d="M134.546888,88.5392173 C131.659338,77.9231034 138.732215,75.0337024 137.791327,65.3915439 C136.85044,55.7493855 133.297779,56.7071083 132.665114,39.0298177 C132.032448,21.3525272 124.472905,18.4793588 116.588918,14.4049787 C112.728036,12.4083701 103.238051,10.0059468 95.3053977,15.7685162 C95.3053977,15.7685162 92.0609587,16.4665176 86.0425242,18.2683351 C78.5478699,20.5084325 74.6869874,28.1052846 73.9245442,35.2151591 C73.1621011,42.3250335 72.659213,49.5323035 75.5467638,58.736182 C78.4343146,67.9400606 66.5758897,74.9687721 67.4356661,83.8317662 C73.6812113,82.0624139 85.6856359,80.4553875 88.183854,78.4425463 C91.2985155,75.9264949 92.6125133,69.1250396 92.6125133,69.1250396 C92.6125133,69.1250396 87.9080766,67.3881525 86.1236352,64.3851234 C84.3391937,61.3820942 84.6636376,59.8399982 84.9718593,47.9577422 C85.1665256,40.247262 88.8327418,33.9003193 91.8338479,33.7704586 C94.8349541,33.6405978 102.362053,34.7931117 109.678263,43.8021992 C116.994473,52.8112867 113.750034,57.6323659 110.878705,67.9562932 C108.007377,78.2802204 117.692027,79.8385491 124.554016,83.9616269 C128.520492,86.4493752 131.81772,89.8713268 134.157556,93.9284372 C142.187542,105.810693 133.703334,133.552189 133.703334,133.552189 C133.703334,133.552189 132.746225,139.330992 133.703334,141.911973 C134.660444,144.492955 139.80288,135.159216 140.192212,130.646556 C140.581545,126.133896 139.235103,119.072719 140.192212,114.576292 C141.149322,110.079864 137.450661,99.1390986 134.546888,88.5392173 Z" id="cheveux" fill="url(#linearGradient-13)"></path>
                                    <path d="M141.262877,114.267873 C142.219987,109.771445 137.450661,99.1390986 134.546888,88.5392173 C131.643115,77.939336 138.732215,75.0337024 137.791327,65.3915439 C136.85044,55.7493855 133.297779,56.7071083 132.665114,39.0298177 C132.259559,28.2189128 128.771787,20.411037 120.693133,16.5476805 C121.974687,18.706615 124.310683,19.7941985 123.142685,20.8330843 C118.649137,24.5503474 118.000249,24.7613711 118.649137,29.2740311 C119.298025,33.7866912 93.6182894,27.9429587 91.7527369,33.7704586 C91.7527369,33.7704586 98.9229473,34.6145532 103.30294,37.8123735 C105.779981,39.7065404 107.70651,42.2283232 108.883375,45.117039 C111.94937,52.5515652 109.240264,58.3465999 106.352713,68.6705271 C103.465162,78.9944544 116.848473,81.9163206 122.21802,84.7732564 C126.564348,87.1808821 130.145474,90.7643035 132.551558,95.1134163 C137.564217,106.476229 133.622223,133.552189 133.622223,133.552189 C133.622223,133.552189 131.854004,143.616395 134.141333,146.181145 C136.785551,149.151709 142.073987,138.06485 141.408877,131.036138 C140.954655,126.539711 140.289545,118.780533 141.262877,114.267873 Z" id="cheveux_clair" fill="url(#linearGradient-14)"></path>
                                    <path d="M18.4770805,37.8935364 C18.4770805,37.8935364 15.7841961,28.4786342 15.2326414,26.7904448 C13.5593425,23.9204764 11.5077572,21.2888335 9.13309599,18.9663365 C7.96509792,17.9923811 2.25488515,11.6129732 1.11933148,13.7881402 C0.486665861,15.0218171 6.31043399,20.6707584 6.87821083,21.3687598 C8.0472923,23.1911318 9.05163862,25.1141935 9.87931697,27.1150966 C9.87931697,27.6345395 6.08332326,28.3487735 5.09376934,28.9006816 C4.10421543,29.4525896 2.14132979,34.4035296 2.01155222,35.1015309 C1.88177466,35.7995323 3.27688346,36.0917189 3.97443786,35.2476243 C4.54686529,37.2012584 5.80948802,38.880065 7.52709865,39.971308 C10.8208298,38.0157015 14.6965293,37.2802831 18.4770805,37.8935364 Z" id="Path" fill="url(#linearGradient-15)"></path>
                                    <path d="M3.95821567,35.2476243 C4.69065162,34.336764 5.36779384,33.3827368 5.98599009,32.3906884 C5.98599009,32.3906884 9.23042916,32.3906884 8.11109768,33.7217608 C6.9917662,35.0528332 5.53176862,38.3155838 7.51087645,39.971308 C5.76527238,38.9107014 4.49347328,37.2196937 3.95821567,35.2476243 Z" id="Path" fill="url(#linearGradient-16)"></path>
                                    <path d="M52.8843569,170.789751 C52.8843569,170.789751 44.3514821,173.922641 41.7559309,174.73427 C41.1658332,174.935791 40.5911379,175.179922 40.0363781,175.464737 C37.7328264,176.438692 33.8719439,178.094417 33.0608341,178.467766 C31.9090583,179.019674 28.8917299,187.135969 29.1837294,188.20732 C29.475729,189.278671 30.5950604,188.109925 31.4386146,186.502898 C32.0508312,185.288567 32.7445669,184.117138 33.5150556,182.996659 C33.1339591,186.108623 33.0037613,189.24623 33.1257229,192.379096 C33.4339446,194.667891 34.7479425,193.856261 37.6030488,189.294904 C40.4581552,184.733546 46.3630343,186.486666 49.8832507,185.658803 C53.3194265,185.151427 56.2250056,182.850218 57.5076825,179.62028 L52.8843569,170.789751 Z" id="Path" fill="url(#linearGradient-17)"></path>
                                    <path d="M88.9625193,17.7813574 L88.9625193,9.97348158 L102.78383,6.0289622 L116.540251,8.88589804 L116.540251,15.5574925 C116.540251,15.5574925 107.001601,13.2849299 102.751385,18.2196373 C98.3404029,16.5001027 93.4736705,16.3454133 88.9625193,17.7813574 Z" id="Path" fill="url(#linearGradient-18)"></path>
                                    <polygon id="Path" fill="url(#linearGradient-19)" points="88.9625193 13.5284188 69.4472183 12.1486486 102.78383 1.15918519 135.406665 7.63598861 116.588918 11.8889272 116.588918 8.93459581 102.78383 6.0289622 88.9625193 9.97348158"></polygon>
                                    <polygon id="Path" fill="url(#linearGradient-20)" points="69.4472183 12.1486486 69.2038854 11.0772977 102.78383 0.120299428 135.406665 6.80812652 135.406665 7.63598861 102.78383 1.15918519"></polygon>
                                    <path d="M109.078042,4.63295946 L109.564707,43.8021992" id="Path" stroke="url(#linearGradient-21)" stroke-width="0.5"></path>
                                    <path d="M111.868259,45.8150404 C111.868259,47.0811824 108.088488,51.252958 108.364265,50.0030486 C108.640042,48.7531392 107.261156,47.0811824 107.261156,45.8150404 C107.261156,44.5420087 108.292491,43.5100126 109.564707,43.5100126 C110.836924,43.5100126 111.868259,44.5420087 111.868259,45.8150404 Z" id="Path" fill="url(#linearGradient-22)"></path>
                                </g>
                                <g id="phone" transform="translate(107.000000, 32.000000)">
                                    <polygon id="Path" fill="url(#linearGradient-23)" points="25.4466667 1.24218316 0.732222222 28.1182979 16.6983333 35.9020907 41.3483333 9.22179463"></polygon>
                                    <polygon id="Path" fill="url(#linearGradient-24)" points="25.785 2.59659574 4.01888889 26.2906568 18.0838889 33.1443108 39.8016667 9.62975023"></polygon>
                                    <polygon id="Path" fill="url(#linearGradient-25)" points="41.3483333 9.22179463 40.5911111 7.72051804 25.1083333 0.00199814986 0.732222222 26.6170213 0.732222222 28.1182979 25.4466667 1.24218316"></polygon>
                                    <path d="M18.0838889,33.1443108 L39.7855556,9.62975023 L33.0188889,6.23555967 C30.3349929,10.6729306 26.0251426,13.8529952 21.0322222,15.080037 C12.2516667,17.3319519 11.3655556,26.5027937 11.3655556,29.880666 L18.0838889,33.1443108 Z" id="Path" fill="url(#linearGradient-26)" opacity="0.6"></path>
                                    <ellipse id="Oval" fill="url(#linearGradient-27)" cx="10.1088889" cy="30.9903053" rx="1" ry="1"></ellipse>
                                </g>
                                <g id="man">
                                    <path d="M92.2424465,110.648213 C92.2424465,110.648213 102.038188,121.454655 108.40542,118.984611 C116.748126,115.734554 120.797033,81.0239377 120.797033,81.0239377 C120.797033,81.0239377 128.307101,78.2613887 132.927426,83.9489896 C132.927426,83.9489896 134.03761,131.253579 129.433612,141.816266 C124.829613,152.378954 93.7281339,153.646476 93.7281339,153.646476 C93.7281339,153.646476 93.8424176,125.69598 92.2424465,110.648213 Z" id="Path" fill="url(#linearGradient-28)"></path>
                                    <path d="M88.1608875,385.245586 L57.7614365,385.245586 C59.9654783,375.999172 63.475619,359.245125 63.8837749,353.622525 C65.1735475,336.364719 53.3860053,282.673766 53.3860053,282.673766 C47.6554965,299.541565 28.3089071,359.911386 24.7497877,385.245586 L0.260434018,385.245586 C-0.196700584,357.035085 0.260434018,346.716152 2.18692984,308.381722 C3.99914201,272.533586 8.89701275,233.922901 8.89701275,233.922901 L98.1362176,236.555448 L98.1362176,272.306082 C98.1362176,272.306082 97.123991,354.305037 90.9363476,375.267909 C90.2179932,377.705452 89.2710715,381.134263 88.1608875,385.245586 Z" id="Path" fill="url(#linearGradient-29)"></path>
                                    <path d="M14.5458903,192.663419 L11.2806432,218.858884 L8.91333899,233.906651 C8.91333899,233.906651 63.8837749,255.373281 98.1525438,236.539197 L98.1525438,215.901331 L97.8096929,170.871782 C97.8096929,170.871782 100.732089,125.370975 90.8873689,107.836913 C82.9364921,93.7154129 80.8140814,91.2616194 72.340765,77.1238685 L54.0227285,77.8551315 C52.8472395,80.812684 47.2310144,86.4027832 43.1657817,88.6128224 C35.9822379,92.5128916 27.7211626,100.914291 24.2436744,104.863111 C19.0356052,110.761965 19.1825413,117.635837 12.8153093,137.574941 C10.0398493,146.187594 2.41549714,163.575403 2.33386596,165.200431 C1.55020665,181.288217 4.47260285,182.506988 4.47260285,182.506988 L14.5458903,192.663419 Z" id="Path" fill="url(#linearGradient-30)"></path>
                                    <path d="M72.2754601,77.1238685 C72.2754601,77.1238685 77.7774015,70.6237532 78.3977985,67.7637024 C78.789413,65.9591314 78.9810311,64.1172568 78.9692168,62.271105 C80.5960564,58.9288118 81.9025005,55.4412173 82.8711871,51.8546701 L82.8711871,39.4231995 L58.8552943,38.1069262 L46.235114,41.7144902 L44.9126889,49.8396344 C44.9126889,50.0183875 45.0759513,50.1971407 45.1412562,50.3758939 C46.4800075,53.6259516 44.9453414,57.8022757 49.5656661,62.9536171 C49.5656661,62.9536171 52.1125589,70.3149977 53.2390692,71.6800219 C54.3655794,73.0450461 55.2471962,74.0363137 55.2471962,74.0363137 C54.8035622,76.2500255 53.8907641,78.3441269 52.5696935,80.1789227 C52.5696935,80.1789227 63.9001011,89.2790842 74.8223529,80.8451845 C73.8874234,79.6652475 73.0363905,78.4217862 72.2754601,77.1238685 Z" id="Path" fill="url(#linearGradient-31)"></path>
                                    <path d="M63.3613353,69.8599896 C65.7776182,69.0149746 64.5368243,68.5762168 65.140895,66.8861869 C65.7449658,65.1961569 66.7735186,66.8049354 67.8837027,67.3086943 C68.9938867,67.8124533 71.6550631,63.4736263 70.2020281,63.2461223 C68.4065596,63.0079005 66.5843817,63.4109453 65.0592639,64.3836424 C63.9164274,65.3586597 64.0143848,66.6911834 61.9246266,66.3499273 C59.8348684,66.0086713 53.7615087,63.1811211 53.9737498,60.4023218 C54.1859908,57.6235225 59.6389536,58.6635409 60.847095,57.3797682 C62.0552365,56.0959954 60.847095,54.1297105 58.4797908,54.3084637 C56.1124867,54.4872168 58.4797908,52.0334233 58.8226418,49.4333772 C58.9859042,47.8083483 59.9981308,44.5582907 61.6634068,38.2369285 L58.8552943,38.0906759 L46.235114,41.6982399 L44.9126889,49.8233841 C44.9126889,50.0021373 45.0759513,50.1808904 45.1412562,50.3596436 C46.4800075,53.6097013 44.9453414,57.7860254 49.5656661,62.9373668 C49.5656661,62.9373668 52.1125589,70.2987474 53.2390692,71.6637716 C54.3655794,73.0287958 55.2471962,74.0200634 55.2471962,74.0200634 C54.8035622,76.2337752 53.8907641,78.3278766 52.5696935,80.1626724 C55.3697095,82.242505 58.6266655,83.6294628 62.0715627,84.2089942 C62.0715627,84.2089942 60.9287262,70.7050046 63.3613353,69.8599896 Z" id="Path" fill="url(#linearGradient-32)"></path>
                                    <path d="M33.076168,25.2041972 C35.4597984,28.4542549 25.533447,26.8292261 27.9007512,28.7142595 C30.2680554,30.599293 33.9251322,38.4644325 35.8353018,43.0795144 C37.6148615,47.450842 44.6351429,61.7185952 50.528914,65.8299181 C50.9860486,63.6036286 48.8962904,60.2235686 48.4228296,57.9972791 C47.2310144,52.3746794 43.8514836,41.6657393 49.41873,41.0969792 C54.9859764,40.5282191 56.0961604,44.802045 63.4592928,43.4857716 C70.8224251,42.1694983 75.246835,38.8056886 77.6467917,39.1956955 C80.0467483,39.5857024 80.4059255,43.5020219 80.438578,52.2934279 C80.4712305,61.0848339 78.9202381,62.3198558 78.9202381,62.3361061 C78.9202381,61.0523333 81.9569179,57.1847647 81.9569179,57.1847647 C84.2195745,52.6647091 86.2360627,48.0266628 87.9976251,43.2907682 C89.6302487,38.4156817 91.6057233,28.6655087 90.413908,23.6929204 C89.2873978,19.0615882 81.1569324,17.5990623 81.1569324,17.5990623 C78.3455754,11.4228707 71.9486794,7.66106134 65.1572213,8.19014533 C52.9615231,8.62890311 43.7535262,17.5178108 32.7822957,17.9403183 C21.8110653,18.3628258 30.7088638,21.921639 33.076168,25.2041972 Z" id="Path" fill="url(#linearGradient-33)"></path>
                                    <path d="M52.5696935,80.1626724 C52.5696935,80.1626724 41.2719383,88.9540784 33.908806,94.4629262 C26.5456736,99.9717739 17.7948113,107.836913 9.20721123,133.723623 C3.23180893,151.728942 -2.79257207,175.031856 4.30934049,182.474488 C23.0675298,201.346978 42.9624633,219.065473 63.8837749,235.531679 C63.8837749,235.531679 73.3203392,233.33789 74.1039985,225.505251 C74.1039985,225.505251 39.31279,178.558168 34.9210326,167.865479 C30.5292752,157.172789 63.9817323,124.753464 62.1205414,84.1927439 C62.0715627,84.2089942 58.8879467,83.916489 52.5696935,80.1626724 Z" id="Path" fill="url(#linearGradient-34)"></path>
                                    <path d="M25.9823422,328.472429 C28.3993131,302.75461 30.8044479,284.913084 33.1977465,274.94785 C35.5910451,264.982617 52.0409011,256.582282 82.5473144,249.746845 L78.2579075,332 L25.9823422,328.472429 Z" id="Path-4" fill="url(#linearGradient-35)"></path>
                                    <path d="M86.3813278,246.208119 C85.4507324,244.58309 82.6915985,236.847953 81.5814145,235.54793 C80.4712305,234.247907 74.136651,225.521502 74.136651,225.521502 C72.2428076,233.061636 63.9164274,235.54793 63.9164274,235.54793 C64.3409095,242.87681 69.4020426,245.119349 71.8019992,246.581875 C74.2019559,248.044401 75.6713171,251.716967 76.977416,255.763288 C78.2835149,259.80961 80.6671453,263.660928 82.3160951,263.482175 C83.9650449,263.303422 86.3813278,255.763288 86.3813278,255.763288 C86.3813278,255.763288 87.2629445,247.865648 86.3813278,246.208119 Z M84.7487042,254.885773 L83.4426054,247.621894 C83.949843,248.675243 84.3861712,249.76099 84.7487042,250.871952 C84.8386541,252.210075 84.8058659,253.553575 84.6507468,254.885773 L84.7487042,254.885773 Z" id="Shape" fill="url(#linearGradient-36)" fill-rule="nonzero"></path>
                                    <path d="M47.7044752,18.6390807 L47.7044752,8.6451534 L63.8837749,10.9364441 L77.1406783,7.55638408 L77.1406783,17.1765548 C72.644063,16.8195272 68.1228921,17.4291519 63.8837749,18.9640865 C63.8837749,18.9640865 55.6716783,14.2352526 47.7044752,18.6390807 Z" id="Path" fill="url(#linearGradient-37)"></path>
                                    <polygon id="Path" fill="url(#linearGradient-38)" points="31.3945657 6.33761246 63.9001011 10.9364441 94.7893392 3.0713045 62.087889 0"></polygon>
                                    <polygon id="Path" fill="url(#linearGradient-39)" points="31.3945657 6.33761246 31.3945657 7.06887543 64.0470372 11.8627105 94.7893392 3.75381661 94.7893392 3.0713045 63.9001011 10.9364441"></polygon>
                                    <path d="M120.797033,81.0239377 C120.978075,78.4826096 120.650669,75.9307847 119.833785,73.5163045 C118.243283,70.0306124 116.364755,66.6823846 114.21756,63.5061269 L123.93167,68.1537093 L138.739566,52.4884314 C138.739566,52.4884314 139.768119,55.4622341 136.927354,65.4074106 C135.206415,71.4977515 133.875869,77.6907457 132.943752,83.9489896 C132.943752,83.9489896 129.188718,78.6838962 120.797033,81.0239377 Z" id="Path" fill="url(#linearGradient-40)"></path>
                                    <path d="M38.1862798,8.06014302 L38.1862798,47.6458454" id="Path" stroke="url(#linearGradient-41)" stroke-width="0.5"></path>
                                    <path d="M35.8679543,49.2383737 C35.8679543,50.5221465 39.6719672,54.6822203 39.3944212,53.4471984 C39.1168752,52.2121765 40.5046052,50.5221465 40.5046052,49.2383737 C40.504605,47.9639542 39.4666554,46.9308331 38.1862798,46.9308331 C36.9059041,46.9308331 35.8679545,47.9639542 35.8679543,49.2383737 Z" id="Path" fill="url(#linearGradient-42)"></path>
                                </g>
                                <g id="tablette" transform="translate(314.000000, 160.000000)">
                                    <path d="M27.117931,47.4778413 L4.91017241,47.4778413 C2.25349232,47.4778413 0.0998275862,45.2946964 0.0998275862,42.6016508 L12.9274138,5.57511111 C13.7772414,2.82819048 15.092069,0.698920635 17.7377586,0.698920635 L39.9455172,0.698920635 C42.6021973,0.698920635 44.7558621,2.88206547 44.7558621,5.57511111 L31.9282759,42.6016508 C31.1746552,45.1860317 29.7636207,47.4778413 27.117931,47.4778413 Z" id="Path" fill="url(#linearGradient-43)"></path>
                                    <path d="M26.717069,45.543619 L6.36931034,45.543619 C3.93141285,45.5436353 1.95262607,43.5450298 1.9437931,41.0737778 L13.7131034,7.10298413 C14.4827586,4.58361905 15.7013793,2.63314286 18.1225862,2.63314286 L38.4863793,2.63314286 C40.9242768,2.63312664 42.9030636,4.63173208 42.9118966,7.10298413 L31.1425862,41.0737778 C30.4531034,43.4468571 29.1543103,45.543619 26.717069,45.543619 Z" id="Path" fill="url(#linearGradient-44)"></path>
                                    <path d="M38.4863793,2.63314286 L29.2986207,2.63314286 C30.1001176,9.4124963 27.5213776,16.1517195 22.4198276,20.6100317 C14.9853051,26.5933778 11.0052047,35.9565364 11.8210345,45.543619 L26.7651724,45.543619 C29.2024138,45.543619 30.5012069,43.4468571 31.1906897,41.0737778 L42.96,7.10298413 C42.9557968,5.90752083 42.4810587,4.76320435 41.6411488,3.92400408 C40.801239,3.08480382 39.6656374,2.62014102 38.4863793,2.63314286 Z" id="Path" fill="url(#linearGradient-45)" opacity="0.6"></path>
                                </g>
                            </g>
                        </g>
                    </g>
                    <g id="ordi" transform="translate(182.000000, 431.000000)">
                        <path d="M10.944025,17.346391 L73.0931658,18.3992842 C74.7103056,18.4266808 76.0146252,19.7310813 76.0419217,21.3482227 L76.7602595,63.9052239 C76.7882222,65.5618421 75.4679361,66.9274649 73.8113178,66.9554276 C73.7775042,66.9559984 73.7436834,66.9559973 73.7098699,66.9554245 L11.560729,65.9025313 C9.94358927,65.8751347 8.6392696,64.5707343 8.61197318,62.9535928 L7.89363537,20.3965917 C7.8656726,18.7399734 9.18595875,17.3743507 10.842577,17.3463879 C10.8763906,17.3458171 10.9102114,17.3458182 10.944025,17.346391 Z" id="Rectangle" fill="url(#linearGradient-46)" transform="translate(42.326947, 42.150908) rotate(-44.220000) translate(-42.326947, -42.150908) "></path>
                        <path d="M79.1673834,38.5052836 L37.6595538,78.8010984 C36.6416106,79.7848107 36.0581764,81.1324451 36.0381714,82.5462183 C36.0181664,83.9599914 36.5632373,85.3235212 37.5529412,86.3355117 L69.2879513,100.517937 C72.006572,101.670259 74.7251927,102.6453 76.8219067,100.517937 L118.329736,60.2221218 C120.438094,58.1751629 120.485808,54.8110976 118.436349,52.7054366 L86.7013387,38.5230117 C84.6250423,36.4442573 81.2534846,36.4363237 79.1673834,38.5052836 Z" id="Path" fill="url(#linearGradient-47)"></path>
                        <path d="M12.5546424,19.2445196 L70.5106452,20.2263003 C72.127785,20.2536948 73.4321064,21.5580936 73.4594049,23.175235 L74.1150419,62.0146399 C74.1430068,63.6712581 72.8227224,65.0368826 71.1661042,65.0648475 C71.1322906,65.0654183 71.0984698,65.0654173 71.0646562,65.0648445 L14.1429075,64.1005842 C12.5257678,64.0731897 11.2214464,62.7687909 11.1941479,61.1516495 L10.5210519,21.2779893 C10.5024086,20.1735771 11.3825982,19.2631608 12.4870104,19.2445176 C12.5095528,19.244137 12.5321,19.2441377 12.5546424,19.2445196 Z" id="Rectangle" fill="url(#linearGradient-48)" transform="translate(42.326776, 42.163442) rotate(-44.220000) translate(-42.326776, -42.163442) "></path>
                        <path d="M7.52373225,51.7658509 L31.7603245,76.5850945 C33.8119865,78.6886188 37.183781,78.7362235 39.2942799,76.6914627 L64.0283976,52.6877086 C60.6878702,48.5038932 55.2506288,44.8873749 46.4195538,43.6109566 C31.3694118,41.4126808 27.4069777,32.6195773 26.7139959,25.6701891 L7.61257606,44.2137097 C6.59158223,45.2004623 4.56928026,46.4013847 4.55259744,47.8195026 C4.53591463,49.2376205 6.52623291,50.7554614 7.52373225,51.7658509 Z" id="Path" fill="url(#linearGradient-49)" opacity="0.6"></path>
                        <polygon id="Path" fill="url(#linearGradient-50)" points="104.843245 70.59302 87.7141582 87.4169216 71.6867343 80.7157258 88.2827586 64.0159205"></polygon>
                    </g>
                    <path d="M265.616661,97.5374392 L269.273014,102.479126 C269.562366,102.865195 269.470299,103.418561 269.075729,103.701678 C268.681158,103.984796 268.115607,103.894713 267.826255,103.508644 L264.866977,99.5192613 L261.907698,103.508644 C261.618347,103.894713 261.052796,103.984796 260.658225,103.701678 L260.645073,103.688809 C260.250502,103.405692 260.158436,102.852326 260.447788,102.466257 L264.143598,97.4859633 C264.419797,97.125632 264.919586,97.0355492 265.314157,97.2671907 C265.314157,97.2800597 265.327309,97.2800597 265.327309,97.2800597 C265.353614,97.2800597 265.366766,97.2929287 265.379919,97.3057977 L265.393071,97.3057977 C265.406223,97.3186666 265.406223,97.3186666 265.406223,97.3186666 C265.49829,97.3830115 265.564051,97.4602254 265.616661,97.5374392 Z M265.761337,91.8750903 L265.761337,95.3754514 C265.761337,95.8644725 265.353614,96.2505417 264.866977,96.2505417 C264.367188,96.2505417 263.972617,95.8516035 263.972617,95.3754514 L263.972617,91.8750903 C263.972617,91.3860692 264.38034,91 264.866977,91 C265.353614,91 265.761337,91.3989382 265.761337,91.8750903 Z M259.17201,95.2853686 L262.578468,96.3663625 C263.051953,96.5207902 263.301847,97.0098112 263.157172,97.4730943 C262.999343,97.9363774 262.499554,98.1808879 262.02607,98.0393292 L258.619611,96.9454664 C258.146127,96.7910387 257.896232,96.3020176 258.040908,95.8387345 C258.198736,95.3883204 258.698525,95.1309409 259.17201,95.2853686 Z M271.10119,96.9454664 L267.694732,98.0264602 C267.221247,98.1808879 266.721458,97.9235084 266.56363,97.4602254 C266.405802,96.9969423 266.668849,96.5079212 267.142333,96.3534935 L270.548792,95.2724996 C271.022276,95.1180719 271.522066,95.3754514 271.679894,95.8387345 C271.837722,96.3020176 271.574675,96.8039076 271.10119,96.9454664 Z" id="Path-4-Copy-14" fill="#F17B85"></path>
                </g>
            </g>
        </g>
    </g>
</svg>