<?xml version="1.0" encoding="UTF-8"?>
<svg width="504px" height="459px" viewBox="0 0 504 459" version="1.1" xmlns="http://www.w3.org/2000/svg" xmlns:xlink="http://www.w3.org/1999/xlink">
    <!-- Generator: sketchtool 52.4 (67378) - http://www.bohemiancoding.com/sketch -->
    <title>ABD3D48F-5457-4767-8F2E-A13DF7ABBF58@1x</title>
    <desc>Created with sketchtool.</desc>
    <defs>
        <linearGradient x1="9.36745679%" y1="94.1386047%" x2="79.1267675%" y2="-1.04083409e-14%" id="linearGradient-1">
            <stop stop-color="#562FFD" offset="0%"></stop>
            <stop stop-color="#4897FF" offset="74.3655166%"></stop>
            <stop stop-color="#48D3FF" offset="100%"></stop>
        </linearGradient>
        <path d="M267.073494,435.851099 C391.377714,435.851099 514.469656,362.057893 502.171224,250.517939 C495.395941,189.069878 340.039687,204.964913 335.174608,99.4548252 C331.813121,26.5534735 278.149853,0.578099579 197.299922,0.578099579 C72.9957017,0.578099579 0.447129638,110.213192 0.447129638,234.838937 C0.447129638,359.464681 142.769273,435.851099 267.073494,435.851099 Z" id="path-2"></path>
        <linearGradient x1="-0.0127175372%" y1="50%" x2="100%" y2="50%" id="linearGradient-4">
            <stop stop-color="#DF6B7D" offset="0%"></stop>
            <stop stop-color="#D5687C" offset="2%"></stop>
            <stop stop-color="#AA5B76" offset="11%"></stop>
            <stop stop-color="#854F70" offset="20%"></stop>
            <stop stop-color="#67466C" offset="30%"></stop>
            <stop stop-color="#503F69" offset="40%"></stop>
            <stop stop-color="#403A67" offset="51%"></stop>
            <stop stop-color="#363765" offset="63%"></stop>
            <stop stop-color="#333665" offset="79%"></stop>
            <stop stop-color="#2F3043" offset="93%"></stop>
            <stop stop-color="#2D2D2F" offset="100%"></stop>
        </linearGradient>
        <linearGradient x1="-0.139871117%" y1="50.0111882%" x2="99.9560404%" y2="50.0111882%" id="linearGradient-5">
            <stop stop-color="#DF6B7D" offset="0%"></stop>
            <stop stop-color="#D5687C" offset="2%"></stop>
            <stop stop-color="#AA5B76" offset="11%"></stop>
            <stop stop-color="#854F70" offset="20%"></stop>
            <stop stop-color="#67466C" offset="30%"></stop>
            <stop stop-color="#503F69" offset="40%"></stop>
            <stop stop-color="#403A67" offset="51%"></stop>
            <stop stop-color="#363765" offset="63%"></stop>
            <stop stop-color="#333665" offset="79%"></stop>
            <stop stop-color="#2F3043" offset="93%"></stop>
            <stop stop-color="#2D2D2F" offset="100%"></stop>
        </linearGradient>
        <linearGradient x1="25.2222222%" y1="46.8367347%" x2="57.8888889%" y2="18.4183673%" id="linearGradient-6">
            <stop stop-color="#DFB27D" offset="0%"></stop>
            <stop stop-color="#D98A65" offset="54%"></stop>
            <stop stop-color="#A4542F" offset="100%"></stop>
        </linearGradient>
        <linearGradient x1="8.85734747%" y1="55.1470588%" x2="106.124448%" y2="48.4911152%" id="linearGradient-7">
            <stop stop-color="#DF6B7D" offset="0%"></stop>
            <stop stop-color="#D5687C" offset="2%"></stop>
            <stop stop-color="#AA5B76" offset="11%"></stop>
            <stop stop-color="#854F70" offset="20%"></stop>
            <stop stop-color="#67466C" offset="30%"></stop>
            <stop stop-color="#503F69" offset="40%"></stop>
            <stop stop-color="#403A67" offset="51%"></stop>
            <stop stop-color="#363765" offset="63%"></stop>
            <stop stop-color="#333665" offset="79%"></stop>
            <stop stop-color="#2F3043" offset="93%"></stop>
            <stop stop-color="#2D2D2F" offset="100%"></stop>
        </linearGradient>
        <linearGradient x1="-967.444444%" y1="1188.55556%" x2="5988.55556%" y2="-6604.44444%" id="linearGradient-8">
            <stop stop-color="#6FBEE8" offset="0%"></stop>
            <stop stop-color="#2964EC" offset="48%"></stop>
            <stop stop-color="#2D2D2F" offset="100%"></stop>
        </linearGradient>
        <linearGradient x1="26.0578095%" y1="87.7514727%" x2="86.6184921%" y2="1.13371124%" id="linearGradient-9">
            <stop stop-color="#FFD656" offset="0%"></stop>
            <stop stop-color="#A0DA5A" offset="48%"></stop>
            <stop stop-color="#253316" offset="100%"></stop>
        </linearGradient>
        <linearGradient x1="2.35963801%" y1="42.5609865%" x2="40.8807284%" y2="50.8801716%" id="linearGradient-10">
            <stop stop-color="#EEB47B" offset="0%"></stop>
            <stop stop-color="#DF6B7D" offset="100%"></stop>
        </linearGradient>
        <linearGradient x1="50%" y1="108.179545%" x2="50%" y2="38.2573334%" id="linearGradient-11">
            <stop stop-color="#FCD656" offset="0%"></stop>
            <stop stop-color="#567631" offset="100%"></stop>
        </linearGradient>
        <linearGradient x1="-53.4844193%" y1="54.9644845%" x2="14.2776204%" y2="50.0396778%" id="linearGradient-12">
            <stop stop-color="#FED656" offset="0%"></stop>
            <stop stop-color="#577732" offset="100%"></stop>
        </linearGradient>
        <linearGradient x1="14.5032248%" y1="79.2191966%" x2="69.1258982%" y2="32.964069%" id="linearGradient-13">
            <stop stop-color="#EEB47B" offset="0%"></stop>
            <stop stop-color="#DF6B7D" offset="100%"></stop>
        </linearGradient>
        <linearGradient x1="-2.21326255%" y1="67.6274272%" x2="61.3660019%" y2="45.8434466%" id="linearGradient-14">
            <stop stop-color="#DF6B7D" offset="0%"></stop>
            <stop stop-color="#333665" offset="100%"></stop>
        </linearGradient>
        <linearGradient x1="27.35802%" y1="137.783207%" x2="63.5580803%" y2="-32.2412261%" id="linearGradient-15">
            <stop stop-color="#DF6B7D" offset="0%"></stop>
            <stop stop-color="#333665" offset="100%"></stop>
        </linearGradient>
        <linearGradient x1="41.9216183%" y1="53.9541005%" x2="71.5736494%" y2="20.95527%" id="linearGradient-16">
            <stop stop-color="#FFEC9F" offset="0%"></stop>
            <stop stop-color="#D98A65" offset="54%"></stop>
            <stop stop-color="#A4542F" offset="100%"></stop>
        </linearGradient>
        <linearGradient x1="56.2846502%" y1="48.5805231%" x2="130.408139%" y2="22.0807626%" id="linearGradient-17">
            <stop stop-color="#FFEC9F" offset="0%"></stop>
            <stop stop-color="#D98A65" offset="54%"></stop>
            <stop stop-color="#A4542F" offset="100%"></stop>
        </linearGradient>
        <linearGradient x1="57.1125265%" y1="65.9229209%" x2="42.5690021%" y2="30.6288032%" id="linearGradient-18">
            <stop stop-color="#EEB47B" offset="0%"></stop>
            <stop stop-color="#DF6B7D" offset="100%"></stop>
        </linearGradient>
        <linearGradient x1="30.4140127%" y1="-36.2126375%" x2="50.6369427%" y2="79.2151445%" id="linearGradient-19">
            <stop stop-color="#EEB47B" offset="0%"></stop>
            <stop stop-color="#DF6B7D" offset="100%"></stop>
        </linearGradient>
        <linearGradient x1="67.3008007%" y1="50.3795711%" x2="16.9747756%" y2="49.9556431%" id="linearGradient-20">
            <stop stop-color="#EEB47B" offset="0%"></stop>
            <stop stop-color="#DF6B7D" offset="100%"></stop>
        </linearGradient>
        <linearGradient x1="74.193359%" y1="56.2714892%" x2="21.0911685%" y2="36.3426883%" id="linearGradient-21">
            <stop stop-color="#DF6B7D" offset="0%"></stop>
            <stop stop-color="#333665" offset="100%"></stop>
        </linearGradient>
        <linearGradient x1="53.6865674%" y1="69.1916839%" x2="12.7157766%" y2="37.8117642%" id="linearGradient-22">
            <stop stop-color="#DF9AA6" offset="6%"></stop>
            <stop stop-color="#7849E3" offset="100%"></stop>
        </linearGradient>
        <linearGradient x1="138.134239%" y1="-103.973278%" x2="-130.519334%" y2="283.57595%" id="linearGradient-23">
            <stop stop-color="#DF6B7D" offset="0%"></stop>
            <stop stop-color="#333665" offset="100%"></stop>
        </linearGradient>
        <linearGradient x1="71.1066941%" y1="151.510336%" x2="37.7814937%" y2="-4.50756765%" id="linearGradient-24">
            <stop stop-color="#DF9AA6" offset="6%"></stop>
            <stop stop-color="#7849E3" offset="100%"></stop>
        </linearGradient>
        <linearGradient x1="-2.94417055%" y1="64.4982558%" x2="172.262455%" y2="8.31917497%" id="linearGradient-25">
            <stop stop-color="#DF6B7D" offset="0%"></stop>
            <stop stop-color="#333665" offset="54%"></stop>
            <stop stop-color="#2D2D2F" offset="100%"></stop>
        </linearGradient>
        <linearGradient x1="-7.91396951%" y1="169.304391%" x2="41.9920651%" y2="60.9495807%" id="linearGradient-26">
            <stop stop-color="#DF9AA6" offset="6%"></stop>
            <stop stop-color="#7849E3" offset="100%"></stop>
        </linearGradient>
        <linearGradient x1="-6.2290369%" y1="86.4775414%" x2="314.853857%" y2="-120.567376%" id="linearGradient-27">
            <stop stop-color="#DF6B7D" offset="0%"></stop>
            <stop stop-color="#D5687C" offset="2%"></stop>
            <stop stop-color="#AA5B76" offset="11%"></stop>
            <stop stop-color="#854F70" offset="20%"></stop>
            <stop stop-color="#67466C" offset="30%"></stop>
            <stop stop-color="#503F69" offset="40%"></stop>
            <stop stop-color="#403A67" offset="51%"></stop>
            <stop stop-color="#363765" offset="63%"></stop>
            <stop stop-color="#333665" offset="79%"></stop>
            <stop stop-color="#2F3043" offset="93%"></stop>
            <stop stop-color="#2D2D2F" offset="100%"></stop>
        </linearGradient>
        <linearGradient x1="50%" y1="69.8697985%" x2="117.394361%" y2="26.7429147%" id="linearGradient-28">
            <stop stop-color="#F88799" offset="0%"></stop>
            <stop stop-color="#923CAC" offset="100%"></stop>
        </linearGradient>
        <linearGradient x1="26.560926%" y1="87.5784738%" x2="26.560926%" y2="10.475253%" id="linearGradient-29">
            <stop stop-color="#F283DD" offset="0%"></stop>
            <stop stop-color="#562FFD" offset="100%"></stop>
        </linearGradient>
        <linearGradient x1="0.316957211%" y1="50.2604167%" x2="100%" y2="50.2604167%" id="linearGradient-30">
            <stop stop-color="#DF6B7D" offset="0%"></stop>
            <stop stop-color="#D5687C" offset="2%"></stop>
            <stop stop-color="#AA5B76" offset="11%"></stop>
            <stop stop-color="#854F70" offset="20%"></stop>
            <stop stop-color="#67466C" offset="30%"></stop>
            <stop stop-color="#503F69" offset="40%"></stop>
            <stop stop-color="#403A67" offset="51%"></stop>
            <stop stop-color="#363765" offset="63%"></stop>
            <stop stop-color="#333665" offset="79%"></stop>
            <stop stop-color="#2F3043" offset="93%"></stop>
            <stop stop-color="#2D2D2F" offset="100%"></stop>
        </linearGradient>
        <linearGradient x1="50.3119748%" y1="62.7860101%" x2="22.0822653%" y2="15.9595505%" id="linearGradient-31">
            <stop stop-color="#EEB47B" offset="0%"></stop>
            <stop stop-color="#DF6B7D" offset="100%"></stop>
        </linearGradient>
        <linearGradient x1="-3%" y1="85%" x2="299%" y2="-113%" id="linearGradient-32">
            <stop stop-color="#DF6B7D" offset="0%"></stop>
            <stop stop-color="#D5687C" offset="2%"></stop>
            <stop stop-color="#AA5B76" offset="11%"></stop>
            <stop stop-color="#854F70" offset="20%"></stop>
            <stop stop-color="#67466C" offset="30%"></stop>
            <stop stop-color="#503F69" offset="40%"></stop>
            <stop stop-color="#403A67" offset="51%"></stop>
            <stop stop-color="#363765" offset="63%"></stop>
            <stop stop-color="#333665" offset="79%"></stop>
            <stop stop-color="#2F3043" offset="93%"></stop>
            <stop stop-color="#2D2D2F" offset="100%"></stop>
        </linearGradient>
        <linearGradient x1="80%" y1="3.07328605%" x2="-34.6268657%" y2="141.985816%" id="linearGradient-33">
            <stop stop-color="#DF6B7D" offset="0%"></stop>
            <stop stop-color="#D5687C" offset="2%"></stop>
            <stop stop-color="#AA5B76" offset="11%"></stop>
            <stop stop-color="#854F70" offset="20%"></stop>
            <stop stop-color="#67466C" offset="30%"></stop>
            <stop stop-color="#503F69" offset="40%"></stop>
            <stop stop-color="#403A67" offset="51%"></stop>
            <stop stop-color="#363765" offset="63%"></stop>
            <stop stop-color="#333665" offset="79%"></stop>
            <stop stop-color="#2F3043" offset="93%"></stop>
            <stop stop-color="#2D2D2F" offset="100%"></stop>
        </linearGradient>
        <linearGradient x1="12.2229955%" y1="147.507456%" x2="52.510897%" y2="43.5165459%" id="linearGradient-34">
            <stop stop-color="#DF6B7D" offset="0%"></stop>
            <stop stop-color="#D5687C" offset="2%"></stop>
            <stop stop-color="#AA5B76" offset="11%"></stop>
            <stop stop-color="#854F70" offset="20%"></stop>
            <stop stop-color="#67466C" offset="30%"></stop>
            <stop stop-color="#503F69" offset="40%"></stop>
            <stop stop-color="#403A67" offset="51%"></stop>
            <stop stop-color="#363765" offset="63%"></stop>
            <stop stop-color="#333665" offset="79%"></stop>
            <stop stop-color="#2F3043" offset="93%"></stop>
            <stop stop-color="#2D2D2F" offset="100%"></stop>
        </linearGradient>
        <linearGradient x1="-7.80930615e-15%" y1="50%" x2="99.9963365%" y2="50%" id="linearGradient-35">
            <stop stop-color="#DF6B7D" offset="0%"></stop>
            <stop stop-color="#D5687C" offset="2%"></stop>
            <stop stop-color="#AA5B76" offset="11%"></stop>
            <stop stop-color="#854F70" offset="20%"></stop>
            <stop stop-color="#67466C" offset="30%"></stop>
            <stop stop-color="#503F69" offset="40%"></stop>
            <stop stop-color="#403A67" offset="51%"></stop>
            <stop stop-color="#363765" offset="63%"></stop>
            <stop stop-color="#333665" offset="79%"></stop>
            <stop stop-color="#2F3043" offset="93%"></stop>
            <stop stop-color="#2D2D2F" offset="100%"></stop>
        </linearGradient>
        <linearGradient x1="-118.470982%" y1="574.522293%" x2="101.618304%" y2="-110.828025%" id="linearGradient-36">
            <stop stop-color="#DF6B7D" offset="0%"></stop>
            <stop stop-color="#D5687C" offset="2%"></stop>
            <stop stop-color="#AA5B76" offset="11%"></stop>
            <stop stop-color="#854F70" offset="20%"></stop>
            <stop stop-color="#67466C" offset="30%"></stop>
            <stop stop-color="#503F69" offset="40%"></stop>
            <stop stop-color="#403A67" offset="51%"></stop>
            <stop stop-color="#363765" offset="63%"></stop>
            <stop stop-color="#333665" offset="79%"></stop>
            <stop stop-color="#2F3043" offset="93%"></stop>
            <stop stop-color="#2D2D2F" offset="100%"></stop>
        </linearGradient>
        <linearGradient x1="140.891622%" y1="11.0066372%" x2="-288.700999%" y2="195.353982%" id="linearGradient-37">
            <stop stop-color="#DF6B7D" offset="0%"></stop>
            <stop stop-color="#D5687C" offset="2%"></stop>
            <stop stop-color="#AA5B76" offset="11%"></stop>
            <stop stop-color="#854F70" offset="20%"></stop>
            <stop stop-color="#67466C" offset="30%"></stop>
            <stop stop-color="#503F69" offset="40%"></stop>
            <stop stop-color="#403A67" offset="51%"></stop>
            <stop stop-color="#363765" offset="63%"></stop>
            <stop stop-color="#333665" offset="79%"></stop>
            <stop stop-color="#2F3043" offset="93%"></stop>
            <stop stop-color="#2D2D2F" offset="100%"></stop>
        </linearGradient>
        <linearGradient x1="-118.421053%" y1="575.268817%" x2="101.597744%" y2="-111.290323%" id="linearGradient-38">
            <stop stop-color="#DF6B7D" offset="0%"></stop>
            <stop stop-color="#D5687C" offset="2%"></stop>
            <stop stop-color="#AA5B76" offset="11%"></stop>
            <stop stop-color="#854F70" offset="20%"></stop>
            <stop stop-color="#67466C" offset="30%"></stop>
            <stop stop-color="#503F69" offset="40%"></stop>
            <stop stop-color="#403A67" offset="51%"></stop>
            <stop stop-color="#363765" offset="63%"></stop>
            <stop stop-color="#333665" offset="79%"></stop>
            <stop stop-color="#2F3043" offset="93%"></stop>
            <stop stop-color="#2D2D2F" offset="100%"></stop>
        </linearGradient>
        <linearGradient x1="50.7470576%" y1="69.4001286%" x2="21.3476172%" y2="16.7509847%" id="linearGradient-39">
            <stop stop-color="#EEB47B" offset="0%"></stop>
            <stop stop-color="#DF6B7D" offset="100%"></stop>
        </linearGradient>
        <linearGradient x1="30.4245348%" y1="153.919643%" x2="51.1367278%" y2="80.1269853%" id="linearGradient-40">
            <stop stop-color="#EEB47B" offset="0%"></stop>
            <stop stop-color="#DF6B7D" offset="100%"></stop>
        </linearGradient>
        <linearGradient x1="-101.221241%" y1="194.371547%" x2="96.780304%" y2="3.24585635%" id="linearGradient-41">
            <stop stop-color="#DF6B7D" offset="0%"></stop>
            <stop stop-color="#D5687C" offset="2%"></stop>
            <stop stop-color="#AA5B76" offset="11%"></stop>
            <stop stop-color="#854F70" offset="20%"></stop>
            <stop stop-color="#67466C" offset="30%"></stop>
            <stop stop-color="#503F69" offset="40%"></stop>
            <stop stop-color="#403A67" offset="51%"></stop>
            <stop stop-color="#363765" offset="63%"></stop>
            <stop stop-color="#333665" offset="79%"></stop>
            <stop stop-color="#2F3043" offset="93%"></stop>
            <stop stop-color="#2D2D2F" offset="100%"></stop>
        </linearGradient>
        <linearGradient x1="1.89820609%" y1="75.3470273%" x2="110.867751%" y2="26.7272143%" id="linearGradient-42">
            <stop stop-color="#DF6B7D" offset="0%"></stop>
            <stop stop-color="#D5687C" offset="2%"></stop>
            <stop stop-color="#AA5B76" offset="11%"></stop>
            <stop stop-color="#854F70" offset="20%"></stop>
            <stop stop-color="#67466C" offset="30%"></stop>
            <stop stop-color="#503F69" offset="40%"></stop>
            <stop stop-color="#403A67" offset="51%"></stop>
            <stop stop-color="#363765" offset="63%"></stop>
            <stop stop-color="#333665" offset="79%"></stop>
            <stop stop-color="#2F3043" offset="93%"></stop>
            <stop stop-color="#2D2D2F" offset="100%"></stop>
        </linearGradient>
        <linearGradient x1="18.4454756%" y1="77.084293%" x2="127.809082%" y2="-25.2187932%" id="linearGradient-43">
            <stop stop-color="#DF6B7D" offset="0%"></stop>
            <stop stop-color="#D5687C" offset="2%"></stop>
            <stop stop-color="#AA5B76" offset="11%"></stop>
            <stop stop-color="#854F70" offset="20%"></stop>
            <stop stop-color="#67466C" offset="30%"></stop>
            <stop stop-color="#503F69" offset="40%"></stop>
            <stop stop-color="#403A67" offset="51%"></stop>
            <stop stop-color="#363765" offset="63%"></stop>
            <stop stop-color="#333665" offset="79%"></stop>
            <stop stop-color="#2F3043" offset="93%"></stop>
            <stop stop-color="#2D2D2F" offset="100%"></stop>
        </linearGradient>
        <linearGradient x1="20.14382%" y1="39.0808254%" x2="62.8212185%" y2="58.9613134%" id="linearGradient-44">
            <stop stop-color="#6FBEE8" offset="0%"></stop>
            <stop stop-color="#1C46A6" offset="100%"></stop>
        </linearGradient>
        <linearGradient x1="-109.95882%" y1="68.3903426%" x2="137.44373%" y2="37.9776132%" id="linearGradient-45">
            <stop stop-color="#6FBEE8" offset="0%"></stop>
            <stop stop-color="#2964EC" offset="48%"></stop>
            <stop stop-color="#2D2D2F" offset="100%"></stop>
        </linearGradient>
        <linearGradient x1="-35.7841944%" y1="87.6547267%" x2="92.7195725%" y2="35.6459279%" id="linearGradient-46">
            <stop stop-color="#EEB47B" offset="0%"></stop>
            <stop stop-color="#DF6B7D" offset="100%"></stop>
        </linearGradient>
        <linearGradient x1="-78.9607743%" y1="87.2066763%" x2="219.612837%" y2="-5.97678155%" id="linearGradient-47">
            <stop stop-color="#DF6B7D" offset="0%"></stop>
            <stop stop-color="#333665" offset="100%"></stop>
        </linearGradient>
        <linearGradient x1="-42.4396808%" y1="72.5068871%" x2="161.941311%" y2="18.292011%" id="linearGradient-48">
            <stop stop-color="#EEB47B" offset="0%"></stop>
            <stop stop-color="#DF6B7D" offset="100%"></stop>
        </linearGradient>
        <linearGradient x1="0%" y1="62.3711625%" x2="39.5338858%" y2="44.040941%" id="linearGradient-49">
            <stop stop-color="#F88799" offset="0%"></stop>
            <stop stop-color="#333665" offset="100%"></stop>
        </linearGradient>
        <linearGradient x1="-6.20152901%" y1="76.4036565%" x2="63.1698413%" y2="43.3943774%" id="linearGradient-50">
            <stop stop-color="#DF6B7D" offset="0%"></stop>
            <stop stop-color="#333665" offset="100%"></stop>
        </linearGradient>
        <linearGradient x1="-5.68450971%" y1="73.8329764%" x2="376.077688%" y2="-101.456103%" id="linearGradient-51">
            <stop stop-color="#DF6B7D" offset="0%"></stop>
            <stop stop-color="#D5687C" offset="2%"></stop>
            <stop stop-color="#AA5B76" offset="11%"></stop>
            <stop stop-color="#854F70" offset="20%"></stop>
            <stop stop-color="#67466C" offset="30%"></stop>
            <stop stop-color="#503F69" offset="40%"></stop>
            <stop stop-color="#403A67" offset="51%"></stop>
            <stop stop-color="#363765" offset="63%"></stop>
            <stop stop-color="#333665" offset="79%"></stop>
            <stop stop-color="#2F3043" offset="93%"></stop>
            <stop stop-color="#2D2D2F" offset="100%"></stop>
        </linearGradient>
        <linearGradient x1="-5.67180617%" y1="73.8178198%" x2="376.156388%" y2="-101.49328%" id="linearGradient-52">
            <stop stop-color="#DF6B7D" offset="0%"></stop>
            <stop stop-color="#D5687C" offset="2%"></stop>
            <stop stop-color="#AA5B76" offset="11%"></stop>
            <stop stop-color="#854F70" offset="20%"></stop>
            <stop stop-color="#67466C" offset="30%"></stop>
            <stop stop-color="#503F69" offset="40%"></stop>
            <stop stop-color="#403A67" offset="51%"></stop>
            <stop stop-color="#363765" offset="63%"></stop>
            <stop stop-color="#333665" offset="79%"></stop>
            <stop stop-color="#2F3043" offset="93%"></stop>
            <stop stop-color="#2D2D2F" offset="100%"></stop>
        </linearGradient>
        <linearGradient x1="37.733689%" y1="-34.0684103%" x2="58.2055568%" y2="141.144712%" id="linearGradient-53">
            <stop stop-color="#DF6B7D" offset="0%"></stop>
            <stop stop-color="#333665" offset="100%"></stop>
        </linearGradient>
        <linearGradient x1="-0.013485221%" y1="49.9695598%" x2="99.9774258%" y2="49.9695598%" id="linearGradient-54">
            <stop stop-color="#EEB47B" offset="0%"></stop>
            <stop stop-color="#DF6B7D" offset="100%"></stop>
        </linearGradient>
        <linearGradient x1="129.712619%" y1="70.0870152%" x2="29.012953%" y2="40.2738819%" id="linearGradient-55">
            <stop stop-color="#EEB47B" offset="0%"></stop>
            <stop stop-color="#DF6B7D" offset="100%"></stop>
        </linearGradient>
        <linearGradient x1="-3.08290729%" y1="47.3012597%" x2="96.1588165%" y2="52.2154786%" id="linearGradient-56">
            <stop stop-color="#DF6B7D" offset="0%"></stop>
            <stop stop-color="#D5687C" offset="2%"></stop>
            <stop stop-color="#AA5B76" offset="11%"></stop>
            <stop stop-color="#854F70" offset="20%"></stop>
            <stop stop-color="#67466C" offset="30%"></stop>
            <stop stop-color="#503F69" offset="40%"></stop>
            <stop stop-color="#403A67" offset="51%"></stop>
            <stop stop-color="#363765" offset="63%"></stop>
            <stop stop-color="#333665" offset="79%"></stop>
            <stop stop-color="#2F3043" offset="93%"></stop>
            <stop stop-color="#2D2D2F" offset="100%"></stop>
        </linearGradient>
        <linearGradient x1="-32.3685587%" y1="13.8696173%" x2="105.07655%" y2="71.230014%" id="linearGradient-57">
            <stop stop-color="#DF6B7D" offset="0%"></stop>
            <stop stop-color="#D5687C" offset="2%"></stop>
            <stop stop-color="#AA5B76" offset="11%"></stop>
            <stop stop-color="#854F70" offset="20%"></stop>
            <stop stop-color="#67466C" offset="30%"></stop>
            <stop stop-color="#503F69" offset="40%"></stop>
            <stop stop-color="#403A67" offset="51%"></stop>
            <stop stop-color="#363765" offset="63%"></stop>
            <stop stop-color="#333665" offset="79%"></stop>
            <stop stop-color="#2F3043" offset="93%"></stop>
            <stop stop-color="#2D2D2F" offset="100%"></stop>
        </linearGradient>
    </defs>
    <g id="Design" stroke="none" stroke-width="1" fill="none" fill-rule="evenodd">
        <g id="2a-Entreprise" transform="translate(-197.000000, -1724.000000)">
            <g id="Section-3" transform="translate(197.000000, 1724.000000)">
                <g id="Illustration2">
                    <g id="fond" transform="translate(0.245777, 22.487986)">
                        <mask id="mask-3" fill="white">
                            <use xlink:href="#path-2"></use>
                        </mask>
                        <use id="Oval" fill="url(#linearGradient-1)" fill-rule="nonzero" transform="translate(251.734616, 218.214599) scale(1, -1) rotate(-180.000000) translate(-251.734616, -218.214599) " xlink:href="#path-2"></use>
                        <path d="M441.102828,147.894184 L444.756608,152.841201 C445.045756,153.227687 444.953755,153.78165 444.559462,154.065072 C444.165169,154.348495 443.600016,154.258315 443.310868,153.87183 L440.353671,149.878144 L437.396475,153.87183 C437.107326,154.258315 436.542173,154.348495 436.14788,154.065072 L436.134737,154.05219 C435.740444,153.768767 435.648443,153.214804 435.937591,152.828318 L439.630801,147.842653 C439.906806,147.481933 440.406243,147.391753 440.800536,147.623644 C440.800536,147.636527 440.813679,147.636527 440.813679,147.636527 C440.839966,147.636527 440.853109,147.64941 440.866252,147.662293 L440.879395,147.662293 C440.892538,147.675176 440.892538,147.675176 440.892538,147.675176 C440.98454,147.73959 441.050255,147.816887 441.102828,147.894184 Z M441.247402,142.225727 L441.247402,145.729864 C441.247402,146.219413 440.839966,146.605899 440.353671,146.605899 C439.854233,146.605899 439.459941,146.20653 439.459941,145.729864 L439.459941,142.225727 C439.459941,141.736179 439.867377,141.349693 440.353671,141.349693 C440.839966,141.349693 441.247402,141.749062 441.247402,142.225727 Z M434.662711,145.639684 L438.066772,146.721844 C438.539924,146.876439 438.789643,147.365987 438.645069,147.82977 C438.487351,148.293553 437.987914,148.538327 437.514762,148.396616 L434.110701,147.301573 C433.637549,147.146979 433.38783,146.65743 433.532404,146.193647 C433.690122,145.742747 434.189559,145.48509 434.662711,145.639684 Z M446.583498,147.301573 L443.179437,148.383733 C442.706285,148.538327 442.206848,148.28067 442.04913,147.816887 C441.891413,147.353104 442.154275,146.863556 442.627427,146.708961 L446.031488,145.626802 C446.50464,145.472207 447.004078,145.729864 447.161795,146.193647 C447.319512,146.65743 447.05665,147.159861 446.583498,147.301573 Z" id="Path-4-Copy-4" fill="#FFFFFF" mask="url(#mask-3)"></path>
                        <path d="M261.102828,67.8941842 L264.756608,72.841201 C265.045756,73.2276867 264.953755,73.7816495 264.559462,74.0650724 C264.165169,74.3484952 263.600016,74.2583152 263.310868,73.8718295 L260.353671,69.8781441 L257.396475,73.8718295 C257.107326,74.2583152 256.542173,74.3484952 256.14788,74.0650724 L256.134737,74.0521895 C255.740444,73.7687667 255.648443,73.2148039 255.937591,72.8283182 L259.630801,67.8426528 C259.906806,67.4819328 260.406243,67.3917528 260.800536,67.6236443 C260.800536,67.6365271 260.813679,67.6365271 260.813679,67.6365271 C260.839966,67.6365271 260.853109,67.64941 260.866252,67.6622928 L260.879395,67.6622928 C260.892538,67.6751757 260.892538,67.6751757 260.892538,67.6751757 C260.98454,67.73959 261.050255,67.8168871 261.102828,67.8941842 Z M261.247402,62.2257275 L261.247402,65.7298644 C261.247402,66.2194129 260.839966,66.6058986 260.353671,66.6058986 C259.854233,66.6058986 259.459941,66.2065301 259.459941,65.7298644 L259.459941,62.2257275 C259.459941,61.7361789 259.867377,61.3496933 260.353671,61.3496933 C260.839966,61.3496933 261.247402,61.7490618 261.247402,62.2257275 Z M254.662711,65.6396844 L258.066772,66.7218443 C258.539924,66.8764386 258.789643,67.3659871 258.645069,67.82977 C258.487351,68.2935528 257.987914,68.538327 257.514762,68.3966156 L254.110701,67.3015728 C253.637549,67.1469786 253.38783,66.65743 253.532404,66.1936472 C253.690122,65.7427472 254.189559,65.4850901 254.662711,65.6396844 Z M266.583498,67.3015728 L263.179437,68.3837328 C262.706285,68.538327 262.206848,68.2806699 262.04913,67.8168871 C261.891413,67.3531043 262.154275,66.8635557 262.627427,66.7089615 L266.031488,65.6268015 C266.50464,65.4722073 267.004078,65.7298644 267.161795,66.1936472 C267.319512,66.65743 267.05665,67.1598614 266.583498,67.3015728 Z" id="Path-4-Copy-4" fill="#FFFFFF" mask="url(#mask-3)"></path>
                        <path d="M208.865539,188.200933 L212.51932,193.14795 C212.808468,193.534435 212.716466,194.088398 212.322174,194.371821 C211.927881,194.655244 211.362728,194.565064 211.073579,194.178578 L208.116383,190.184893 L205.159186,194.178578 C204.870038,194.565064 204.304885,194.655244 203.910592,194.371821 L203.897449,194.358938 C203.503156,194.075515 203.411155,193.521552 203.700303,193.135067 L207.393513,188.149401 C207.669518,187.788681 208.168955,187.698501 208.563248,187.930393 C208.563248,187.943276 208.576391,187.943276 208.576391,187.943276 C208.602677,187.943276 208.615821,187.956158 208.628964,187.969041 L208.642107,187.969041 C208.65525,187.981924 208.65525,187.981924 208.65525,187.981924 C208.747252,188.046338 208.812967,188.123636 208.865539,188.200933 Z M209.010113,182.532476 L209.010113,186.036613 C209.010113,186.526161 208.602677,186.912647 208.116383,186.912647 C207.616945,186.912647 207.222652,186.513279 207.222652,186.036613 L207.222652,182.532476 C207.222652,182.042927 207.630088,181.656442 208.116383,181.656442 C208.602677,181.656442 209.010113,182.05581 209.010113,182.532476 Z M202.425422,185.946433 L205.829484,187.028593 C206.302636,187.183187 206.552355,187.672736 206.40778,188.136518 C206.250063,188.600301 205.750626,188.845076 205.277474,188.703364 L201.873412,187.608321 C201.400261,187.453727 201.150542,186.964178 201.295116,186.500396 C201.452833,186.049496 201.952271,185.791839 202.425422,185.946433 Z M214.34621,187.608321 L210.942149,188.690481 C210.468997,188.845076 209.969559,188.587418 209.811842,188.123636 C209.654125,187.659853 209.916987,187.170304 210.390139,187.01571 L213.7942,185.93355 C214.267352,185.778956 214.766789,186.036613 214.924507,186.500396 C215.082224,186.964178 214.819362,187.46661 214.34621,187.608321 Z" id="Path-4-Copy-13" fill="#FFFFFF" mask="url(#mask-3)"></path>
                        <g id="reu-illu-entreprise" mask="url(#mask-3)">
                            <g transform="translate(31.754223, 135.512014)">
                                <g id="chaise_homme" transform="translate(0.000000, 95.000000)">
                                    <path d="M56.1076923,0.0922105263 L13.8615385,4.79494737 C13.8615385,4.79494737 1.89230769,5.93221053 6.03076923,20.7934737 C9.98461538,35.0092632 35.0307692,132.537263 35.0307692,132.537263 L59.2769231,119.827579 L56.1076923,0.0922105263 Z" id="Path" fill="url(#linearGradient-4)"></path>
                                    <path d="M7.50769231,7.94547368 C7.50769231,7.94547368 7.24615385,8.34505263 1.35384615,14.3233684 C-0.292307692,15.9831579 -0.184615385,19.1644211 0.6,22.6376842 C1.67692308,27.6170526 2.84615385,31.8587368 2.84615385,31.8587368 L33.2,145.308421 L33.2,138.454105 C33.3115351,136.349214 33.9460075,134.305194 35.0461538,132.506526 L5.6,18.3191579 C4.65899837,14.7499632 5.35825353,10.9475407 7.50769231,7.94547368 Z" id="Path" fill="url(#linearGradient-5)"></path>
                                </g>
                                <g id="femme_lead" transform="translate(217.000000, 0.000000)">
                                    <path d="M39.6395161,76.6561505 C39.6395161,76.6561505 40.7274194,70.1606473 44.5120968,68.425442 C48.2967742,66.6902367 48.4959677,67.427315 51.3612903,63.8187022 C54.2266129,60.2100893 61.9951613,61.9145831 61.9951613,61.9145831 L34.4145161,46.5587837 L35.7629032,66.2142069 L39.6395161,76.6561505 Z" id="Path" fill="url(#linearGradient-6)"></path>
                                    <path d="M184.851613,231.933994 C186.567742,216.578194 187.226613,204.186064 187.839516,194.020525 C188.804839,177.973715 193.692742,137.664741 181.894355,113.341155 C180.064087,109.500361 177.862424,105.848682 175.320968,102.438538 L115.394355,137.541895 C115.508946,137.999074 115.570642,138.467953 115.578226,138.939273 C115.578226,141.887586 110.874194,196.830636 110.874194,206.965464 C110.874194,217.100292 105.143548,245.830992 103.458065,259.681923 C101.772581,273.532854 96.0725806,302.923854 96.0725806,302.923854 L111.870161,302.923854 C111.870161,302.923854 129.062097,258.914133 133.321774,242.91339 C138.470161,223.79542 140.201613,215.150105 144.4,200.285691 C145.932258,194.665469 151.295161,164.368476 151.295161,164.368476 C151.295161,164.368476 153.808065,183.302177 155.570161,198.627265 C156.566129,207.380071 161.699194,251.896533 161.08629,267.728362 C160.473387,283.560191 161.867742,302.877787 161.867742,302.877787 L173.957258,302.877787 C173.957258,302.877787 182.262097,255.059828 184.851613,231.933994 Z" id="pantalon" fill="url(#linearGradient-7)"></path>
                                    <path d="M100.500806,174.319034 C100.500806,174.319034 100.531452,174.349746 100.500806,174.319034 Z" id="Path" fill="url(#linearGradient-8)"></path>
                                    <path d="M141.917742,72.8172006 C129.108065,57.2617759 124.38871,38.343431 94.4177419,36.6542931 C92.1388461,36.6470381 89.8622473,36.5086079 87.5991935,36.2396865 L58.5782258,56.2022257 L54.2572581,60.1333103 C54.2572581,60.1333103 51.1927419,63.3580282 51.7137097,75.6426677 C51.958871,80.9864859 47.8983871,98.5995878 46.366129,102.438538 C45.9983871,103.34453 45.6306452,104.296589 45.2016129,105.264005 C43.7766129,108.043404 41.5548387,110.868871 38.2604839,111.498459 C31.3346774,112.834414 12.9322581,109.102955 0.674193548,111.498459 C0.674193548,111.498459 6.19032258,113.878608 3.57016129,120.972987 C8.31858445,123.193004 13.2251154,125.05619 18.2491935,126.547143 L26.5434412,128.144146 C35.194408,129.108753 41.2786351,128.884075 49.9516129,128.144146 C55.2991935,127.560625 59.6048387,126.347517 60.9991935,124.044147 C65.5959677,116.366248 71.5258065,97.8471536 71.5258065,97.8471536 C74.0054364,98.6781089 76.5793008,99.1939978 79.1870968,99.3827335 C82.2516129,99.3827335 91.4451613,107.813067 91.4451613,107.813067 C91.4451613,107.813067 89.1467742,123.168867 89.1467742,127.775607 C89.1467742,132.382346 90.8169355,160.022785 90.8169355,163.093945 C90.8169355,164.629525 90.6637097,168.944505 89.2846774,170.572219 L89.8516129,170.86398 C99.1217742,173.781582 100.408871,174.303679 100.577419,174.395813 C100.776613,174.180832 104.745161,170.050122 105.495968,169.297688 C106.246774,168.545254 105.802419,162.495069 106.706452,157.381588 C107.901613,150.548257 112.98871,133.104069 112.98871,133.104069 C114.482659,134.743458 115.425858,136.811178 115.685484,139.016052 C115.685484,139.261745 115.685484,139.845265 115.593548,140.735901 C159.860484,140.04489 173.696774,112.005201 176.669355,104.281234 C165.729032,88.5261834 152.88871,86.1306787 141.917742,72.8172006 Z" id="Path" fill="url(#linearGradient-9)"></path>
                                    <path d="M173.91129,238.874815 C174.233065,227.035494 173.558871,218.651227 173.206452,211.710406 C172.792742,203.464342 172.026613,198.657976 170.785484,187.663224 C169.835484,179.401804 167.720968,168.08458 166.847581,162.878964 C165.974194,157.673348 165.560484,150.13365 162.250806,143.361743 C159.937097,138.755003 158.083065,134.148263 153.333065,131.077103 L115.394355,137.541895 C115.508946,137.999074 115.570642,138.467953 115.578226,138.939273 C115.578226,141.887586 110.874194,196.830636 110.874194,206.965464 C110.874194,217.100292 105.143548,245.830992 103.458065,259.681923 C101.772581,273.532854 96.0725806,302.923854 96.0725806,302.923854 L103.304839,302.923854 C105.232172,298.694582 106.855394,294.332658 108.162097,289.871425 C110.230645,283.452701 111.471774,280.197271 114.858065,267.59016 C118.474194,254.184547 118.045161,255.873685 120.420161,246.690917 C125.323387,227.895418 128.18871,222.290552 129.705645,211.188309 C130.885484,202.512282 139.987097,170.556864 139.987097,161.35874 C139.987097,152.160616 144.583871,147.277472 146.575806,148.720917 C147.908871,149.672976 150.391129,159.469976 151.93871,166.042259 C154.344355,173.090571 158.067742,197.920898 158.803226,214.597296 C159.232258,223.411525 161.867742,251.896533 161.147581,267.774429 C160.427419,283.652326 161.929032,302.923854 161.929032,302.923854 L166.939516,302.923854 C166.939516,302.923854 171.53629,276.588658 172.394355,266.269561 C173.466935,253.18642 173.620161,247.335861 173.91129,238.874815 Z" id="Path" fill="url(#linearGradient-10)"></path>
                                    <path d="M94.3870968,36.6542931 C94.3870968,36.6542931 86.2354839,36.2089749 83.6612903,35.8250799 L59.9112903,58.6130862 L61.5967742,64.6172038 L60.0645161,59.5344342 C60.0645161,59.5344342 67.3580645,67.4426708 68.8290323,72.4947288 C70.3,77.5467868 70.5298387,83.6430392 73.6862903,86.3149483 C76.8427419,88.9868574 89.958871,94.5303009 89.958871,94.5303009 C89.958871,94.5303009 87.875,87.7276818 86.4653226,82.7984702 C85.0556452,77.8692586 83.2935484,60.7782539 84.2895161,53.8374326 C85.1782258,47.6183339 89.7903226,38.8348166 95.183871,36.7003605 L94.3870968,36.6542931 Z" id="ombre_pull" fill="url(#linearGradient-11)"></path>
                                    <path d="M153.287097,130.938901 C150.1,123.552762 143.618548,116.473738 137.320968,110.392842 C129.889516,103.221683 128.510484,88.5876066 129.337903,77.8231912 C130.165323,67.0587759 117.217742,54.6359342 114.735484,53.4688934 C112.253226,52.3018527 107.840323,53.4688934 105.373387,60.7014749 C102.906452,67.9340564 106.200806,83.3359232 107.028226,91.4130737 C107.855645,99.4902241 102.06371,109.087599 102.814516,114.047522 C103.565323,119.007445 106.200806,119.852014 104.91371,131.445643 C103.806386,140.05859 103.775502,148.776334 104.821774,157.396944 C105.649194,163.201436 99.1983871,170.879335 99.1983871,170.879335 L100.470161,174.33439 C101.809012,174.509285 103.148449,174.015946 104.055645,173.013792 C104.852419,172.276713 106.032258,167.50106 106.798387,160.606306 C107.564516,153.711552 112.927419,132.965867 112.927419,132.965867 C114.421369,134.605255 115.364568,136.672976 115.624194,138.87785 C115.624194,139.123542 115.624194,139.707063 115.532258,140.597699 C131.98871,140.398074 144.231452,136.359498 153.287097,130.938901 Z" id="ombre_pull-2" fill="url(#linearGradient-12)"></path>
                                    <path d="M31.4879032,50.7355611 L36.4370968,54.8969828 C36.4244155,54.7078078 36.4244155,54.5179932 36.4370968,54.3288182 C36.4370968,53.192489 37.0040323,49.7988574 37.0040323,49.7988574 C37.0040323,49.7988574 37.5709677,54.3288182 39.8233871,56.0333119 C42.0758065,57.7378056 46.6112903,59.9951082 47.1629032,60.5479169 C47.7145161,61.1007257 49.9975806,61.1160815 49.9975806,61.1160815 C52.1864282,60.8917183 54.3156993,60.267166 56.2798387,59.2733856 C56.2798387,59.2733856 67.7258065,63.4348072 72.9048387,50.6587821 C74.675804,46.5475369 75.5282427,42.0979087 75.4024194,37.6217085 C74.8827726,37.6136149 74.3768158,37.4534926 73.9467742,37.1610345 C73.0572128,35.5188969 72.7957166,33.6080203 73.2112903,31.7865047 C74.1,29.4217116 75.3258065,26.4119749 73.7782258,24.7074812 C72.2306452,23.0029875 71.5870968,22.5116019 71.5104839,21.8513025 C73.3632717,20.7837657 74.485893,18.7869401 74.4370968,16.6456865 C74.3720607,14.552477 73.989732,12.481355 73.3032258,10.5033668 L54.7629032,12.1617931 L37.9080645,22.1123511 L31.7790323,35.6715219 C32.0548387,36.6235815 32.2846774,37.4067273 32.4072581,37.8981129 C33.3169328,41.455191 33.1191035,45.2060206 31.8403226,48.6471724 C31.6159816,49.3208964 31.4970998,50.0253736 31.4879032,50.7355611 Z" id="visage" fill="url(#linearGradient-13)"></path>
                                    <path d="M72.8435484,50.6587821 C74.6145137,46.5475369 75.4669524,42.0979087 75.341129,37.6217085 C74.8214823,37.6136149 74.3155255,37.4534926 73.8854839,37.1610345 C72.9959224,35.5188969 72.7344263,33.6080203 73.15,31.7865047 C74.0387097,29.4217116 75.2645161,26.4119749 73.7169355,24.7074812 C72.1693548,23.0029875 71.5258065,22.5116019 71.4491935,21.8513025 C73.3019814,20.7837657 74.4246027,18.7869401 74.3758065,16.6456865 C74.3107704,14.552477 73.9284417,12.481355 73.2419355,10.5033668 L54.7016129,12.1617931 L46.9637097,16.7685329 C45.2629032,20.7917524 44.1596774,24.185384 44.6040323,25.4292038 C46.0137097,29.391 47.6685484,30.9419357 47.1475806,34.750174 C46.6266129,38.5584122 47.8524194,37.7138433 50.2120968,37.6370643 C52.5717742,37.5602853 55.0080645,37.1456787 57.1225806,40.262906 C59.2370968,43.3801332 52.25,44.3475486 52.1427419,46.1902445 C52.0354839,48.0329404 55.8508065,49.1539138 55.7129032,50.4284451 C55.575,51.7029765 55.0693548,52.5475455 52.1427419,55.2348103 C49.875,57.3231991 48.6185484,59.2273182 49.216129,61.1160815 L49.9056452,61.1160815 C52.0944927,60.8917183 54.2237638,60.267166 56.1879032,59.2733856 C56.1879032,59.2733856 67.6645161,63.373384 72.8435484,50.6587821 Z" id="Path" fill="url(#linearGradient-14)"></path>
                                    <path d="M44.8185484,51.2730141 C44.8185484,51.2730141 43.408871,50.5973589 43.7766129,49.983127 C44.1443548,49.368895 46.1056452,49.6145878 46.7185484,49.6145878 C47.3314516,49.6145878 47.7758065,50.2288197 46.7185484,50.7202053 C45.6612903,51.2115909 45.6766129,51.2730141 44.8185484,51.2730141 Z" id="Path" fill="url(#linearGradient-15)"></path>
                                    <path d="M51.0395161,20.6996176 C51.0395161,20.6996176 51.0395161,25.413848 41.4322581,30.5580408 C31.825,35.7022335 38.7814516,41.3071003 37.8620968,45.5453009 C37.0386045,49.607501 37.1170725,53.8015327 38.0919355,57.8299404 C38.9806452,62.0834969 42.7806452,69.2392994 39.6241935,76.6254389 C39.6241935,76.6254389 37.341129,81.1246881 36.2532258,75.0898589 C35.1653226,69.0550298 34.2459677,67.6883636 31.4725806,64.1104624 C28.6991935,60.5325611 27.3048387,57.630315 29.5725806,53.1464216 C31.8403226,48.6625282 30.2008065,43.932942 28.4387097,40.8617821 C26.6766129,37.7906223 22.8766129,32.5850063 26.0024194,28.5771426 C29.1282258,24.569279 32.9282258,19.1793934 33.3725806,14.925837 C33.8169355,10.6722806 38.3830645,5.52808777 43.7,5.71235737 C43.7,5.71235737 47.6685484,-1.67378213 61.5048387,0.568164577 C75.341129,2.81011129 75.525,3.80823824 80.3056452,7.72396708 C89.3153226,15.1101066 86.0209677,18.6880078 90.6177419,21.8205909 C95.2145161,24.953174 97.4669355,25.8591661 97.9112903,30.0973668 C98.3556452,34.3355674 103.105645,35.5026082 104.530645,38.0670266 C104.530645,38.0670266 96.6701613,36.9614091 92.1040323,36.6082257 C89.0231625,39.2001816 86.3159161,42.2078641 84.0596774,45.5453009 C81.6080645,49.7988574 85.5919355,56.7396787 82.5274194,59.8722618 C79.4629032,63.0048448 73.5943548,63.450163 73.333871,69.270011 C73.0733871,75.0898589 72.7669355,76.7482853 70.0241935,78.2685094 C67.2814516,79.7887335 69.2120968,75.7040909 68.7064516,72.4947288 C67.8936857,67.7177516 65.6800093,63.2914919 62.3475806,59.780127 C58.5169355,56.2329373 64.6766129,49.1232022 64.6459677,43.088373 C64.6153226,37.0535439 59.5435484,39.725453 59.85,31.8939953 C60.1564516,24.0625376 51.0395161,20.6996176 51.0395161,20.6996176 Z" id="Path" fill="url(#linearGradient-16)"></path>
                                    <path d="M33.3879032,14.8797696 C32.9435484,19.133326 29.1435484,24.5078558 26.0177419,28.5310752 C22.8919355,32.5542947 26.6766129,37.7445549 28.4540323,40.8157147 C30.2314516,43.8868746 31.8556452,48.6318166 29.5879032,53.1003542 C27.3201613,57.5688918 28.6991935,60.4864937 31.4879032,64.064395 C34.2766129,67.6422962 35.1653226,68.9936066 36.2685484,75.0437915 C37.3717742,81.0939765 39.6395161,76.5793715 39.6395161,76.5793715 C42.7040323,69.193232 38.9653226,62.0374295 38.1072581,57.783873 C37.1323951,53.7554653 37.0539271,49.5614336 37.8774194,45.4992335 C38.7967742,41.2456771 31.8403226,35.6408103 41.4475806,30.5119734 C50.1201613,25.9052335 50.9629032,21.6056097 51.0395161,20.8071082 L51.0395161,20.6535502 C51.0395161,20.6535502 47.5766129,12.3460627 51.3612903,8.79887304 C55.1459677,5.25168339 43.7,5.72771317 43.7,5.72771317 C38.3983871,5.48202038 33.8322581,10.6262132 33.3879032,14.8797696 Z" id="Path" fill="url(#linearGradient-17)"></path>
                                </g>
                                <g id="homme" transform="translate(33.000000, 0.000000)">
                                    <path d="M145.560007,138.742915 C145.560007,138.742915 152.328093,133.270975 153.035666,132.719183 C155.328341,132.020297 157.674085,131.5077 160.049865,131.186427 L153.281778,138.696932 L145.560007,138.742915 Z" id="Path" fill="url(#linearGradient-18)"></path>
                                    <path d="M146.298343,145.808921 C146.298343,145.808921 149.267072,148.874433 155.958249,148.383951 L149.543949,143.019304 L146.298343,145.808921 Z" id="Path" fill="url(#linearGradient-19)"></path>
                                    <path d="M13.7515213,169.306072 C15.8533085,170.463674 18.0265168,171.487558 20.2581136,172.371584 C17.4278229,183.407429 8.33705206,197.692716 6.99881677,234.616811 L8.41396214,233.697157 L85.9854632,227.351547 C84.5703178,221.021264 83.1551724,214.905567 81.740027,209.111749 C81.740027,209.111749 80.69405,200.712245 80.3248817,190.105573 L85.1240703,191.147847 C88.3524596,192.294421 91.720185,193.00579 95.137762,193.263051 C99.1986139,193.400999 108.520115,187.653163 112.057978,184.2811 C116.27265,180.326589 103.890128,180.479864 101.136748,180.479864 C98.412669,180.359345 95.6966748,180.098427 92.9996619,179.698159 C92.9996619,179.698159 96.5682894,174.946615 95.8914807,172.233636 C95.2146721,169.520658 93.9533469,175.207183 88.6619337,177.920162 L83.5858688,180.372571 C83.5858688,180.372571 82.1707235,180.112003 80.1556795,179.575538 C80.216954,174.015017 80.7313792,168.468641 81.693881,162.991117 C82.770622,157.319919 84.5395538,151.664049 86.1546653,146.130799 C86.1546653,146.130799 98.4602772,162.991117 112.088742,161.688274 C122.271636,160.676655 136.34618,152.338462 142.852772,148.184693 L142.29902,139.570603 C133.069811,141.28729 106.766565,142.375547 104.551555,137.899899 C101.798174,132.320667 90.984618,96.3468802 80.5709939,91.1661645 C70.1573698,85.9854488 58.6208587,76.0072063 58.6208587,76.0072063 C58.036352,72.2414695 58.1615472,68.4001492 58.990027,64.6801385 C62.4048343,66.2128947 63.2816092,69.4776652 73.8798174,60.2811284 C82.0322853,53.1844675 80.3248817,25.7174776 80.3248817,25.7174776 C79.3865788,19.2339192 65.7119675,9.24034921 49.3455037,16.7355267 C32.9790399,24.2307042 35.3324882,41.182987 40.4854632,55.05443 C43.8387424,64.0976912 43.2849899,68.2054776 41.4699121,72.8957114 C39.6394523,76.0838442 37.270622,78.5822367 27.933739,82.3068341 C23.7036849,83.8395902 16.3818458,87.303619 12.1210277,94.3542973 C8.44472617,100.485322 0.230730223,124.31968 5.42985125,157.841056 C5.42985125,157.887039 7.42951318,165.596802 13.7515213,169.306072 Z" id="Path" fill="url(#linearGradient-20)"></path>
                                    <path d="M36.6861055,78.0304444 L50.2838066,86.1233968 L58.1747803,78.6282193 L59.2515213,76.5589986 L58.6208587,76.0378615 C58.036352,72.2721247 58.1615472,68.4308043 58.990027,64.7107937 C60.8820149,65.5691371 62.06643,67.1172208 65.0351589,66.2435498 C67.250169,63.0247619 60.3282623,60.1125253 58.1747803,54.9777922 C56.0212982,49.8430592 59.2361393,46.5936162 63.5277214,46.8695123 C67.8193036,47.1454084 67.1117309,45.796583 65.2966531,39.297697 C63.4815754,32.798811 69.0037187,37.1365108 71.2802569,28.4764387 C72.5415822,23.7095671 70.0650778,18.5901616 67.5731913,14.942202 C64.5162289,14.1009164 61.3249027,13.8562988 58.1747803,14.2218066 L46.7613252,23.4183434 L37.8859026,46.4709957 C38.5834037,49.3987249 39.4618536,52.2806926 40.5162272,55.1004127 C43.8695064,64.1436739 43.3157539,68.2514603 41.5006761,72.9416941 C40.3561069,75.0182451 38.6990467,76.7696714 36.6861055,78.0304444 Z" id="Path" fill="url(#linearGradient-21)"></path>
                                    <path d="M145.929175,138.742915 C145.929175,138.742915 113.011663,143.7397 105.489858,136.903608 C100.875254,132.719183 92.1228871,95.0593651 79.2173766,86.1233968 C72.5137592,81.4147782 65.5104731,77.1447386 58.2516903,73.3402107 C55.2521974,76.8502222 45.1462137,73.3402107 42.0851927,71.2096797 C40.1778229,73.294228 36.3477011,75.8079481 28.0875592,79.8390967 C22.3500676,82.9046089 13.8284314,89.1429264 9.62914131,96.1936046 C5.95283976,102.247991 -3.96855984,126.511521 2.73799865,158.086297 C3.8921616,162.851242 6.98540667,166.922093 11.2750169,169.3214 L12.7363083,170.287036 C12.2133198,179.115711 11.5518932,188.296921 9.90601758,207.349079 C57.3133874,232.287022 83.5704868,208.437336 83.5704868,208.437336 C83.5704868,208.437336 82.693712,201.064779 82.3245436,190.473434 C81.8784652,182.058603 83.724307,180.311261 83.724307,180.311261 C83.724307,180.311261 84.5856998,180.617812 82.5706558,180.096675 C82.693712,174.364167 83.8627451,166.777025 84.6318458,159.665036 C85.2163624,154.392355 85.6932049,152.108548 86.2623394,146.008179 C86.2623394,146.008179 98.5679513,162.868496 112.196416,161.565654 C125.824882,160.262811 146.436782,145.732283 146.436782,145.732283 C144.175625,139.371345 145.929175,138.742915 145.929175,138.742915 Z" id="Path" fill="url(#linearGradient-22)"></path>
                                    <path d="M69.4651792,53.4910188 C69.4651792,53.4910188 72.7876944,53.7362597 72.7876944,54.2114141 C72.7876944,54.6865685 71.2494929,55.7441703 70.5726842,55.7441703 C69.8958756,55.7441703 68.6499324,53.4297085 69.4651792,53.4910188 Z" id="Path" fill="url(#linearGradient-23)"></path>
                                    <path d="M145.560007,142.728081 C142.052907,144.444768 128.501352,150.943654 121.779412,152.185186 C114.011494,153.625977 100.029243,155.649215 85.1702164,130.879876 C81.3559004,123.718136 75.8952478,117.557257 69.234449,112.900646 C63.7276876,109.114739 35.7631846,101.343665 32.6406356,117.406949 C31.8869168,121.30015 26.0263692,148.70583 35.4555443,156.18568 C43.9156525,162.914479 76.1255916,177.031163 82.5706558,179.820779 C82.709094,174.118926 83.8627451,166.669732 84.6164638,159.665036 C85.2009804,154.392355 85.6778229,152.108548 86.2469574,146.008179 L85.5240027,152.507065 C85.5240027,152.507065 98.5525693,162.929807 112.181034,161.565654 C125.8095,160.201501 146.4214,145.732283 146.4214,145.732283 C146.068889,144.750653 145.781145,143.747113 145.560007,142.728081 Z" id="Path" fill="url(#linearGradient-24)"></path>
                                    <path d="M42.8235294,64.1896566 C42.8235294,64.1896566 35.9785328,48.8620952 32.3945233,41.5201934 C26.1186613,28.568404 33.7635227,18.8813853 36.6861055,16.6742165 C38.9045796,15.5583163 41.24195,14.6945456 43.6541582,14.0991861 C43.6541582,14.0991861 44.1617647,7.89152381 49.0224814,7.12514574 C53.8831981,6.35876768 73.7413793,4.39683983 84.4934077,0.580277056 C84.4934077,0.580277056 87.1237323,-0.584617605 85.5855308,5.28583838 C84.0473293,11.1562944 79.4327248,16.5362684 80.2325896,16.6742165 C81.0324544,16.8121645 88.3235294,12.6737229 88.2466193,14.0991861 C88.1697093,15.5246494 80.1095335,41.0297114 80.1095335,41.0297114 C80.1095335,41.0297114 80.9709263,26.928355 78.7559162,27.5414574 C76.540906,28.1545599 76.7101082,31.8638297 71.6186613,31.6952266 C66.158046,31.4959683 61.3280933,24.4759452 59.5591616,26.0853391 C57.7902299,27.694733 58.6054767,42.2252612 56.7903989,42.6237778 C54.9753212,43.0222944 51.3297836,43.9726032 52.744929,48.1416999 C54.1600744,52.3107965 55.1752874,54.0581385 55.1752874,55.6981876 C55.1752874,57.3382367 42.7466193,68.3127706 42.7466193,68.3127706 L42.8235294,64.1896566 Z" id="Path" fill="url(#linearGradient-25)"></path>
                                    <path d="M12.6747803,170.287036 C12.1517918,179.115711 11.4903651,188.296921 9.84448952,207.349079 C57.2518594,232.287022 83.5089588,208.437336 83.5089588,208.437336 C83.5089588,208.437336 82.6321839,201.064779 82.2630156,190.473434 C39.31643,186.718182 12.6747803,170.287036 12.6747803,170.287036 Z" id="Path" fill="url(#linearGradient-26)"></path>
                                    <polygon id="Path" fill="url(#linearGradient-27)" points="148.897904 142.436857 169.232928 120.089273 181.000169 129.791619 160.895876 152.507065"></polygon>
                                    <polygon id="Path" fill="url(#linearGradient-28)" points="151.374408 140.612877 168.925287 121.269495 179.815754 130.266773 162.480223 149.947362"></polygon>
                                    <path d="M151.359026,140.612877 L161.680358,149.272949 C164.418357,144.260837 165.04902,139.141431 165.89503,133.362941 C166.565392,129.483347 168.26486,125.85301 170.817275,122.848234 L168.925287,121.315478 L151.359026,140.612877 Z" id="Path" fill="url(#linearGradient-29)"></path>
                                    <path d="M159.219236,140.107068 C159.219236,140.107068 158.834686,141.026722 157.050372,141.3486 C155.266058,141.670479 154.173935,140.413619 152.866464,141.869737 C152.130173,142.610674 151.600066,143.529794 151.328262,144.536733 L149.513185,143.003977 L152.8357,138.650949 L155.912103,138.650949 L159.219236,140.107068 Z" id="Path" fill="url(#linearGradient-30)"></path>
                                    <path d="M145.560007,138.742915 C145.560007,138.742915 150.62069,134.788404 151.958925,134.650456 C153.29716,134.512508 158.327079,138.635622 158.880832,139.126104 C159.434584,139.616586 159.649932,140.520912 157.973293,140.229688 C156.296653,139.938465 154.620014,138.77357 153.22025,139.126104 C151.820487,139.478638 151.805105,142.191616 146.236815,145.808921 C144.306955,143.93568 144.020602,140.946107 145.560007,138.742915 Z" id="Path" fill="url(#linearGradient-31)"></path>
                                    <ellipse id="Oval" fill="url(#linearGradient-32)" cx="155.496788" cy="146.161455" rx="1" ry="1"></ellipse>
                                    <polygon id="Path" fill="url(#linearGradient-33)" points="169.232928 120.089273 170.125085 120.365169 181.507776 129.760964 161.61883 152.261824 160.895876 152.507065 181.000169 129.791619"></polygon>
                                </g>
                                <g id="table" transform="translate(32.000000, 184.000000)">
                                    <path d="M210.076642,0.356055021 C94.5153285,0.356055021 0.827737226,22.9456063 0.827737226,50.8122249 L0.827737226,58.5272356 C0.827737226,86.4092842 94.5153285,108.998835 210.076642,108.998835 C325.637956,108.998835 419.310219,86.4092842 419.310219,58.5272356 L419.310219,50.8122249 C419.310219,22.9456063 325.622628,0.356055021 210.076642,0.356055021 Z" id="Path" fill="url(#linearGradient-34)"></path>
                                    <ellipse id="Oval" fill="url(#linearGradient-35)" cx="210.076642" cy="50.0561538" rx="209.20292" ry="49.7000988"></ellipse>
                                </g>
                                <g id="Layer_48" transform="translate(115.000000, 131.000000)">
                                    <ellipse id="Oval" fill="url(#linearGradient-36)" cx="20.8472727" cy="68.9712" rx="13.6843636" ry="2.3864"></ellipse>
                                    <path d="M20.832,42.5688 C15.3490909,42.5688 10.9047273,43.6176 10.9047273,44.9096 L10.9047273,67.7096 C10.9047273,69.0016 15.3490909,70.0504 20.832,70.0504 C26.3149091,70.0504 30.7745455,69.0016 30.7745455,67.7096 L30.7745455,44.9704 C30.7745455,43.6176 26.3301818,42.5688 20.832,42.5688 Z" id="Path" fill="url(#linearGradient-37)"></path>
                                    <ellipse id="Oval" fill="url(#linearGradient-38)" cx="20.9083636" cy="45.0464" rx="8.12509091" ry="1.4136"></ellipse>
                                    <ellipse id="Oval" fill="url(#linearGradient-38)" cx="20.9083636" cy="45.0464" rx="8.12509091" ry="1.4136"></ellipse>
                                    <path d="M19.0012826,40.08048 C19.5553412,39.2779261 20.0466299,38.4341188 20.4708041,37.5565203 C20.8282525,36.8309525 21.0546706,36.0483572 21.1396898,35.2445732 C21.2128916,34.6807848 21.0951982,34.1087814 20.805247,33.6191432 C20.805247,33.5181848 20.6532275,33.4172264 20.6025543,33.316268 C20.5463271,33.2088562 20.4746252,33.1102183 20.3897271,33.0234887 C20.2985154,32.9326261 20.2174384,32.8316678 20.1363613,32.7408052 L19.7715146,32.2965883 C18.7580515,31.064896 17.5216265,29.7019577 16.3156054,28.0159527 C14.8872861,26.1372514 13.853279,23.9913156 13.2752161,21.7060534 C12.9857354,20.3559844 12.9240835,18.9673024 13.0927928,17.597047 C13.1434659,17.2537885 13.1941391,16.91053 13.2549469,16.5874631 C13.3157547,16.2643963 13.4272356,15.9312336 13.5285819,15.5778793 C13.6299282,15.2245249 13.7211399,14.9115539 13.8528901,14.6187746 C13.9846403,14.3259952 14.1265251,14.0231201 14.26841,13.7303408 C14.4102948,13.4375614 14.5521796,13.1346863 14.7143337,12.8721945 L15.2311999,12.1049107 L15.7582007,11.3578186 C15.9102202,11.145806 16.0318358,11.0145601 16.1737206,10.8429309 C16.7311253,10.1867013 17.2581261,9.53047182 17.754723,8.88433814 C18.7499837,7.69578367 19.5784708,6.37799536 20.2174384,4.96715269 C20.5064694,4.26627739 20.6478988,3.51372939 20.6329582,2.75616399 C20.5640703,1.81014199 20.3486965,0.880428161 19.9944765,0 C21.0507099,0.326146431 21.9993751,0.929433811 22.7409615,1.74658011 C23.5559108,2.66874247 24.108731,3.79106353 24.3422332,4.9974402 C24.574168,6.17516347 24.6050045,7.3834248 24.4334448,8.57136714 C24.4334448,8.85405062 24.3625024,9.14682995 24.3118293,9.42951343 C24.2611561,9.71219692 24.1800791,9.97468873 24.1192713,10.2472764 C23.9981029,10.7862352 23.8492661,11.3186486 23.6733475,11.8424189 C23.3331089,12.851998 22.9233731,13.8369971 22.4470572,14.7904038 C22.3355762,15.0125123 22.1936914,15.2750041 22.1126143,15.466825 C22.0315373,15.658646 21.9909988,15.7898919 21.930191,15.9413295 L21.737633,16.3956422 C21.6890135,16.5379811 21.6484118,16.6829138 21.6160174,16.8297633 C21.304558,17.8308448 21.2591622,18.8953004 21.4842672,19.9190899 C21.8537135,21.2954565 22.3843584,22.6237681 23.0652697,23.8766587 C24.0003058,25.6103181 24.8327667,27.3969663 25.5583889,29.2274533 C25.6496006,29.500041 25.7408122,29.7322452 25.8320239,30.0351204 C25.9232356,30.3379956 26.0144473,30.7216375 26.0955243,31.0447043 C26.1781065,31.3961989 26.2289821,31.7543438 26.2475438,32.1148632 C26.2881242,32.4771893 26.2881242,32.8428877 26.2475438,33.2052138 C26.166526,34.6013134 25.6531321,35.9380825 24.7780223,37.0315367 C24.038849,37.9483356 23.1041424,38.6897901 22.0416719,39.202142 C21.0911192,39.6788513 20.0603777,39.9766222 19.0012826,40.08048 Z" id="Path" fill="#000000" opacity="0.2"></path>
                                    <path d="M152.615781,33 C152.949602,32.5194345 153.245604,32.0141668 153.501169,31.488665 C153.716532,31.0541984 153.85295,30.5855841 153.904174,30.1042821 C153.948278,29.7666883 153.877368,29.4241754 153.702672,29.1309824 C153.702672,29.070529 153.61108,29.0100756 153.580549,28.9496222 C153.546672,28.8853045 153.503472,28.8262406 153.45232,28.7743073 C153.397365,28.7198992 153.348516,28.6594458 153.299667,28.6050378 L153.079847,28.3390428 C152.469234,27.6015113 151.724286,26.7853904 150.997657,25.7758186 C150.137092,24.6508613 149.514102,23.3658852 149.165818,21.9974811 C148.991406,21.1890662 148.95426,20.3575301 149.055908,19.5370277 C149.086438,19.3314861 149.116969,19.1259446 149.153606,18.9324937 C149.190243,18.7390428 149.25741,18.5395466 149.318471,18.3279597 C149.379533,18.1163728 149.434488,17.9289673 149.513867,17.7536524 C149.593247,17.5783375 149.678733,17.3969773 149.764219,17.2216625 C149.849704,17.0463476 149.93519,16.8649874 150.032888,16.7078086 L150.344301,16.2483627 L150.66182,15.8010076 C150.753412,15.6740554 150.826685,15.595466 150.912171,15.4926952 C151.248008,15.0997481 151.565527,14.706801 151.864727,14.3198992 C152.464373,13.6081985 152.963537,12.8191132 153.348516,11.9743073 C153.522658,11.5546265 153.607869,11.1040044 153.598867,10.6503778 C153.557362,10.0839044 153.427599,9.52719618 153.214181,9 C153.850563,9.19529492 154.422135,9.55654053 154.868942,10.0458438 C155.35995,10.5980302 155.693025,11.2700707 155.833711,11.9924433 C155.973452,12.6976584 155.992031,13.4211595 155.888666,14.1324937 C155.888666,14.3017632 155.845923,14.4770781 155.815392,14.6463476 C155.784861,14.8156171 155.736012,14.972796 155.699376,15.1360202 C155.626372,15.4587461 155.536697,15.7775527 155.430706,16.0911839 C155.225712,16.695715 154.978845,17.2855278 154.691864,17.8564232 C154.624697,17.9894207 154.539211,18.1465995 154.490362,18.261461 C154.441513,18.3763224 154.417089,18.4549118 154.380452,18.5455919 L154.264435,18.8176322 C154.235142,18.9028641 154.21068,18.9896491 154.191162,19.0775819 C154.003507,19.6770247 153.976156,20.3144157 154.111782,20.9274559 C154.334374,21.7516176 154.654088,22.5470043 155.064338,23.2972292 C155.627699,24.3353362 156.129258,25.4051726 156.566446,26.5012594 C156.621401,26.6644836 156.676356,26.8035264 156.731311,26.9848866 C156.786267,27.1662469 156.841222,27.3959698 156.890071,27.5894207 C156.939827,27.7998939 156.970479,28.0143494 156.981663,28.2302267 C157.006112,28.4471858 157.006112,28.6661643 156.981663,28.8831234 C156.932849,29.7191012 156.623529,30.5195522 156.096274,31.1743073 C155.650921,31.7232821 155.087759,32.1672615 154.447619,32.4740554 C153.87491,32.7595066 153.253887,32.9378104 152.615781,33 Z" id="Path" fill="#000000" opacity="0.2"></path>
                                    <path d="M89.3276163,86 C89.9118031,85.179034 90.4298067,84.3158683 90.8770464,83.418136 C91.2539319,82.6759223 91.492662,81.8753729 91.5823043,81.0531486 C91.6594866,80.4764258 91.5353934,79.8912997 91.2296754,79.3904282 C91.2296754,79.2871537 91.0693895,79.1838791 91.0159609,79.0806045 C90.9566762,78.9707285 90.8810753,78.8698276 90.7915606,78.7811083 C90.6953891,78.6881612 90.6099033,78.5848866 90.5244175,78.4919395 L90.1397314,78.0375315 C89.0711589,76.7775819 87.7675004,75.3833753 86.4958992,73.6586902 C84.9899116,71.7368881 83.899678,69.5417205 83.2901816,67.2040302 C82.9849597,65.8229881 82.9199553,64.4024472 83.0978386,63.0007557 C83.1512672,62.6496222 83.2046958,62.2984887 83.2688102,61.9680101 C83.3329245,61.6375315 83.4504675,61.2967254 83.5573248,60.9352645 C83.664182,60.5738035 83.7603535,60.2536524 83.899268,59.9541562 C84.0381824,59.6546599 84.1877826,59.3448363 84.3373827,59.0453401 C84.4869829,58.7458438 84.636583,58.4360202 84.8075546,58.1675063 L85.3525266,57.3826196 L85.9081843,56.6183879 C86.0684702,56.4015113 86.1966989,56.2672544 86.346299,56.0916877 C86.9340139,55.420403 87.4896716,54.7491184 88.0132721,54.0881612 C89.0626524,52.8723391 89.9361904,51.5243183 90.6099033,50.0811083 C90.9146511,49.3641536 91.063771,48.5943408 91.048018,47.8193955 C90.9753841,46.85167 90.748299,45.9006268 90.3748174,45 C91.488486,45.3336288 92.488737,45.9507567 93.2706488,46.7866499 C94.129913,47.7299683 94.712794,48.8780375 94.9589934,50.1120907 C95.2035402,51.3168331 95.2360536,52.5528142 95.0551649,53.7680101 C95.0551649,54.0571788 94.9803648,54.3566751 94.9269362,54.6458438 C94.8735076,54.9350126 94.7880218,55.2035264 94.7239074,55.4823678 C94.5961502,56.0336912 94.4392201,56.5783193 94.2537355,57.1141058 C93.8949957,58.1468465 93.4629796,59.1544433 92.9607628,60.1297229 C92.8432198,60.356927 92.6936197,60.6254408 92.6081339,60.8216625 C92.5226481,61.0178841 92.4799052,61.1521411 92.4157908,61.3070529 L92.2127621,61.7717884 C92.1614988,61.9173928 92.1186892,62.0656505 92.0845334,62.215869 C91.7561376,63.2399172 91.7082733,64.3287934 91.9456189,65.3760705 C92.3351547,66.7840135 92.8946547,68.142799 93.612592,69.4244332 C94.598473,71.197866 95.4762008,73.0255031 96.2412804,74.8979849 C96.3374519,75.1768262 96.4336235,75.4143577 96.529795,75.7241814 C96.6259665,76.034005 96.722138,76.4264484 96.8076238,76.756927 C96.8946966,77.1164855 96.9483387,77.4828469 96.9679097,77.8516373 C97.0106968,78.2222758 97.0106968,78.596364 96.9679097,78.9670025 C96.8824864,80.3951312 96.3411755,81.7625683 95.4184796,82.8811083 C94.639112,83.8189403 93.6535785,84.5774051 92.5333338,85.1015113 C91.5310926,85.5891571 90.4443021,85.8937595 89.3276163,86 Z" id="Path" fill="#000000" opacity="0.2"></path>
                                    <path d="M98.1638081,56 C98.4559015,55.5795052 98.7149034,55.1373959 98.9385232,54.6775819 C99.1269659,54.2974236 99.246331,53.8873861 99.2911521,53.4662469 C99.3297433,53.1708523 99.2676967,52.8711535 99.1148377,52.6146096 C99.1148377,52.5617128 99.0346947,52.5088161 99.0079804,52.4559194 C98.9783381,52.3996414 98.9405377,52.3479605 98.8957803,52.3025189 C98.8476946,52.2549118 98.8049517,52.2020151 98.7622088,52.1544081 L98.5698657,51.9216625 C98.0355794,51.2763224 97.3837502,50.5622166 96.7479496,49.6788413 C95.9949558,48.6945037 95.449839,47.5701495 95.1450908,46.372796 C94.9924798,45.6654329 94.9599777,44.9378388 95.0489193,44.2198992 C95.0756336,44.0400504 95.1023479,43.8602015 95.1344051,43.690932 C95.1664623,43.5216625 95.2252338,43.3471033 95.2786624,43.1619647 C95.332091,42.9768262 95.3801768,42.8128463 95.449634,42.6594458 C95.5190912,42.5060453 95.5938913,42.3473552 95.6686914,42.1939547 C95.7434914,42.0405542 95.8182915,41.881864 95.9037773,41.7443325 L96.1762633,41.3423174 L96.4540921,40.9508816 C96.5342351,40.8397985 96.5983494,40.7710327 96.6731495,40.6811083 C96.9670069,40.3372796 97.2448358,39.9934509 97.5066361,39.6549118 C98.0313262,39.0321737 98.4680952,38.341724 98.8049517,37.6025189 C98.9573256,37.2352982 99.0318855,36.8410038 99.024009,36.4440806 C98.9876921,35.9484163 98.8741495,35.4612967 98.6874087,35 C99.244243,35.1708831 99.7443685,35.486973 100.135324,35.9151134 C100.564956,36.3982765 100.856397,36.9863119 100.979497,37.6183879 C101.10177,38.2354511 101.118027,38.8685146 101.027582,39.490932 C101.027582,39.6390428 100.990182,39.7924433 100.963468,39.9405542 C100.936754,40.088665 100.894011,40.2261965 100.861954,40.3690176 C100.798075,40.6514028 100.71961,40.9303587 100.626868,41.2047859 C100.447498,41.7337506 100.23149,42.2498368 99.9803814,42.7493703 C99.9216099,42.8657431 99.8468098,43.0032746 99.8040669,43.1037783 C99.761324,43.2042821 99.7399526,43.2730479 99.7078954,43.3523929 L99.606381,43.5904282 C99.5807494,43.6650061 99.5593446,43.740943 99.5422667,43.8178841 C99.3780688,44.3423966 99.3541367,44.9001137 99.4728095,45.4365239 C99.6675773,46.1576654 99.9473273,46.8536287 100.306296,47.5100756 C100.799236,48.4184192 101.2381,49.354526 101.62064,50.313602 C101.668726,50.4564232 101.716812,50.5780856 101.764897,50.7367758 C101.812983,50.895466 101.861069,51.0964736 101.903812,51.2657431 C101.947348,51.4499072 101.974169,51.6375557 101.983955,51.8264484 C102.005348,52.0162876 102.005348,52.2078937 101.983955,52.397733 C101.941243,53.1292135 101.670588,53.8296081 101.20924,54.4025189 C100.819556,54.8828719 100.326789,55.2713538 99.7666669,55.5397985 C99.2655463,55.7895683 98.7221511,55.9455841 98.1638081,56 Z" id="Path" fill="#000000" opacity="0.2"></path>
                                    <path d="M19.0603636,49.7128 C16.3556391,49.5932835 13.6589418,49.3345375 10.9810909,48.9376 C10.9810909,48.9376 14.5243636,44.2256 13.8523636,41.5352 C13.1803636,38.8448 11.928,44.484 6.67418182,47.1744 L1.63418182,49.6064 C1.63418182,49.6064 -0.717818182,51.7192 0.244363636,59.6688 L3.08509091,60.292 C6.29054278,61.429032 9.63434087,62.1344802 13.0276364,62.3896 C17.0596364,62.5264 26.3149091,56.8264 29.8276364,53.4824 C34.0734545,49.5304 21.8552727,49.7128 19.0603636,49.7128 Z" id="Path" fill="url(#linearGradient-39)"></path>
                                    <path d="M29.8429091,50.8832 C27.4145455,49.6368 20.9541818,49.7128 19.0603636,49.7128 C16.3556391,49.5932835 13.6589418,49.3345375 10.9810909,48.9376 C10.9810909,48.9376 14.5243636,44.2256 13.8523636,41.5352 C13.6996364,40.9576 13.5316364,40.7752 13.2872727,40.8664 C13.2872727,40.8664 13.0734545,44.6664 9.11781818,49.804 C9.11781818,49.804 8.14036364,51.02 10.3396364,51.0656 C12.5389091,51.1112 24.4210909,52.16 29.8429091,50.8832 Z" id="Path" fill="url(#linearGradient-40)"></path>
                                    <ellipse id="Oval" fill="url(#linearGradient-36)" cx="91.1018182" cy="113.0512" rx="13.6843636" ry="2.3864"></ellipse>
                                    <path d="M91.0865455,86.6488 C85.6036364,86.6488 81.1592727,87.6976 81.1592727,88.9896 L81.1592727,111.7896 C81.1592727,113.0816 85.6036364,114.1304 91.0865455,114.1304 C96.5694545,114.1304 101.029091,113.0816 101.029091,111.7896 L101.029091,89.0504 C101.029091,87.6976 96.5847273,86.6488 91.0865455,86.6488 Z" id="Path" fill="url(#linearGradient-37)"></path>
                                    <ellipse id="Oval" fill="url(#linearGradient-38)" cx="91.1629091" cy="89.1264" rx="8.12509091" ry="1.4136"></ellipse>
                                    <ellipse id="Oval" fill="url(#linearGradient-36)" cx="153.72" cy="64.4112" rx="13.6843636" ry="2.3864"></ellipse>
                                    <path d="M153.704727,38.0088 C148.221818,38.0088 143.777455,39.0576 143.777455,40.3496 L143.777455,63.1496 C143.777455,64.4416 148.221818,65.4904 153.704727,65.4904 C159.187636,65.4904 163.647273,64.4416 163.647273,63.1496 L163.647273,40.4104 C163.647273,39.0576 159.202909,38.0088 153.704727,38.0088 Z" id="Path" fill="url(#linearGradient-37)"></path>
                                    <ellipse id="Oval" fill="url(#linearGradient-38)" cx="153.781091" cy="40.4864" rx="8.12509091" ry="1.4136"></ellipse>
                                </g>
                                <g id="femme" transform="translate(147.000000, 75.000000)">
                                    <path d="M67.5175,173.168682 C67.5175,173.168682 66.5982692,188.659893 69.5857692,190.749978 C72.5732692,192.840062 81.1374359,192.963008 82.3017949,195.176038 C83.4661538,197.389068 94.435641,208.454219 94.435641,208.454219 L94.435641,217.675179 C94.435641,217.675179 125.76609,217.567601 145.897244,216.138352 L138.957051,188.398633 L67.5175,173.168682 Z" id="Path" fill="url(#linearGradient-41)"></path>
                                    <path d="M74.5802564,177.640847 L109.817436,185.217402 C112.797889,186.021898 115.937368,186.021898 118.917821,185.217402 C123.360769,183.803521 148.026795,178.655153 148.026795,178.655153 L121.369103,168.973145 L74.5802564,177.640847 Z" id="Path" fill="url(#linearGradient-42)"></path>
                                    <path d="M140.979359,165.346235 L74.5802564,177.640847 C72.0523718,177.640847 70.8267308,175.673709 69.9841026,173.030367 L53.1315385,124.743277 C53.1315385,122.196979 55.1893066,120.132797 57.7276923,120.132797 L124.126795,110.911838 C126.665181,110.911838 128.722949,112.97602 128.722949,115.522317 L145.575513,160.735755 C145.575513,163.282052 143.517745,165.346235 140.979359,165.346235 Z" id="Path" fill="url(#linearGradient-43)"></path>
                                    <path d="M138.528077,164.024564 L76.0357051,175.596868 C73.6457051,175.596868 72.4507051,173.675834 71.7,171.263017 L55.8432692,125.819055 C55.8516735,123.429036 57.7810612,121.493635 60.1636538,121.485205 L122.671346,112.802134 C125.053939,112.810565 126.983326,114.745966 126.991731,117.135985 L142.848462,159.690713 C142.840057,162.080732 140.91067,164.016133 138.528077,164.024564 Z" id="Path" fill="#FFFFFF"></path>
                                    <path d="M233.683782,143.046881 C233.683782,143.046881 229.991538,123.698235 225.763077,115.537686 C215.115321,95.0056829 194.601154,91.5785597 190.449295,82.9262262 C186.297436,74.2738926 195.045449,52.7890573 194.539872,38.8193039 C194.034295,24.8495505 168.495,12.9391447 156.146667,34.0551416 C155.264579,38.68003 155.264579,43.4307431 156.146667,48.0556315 C157.586795,55.893447 156.989295,64.2076787 157.985128,67.8345894 C158.980962,71.4615 166.717821,76.8096565 166.717821,76.8096565 C166.717821,76.8096565 168.096667,82.5573878 161.110513,87.3983914 C154.124359,92.2393951 130.699295,105.409999 127.328782,117.489455 C123.958269,129.568912 119.591923,184.264569 113.080705,189.228519 C106.569487,194.192469 112.743654,191.426181 91.7085897,182.881426 C91.7085897,182.881426 85.1973718,186.354654 87.6333333,195.176038 C87.6333333,195.176038 101.345192,213.095436 113.080705,220.579781 C124.816218,228.064126 142.312244,201.89197 142.312244,201.89197 C154.047756,244.400593 151.902885,261.228844 151.902885,261.228844 C198.615128,286.924584 235.70609,261.228844 235.70609,261.228844 L237.391346,226.634878 C240.777179,169.956714 233.683782,143.046881 233.683782,143.046881 Z" id="Path" fill="url(#linearGradient-44)"></path>
                                    <path d="M225.763077,115.537686 C215.115321,95.0056829 194.601154,91.5785597 190.449295,82.9262262 C188.702756,79.330052 189.238974,73.4593746 190.449295,66.8510204 L173.045192,61.9639119 L158.444744,68.8027901 C160.313846,72.3374912 166.763782,76.8096565 166.763782,76.8096565 C166.823812,77.1343889 166.859659,77.4631538 166.871026,77.7932255 L172.769423,81.8965524 C172.769423,81.8965524 172.524295,88.0438586 168.004744,103.811699 C156.23859,144.967914 160.344487,164.869818 166.472692,194.376888 C172.600897,223.883958 173.933782,240.17432 172.708141,261.228844 L194.647115,272.632097 C209.125926,272.711156 223.343389,268.764032 235.72141,261.228844 L237.406667,226.634878 C240.7925,169.972082 233.699103,143.046881 233.699103,143.046881 C233.699103,143.046881 229.991538,123.698235 225.763077,115.537686 Z" id="Path" fill="url(#linearGradient-45)"></path>
                                    <path d="M156.116026,48.0556315 C157.556154,55.893447 156.958654,64.2076787 157.954487,67.8345894 C158.950321,71.4615 166.687179,76.8096565 166.687179,76.8096565 C166.891002,77.9885719 166.817556,79.1989444 166.472692,80.3443575 C173.9788,82.9458632 182.124063,83.0321539 189.683269,80.5902498 C187.615,70.8775059 195.030128,51.667174 194.509231,38.8193039 C193.957692,24.8495505 168.464359,12.9391447 156.116026,34.0551416 C155.233938,38.68003 155.233938,43.4307431 156.116026,48.0556315 Z" id="Path" fill="url(#linearGradient-46)"></path>
                                    <path d="M189.683269,80.5902498 C188.718077,76.1027162 189.805833,69.5865716 191.215321,62.6093791 L190.035641,59.8123547 L161.141154,42.7382116 C161.141154,42.7382116 161.524167,53.0810544 162.749808,55.3094529 C163.806923,57.2612226 164.649551,56.2315488 166.503333,55.1557702 C168.357115,54.0799917 172.463013,54.6178809 171.635705,59.7662499 C170.808397,64.9146189 168.770769,70.5240358 170.961603,73.9972639 C172.163055,76.4377885 172.772024,79.1287664 172.738782,81.8504476 C178.406256,82.7930665 184.216339,82.3609581 189.683269,80.5902498 Z" id="Path" fill="url(#linearGradient-47)"></path>
                                    <path d="M91.7085897,182.881426 C90.1903613,182.199463 88.7559942,181.34338 87.4341667,180.330293 C87.0971154,179.669458 88.1082692,177.456428 85.1820513,175.596868 C82.9643561,174.088345 80.3542637,173.265473 77.675,173.230155 C76.4187179,173.429942 80.8310256,176.073284 81.6889744,177.318113 C82.5469231,178.562943 79.1917308,178.547575 79.1917308,178.547575 L72.5119872,177.010748 C72.5119872,177.010748 71.0565385,176.426754 67.9924359,167.298004 C67.126664,172.845517 67.4504928,178.514468 68.9423077,183.926468 C70.2139103,187.830007 77.4298718,189.48978 78.2571795,189.48978 C79.0844872,189.48978 83.0525,189.566621 87.6333333,195.191406 C86.8705829,190.663901 88.3974237,186.051828 91.7085897,182.881426 Z" id="Path" fill="url(#linearGradient-48)"></path>
                                    <path d="M158.414103,25.6487003 C158.414103,25.6487003 149.712051,27.9232036 150.891731,38.880777 C152.07141,49.8383503 159.685705,47.9941585 158.414103,55.4170308 C157.1425,62.839903 158.582628,66.3746041 160.160641,69.2484698 C161.738654,72.1223355 158.62859,80.0062557 160.160641,82.8954896 C161.692692,85.7847236 163.40859,84.3401066 163.224744,80.8207738 C163.040897,77.301441 165.829231,70.8928742 165.829231,67.8038528 C165.829231,64.7148314 162.688526,60.9803429 165.047885,56.0163931 C167.407244,51.0524433 174.898974,53.3269466 174.898974,57.6607975 C174.898974,61.9946484 172.539615,65.2219842 171.972756,69.1716285 C171.405897,73.1212727 184.550897,86.6146099 193.222308,76.4869229 C201.893718,66.3592359 202.675064,70.3396166 206.413269,65.1605111 C210.151474,59.9814056 206.030256,53.9416773 208.588782,47.732898 C211.147308,41.5241187 211.545641,28.9221409 200.928526,23.3434605 C190.31141,17.7647801 187.615,12.1707314 178.315449,12.5856746 C169.015897,13.0006177 165.522821,22.1293675 158.414103,25.6487003 Z" id="Path" fill="url(#linearGradient-49)"></path>
                                    <path d="M184.229167,1.02873884 C184.229167,1.02873884 178.100962,1.41294548 169.199744,12.0477853 C162.565962,19.9470738 159.501859,26.3095357 166.825064,31.4886412 C173.00792,35.9592718 177.791211,42.1062994 180.613526,49.2082515 C182.145577,53.7418898 193.329551,59.5357259 200.208462,53.9724138 C207.087372,48.4091017 209.262885,49.6385629 212.464872,49.2082515 C215.666859,48.77794 223.664167,43.5988345 219.57359,36.0376479 C215.483013,28.4764612 223.77141,8.58992551 210.090192,5.30111668 C196.408974,2.01230784 194.585833,-1.07671354 184.229167,1.02873884 Z" id="Path" fill="url(#linearGradient-50)"></path>
                                    <polygon id="Path" fill="url(#linearGradient-51)" points="89.2879487 167.282636 78.2725 134.394548 99.1390385 131.397736 110.614103 163.025626"></polygon>
                                    <polygon id="Path" fill="url(#linearGradient-52)" opacity="0.8" points="102.095897 150.746382 92.6125 122.438037 110.568141 119.871537 120.434551 147.073367"></polygon>
                                    <g id="Group" opacity="0.3" transform="translate(0.000000, 55.816606)"></g>
                                    <path d="M210.120833,5.34722147 C196.454936,2.1198857 194.585833,-1.07671354 184.229167,1.02873884 C184.229167,1.02873884 178.100962,1.41294548 169.199744,12.0477853 C164.879359,17.1961542 162.106346,21.6836878 162.688526,25.6179638 C165.063205,28.3381468 168.632885,30.1208656 173.964423,28.3074103 C186.940897,23.8813498 190.571859,24.4038708 196.546859,27.0011077 C202.521859,29.5983446 208.389615,28.061518 210.120833,22.5750472 C211.116667,19.5013941 214.992756,19.2247653 218.439872,18.7176125 C218.256026,12.5395698 216.831218,6.94552109 210.120833,5.34722147 Z" id="Path" fill="url(#linearGradient-53)"></path>
                                    <path d="M71.1178205,36.8060611 C71.1178205,36.8060611 58.8614103,37.5744744 57.4519231,37.6974205 C56.0424359,37.8203667 49.7916667,42.3079002 49.5925,43.6449393 C49.3933333,44.9819784 53.5451923,49.3619341 53.5451923,49.3619341 C53.5451923,49.3619341 51.5688462,52.5739016 51.0632692,53.173264 C50.5576923,53.7726263 47.0492949,62.5786425 47.4169872,63.070427 C47.7846795,63.5622115 49.3473718,64.1308373 52.7332051,57.7683754 C52.7332051,57.7683754 55.6134615,52.251168 58.7235256,53.8648359 C60.6385897,54.8637732 66.7667949,53.4959976 69.9075,49.3619341 C73.0482051,45.2278707 74.0133974,46.288281 74.0133974,46.288281 C74.0133974,46.288281 77.0775,40.1717113 71.1178205,36.8060611 Z" id="Path" fill="url(#linearGradient-54)"></path>
                                    <path d="M63.0439103,49.3619341 C62.2166026,49.3619341 56.6399359,53.7418898 56.6399359,53.7418898 C57.3203134,53.4839154 58.0779917,53.5286236 58.7235256,53.8648359 C60.2555769,54.6332492 64.1316667,54.0031503 67.3183333,51.8054883 C68.2661343,50.9093495 68.6381872,49.5586754 68.2835256,48.3015238 C66.559421,48.7585874 64.809811,49.1126791 63.0439103,49.3619341 Z" id="Path" fill="url(#linearGradient-55)"></path>
                                </g>
                                <g id="chaise_avant" transform="translate(308.000000, 208.000000)">
                                    <path d="M92.4076712,141.975082 L110.94137,14.9560367 C110.94137,14.9560367 114.009863,3.66239012 99.8794521,3.63174251 C85.7490411,3.60109489 12.5194521,9.1483134 12.5194521,9.1483134 C12.5194521,9.1483134 3.54410959,9.60802764 5.73808219,23.3994549 C7.93205479,37.1908821 20.1139726,142.419472 20.1139726,142.419472 L92.4076712,141.975082 Z" id="Path" fill="url(#linearGradient-56)"></path>
                                    <path d="M104.574247,4.15275198 L87.6208219,0.888780867 C84.8358031,0.323011493 81.9867818,0.13743171 79.1517808,0.337123777 L9.72712329,4.93426619 C5.00770002,5.94424856 1.49864876,9.90888005 1.0739726,14.7108557 C0.414246575,22.9550645 3.22191781,37.5586535 3.22191781,37.5586535 L15.9715068,142.266234 L20.1139726,142.526739 L5.52328767,21.7751312 C5.52328767,21.7751312 3.68219178,11.5541513 11.660274,9.36284672 L86.3934247,4.13742817 C86.3934247,4.13742817 101.73589,3.01879018 104.574247,4.15275198 Z" id="Path" fill="url(#linearGradient-57)"></path>
                                </g>
                            </g>
                        </g>
                    </g>
                    <path d="M101.686105,236.030444 L115.283807,244.123397 L123.17478,236.628219 L124.251521,234.558999 L123.620859,234.037861 C123.036352,230.272125 123.161547,226.430804 123.990027,222.710794 C125.882015,223.569137 127.06643,225.117221 130.035159,224.24355 C132.250169,221.024762 125.328262,218.112525 123.17478,212.977792 C121.021298,207.843059 124.236139,204.593616 128.527721,204.869512 C132.819304,205.145408 132.111731,203.796583 130.296653,197.297697 C128.481575,190.798811 134.003719,195.136511 136.280257,186.476439 C137.541582,181.709567 135.065078,176.590162 132.573191,172.942202 C129.516229,172.100916 126.324903,171.856299 123.17478,172.221807 L111.761325,181.418343 L102.885903,204.470996 C103.583404,207.398725 104.461854,210.280693 105.516227,213.100413 C108.869506,222.143674 108.315754,226.25146 106.500676,230.941694 C105.356107,233.018245 103.699047,234.769671 101.686105,236.030444 Z" id="Path" fill="url(#linearGradient-21)"></path>
                    <path d="M107.823529,222.189657 C107.823529,222.189657 100.978533,206.862095 97.3945233,199.520193 C91.1186613,186.568404 98.7635227,176.881385 101.686105,174.674216 C103.90458,173.558316 106.24195,172.694546 108.654158,172.099186 C108.654158,172.099186 109.161765,165.891524 114.022481,165.125146 C118.883198,164.358768 138.741379,162.39684 149.493408,158.580277 C149.493408,158.580277 152.123732,157.415382 150.585531,163.285838 C149.047329,169.156294 144.432725,174.536268 145.23259,174.674216 C146.032454,174.812165 153.323529,170.673723 153.246619,172.099186 C153.169709,173.524649 145.109533,199.029711 145.109533,199.029711 C145.109533,199.029711 145.970926,184.928355 143.755916,185.541457 C141.540906,186.15456 141.710108,189.86383 136.618661,189.695227 C131.158046,189.495968 126.328093,182.475945 124.559162,184.085339 C122.79023,185.694733 123.605477,200.225261 121.790399,200.623778 C119.975321,201.022294 116.329784,201.972603 117.744929,206.1417 C119.160074,210.310797 120.175287,212.058139 120.175287,213.698188 C120.175287,215.338237 107.746619,226.312771 107.746619,226.312771 L107.823529,222.189657 Z" id="Path" fill="url(#linearGradient-25)"></path>
                    <path d="M373.611302,6.54449098 L377.265083,11.4915078 C377.554231,11.8779935 377.462229,12.4319563 377.067936,12.7153791 C376.673643,12.998802 376.10849,12.908622 375.819342,12.5221363 L372.862146,8.52845085 L369.904949,12.5221363 C369.615801,12.908622 369.050648,12.998802 368.656355,12.7153791 L368.643212,12.7024963 C368.248919,12.4190734 368.156917,11.8651106 368.446065,11.4786249 L372.139275,6.49295956 C372.41528,6.13223958 372.914718,6.04205959 373.309011,6.273951 C373.309011,6.28683386 373.322154,6.28683386 373.322154,6.28683386 C373.34844,6.28683386 373.361583,6.29971671 373.374726,6.31259957 L373.387869,6.31259957 C373.401013,6.32548243 373.401013,6.32548243 373.401013,6.32548243 C373.493014,6.38989671 373.55873,6.46719384 373.611302,6.54449098 Z M373.755876,0.876034226 L373.755876,4.38017113 C373.755876,4.86971967 373.34844,5.25620536 372.862146,5.25620536 C372.362708,5.25620536 371.968415,4.85683681 371.968415,4.38017113 L371.968415,0.876034226 C371.968415,0.386485688 372.375851,0 372.862146,0 C373.34844,0 373.755876,0.399368544 373.755876,0.876034226 Z M367.171185,4.28999114 L370.575247,5.37215106 C371.048398,5.52674534 371.298117,6.01629387 371.153543,6.4800767 C370.995826,6.94385953 370.496388,7.18863379 370.023237,7.04692238 L366.619175,5.95187959 C366.146024,5.79728532 365.896305,5.30773678 366.040879,4.84395395 C366.198596,4.39305399 366.698034,4.13539686 367.171185,4.28999114 Z M379.091973,5.95187959 L375.687911,7.03403952 C375.21476,7.18863379 374.715322,6.93097667 374.557605,6.46719384 C374.399888,6.00341102 374.66275,5.51386248 375.135901,5.35926821 L378.539963,4.27710828 C379.013114,4.122514 379.512552,4.38017113 379.670269,4.84395395 C379.827986,5.30773678 379.565124,5.81016817 379.091973,5.95187959 Z" id="Path-4-Copy-14" fill="#4897FF"></path>
                </g>
            </g>
        </g>
    </g>
</svg>